<?xml version="1.0" encoding="UTF-8" standalone="no"?>
<svg
   xmlns:dc="http://purl.org/dc/elements/1.1/"
   xmlns:cc="http://creativecommons.org/ns#"
   xmlns:rdf="http://www.w3.org/1999/02/22-rdf-syntax-ns#"
   xmlns:svg="http://www.w3.org/2000/svg"
   xmlns="http://www.w3.org/2000/svg"
   xmlns:sodipodi="http://sodipodi.sourceforge.net/DTD/sodipodi-0.dtd"
   xmlns:inkscape="http://www.inkscape.org/namespaces/inkscape"
   enable-background="new 0 0 144.083 144"
   height="144px"
   id="Youtube"
   version="1.1"
   viewBox="0 0 144.083 144"
   width="144.083px"
   xml:space="preserve"
   sodipodi:docname="iconmonstr-youtube-10.svg"
   inkscape:version="1.0.1 (3bc2e813f5, 2020-09-07)"><metadata
     id="metadata3762"><rdf:RDF><cc:Work
         rdf:about=""><dc:format>image/svg+xml</dc:format><dc:type
           rdf:resource="http://purl.org/dc/dcmitype/StillImage" /><dc:title></dc:title></cc:Work></rdf:RDF></metadata><defs
     id="defs3760" /><sodipodi:namedview
     pagecolor="#ffffff"
     bordercolor="#666666"
     borderopacity="1"
     objecttolerance="10"
     gridtolerance="10"
     guidetolerance="10"
     inkscape:pageopacity="0"
     inkscape:pageshadow="2"
     inkscape:window-width="1920"
     inkscape:window-height="976"
     id="namedview3758"
     showgrid="false"
     inkscape:zoom="4.6362169"
     inkscape:cx="38.201614"
     inkscape:cy="62.188314"
     inkscape:window-x="-8"
     inkscape:window-y="-8"
     inkscape:window-maximized="1"
     inkscape:current-layer="Youtube" /><path
     d="M72.041,11.166c-33.543,0-60.833,27.29-60.833,60.834s27.29,60.834,60.833,60.834c33.544,0,60.835-27.29,60.835-60.834  S105.584,11.166,72.041,11.166z M72.041,126.834c-30.235,0-54.833-24.599-54.833-54.834s24.598-54.834,54.833-54.834  c30.235,0,54.835,24.599,54.835,54.834S102.276,126.834,72.041,126.834z"
     id="path3753"
     style="fill:#f5f5f5;fill-opacity:1" /><path
     d="M96.375,50.418c0,0-6.875-1-24.75-1c-17.938,0-24.251,1-24.251,1c-4.446,0-8.051,3.604-8.051,8.05v26.563  c0,4.445,3.604,8.049,8.051,8.049c0,0,6.313,1,24.271,1c17.854,0,24.729-1,24.729-1c4.445,0,8.051-3.604,8.051-8.049V58.468  C104.426,54.022,100.821,50.418,96.375,50.418z M62.019,84.496v-25.35l21.954,12.674L62.019,84.496z"
     id="path3755"
     style="fill:#418dbb;fill-opacity:1" /><path
     style="fill:#f5f5f5;fill-opacity:1;fill-rule:evenodd;stroke-width:0.215693"
     d="M 66.888796,126.53413 C 52.181583,125.02662 38.834552,117.87622 29.612169,106.56393 23.244852,98.753704 19.172064,89.246065 17.671314,78.688836 17.308334,76.135405 17.314138,67.85988 17.680769,65.208017 18.546415,58.946744 20.26477,53.32265 22.985855,47.844723 25.943901,41.889758 28.953487,37.721768 33.669597,33.048755 41.841983,24.95105 52.344509,19.658583 63.869093,17.830525 c 3.543186,-0.562029 12.894289,-0.56631 16.284829,-0.0075 16.693363,2.751525 30.347878,11.961856 38.933278,26.261521 3.78602,6.305915 6.1355,13.042971 7.25375,20.799888 0.5586,3.874784 0.50667,10.89905 -0.11049,14.946855 -2.72378,17.864427 -13.57779,32.931181 -29.525673,40.985361 -6.099514,3.08045 -11.418273,4.69596 -18.241754,5.54073 -2.363352,0.29259 -9.396215,0.39996 -11.574237,0.17671 z M 86.516869,93.895226 c 5.53781,-0.260391 9.892231,-0.603263 11.431734,-0.900152 3.483597,-0.671802 6.019207,-3.415239 6.483157,-7.014545 0.26368,-2.045687 0.24639,-26.778473 -0.02,-28.621463 -0.39936,-2.762772 -2.16806,-5.179693 -4.607911,-6.296694 -2.378387,-1.088862 -12.290208,-1.674945 -28.277633,-1.672049 -14.404001,0.0026 -24.469222,0.548456 -27.069485,1.468005 -2.284461,0.80787 -4.460293,3.252118 -4.962548,5.574738 -0.169248,0.782674 -0.221415,5.580269 -0.173984,16.00067 l 0.06774,14.882824 0.636368,1.25701 c 0.835871,1.651081 2.742995,3.417202 4.332021,4.011732 1.363495,0.510151 5.932772,1.006084 11.855673,1.286774 5.305349,0.251422 25.128061,0.266566 30.30488,0.02315 z"
     id="path4429" /><path
     style="fill:#f5f5f5;fill-opacity:1;fill-rule:evenodd;stroke-width:0.215693"
     d="m 65.378945,126.31126 c -2.004866,-0.22455 -7.304594,-1.43037 -9.814037,-2.23291 -8.363832,-2.67486 -15.434159,-6.94052 -21.75181,-13.12329 C 25.76307,103.0769 20.787807,93.786842 18.330536,82.045269 17.73362,79.193023 17.662634,78.419121 17.557744,73.620048 c -0.07256,-3.319933 -0.02372,-6.125848 0.131384,-7.547692 1.111484,-10.189045 5.88149,-21.425219 12.270577,-28.904442 8.311177,-9.729268 18.510201,-15.914347 30.735309,-18.639072 3.836147,-0.854998 6.647978,-1.055092 13.049933,-0.928651 5.38302,0.106317 5.973191,0.158117 8.975261,0.787779 5.490744,1.151641 11.360832,3.316354 15.942533,5.87913 13.141719,7.350825 22.915149,20.190195 26.438039,34.731672 1.29241,5.334679 1.41621,6.464352 1.41331,12.895732 -0.003,6.387024 -0.26215,8.693102 -1.52772,13.588665 -2.96274,11.460627 -9.67056,21.884571 -18.73358,29.111991 -6.13511,4.89252 -14.676104,9.04596 -21.904858,10.65221 -4.492499,0.99824 -6.890767,1.22032 -12.775226,1.18297 -2.991359,-0.019 -5.778552,-0.0726 -6.193761,-0.11908 z M 87.918874,93.894536 c 3.808113,-0.198984 7.433533,-0.490784 9.643828,-0.776206 2.276339,-0.293951 4.963008,-2.160242 5.978578,-4.153016 1.02969,-2.020466 1.08345,-2.881588 1.07247,-17.178657 -0.006,-7.355135 -0.095,-13.886773 -0.19864,-14.514748 -0.4037,-2.446883 -2.14226,-4.987137 -4.08805,-5.97314 -2.86238,-1.450477 -12.681293,-2.043916 -31.712719,-1.916657 -15.976291,0.106828 -22.64924,0.595177 -25.020359,1.831073 -1.236642,0.644573 -2.912034,2.362924 -3.621487,3.714345 l -0.584569,1.113531 -0.05939,15.580207 -0.05939,15.580209 0.525937,1.037888 c 0.73579,1.452013 2.325355,3.150325 3.648941,3.898579 1.59007,0.898901 6.029515,1.508842 13.307196,1.82829 3.8626,0.169546 27.595601,0.11495 31.167654,-0.0717 z"
     id="path4431" /><path
     style="fill:#f5f5f5;fill-opacity:1;fill-rule:evenodd;stroke-width:0.215693"
     d="M 66.241717,132.48721 C 55.109953,131.43092 44.588189,127.3002 35.289757,120.33584 32.388943,118.16318 26.807623,112.72588 24.532839,109.85649 10.509519,92.16761 7.393051,68.508816 16.350098,47.736876 c 1.822549,-4.226601 4.214166,-8.292582 7.358523,-12.5102 2.265487,-3.038764 8.139545,-8.964228 11.151469,-11.249058 8.95207,-6.790997 18.416645,-10.714957 29.656082,-12.295247 2.750007,-0.386657 12.361579,-0.385454 15.098517,0.0019 5.281324,0.747436 9.980707,1.959198 14.559285,3.754189 15.589626,6.111775 28.023986,18.463023 34.252996,34.024038 8.12138,20.288447 4.73965,43.220403 -8.90618,60.394002 -3.16371,3.9816 -7.93355,8.50639 -12.20489,11.57784 -8.540606,6.14142 -19.091074,10.07587 -29.642449,11.05417 -2.80497,0.26007 -8.684334,0.25941 -11.431734,-0.001 z m 10.676809,-5.81297 c 23.793564,-2.22276 43.435904,-19.44031 48.714554,-42.700923 0.94779,-4.17645 1.11108,-6.005931 1.08776,-12.18666 -0.0126,-3.345967 -0.12503,-6.520379 -0.25203,-7.117872 -0.19773,-0.930235 -0.20942,-0.811649 -0.0851,0.862772 0.0793,1.067681 0.13428,4.319254 0.12218,7.225719 -0.0184,4.411196 -0.10104,5.741908 -0.5003,8.052497 -1.53632,8.890973 -5.07477,17.065155 -10.56262,24.400717 -2.19085,2.92849 -7.31689,8.01073 -10.41009,10.32114 -5.656251,4.22483 -12.567891,7.61202 -19.033705,9.32786 -4.656394,1.23567 -6.259932,1.42324 -13.394561,1.5668 -3.748824,0.0754 -6.117907,0.1923 -5.392328,0.26599 2.202789,0.22373 7.217919,0.21441 9.70619,-0.0181 z m -11.375297,-0.35758 c -0.206222,-0.054 -0.594469,-0.0559 -0.862772,-0.004 -0.268303,0.0516 -0.09958,0.0958 0.374948,0.0982 0.474525,0.002 0.694046,-0.0398 0.487824,-0.0938 z m -3.775487,-0.60991 C 52.525631,123.80657 44.719669,120.15218 37.602533,114.3937 27.216762,105.99056 20.646244,94.660721 18.021989,80.630074 17.548542,78.098778 17.343207,68.899452 17.693435,65.910314 c 0.961791,-8.20874 4.109436,-16.915237 8.59767,-23.781459 4.103081,-6.277003 9.963482,-12.063273 16.440064,-16.232105 4.890563,-3.147948 9.734066,-5.236806 16.176982,-6.976649 1.482891,-0.40044 2.259386,-0.669721 1.725545,-0.598404 -1.544962,0.206395 -5.929051,1.523404 -8.627724,2.591823 -18.645644,7.381914 -31.714105,24.114039 -34.427435,44.078964 -0.493973,3.634694 -0.493973,10.385038 0,14.019732 2.68421,19.750653 15.549677,36.401644 33.888202,43.859444 3.977185,1.61742 10.361651,3.36799 12.186661,3.34148 0.296578,-0.004 -0.551968,-0.23218 -1.885658,-0.50639 z M 87.487488,93.883587 c 2.965506,-0.141434 4.362067,-0.237851 7.962692,-0.549733 3.281447,-0.284233 4.77096,-0.852824 6.48787,-2.476609 1.71487,-1.621849 2.30042,-2.955511 2.48674,-5.663881 0.1876,-2.726991 0.19485,-22.58199 0.01,-26.25003 -0.12072,-2.389951 -0.20975,-2.855673 -0.76283,-3.990322 -1.18378,-2.42851 -3.44581,-4.10695 -6.046486,-4.486529 -4.122818,-0.601738 -10.045583,-0.953985 -17.147601,-1.019818 -7.434536,-0.06892 -20.406369,-1.45e-4 -22.971316,0.121789 -1.186312,0.05639 -3.321674,0.158674 -4.745248,0.227288 -3.066229,0.147789 -7.068684,0.639187 -8.104945,0.995083 -1.708889,0.586901 -3.779575,2.457933 -4.762497,4.303295 l -0.504383,0.946941 -0.06229,15.63775 -0.06229,15.637749 0.7772,1.294159 c 1.280987,2.133039 2.740319,3.409338 4.630716,4.049918 1.185125,0.401593 6.639324,1.004164 11.068942,1.222879 4.149407,0.20488 27.450718,0.204932 31.746138,7.1e-5 z M 125.88953,61.268706 c -2.39852,-12.079383 -9.22563,-23.513608 -18.77397,-31.443153 -1.81506,-1.507339 -4.98472,-3.822688 -5.71587,-4.175288 -0.45455,-0.219208 0.15959,0.256397 3.13581,2.428441 10.58596,7.725655 18.40666,20.00018 21.08135,33.087031 0.26172,1.280557 0.50951,2.227311 0.55065,2.103905 0.0411,-0.123409 -0.084,-1.023831 -0.27797,-2.000936 z M 100.96831,25.437222 c 0,-0.13921 -2.804935,-1.752405 -4.637405,-2.6671 -2.580928,-1.288294 -6.366693,-2.747036 -9.274804,-3.573792 -2.638366,-0.75007 -6.731111,-1.575915 -6.912252,-1.394774 -0.05509,0.05509 0.604077,0.220087 1.464809,0.366667 5.542379,0.943847 12.854327,3.607257 17.74195,6.462583 1.576342,0.92089 1.617702,0.941507 1.617702,0.806416 z m -37.63845,-7.45362 c 0.725404,-0.150044 0.759745,-0.178344 0.215693,-0.177743 -0.355893,3.88e-4 -0.938265,0.07481 -1.294158,0.165369 -0.89698,0.228243 -0.01415,0.238372 1.078465,0.01237 z M 78.637841,17.45054 c -1.670694,-0.25574 -11.474841,-0.25574 -13.14242,0 -0.906273,0.138986 1.032711,0.197148 6.57241,0.197148 5.541452,0 7.478264,-0.05812 6.57001,-0.197148 z"
     id="path4433" /><path
     style="fill:#f5f5f5;fill-opacity:1;fill-rule:evenodd;stroke-width:0.215693"
     d="m 66.996643,132.59348 c -0.355894,-0.049 -1.569167,-0.19392 -2.696164,-0.32213 -6.532307,-0.74312 -14.318088,-3.22313 -20.706538,-6.59567 C 35.012039,121.1452 26.859055,113.75843 21.49154,105.65047 16.180457,97.627761 13.074804,89.34191 11.760835,79.689064 11.347326,76.651289 11.195491,69.786725 11.476314,66.825716 c 1.185837,-12.503481 5.92354,-24.061923 13.726228,-33.487493 2.354139,-2.843778 7.203603,-7.53144 9.87735,-9.547795 8.551043,-6.448601 17.739977,-10.327344 28.357815,-11.970124 3.003729,-0.464734 10.812132,-0.655262 14.16985,-0.34575 11.493541,1.059466 22.473983,5.438882 31.988473,12.758211 2.6266,2.0206 8.09647,7.487985 10.13574,10.131139 4.9566,6.424382 8.70897,13.770322 10.76298,21.070474 4.206,14.948535 2.60478,30.752964 -4.50301,44.445628 -6.71949,12.944644 -17.81585,23.046184 -31.278533,28.474304 -4.612145,1.85961 -8.962819,3.02813 -14.343592,3.85247 -2.048051,0.31376 -11.84428,0.59704 -13.372972,0.3867 z m 11.539581,-6.12622 c 0.856582,-0.17399 0.793228,-0.18583 -0.539233,-0.10079 -0.830418,0.053 -3.293235,0.10793 -5.472923,0.12208 -2.589894,0.0168 -3.860411,0.0972 -3.666783,0.23188 0.353357,0.24587 8.237354,0.0397 9.678939,-0.25317 z m -13.215696,-0.13272 c -0.07167,-0.0717 -0.25771,-0.0793 -0.413412,-0.017 -0.172065,0.0688 -0.120956,0.11996 0.130315,0.13031 0.227375,0.009 0.35477,-0.0416 0.283097,-0.11329 z m 16.235399,-0.31164 c 0.36365,-0.1236 0.188067,-0.14271 -0.539232,-0.0587 -0.593157,0.0685 -1.118908,0.16065 -1.168339,0.20477 -0.169845,0.15158 1.168684,0.0371 1.707571,-0.14606 z m -20.922231,-0.54124 c -1.245627,-0.28693 -2.910748,-0.71693 -3.700267,-0.95555 -1.52913,-0.46218 -2.150402,-0.55213 -1.260674,-0.18253 0.900273,0.37398 6.110256,1.67175 6.686486,1.66556 0.296578,-0.003 -0.479917,-0.24056 -1.725545,-0.52748 z m 23.187009,0.11035 c 0.300654,-0.13621 0.169923,-0.15563 -0.431386,-0.0641 -0.474525,0.0723 -0.903215,0.16703 -0.952646,0.21061 -0.185319,0.16338 0.969964,0.0411 1.384032,-0.14654 z m 1.343589,-0.33593 c -0.07167,-0.0717 -0.25771,-0.0793 -0.413413,-0.017 -0.172065,0.0689 -0.120956,0.11996 0.130316,0.13031 0.227375,0.009 0.35477,-0.0416 0.283097,-0.11328 z m 0.862772,-0.2157 c -0.07167,-0.0717 -0.25771,-0.0793 -0.413412,-0.017 -0.172065,0.0688 -0.120957,0.11996 0.130315,0.13031 0.227375,0.009 0.35477,-0.0416 0.283097,-0.11329 z m 1.509852,-0.43138 c -0.07167,-0.0717 -0.25771,-0.0793 -0.413413,-0.017 -0.172064,0.0688 -0.120956,0.11996 0.130316,0.13031 0.227375,0.009 0.35477,-0.0416 0.283097,-0.11328 z m 1.676114,-0.51677 c 0.284444,-0.12222 0.32118,-0.18941 0.107847,-0.19723 -0.177947,-0.007 -0.469133,0.0822 -0.647079,0.19723 -0.394281,0.25481 -0.05373,0.25481 0.539232,0 z m -34.834436,-0.3062 c 0,-0.0498 -0.509575,-0.25773 -1.132388,-0.4621 -0.622814,-0.20438 -2.46699,-0.97804 -4.098169,-1.71925 -1.631179,-0.74122 -2.965781,-1.30344 -2.965781,-1.24938 0,0.15453 4.464069,2.21841 6.2551,2.89193 1.642943,0.61783 1.941238,0.70062 1.941238,0.5388 z m 37.52356,-0.6502 c 3.842961,-1.48415 8.771994,-4.17365 12.193704,-6.65341 4.12364,-2.98848 8.6224,-7.36611 11.58973,-11.27769 2.3252,-3.06512 6.69275,-10.462233 6.36867,-10.786315 -0.0484,-0.04841 -0.58667,0.906004 -1.19613,2.120928 -4.17253,8.317697 -10.87686,15.884717 -18.56536,20.954277 -2.703057,1.7823 -7.271841,4.17025 -10.167881,5.31439 -1.245627,0.49211 -2.30522,0.93385 -2.35465,0.98164 -0.21606,0.20889 0.338261,0.0389 2.131917,-0.65382 z m -45.958883,-3.02126 c -0.05235,-0.0524 -1.160477,-0.73876 -2.462495,-1.52535 -1.302019,-0.78659 -2.221715,-1.28864 -2.043768,-1.11566 0.333602,0.32428 4.291529,2.7362 4.490068,2.7362 0.06126,0 0.06855,-0.0428 0.0162,-0.0952 z m -4.937649,-3.0027 c 0,-0.043 -0.703699,-0.5998 -1.563775,-1.23732 -0.860076,-0.63752 -2.427455,-1.93158 -3.483066,-2.87567 -1.055611,-0.94411 -1.880637,-1.61433 -1.833392,-1.4894 0.126295,0.33398 3.211953,3.01052 5.118609,4.43995 1.648426,1.23584 1.761624,1.31054 1.761624,1.16244 z m -7.135846,-6.01744 c -0.04943,-0.0309 -0.332528,-0.24932 -0.629106,-0.48531 l -0.539232,-0.42909 0.410893,0.48531 c 0.22599,0.26692 0.509087,0.48531 0.629103,0.48531 0.120018,0 0.17777,-0.0253 0.128342,-0.0562 z m -2.466714,-2.58602 c -1.781502,-1.91182 -2.211429,-2.32494 -1.515133,-1.45593 1.188118,1.48283 2.385303,2.77999 2.576725,2.7919 0.107031,0.007 -0.370685,-0.59453 -1.061592,-1.33597 z m -3.330816,-4.05064 C 24.151944,99.170454 20.593054,91.638433 19.10713,85.484034 c -0.214703,-0.88926 -0.428844,-1.501412 -0.475867,-1.360342 -0.138006,0.414017 1.186884,4.928896 2.229165,7.596411 0.943381,2.414404 2.493309,5.673208 3.672297,7.721201 1.243917,2.160776 4.458962,6.748406 4.729335,6.748406 0.05189,0 -0.483526,-0.77938 -1.189812,-1.73194 z M 85.761943,93.889025 c 6.408874,-0.258528 12.072448,-0.759337 13.238078,-1.170595 1.637769,-0.577839 3.448839,-2.056601 4.390869,-3.585199 1.02236,-1.658941 1.06622,-2.223977 1.1122,-14.32687 0.0239,-6.287454 -0.0127,-13.033256 -0.0814,-14.990671 -0.11631,-3.315973 -0.16566,-3.643117 -0.72292,-4.792004 -1.10629,-2.280804 -3.29395,-3.999906 -5.691612,-4.47255 -1.194133,-0.235396 -2.424742,-0.368348 -5.127353,-0.553947 -1.067681,-0.07332 -2.232423,-0.183948 -2.588317,-0.245834 -0.355894,-0.06189 -6.983179,-0.163694 -14.727301,-0.226239 -19.889729,-0.160637 -28.883474,0.310219 -31.646716,1.65683 -1.471243,0.716979 -3.004456,2.198997 -3.911249,3.780649 l -0.618306,1.078466 -0.06199,15.597402 -0.06199,15.597402 0.650729,1.137357 c 1.586815,2.773463 3.640552,4.216996 6.646624,4.671789 2.652773,0.401343 7.776351,0.79063 10.936455,0.830949 1.656226,0.02114 3.055535,0.08263 3.109574,0.136676 0.188572,0.18857 19.805344,0.09217 25.154607,-0.123611 z m 38.259077,-4.433777 c 1.02516,-3.058526 2.2047,-7.763636 2.16485,-8.635452 -0.0102,-0.222977 -0.2499,0.662266 -0.53269,1.967209 -0.66355,3.061964 -1.85908,7.035797 -2.80207,9.31382 -0.40969,0.989685 -0.74059,1.871086 -0.73535,1.958671 0.0281,0.469378 0.95747,-1.776537 1.90526,-4.604248 z M 18.343469,82.262153 c -0.143018,-0.726946 -0.302092,-1.279658 -0.353499,-1.228252 -0.05141,0.05141 0.02355,0.68824 0.166565,1.415184 0.143017,0.726947 0.302092,1.279658 0.353499,1.228252 0.05141,-0.05141 -0.02355,-0.68824 -0.166565,-1.415184 z m -0.37607,-2.279158 c -0.04847,-0.415209 -0.126045,-0.754926 -0.172382,-0.754926 -0.04634,0 -0.08425,0.339717 -0.08425,0.754926 0,0.415209 0.07757,0.754926 0.172382,0.754926 0.09481,0 0.132721,-0.339717 0.08425,-0.754926 z M 126.35308,79.281992 c -0.0543,-0.207604 -0.0986,-0.03775 -0.0986,0.377463 0,0.41521 0.0444,0.585068 0.0986,0.377463 0.0542,-0.207604 0.0542,-0.547321 0,-0.754926 z M 17.647298,77.664294 c -0.05141,-0.26692 -0.09347,-0.04853 -0.09347,0.48531 0,0.53384 0.04206,0.752229 0.09347,0.485309 0.05141,-0.26692 0.05141,-0.703699 0,-0.970619 z M 126.57612,76.585829 c -0.0478,-0.385552 -0.087,-0.0701 -0.087,0.701002 0,0.771103 0.0391,1.086554 0.087,0.701003 0.0478,-0.385552 0.0478,-1.016454 0,-1.402005 z M 17.440561,69.587972 c -0.03763,-1.400609 -0.06854,-0.31414 -0.06869,2.414378 -1.52e-4,2.728518 0.03064,3.874472 0.06841,2.546564 0.03778,-1.327909 0.0379,-3.560332 2.81e-4,-4.960942 z M 126.7948,72.056273 c -0.0436,-0.622813 -0.0792,-0.113238 -0.0792,1.132389 0,1.245628 0.0357,1.755203 0.0792,1.132389 0.0436,-0.622814 0.0436,-1.641964 0,-2.264778 z m -0.0117,-1.927757 c -0.0688,-0.172065 -0.11996,-0.120956 -0.13031,0.130316 -0.009,0.227375 0.0416,0.35477 0.11329,0.283097 0.0717,-0.07167 0.0793,-0.25771 0.017,-0.413413 z m -0.20855,-4.219496 c -0.0494,-0.326236 -0.0898,-0.05932 -0.0898,0.593156 0,0.652472 0.0404,0.919392 0.0898,0.593156 0.0494,-0.326236 0.0494,-0.860076 0,-1.186312 z M 17.643759,65.261941 c -0.05425,-0.207605 -0.09864,-0.03775 -0.09864,0.377463 0,0.415209 0.04439,0.585067 0.09864,0.377463 0.05425,-0.207605 0.05425,-0.547322 0,-0.754926 z m 0.215693,-1.509852 c -0.05425,-0.207605 -0.09864,-0.03775 -0.09864,0.377463 0,0.415209 0.04439,0.585067 0.09864,0.377463 0.05425,-0.207605 0.05425,-0.547321 0,-0.754926 z m 0.216483,-1.290054 c -0.05469,-0.209863 -0.103028,-0.09038 -0.107424,0.265512 -0.0044,0.355893 0.04035,0.527598 0.09943,0.381567 0.05908,-0.14603 0.06268,-0.437216 0.008,-0.647079 z m 108.060115,0.332916 c -0.0689,-0.172065 -0.11997,-0.120957 -0.13031,0.130315 -0.009,0.227375 0.0416,0.35477 0.11328,0.283097 0.0717,-0.07167 0.0793,-0.25771 0.017,-0.413412 z m -0.22019,-1.30764 c -0.0598,-0.148289 -0.10879,-0.02696 -0.10879,0.269617 0,0.296578 0.049,0.417905 0.10879,0.269616 0.0598,-0.148289 0.0598,-0.390944 0,-0.539233 z M 18.285005,61.271618 c -0.05984,-0.148289 -0.108793,-0.02696 -0.108793,0.269617 0,0.296578 0.04896,0.417905 0.108793,0.269616 0.05983,-0.148289 0.05983,-0.390944 0,-0.539233 z M 125.65318,60.151213 c -0.0812,-0.432863 -0.19078,-0.743886 -0.24351,-0.69116 -0.0527,0.05272 -0.0294,0.450024 0.0518,0.882886 0.0812,0.432863 0.19078,0.743886 0.24351,0.69116 0.0527,-0.05272 0.0294,-0.450024 -0.0518,-0.882886 z M 18.505191,60.422327 c -0.06885,-0.172065 -0.119965,-0.120957 -0.130314,0.130315 -0.0094,0.227375 0.04161,0.35477 0.113286,0.283097 0.07167,-0.07167 0.07934,-0.25771 0.01703,-0.413412 z m 0.929527,-3.163178 c 0.881551,-3.172387 2.686209,-7.65271 4.421955,-10.978134 1.382156,-2.648002 1.703749,-3.452999 0.684966,-1.714577 -1.010186,1.723752 -2.705118,5.249463 -3.58343,7.454071 -0.971344,2.438119 -2.394004,7.068942 -2.367639,7.706768 0.02082,0.503678 0.0076,0.542421 0.844148,-2.468128 z M 124.58573,56.199692 c -0.85093,-2.712977 -2.40268,-6.706929 -2.74329,-7.060811 -0.11419,-0.118631 -0.0425,0.172555 0.1593,0.64708 0.93337,2.194733 2.11784,5.494658 2.64335,7.364355 0.31739,1.129225 0.61251,1.946823 0.65583,1.816883 0.0433,-0.129938 -0.27852,-1.375318 -0.71519,-2.767507 z m -4.10439,-9.907742 c -1.49274,-2.796897 -3.63557,-6.031245 -5.70311,-8.608154 -1.53097,-1.908148 -4.25264,-4.829744 -4.49924,-4.829744 -0.0731,0 0.55465,0.703699 1.39502,1.563775 3.14643,3.220197 6.61435,8.055779 8.81352,12.289358 0.59261,1.140814 1.11341,2.038266 1.15734,1.994338 0.0439,-0.04393 -0.47966,-1.128235 -1.16353,-2.409573 z M 27.073324,40.97414 c 0.799237,-1.168936 1.346802,-2.059604 1.21681,-1.979264 -0.209083,0.129221 -2.450771,3.368291 -2.915338,4.212445 -0.405736,0.737254 0.319501,-0.216269 1.698528,-2.233181 z m 5.519633,-6.687866 c 4.628935,-4.786261 8.740874,-7.880762 14.553603,-10.952536 1.308418,-0.691441 2.290686,-1.258781 2.18282,-1.260754 -0.107866,-0.002 -1.294305,0.573218 -2.636533,1.278202 -4.590094,2.410872 -9.112058,5.70592 -12.939416,9.428642 -1.741472,1.693861 -4.314381,4.553393 -4.928151,5.477146 -0.122105,0.183775 0.165952,-0.10741 0.640127,-0.647079 0.474175,-0.539668 1.881572,-2.035297 3.12755,-3.323621 z m 76.881653,-2.315166 c -0.34843,-0.366987 -1.11881,-1.058943 -1.71197,-1.537678 -0.66481,-0.53657 -0.45799,-0.284244 0.53923,0.657859 1.68978,1.596386 2.25735,2.022188 1.17274,0.879819 z m -3.11398,-2.649582 c 0,-0.04479 -0.16985,-0.214648 -0.37746,-0.377463 -0.3421,-0.268294 -0.34973,-0.260665 -0.0814,0.08144 0.28178,0.35929 0.4589,0.473549 0.4589,0.296026 z m -0.86277,-0.647079 c 0,-0.04479 -0.16986,-0.214648 -0.37746,-0.377463 -0.3421,-0.268294 -0.34973,-0.260665 -0.0814,0.08144 0.28178,0.359291 0.4589,0.47355 0.4589,0.296027 z m -0.86277,-0.647079 c 0,-0.04479 -0.16986,-0.214648 -0.37746,-0.377463 -0.34211,-0.268295 -0.34973,-0.260665 -0.0814,0.08144 0.28177,0.35929 0.4589,0.47355 0.4589,0.296027 z m -1.08824,-0.900959 c -0.15306,-0.184424 -0.48039,-0.4357 -0.72741,-0.558392 -0.2692,-0.133706 -0.18989,-0.0025 0.19795,0.327558 0.74246,0.631803 0.93014,0.713628 0.52946,0.230834 z m -2.69717,-1.79294 c -0.33577,-0.30645 -2.253998,-1.373041 -2.253998,-1.253287 0,0.107784 2.168948,1.42609 2.361838,1.435546 0.0534,0.0026 0.005,-0.0794 -0.10784,-0.182259 z m -2.901077,-1.661368 c 0,-0.214183 -4.766828,-2.382749 -7.010026,-3.189061 -2.502286,-0.89944 -5.513489,-1.779612 -6.713191,-1.962259 -0.459836,-0.07001 0.328675,0.206466 1.75225,0.614387 3.716213,1.064868 7.224724,2.354944 9.706189,3.568957 2.503807,1.224944 2.264778,1.122781 2.264778,0.967976 z m -46.850377,-2.14527 c 0.509104,-0.205814 0.885648,-0.414202 0.836766,-0.463084 -0.04888,-0.04888 -0.611015,0.158879 -1.249185,0.461692 -1.25891,0.597357 -1.063403,0.598017 0.412419,0.0014 z m 2.309751,-0.957373 c 0.593156,-0.231616 0.932873,-0.423116 0.754926,-0.425554 -0.305669,-0.0042 -2.170653,0.792624 -1.941238,0.829392 0.05932,0.0095 0.593156,-0.172221 1.186312,-0.403838 z m 3.798449,-1.194515 c 0.876633,-0.278228 1.489656,-0.51376 1.362274,-0.523405 -0.304367,-0.02305 -3.791934,1.022247 -3.955112,1.185426 -0.164275,0.164273 0.621543,-0.03637 2.592838,-0.662021 z m 2.290389,-0.671257 c -0.07167,-0.07167 -0.25771,-0.07934 -0.413413,-0.01703 -0.172065,0.06885 -0.120956,0.119965 0.130315,0.130314 0.227375,0.0094 0.35477,-0.04161 0.283098,-0.113286 z m 0.862772,-0.215693 c -0.07167,-0.07167 -0.25771,-0.07934 -0.413412,-0.01703 -0.172065,0.06886 -0.120957,0.119965 0.130315,0.130314 0.227375,0.0094 0.35477,-0.04161 0.283097,-0.113286 z m 22.760115,-0.228228 c -0.148289,-0.05984 -0.390943,-0.05984 -0.539233,0 -0.148289,0.05984 -0.02696,0.108792 0.269617,0.108792 0.296578,0 0.417905,-0.04896 0.269616,-0.108792 z M 62.628858,18.044072 c -0.148289,-0.05984 -0.390944,-0.05984 -0.539233,0 -0.148289,0.05984 -0.02696,0.108792 0.269616,0.108792 0.296578,0 0.417906,-0.04896 0.269617,-0.108792 z m 19.416483,0.0014 c -0.14603,-0.05908 -0.437216,-0.06268 -0.647079,-0.008 -0.209863,0.05469 -0.09038,0.103029 0.265512,0.107424 0.355893,0.0044 0.527598,-0.04035 0.381567,-0.09943 z m -1.194909,-0.204527 c -0.07167,-0.07167 -0.25771,-0.07934 -0.413413,-0.01703 -0.172065,0.06885 -0.120956,0.119965 0.130316,0.130315 0.227375,0.0094 0.354769,-0.04161 0.283097,-0.113287 z m -5.48477,-0.536488 c -1.56586,-0.09468 -4.332124,-0.09497 -6.147253,-6.26e-4 -3.044094,0.158205 -2.823129,0.171566 2.847022,0.17215 5.291471,5.39e-4 5.750908,-0.02333 3.300231,-0.171517 z"
     id="path4435" /><path
     style="fill:#f5f5f5;fill-opacity:1;fill-rule:evenodd;stroke-width:0.215693"
     d="m 62.143548,71.791902 c 0,-6.838182 0.0728,-12.390103 0.16177,-12.337603 0.08897,0.0525 4.917803,2.838075 10.730732,6.190168 5.812929,3.352093 10.594675,6.114933 10.626101,6.139644 0.05415,0.04257 -20.944825,12.217199 -21.334148,12.36895 -0.10145,0.03955 -0.184455,-5.522977 -0.184455,-12.361159 z"
     id="path4437" /></svg>
