<?xml version="1.0" encoding="UTF-8" standalone="no"?>
<svg
   xmlns:dc="http://purl.org/dc/elements/1.1/"
   xmlns:cc="http://creativecommons.org/ns#"
   xmlns:rdf="http://www.w3.org/1999/02/22-rdf-syntax-ns#"
   xmlns:svg="http://www.w3.org/2000/svg"
   xmlns="http://www.w3.org/2000/svg"
   xmlns:sodipodi="http://sodipodi.sourceforge.net/DTD/sodipodi-0.dtd"
   xmlns:inkscape="http://www.inkscape.org/namespaces/inkscape"
   xml:space="preserve"
   width="5in"
   height="3in"
   version="1.1"
   style="shape-rendering:geometricPrecision; text-rendering:geometricPrecision; image-rendering:optimizeQuality; fill-rule:evenodd; clip-rule:evenodd"
   viewBox="0 0 5000 3000"
   id="svg80"
   sodipodi:docname="logo-cimetiere.svg"
   inkscape:version="1.0.1 (3bc2e813f5, 2020-09-07)"><metadata
   id="metadata84"><rdf:RDF><cc:Work
       rdf:about=""><dc:format>image/svg+xml</dc:format><dc:type
         rdf:resource="http://purl.org/dc/dcmitype/StillImage" /><dc:title></dc:title></cc:Work></rdf:RDF></metadata><sodipodi:namedview
   pagecolor="#ffffff"
   bordercolor="#666666"
   borderopacity="1"
   objecttolerance="10"
   gridtolerance="10"
   guidetolerance="10"
   inkscape:pageopacity="0"
   inkscape:pageshadow="2"
   inkscape:window-width="1920"
   inkscape:window-height="976"
   id="namedview82"
   showgrid="false"
   inkscape:snap-bbox="false"
   inkscape:zoom="2.5291667"
   inkscape:cx="240"
   inkscape:cy="151.40528"
   inkscape:window-x="-8"
   inkscape:window-y="-8"
   inkscape:window-maximized="1"
   inkscape:current-layer="svg80" />
 <defs
   id="defs67">
  <style
   type="text/css"
   id="style65">
   <![CDATA[
    .fil3 {fill:#1F2537}
    .fil0 {fill:#418DBB}
    .fil2 {fill:#1F2537;fill-rule:nonzero}
    .fil1 {fill:#418DBB;fill-rule:nonzero}
   ]]>
  </style>
 
  
  
 
   
   
   
   
  </defs>
 <g
   id="g176"
   style="fill:#ffffff"
   transform="translate(-28.830313,-720.75783)"><g
     id="g171"
     style="fill:#ffffff"><path
       class="fil1"
       d="m 364.13,1733.96 c -0.62,-23.04 4.99,-41.24 16.82,-54.59 11.83,-13.37 29.41,-20.06 52.76,-20.06 22.43,0 39.63,6.69 51.61,20.06 11.98,13.35 17.67,31.56 17.05,54.59 l -0.46,17.98 h -46.07 v -11.52 c 0,-12.6 -1.7,-22.13 -5.08,-28.58 -3.37,-6.45 -9.06,-9.67 -17.05,-9.67 -8.6,0 -14.66,3.22 -18.19,9.67 -3.54,6.45 -5.31,15.98 -5.31,28.58 l 4.61,170.95 c 0.62,10.15 2.3,17.59 5.07,22.35 2.77,4.76 7.37,7.14 13.82,7.14 6.15,0 10.6,-2.38 13.37,-7.14 2.77,-4.76 4.45,-12.21 5.07,-22.35 l 2.31,-64.52 h 46.07 l -2.76,70.51 c -1.23,20.58 -7.07,36.79 -17.52,48.61 -10.45,11.83 -25.96,17.74 -46.55,17.74 -20.58,0 -36.25,-5.91 -47,-17.74 -10.75,-11.82 -16.43,-28.03 -17.05,-48.61 l -5.53,-183.41 z m 165.89,0 c -0.62,-23.34 5.08,-41.62 17.05,-54.83 11.98,-13.2 29.8,-19.81 53.46,-19.81 23.35,0 41,6.69 52.99,20.06 11.98,13.35 17.67,31.56 17.05,54.59 l -5.52,183.41 c -1.23,20.58 -7.07,36.79 -17.52,48.61 -10.44,11.83 -26.11,17.74 -47,17.74 -21.2,0 -37.18,-5.91 -47.93,-17.74 -10.75,-11.82 -16.43,-28.03 -17.05,-48.61 l -5.53,-183.41 z m 50.69,177.41 c 0.62,10.45 2.38,17.98 5.3,22.58 2.92,4.61 7.76,6.91 14.52,6.91 6.76,0 11.52,-2.3 14.28,-6.91 2.77,-4.61 4.45,-12.13 5.07,-22.58 l 4.6,-170.95 c 0,-12.91 -1.76,-22.5 -5.3,-28.8 -3.53,-6.3 -9.76,-9.44 -18.66,-9.44 -8.91,0 -15.21,3.22 -18.89,9.67 -3.69,6.45 -5.54,15.98 -5.54,28.58 l 4.61,170.95 z m 116.12,-137.24 c -1.11,-33.52 6.31,-58.14 23.51,-73.96 17.19,-15.83 39.47,-23.75 66.81,-23.75 l 0.3,-14.8 h 46.23 v 29.56 c 11.98,-9.83 26.88,-14.76 44.7,-14.76 l 0.46,-14.8 h 46.08 v 319.8 H 878.84 V 1719.3 c -15.05,0 -26.35,4.29 -33.87,12.89 -7.52,8.6 -11.29,22.6 -11.29,41.94 v 207.29 H 787.6 V 1719.3 c -31.63,0 -46.46,18.27 -45.15,54.83 l 7.37,207.29 h -46.08 z m 265.43,164.43 h 23.05 v -234.09 h -23.05 v -42.85 h 91.7 v 42.85 h -22.58 v 234.09 h 22.58 v 42.85 h -91.7 z m 114.28,-276.94 h 182.48 v 90.31 h -45.63 v -47.46 h -22.57 v 276.94 h -46.08 v -276.94 h -22.58 v 47.46 h -45.61 v -90.31 z m 211.51,62.67 c 0,-20.58 5.83,-36.17 17.5,-46.77 11.68,-10.6 27.35,-15.89 47,-15.89 h 66.83 v 90.31 h -46.08 v -47.46 h -17.52 c -14.44,0 -21.67,7.53 -21.67,22.58 v 50.22 h 59.91 v 42.86 h -59.91 v 118.43 h 38.25 v -62.21 h 46.08 v 105.07 h -130.4 V 1724.3 Z m 79.72,-86.18 31.33,-65.89 h -52.53 l -16.13,65.89 z m 164.98,23.51 h 137.78 v 53.91 c 0,85.7 -30.57,128.56 -91.71,128.56 v 137.32 h -46.07 v -319.8 z m 46.07,139.61 c 12.6,0 23.35,-5.91 32.26,-17.74 8.9,-11.82 13.37,-28.34 13.37,-49.54 v -29.48 h -45.63 z m 118.43,-67.28 c -0.61,-23.34 5.08,-41.62 17.05,-54.83 11.98,-13.2 29.8,-19.81 53.46,-19.81 23.35,0 41,6.69 52.99,20.06 11.98,13.35 17.67,31.56 17.05,54.59 l -5.52,183.41 c -1.23,20.58 -7.07,36.79 -17.52,48.61 -10.45,11.83 -26.11,17.74 -47,17.74 -21.2,0 -37.18,-5.91 -47.93,-17.74 -10.75,-11.82 -16.43,-28.03 -17.05,-48.61 l -5.54,-183.41 z m 50.7,177.41 c 0.61,10.45 2.38,17.98 5.3,22.58 2.92,4.61 7.76,6.91 14.52,6.91 6.75,0 11.52,-2.3 14.28,-6.91 2.77,-4.61 4.45,-12.13 5.07,-22.58 l 4.6,-170.95 c 0,-12.91 -1.76,-22.5 -5.29,-28.8 -3.54,-6.3 -9.76,-9.44 -18.66,-9.44 -8.91,0 -15.21,3.22 -18.9,9.67 -3.69,6.45 -5.53,15.98 -5.53,28.58 l 4.61,170.95 z m 129.02,-249.3 h 45.63 l -7.38,228.09 c 0,12.6 4.46,23.81 13.36,33.65 8.92,9.83 19.67,14.75 32.26,14.75 v -276.94 h 46.07 v 319.8 h -27.64 c -22.73,0 -42.47,-3.76 -59.22,-11.29 -16.74,-7.53 -29.48,-18.12 -38.25,-31.8 -8.75,-13.67 -12.82,-29.56 -12.21,-47.69 l 7.37,-228.56 z m 173.27,-0.45 h 137.78 v 31.33 c 0,45.47 -8.45,78.8 -25.35,100 15.67,15.67 23.5,36.7 23.5,63.12 0,4.31 -0.15,7.68 -0.46,10.15 l -6.91,115.2 h -46.08 l 7.37,-115.2 0.46,-7.83 c 0,-19.36 -6.15,-32.56 -18.43,-39.63 -8.3,1.84 -16.9,2.77 -25.81,2.77 v 159.9 h -46.07 v -319.8 z m 46.07,117.04 c 12.6,0 23.35,-5.91 32.26,-17.74 8.9,-11.82 13.37,-28.33 13.37,-49.53 v -6.91 h -45.63 v 74.19 z m 205.07,-117.04 h 46.07 v 276.94 h 36.87 v -62.21 h 46.08 v 105.07 h -129.02 z m 133.63,0 h 53 l -2.77,70.5 c -0.92,19.66 -10.3,37.17 -28.11,52.53 l -16.12,-9.68 c 7.67,-11.37 11.52,-25.65 11.52,-42.85 h -17.51 v -70.5 z m 88.48,62.67 c 0,-20.58 5.83,-36.17 17.5,-46.77 11.68,-10.6 27.35,-15.89 47,-15.89 h 66.83 v 90.31 h -46.08 v -47.46 h -17.52 c -14.44,0 -21.67,7.53 -21.67,22.58 v 50.22 h 59.91 v 42.86 h -59.91 v 118.43 h 38.25 v -62.21 h 46.08 v 105.07 h -130.4 v -257.13 z m 170.04,-62.67 h 46.07 v 87.55 l 45.63,38.7 v -126.25 h 46.08 v 319.8 h -46.08 v -137.32 l -45.63,-38.71 v 176.03 h -46.07 z m 170.5,0 h 182.48 v 90.31 h -45.63 v -47.46 h -22.57 v 276.94 h -46.08 v -276.94 h -22.58 v 47.46 h -45.61 v -90.31 z m 215.19,0 H 3217 v 31.33 c 0,45.47 -8.45,78.8 -25.35,100 15.67,15.67 23.5,36.7 23.5,63.12 0,4.31 -0.15,7.68 -0.46,10.15 l -6.9,115.2 h -46.08 l 7.37,-115.2 0.46,-7.83 c 0,-19.36 -6.15,-32.56 -18.43,-39.63 -8.3,1.84 -16.9,2.77 -25.81,2.77 v 159.9 h -46.07 v -319.8 z m 46.07,117.04 c 12.6,0 23.35,-5.91 32.26,-17.74 8.9,-11.82 13.37,-28.33 13.37,-49.53 v -6.91 h -45.63 v 74.19 z m 126.73,-54.37 c 0,-20.58 5.83,-36.17 17.5,-46.77 11.68,-10.6 27.35,-15.89 47,-15.89 h 66.83 v 90.31 h -46.08 v -47.46 h -17.51 c -14.44,0 -21.67,7.53 -21.67,22.58 v 50.22 H 3358 v 42.86 h -59.91 v 118.43 h 38.25 v -62.21 h 46.08 v 105.07 h -130.4 v -257.13 z m 158.06,-62.67 h 182.48 v 90.31 h -45.63 v -47.46 h -22.57 v 276.94 h -46.08 v -276.94 h -22.58 v 47.46 h -45.61 v -90.31 z m 209.2,276.94 h 23.05 v -234.09 h -23.05 v -42.85 h 91.7 v 42.85 h -22.58 v 234.09 h 22.58 v 42.85 h -91.7 z m 123.5,-214.28 c 0,-20.58 5.83,-36.17 17.5,-46.77 11.68,-10.6 27.35,-15.89 47,-15.89 h 66.83 v 90.31 h -46.08 v -47.46 h -17.52 c -14.44,0 -21.67,7.53 -21.67,22.58 v 50.22 h 59.91 v 42.86 h -59.91 v 118.43 h 38.25 v -62.21 h 46.08 v 105.07 h -130.4 v -257.13 z m 170.04,-62.67 h 46.07 v 87.55 l 45.63,38.7 V 1661.6 h 46.08 v 319.8 h -46.08 v -137.32 l -45.63,-38.71 v 176.03 h -46.07 z m 255.75,0 h 69.11 c 11.98,0 23.2,2.6 33.64,7.83 10.45,5.22 18.82,12.59 25.12,22.12 6.29,9.52 9.44,20.27 9.44,32.25 l -5.53,196.31 c -0.62,17.2 -6.99,31.71 -19.13,43.54 -12.13,11.83 -26.64,17.74 -43.54,17.74 h -69.11 v -319.8 z m 69.11,276.94 c 10.14,0 15.35,-8.15 15.67,-24.43 l 5.53,-185.24 c 0.3,-7.98 -1.54,-14.05 -5.53,-18.2 -4,-4.15 -9.22,-6.22 -15.67,-6.22 h -23.04 v 234.09 z m 103.68,-214.28 c 0,-20.58 5.83,-36.17 17.5,-46.77 11.68,-10.6 27.35,-15.89 47,-15.89 h 66.83 v 90.31 h -46.08 v -47.46 h -17.52 c -14.44,0 -21.67,7.53 -21.67,22.58 v 50.22 h 59.91 v 42.86 h -59.91 v 118.43 h 38.25 v -62.21 h 46.08 v 105.07 h -130.4 v -257.13 z m 159.43,6.91 c 0,-22.13 5.91,-39.63 17.74,-52.53 11.82,-12.91 29.11,-19.36 51.84,-19.36 22.42,0 39.63,6.69 51.61,20.06 11.97,13.35 17.65,31.56 17.05,54.59 l -0.46,17.98 h -46.08 v -11.52 c 0,-12.6 -1.69,-22.13 -5.07,-28.58 -3.38,-6.45 -9.07,-9.67 -17.05,-9.67 -8.3,0 -14.28,2.77 -17.97,8.29 -3.69,5.53 -5.53,12.6 -5.53,21.2 0,8.3 3.07,16.2 9.22,23.74 6.14,7.52 15.05,15.43 26.72,23.73 12.91,9.22 22.66,16.74 29.27,22.58 6.6,5.83 12.13,13.06 16.58,21.65 4.45,8.61 6.68,19.05 6.68,31.35 l -0.45,7.83 -3.7,54.83 c -1.53,20.58 -7.22,36.79 -17.05,48.61 -9.82,11.83 -24.27,17.74 -43.31,17.74 -19.35,0 -34.18,-5.98 -44.46,-17.97 -10.3,-11.98 -15.74,-28.11 -16.36,-48.38 l -1.38,-70.51 h 44.24 l 1.85,64.52 c 0.3,19.67 5.68,29.5 16.12,29.5 4.91,0 8.61,-2.38 11.06,-7.14 2.46,-4.76 4,-12.21 4.61,-22.35 l 2.3,-41 c 0.3,-9.83 -0.31,-17.83 -1.85,-23.96 -1.54,-6.15 -4.45,-11.52 -8.75,-16.13 -4.3,-4.6 -10.75,-10.13 -19.35,-16.58 -2.15,-1.54 -8.91,-6.37 -20.28,-14.52 -11.37,-8.13 -20.51,-18.04 -27.43,-29.72 -6.9,-11.67 -10.36,-24.42 -10.36,-38.24 z M 218.52,2181.54 c 0,-22.13 5.91,-39.63 17.74,-52.53 11.82,-12.91 29.11,-19.36 51.84,-19.36 22.42,0 39.63,6.69 51.61,20.06 11.97,13.35 17.65,31.56 17.05,54.59 l -0.46,17.98 h -46.08 v -11.52 c 0,-12.6 -1.69,-22.13 -5.07,-28.58 -3.38,-6.45 -9.07,-9.67 -17.05,-9.67 -8.3,0 -14.28,2.77 -17.97,8.29 -3.69,5.53 -5.53,12.6 -5.53,21.2 0,8.3 3.07,16.21 9.22,23.74 6.14,7.52 15.05,15.43 26.72,23.72 12.91,9.22 22.66,16.75 29.27,22.58 6.6,5.83 12.13,13.05 16.59,21.65 4.45,8.61 6.68,19.05 6.68,31.34 l -0.45,7.83 -3.7,54.83 c -1.54,20.58 -7.22,36.79 -17.05,48.61 -9.82,11.83 -24.27,17.74 -43.32,17.74 -19.35,0 -34.17,-5.99 -44.46,-17.97 -10.3,-11.98 -15.74,-28.11 -16.36,-48.38 l -1.38,-70.51 h 44.23 l 1.85,64.52 c 0.3,19.66 5.68,29.5 16.12,29.5 4.92,0 8.61,-2.38 11.07,-7.14 2.46,-4.77 4,-12.21 4.61,-22.35 l 2.3,-41 c 0.3,-9.83 -0.31,-17.83 -1.85,-23.96 -1.54,-6.15 -4.45,-11.52 -8.75,-16.13 -4.3,-4.6 -10.75,-10.13 -19.35,-16.58 -2.15,-1.54 -8.92,-6.38 -20.28,-14.52 -11.37,-8.13 -20.5,-18.04 -27.42,-29.72 -6.9,-11.67 -10.36,-24.42 -10.36,-38.24 z m 170.04,-6.91 c 0,-20.58 5.83,-36.17 17.5,-46.78 11.68,-10.6 27.35,-15.89 47,-15.89 h 66.83 v 90.32 h -46.08 v -47.47 H 456.3 c -14.44,0 -21.67,7.53 -21.67,22.58 v 50.22 h 59.91 v 42.86 h -59.91 v 118.43 h 38.25 v -62.21 h 46.08 v 105.06 h -130.4 v -257.13 z m 79.72,-86.18 31.33,-65.89 h -52.53 l -16.13,65.89 z m 90.33,23.51 h 137.78 v 53.92 c 0,85.7 -30.57,128.56 -91.71,128.56 v 137.31 h -46.07 v -319.8 z m 46.07,139.62 c 12.6,0 23.35,-5.91 32.26,-17.74 8.9,-11.82 13.37,-28.34 13.37,-49.54 v -29.49 h -45.63 z m 123.03,-139.16 h 45.63 l -7.38,228.09 c 0,12.6 4.46,23.81 13.36,33.65 8.91,9.83 19.67,14.75 32.26,14.75 v -276.94 h 46.07 v 319.8 h -27.64 c -22.73,0 -42.47,-3.76 -59.22,-11.29 -16.74,-7.53 -29.48,-18.12 -38.25,-31.8 -8.75,-13.67 -12.83,-29.56 -12.21,-47.69 l 7.37,-228.56 z m 173.28,-0.46 h 46.07 v 276.94 h 36.87 v -62.21 h 46.08 v 105.06 H 900.99 v -319.8 z m 120.27,0 h 182.48 v 90.32 h -45.63 v -47.47 h -22.57 v 276.94 h -46.08 v -276.94 h -22.58 v 47.47 h -45.61 v -90.32 z m 210.58,0.46 h 45.63 l -7.38,228.09 c 0,12.6 4.46,23.81 13.36,33.65 8.91,9.83 19.67,14.75 32.26,14.75 v -276.94 h 46.07 v 319.8 h -27.64 c -22.73,0 -42.47,-3.76 -59.22,-11.29 -16.74,-7.53 -29.48,-18.12 -38.25,-31.8 -8.75,-13.67 -12.83,-29.56 -12.21,-47.69 l 7.37,-228.56 z m 173.28,-0.46 h 137.78 v 31.33 c 0,45.46 -8.45,78.8 -25.35,100 15.67,15.67 23.5,36.7 23.5,63.12 0,4.31 -0.15,7.68 -0.46,10.15 l -6.91,115.2 h -46.08 l 7.37,-115.2 0.46,-7.83 c 0,-19.36 -6.15,-32.56 -18.43,-39.63 -8.3,1.83 -16.9,2.76 -25.81,2.76 v 159.9 h -46.07 z m 46.07,117.04 c 12.6,0 23.35,-5.91 32.26,-17.74 8.9,-11.82 13.37,-28.33 13.37,-49.53 v -6.92 h -45.63 z m 126.73,-54.37 c 0,-20.58 5.83,-36.17 17.5,-46.78 11.68,-10.6 27.35,-15.89 47,-15.89 h 66.83 v 90.32 h -46.08 v -47.47 h -17.52 c -14.43,0 -21.66,7.53 -21.66,22.58 v 50.22 h 59.91 v 42.86 h -59.91 v 118.43 h 38.25 v -62.21 h 46.08 v 105.06 h -130.4 v -257.13 z m 159.43,6.91 c 0,-22.13 5.91,-39.63 17.74,-52.53 11.82,-12.91 29.11,-19.36 51.84,-19.36 22.42,0 39.63,6.69 51.61,20.06 11.97,13.35 17.66,31.56 17.05,54.59 l -0.46,17.98 h -46.08 v -11.52 c 0,-12.6 -1.69,-22.13 -5.07,-28.58 -3.38,-6.45 -9.06,-9.67 -17.05,-9.67 -8.3,0 -14.28,2.77 -17.97,8.29 -3.7,5.53 -5.53,12.6 -5.53,21.2 0,8.3 3.07,16.21 9.22,23.74 6.13,7.52 15.05,15.43 26.72,23.72 12.91,9.22 22.66,16.75 29.27,22.58 6.6,5.83 12.13,13.05 16.58,21.65 4.45,8.61 6.68,19.05 6.68,31.34 l -0.45,7.83 -3.69,54.83 c -1.54,20.58 -7.22,36.79 -17.05,48.61 -9.82,11.83 -24.27,17.74 -43.31,17.74 -19.35,0 -34.18,-5.99 -44.46,-17.97 -10.3,-11.98 -15.74,-28.11 -16.36,-48.38 l -1.39,-70.51 h 44.24 l 1.85,64.52 c 0.3,19.66 5.69,29.5 16.12,29.5 4.92,0 8.61,-2.38 11.06,-7.14 2.46,-4.77 4,-12.21 4.61,-22.35 l 2.3,-41 c 0.3,-9.83 -0.31,-17.83 -1.85,-23.96 -1.54,-6.15 -4.45,-11.52 -8.75,-16.13 -4.3,-4.6 -10.75,-10.13 -19.35,-16.58 -2.15,-1.54 -8.91,-6.38 -20.28,-14.52 -11.37,-8.13 -20.51,-18.04 -27.42,-29.72 -6.91,-11.67 -10.36,-24.42 -10.36,-38.24 z m 242.38,2.76 c -0.61,-23.34 5.08,-41.62 17.05,-54.83 11.98,-13.2 29.8,-19.81 53.46,-19.81 23.35,0 41,6.69 52.99,20.06 11.98,13.35 17.67,31.56 17.05,54.59 l -5.52,183.41 c -1.23,20.58 -7.07,36.79 -17.52,48.61 -10.45,11.83 -26.11,17.74 -47,17.74 -21.2,0 -37.18,-5.91 -47.93,-17.74 -10.75,-11.82 -16.43,-28.03 -17.05,-48.61 l -5.53,-183.41 z m 50.7,177.41 c 0.61,10.44 2.38,17.98 5.3,22.58 2.92,4.61 7.76,6.92 14.52,6.92 6.75,0 11.52,-2.3 14.28,-6.92 2.77,-4.6 4.45,-12.13 5.07,-22.58 l 4.6,-170.95 c 0,-12.91 -1.76,-22.51 -5.29,-28.8 -3.54,-6.3 -9.76,-9.44 -18.66,-9.44 -8.91,0 -15.21,3.22 -18.9,9.67 -3.69,6.45 -5.53,15.98 -5.53,28.58 l 4.61,170.95 z m 128.11,-249.75 h 137.78 v 31.33 c 0,45.46 -8.45,78.8 -25.35,100 15.67,15.67 23.5,36.7 23.5,63.12 0,4.31 -0.15,7.68 -0.46,10.15 l -6.91,115.2 h -46.08 l 7.37,-115.2 0.46,-7.83 c 0,-19.36 -6.15,-32.56 -18.43,-39.63 -8.3,1.83 -16.9,2.76 -25.81,2.76 v 159.9 h -46.07 z m 46.07,117.04 c 12.6,0 23.35,-5.91 32.26,-17.74 8.9,-11.82 13.37,-28.33 13.37,-49.53 v -6.92 h -45.63 z m 118.44,-117.04 h 182.48 v 90.32 h -45.63 v -47.47 h -22.57 v 276.94 h -46.08 v -276.94 h -22.58 v 47.47 h -45.62 z m 215.2,0 h 46.07 v 115.65 h 45.16 v -115.65 h 46.08 v 319.8 h -46.08 v -161.28 h -45.16 v 161.28 h -46.07 z m 175.55,72.34 c -0.61,-23.34 5.08,-41.62 17.05,-54.83 11.98,-13.2 29.8,-19.81 53.46,-19.81 23.35,0 41,6.69 52.98,20.06 11.98,13.35 17.67,31.56 17.05,54.59 l -5.52,183.41 c -1.23,20.58 -7.07,36.79 -17.52,48.61 -10.45,11.83 -26.11,17.74 -47,17.74 -21.2,0 -37.18,-5.91 -47.93,-17.74 -10.75,-11.82 -16.43,-28.03 -17.05,-48.61 l -5.53,-183.41 z m 50.7,177.41 c 0.61,10.44 2.38,17.98 5.29,22.58 2.92,4.61 7.76,6.92 14.52,6.92 6.75,0 11.52,-2.3 14.28,-6.92 2.77,-4.6 4.45,-12.13 5.07,-22.58 l 4.6,-170.95 c 0,-12.91 -1.76,-22.51 -5.3,-28.8 -3.53,-6.3 -9.76,-9.44 -18.66,-9.44 -8.91,0 -15.21,3.22 -18.9,9.67 -3.69,6.45 -5.53,15.98 -5.53,28.58 l 4.61,170.95 z m 128.11,-249.75 h 69.12 c 11.98,0 23.2,2.61 33.63,7.83 10.45,5.22 18.82,12.59 25.12,22.12 6.29,9.52 9.44,20.27 9.44,32.25 l -5.53,196.31 c -0.61,17.2 -6.99,31.71 -19.13,43.54 -12.13,11.83 -26.64,17.74 -43.54,17.74 h -69.12 v -319.8 z m 69.12,276.94 c 10.13,0 15.35,-8.15 15.67,-24.43 l 5.53,-185.24 c 0.3,-7.98 -1.54,-14.05 -5.53,-18.2 -4,-4.15 -9.22,-6.22 -15.67,-6.22 h -23.05 v 234.09 z m 99.07,-204.61 c -0.62,-23.34 5.08,-41.62 17.05,-54.83 11.98,-13.2 29.8,-19.81 53.46,-19.81 23.35,0 41,6.69 52.98,20.06 11.98,13.35 17.67,31.56 17.05,54.59 l -5.52,183.41 c -1.23,20.58 -7.07,36.79 -17.51,48.61 -10.45,11.83 -26.12,17.74 -47,17.74 -21.2,0 -37.18,-5.91 -47.93,-17.74 -10.75,-11.82 -16.43,-28.03 -17.05,-48.61 l -5.53,-183.41 z m 50.69,177.41 c 0.62,10.44 2.38,17.98 5.3,22.58 2.92,4.61 7.76,6.92 14.52,6.92 6.75,0 11.52,-2.3 14.28,-6.92 2.76,-4.6 4.45,-12.13 5.07,-22.58 l 4.6,-170.95 c 0,-12.91 -1.76,-22.51 -5.3,-28.8 -3.53,-6.3 -9.76,-9.44 -18.66,-9.44 -8.92,0 -15.22,3.22 -18.9,9.67 -3.69,6.45 -5.54,15.98 -5.54,28.58 l 4.61,170.95 z m 155.75,-249.75 25.81,103.22 23.96,-103.22 h 63.12 v 42.85 h -27.18 l -28.57,101.83 50.69,175.11 h -48.38 l -35.94,-139.16 c -7.68,19.05 -13.52,41.63 -17.51,67.73 -4,26.11 -6,49.93 -6,71.43 h -46.07 c 0,-25.19 3.22,-53.61 9.67,-85.25 6.45,-31.65 16.28,-62.05 29.5,-91.24 l -41.48,-143.3 z m 136.87,62.67 c 0,-20.58 5.83,-36.17 17.5,-46.78 11.68,-10.6 27.35,-15.89 47,-15.89 h 66.83 v 90.32 h -46.08 v -47.47 h -17.51 c -14.44,0 -21.67,7.53 -21.67,22.58 v 50.22 h 59.91 v 42.86 h -59.91 v 118.43 h 38.25 v -62.21 h 46.08 v 105.06 h -130.4 v -257.13 z m 159.43,6.91 c 0,-22.13 5.91,-39.63 17.74,-52.53 11.82,-12.91 29.11,-19.36 51.84,-19.36 22.42,0 39.63,6.69 51.61,20.06 11.97,13.35 17.65,31.56 17.05,54.59 l -0.46,17.98 h -46.08 v -11.52 c 0,-12.6 -1.69,-22.13 -5.07,-28.58 -3.38,-6.45 -9.07,-9.67 -17.05,-9.67 -8.3,0 -14.28,2.77 -17.97,8.29 -3.69,5.53 -5.53,12.6 -5.53,21.2 0,8.3 3.07,16.21 9.22,23.74 6.14,7.52 15.05,15.43 26.72,23.72 12.91,9.22 22.66,16.75 29.27,22.58 6.6,5.83 12.13,13.05 16.59,21.65 4.45,8.61 6.68,19.05 6.68,31.34 l -0.45,7.83 -3.7,54.83 c -1.54,20.58 -7.22,36.79 -17.05,48.61 -9.82,11.83 -24.26,17.74 -43.31,17.74 -19.35,0 -34.17,-5.99 -44.46,-17.97 -10.3,-11.98 -15.74,-28.11 -16.36,-48.38 l -1.38,-70.51 h 44.23 l 1.85,64.52 c 0.3,19.66 5.68,29.5 16.12,29.5 4.92,0 8.61,-2.38 11.06,-7.14 2.46,-4.77 4,-12.21 4.61,-22.35 l 2.3,-41 c 0.3,-9.83 -0.31,-17.83 -1.85,-23.96 -1.54,-6.15 -4.45,-11.52 -8.75,-16.13 -4.3,-4.6 -10.75,-10.13 -19.35,-16.58 -2.15,-1.54 -8.91,-6.38 -20.28,-14.52 -11.37,-8.13 -20.51,-18.04 -27.42,-29.72 -6.91,-11.67 -10.36,-24.42 -10.36,-38.24 z M 3811,2111.95 h 137.78 v 31.33 c 0,45.46 -8.45,78.8 -25.35,100 15.67,15.67 23.5,36.7 23.5,63.12 0,4.31 -0.15,7.68 -0.46,10.15 l -6.91,115.2 h -46.08 l 7.37,-115.2 0.46,-7.83 c 0,-19.36 -6.15,-32.56 -18.43,-39.63 -8.3,1.83 -16.9,2.76 -25.81,2.76 v 159.9 H 3811 Z m 46.07,117.04 c 12.6,0 23.35,-5.91 32.26,-17.74 8.91,-11.82 13.37,-28.33 13.37,-49.53 v -6.92 h -45.63 z m 129.48,-116.58 h 45.63 l -7.38,228.09 c 0,12.6 4.46,23.81 13.37,33.65 8.91,9.83 19.67,14.75 32.26,14.75 v -276.94 h 46.07 v 319.8 h -27.64 c -22.73,0 -42.47,-3.76 -59.22,-11.29 -16.74,-7.53 -29.49,-18.12 -38.25,-31.8 -8.75,-13.67 -12.83,-29.56 -12.21,-47.69 l 7.37,-228.56 z m 164.98,69.13 c 0,-22.13 5.91,-39.63 17.74,-52.53 11.82,-12.91 29.11,-19.36 51.84,-19.36 22.42,0 39.63,6.69 51.61,20.06 11.97,13.35 17.65,31.56 17.05,54.59 l -0.46,17.98 h -46.08 v -11.52 c 0,-12.6 -1.69,-22.13 -5.07,-28.58 -3.38,-6.45 -9.06,-9.67 -17.05,-9.67 -8.3,0 -14.28,2.77 -17.97,8.29 -3.7,5.53 -5.53,12.6 -5.53,21.2 0,8.3 3.07,16.21 9.22,23.74 6.14,7.52 15.05,15.43 26.72,23.72 12.91,9.22 22.66,16.75 29.27,22.58 6.6,5.83 12.13,13.05 16.59,21.65 4.45,8.61 6.68,19.05 6.68,31.34 l -0.45,7.83 -3.7,54.83 c -1.54,20.58 -7.22,36.79 -17.05,48.61 -9.82,11.83 -24.27,17.74 -43.31,17.74 -19.35,0 -34.17,-5.99 -44.46,-17.97 -10.3,-11.98 -15.74,-28.11 -16.36,-48.38 l -1.38,-70.51 h 44.23 l 1.85,64.52 c 0.3,19.66 5.68,29.5 16.12,29.5 4.92,0 8.61,-2.38 11.06,-7.14 2.46,-4.77 4,-12.21 4.61,-22.35 l 2.3,-41 c 0.3,-9.83 -0.31,-17.83 -1.85,-23.96 -1.53,-6.15 -4.45,-11.52 -8.75,-16.13 -4.3,-4.6 -10.75,-10.13 -19.35,-16.58 -2.15,-1.54 -8.91,-6.38 -20.28,-14.52 -11.37,-8.13 -20.51,-18.04 -27.42,-29.72 -6.91,-11.67 -10.36,-24.42 -10.36,-38.24 z m 162.2,0 c 0,-22.13 5.91,-39.63 17.74,-52.53 11.82,-12.91 29.11,-19.36 51.84,-19.36 22.42,0 39.63,6.69 51.61,20.06 11.97,13.35 17.66,31.56 17.05,54.59 l -0.46,17.98 h -46.08 v -11.52 c 0,-12.6 -1.69,-22.13 -5.07,-28.58 -3.38,-6.45 -9.07,-9.67 -17.05,-9.67 -8.3,0 -14.28,2.77 -17.96,8.29 -3.7,5.53 -5.54,12.6 -5.54,21.2 0,8.3 3.07,16.21 9.22,23.74 6.14,7.52 15.05,15.43 26.72,23.72 12.91,9.22 22.66,16.75 29.27,22.58 6.6,5.83 12.13,13.05 16.58,21.65 4.45,8.61 6.68,19.05 6.68,31.34 l -0.45,7.83 -3.7,54.83 c -1.53,20.58 -7.22,36.79 -17.05,48.61 -9.82,11.83 -24.27,17.74 -43.31,17.74 -19.35,0 -34.18,-5.99 -44.46,-17.97 -10.3,-11.98 -15.74,-28.11 -16.36,-48.38 l -1.39,-70.51 h 44.24 l 1.85,64.52 c 0.3,19.66 5.69,29.5 16.12,29.5 4.91,0 8.61,-2.38 11.06,-7.14 2.46,-4.77 4,-12.21 4.61,-22.35 l 2.3,-41 c 0.3,-9.83 -0.31,-17.83 -1.85,-23.96 -1.54,-6.15 -4.45,-11.52 -8.75,-16.13 -4.3,-4.6 -10.75,-10.13 -19.35,-16.58 -2.15,-1.54 -8.91,-6.38 -20.28,-14.52 -11.37,-8.13 -20.51,-18.04 -27.43,-29.72 -6.9,-11.67 -10.36,-24.42 -10.36,-38.24 z m 170.04,-6.91 c 0,-20.58 5.83,-36.17 17.5,-46.78 11.68,-10.6 27.35,-15.89 47,-15.89 h 66.82 v 90.32 h -46.08 v -47.47 h -17.52 c -14.43,0 -21.66,7.53 -21.66,22.58 v 50.22 h 59.91 v 42.86 h -59.91 v 118.43 h 38.25 v -62.21 h 46.08 v 105.06 h -130.4 v -257.13 z m 159.43,6.91 c 0,-22.13 5.91,-39.63 17.74,-52.53 11.82,-12.91 29.11,-19.36 51.84,-19.36 22.42,0 39.63,6.69 51.61,20.06 11.97,13.35 17.66,31.56 17.05,54.59 l -0.46,17.98 h -46.08 v -11.52 c 0,-12.6 -1.69,-22.13 -5.07,-28.58 -3.38,-6.45 -9.07,-9.67 -17.05,-9.67 -8.3,0 -14.28,2.77 -17.97,8.29 -3.69,5.53 -5.53,12.6 -5.53,21.2 0,8.3 3.07,16.21 9.22,23.74 6.14,7.52 15.05,15.43 26.72,23.72 12.91,9.22 22.66,16.75 29.27,22.58 6.6,5.83 12.13,13.05 16.58,21.65 4.45,8.61 6.68,19.05 6.68,31.34 l -0.45,7.83 -3.7,54.83 c -1.53,20.58 -7.22,36.79 -17.05,48.61 -9.82,11.83 -24.27,17.74 -43.31,17.74 -19.35,0 -34.18,-5.99 -44.46,-17.97 -10.3,-11.98 -15.74,-28.11 -16.36,-48.38 l -1.39,-70.51 h 44.24 l 1.85,64.52 c 0.3,19.66 5.69,29.5 16.12,29.5 4.91,0 8.61,-2.38 11.06,-7.14 2.46,-4.77 4,-12.21 4.61,-22.35 l 2.3,-41 c 0.3,-9.83 -0.31,-17.83 -1.85,-23.96 -1.54,-6.15 -4.45,-11.52 -8.75,-16.13 -4.3,-4.6 -10.75,-10.13 -19.35,-16.58 -2.15,-1.54 -8.91,-6.38 -20.28,-14.52 -11.37,-8.13 -20.51,-18.04 -27.43,-29.72 -6.9,-11.67 -10.36,-24.42 -10.36,-38.24 z"
       id="path72"
       style="fill:#ffffff" /></g><path
     class="fil2"
     d="m 908.09,2683.68 c -0.33,-9.46 2.71,-16.94 9.14,-22.42 6.44,-5.48 16.01,-8.23 28.7,-8.23 12.2,0 21.56,2.74 28.06,8.23 6.52,5.48 9.6,12.96 9.27,22.42 l -0.25,7.39 h -25.06 v -4.73 c 0,-5.17 -0.92,-9.08 -2.75,-11.73 -1.83,-2.65 -4.94,-3.97 -9.27,-3.97 -4.69,0 -7.98,1.32 -9.9,3.97 -1.92,2.65 -2.89,6.56 -2.89,11.73 l 2.52,70.19 c 0.33,4.17 1.25,7.22 2.75,9.18 1.5,1.95 4.01,2.93 7.52,2.93 3.33,0 5.76,-0.98 7.26,-2.93 1.51,-1.96 2.42,-5.01 2.76,-9.18 l 1.25,-26.49 h 25.07 l -1.51,28.95 c -0.67,8.45 -3.84,15.11 -9.52,19.96 -5.68,4.85 -14.12,7.28 -25.3,7.28 -11.19,0 -19.72,-2.43 -25.56,-7.28 -5.85,-4.85 -8.94,-11.51 -9.27,-19.96 l -3,-75.31 z m 88.95,84.01 h 12.54 v -96.11 h -12.54 v -17.6 h 49.87 v 17.6 h -12.28 v 96.11 h 12.28 v 17.6 h -49.87 z m 66.42,-65.69 c -0.61,-13.76 3.41,-23.88 12.77,-30.37 9.35,-6.49 21.47,-9.74 36.33,-9.74 0.22,-9.91 0.19,2.08 0.19,-7.91 h 25.12 v 13.96 c 6.52,-4.04 14.62,-6.06 24.31,-6.06 l 0.25,-7.91 h 25.06 v 131.31 h -25.06 v -105.81 c -8.18,0 -14.33,1.78 -18.41,5.3 -4.09,3.54 -6.15,9.28 -6.15,17.22 v 83.29 h -25.05 v -105.81 c -17.2,0 -25.28,7.5 -24.56,22.52 l 4.02,83.29 h -25.07 l -3.75,-83.29 z m 145.58,-22.29 c 0,-8.46 3.17,-14.85 9.52,-19.21 6.35,-4.35 14.87,-6.53 25.56,-6.53 h 36.33 v 37.09 h -25.05 v -19.49 h -9.52 c -7.85,0 -11.77,3.09 -11.77,9.28 v 20.62 h 32.58 v 17.59 h -32.58 v 48.62 h 20.8 v -25.54 h 25.06 v 43.14 h -70.92 V 2679.7 Z m 85.95,-25.74 h 99.22 v 37.09 h -24.8 v -19.49 h -12.28 v 113.72 h -25.06 v -113.72 h -12.27 v 19.49 h -24.81 z m 113.75,113.71 h 12.53 v -96.11 h -12.53 v -17.6 h 49.87 v 17.6 h -12.28 v 96.11 h 12.28 v 17.6 h -49.87 z m 67.16,-87.98 c 0,-8.46 3.17,-14.85 9.52,-19.21 6.35,-4.35 14.87,-6.53 25.56,-6.53 h 36.33 v 37.09 h -25.05 v -19.49 h -9.52 c -7.85,0 -11.78,3.09 -11.78,9.28 v 20.62 h 32.59 v 17.59 h -32.59 v 48.62 h 20.8 v -25.54 h 25.06 v 43.14 h -70.91 v -105.58 z m 28.81,-35.38 h 20.3 l -8.77,-27.06 h -28.57 z m 63.64,9.65 h 74.93 v 12.87 c 0,18.67 -4.6,32.36 -13.78,41.06 8.52,6.43 12.78,15.07 12.78,25.92 0,1.77 -0.09,3.15 -0.25,4.17 l -3.76,47.3 h -25.07 l 4.02,-47.3 0.25,-3.22 c 0,-7.94 -3.34,-13.37 -10.03,-16.26 -4.51,0.75 -9.18,1.13 -14.03,1.13 v 65.65 h -25.06 v -131.31 z m 25.06,48.06 c 6.84,0 12.69,-2.43 17.54,-7.28 4.85,-4.85 7.27,-11.63 7.27,-20.34 v -2.83 h -24.81 v 30.46 z m 68.91,-22.32 c 0,-8.46 3.17,-14.85 9.52,-19.21 6.35,-4.35 14.87,-6.53 25.56,-6.53 h 36.33 v 37.09 h -25.06 v -19.49 h -9.52 c -7.85,0 -11.77,3.09 -11.77,9.28 v 20.62 h 32.58 v 17.59 h -32.58 v 48.62 h 20.79 v -25.54 h 25.07 v 43.14 h -70.92 V 2679.7 Z m 133.05,-25.74 h 37.59 c 6.51,0 12.61,1.07 18.29,3.22 5.69,2.15 10.23,5.17 13.66,9.08 3.42,3.92 5.13,8.33 5.13,13.25 l -3,80.6 c -0.33,7.06 -3.81,13.02 -10.41,17.88 -6.59,4.85 -14.49,7.28 -23.68,7.28 h -37.59 v -131.31 z m 37.59,113.71 c 5.52,0 8.35,-3.33 8.52,-10.02 l 3.01,-76.06 c 0.16,-3.28 -0.84,-5.77 -3.01,-7.47 -2.18,-1.7 -5.01,-2.56 -8.52,-2.56 h -12.53 v 96.11 z m 56.38,-87.98 c 0,-8.46 3.17,-14.85 9.52,-19.21 6.35,-4.35 14.87,-6.53 25.56,-6.53 h 36.33 v 37.09 h -25.06 v -19.49 h -9.52 c -7.85,0 -11.77,3.09 -11.77,9.28 v 20.62 h 32.58 v 17.59 h -32.58 v 48.62 h 20.8 v -25.54 h 25.07 v 43.14 h -70.92 v -105.58 z m 128.54,2.83 c 0,-9.08 3.22,-16.28 9.65,-21.57 6.44,-5.3 15.83,-7.94 28.19,-7.94 12.2,0 21.56,2.74 28.07,8.23 6.51,5.48 9.6,12.96 9.26,22.42 l -0.24,7.39 h -25.06 v -4.73 c 0,-5.17 -0.92,-9.08 -2.76,-11.73 -1.83,-2.65 -4.92,-3.97 -9.27,-3.97 -4.51,0 -7.77,1.14 -9.77,3.41 -2,2.27 -3.01,5.17 -3.01,8.7 0,3.41 1.67,6.65 5,9.74 3.35,3.09 8.2,6.34 14.55,9.74 7.01,3.79 12.32,6.87 15.91,9.27 3.6,2.39 6.6,5.36 9.02,8.89 2.42,3.54 3.63,7.82 3.63,12.87 l -0.25,3.22 -2.01,22.51 c -0.84,8.45 -3.93,15.11 -9.27,19.96 -5.33,4.85 -13.2,7.28 -23.55,7.28 -10.52,0 -18.58,-2.46 -24.18,-7.38 -5.59,-4.92 -8.56,-11.54 -8.89,-19.87 l -0.75,-28.95 h 24.05 l 1.01,26.49 c 0.17,8.08 3.09,12.11 8.77,12.11 2.67,0 4.69,-0.98 6.01,-2.93 1.33,-1.96 2.17,-5.01 2.51,-9.18 l 1.25,-16.84 c 0.18,-4.04 -0.16,-7.31 -1,-9.83 -0.84,-2.52 -2.43,-4.73 -4.76,-6.63 -2.33,-1.89 -5.84,-4.16 -10.52,-6.81 -1.17,-0.62 -4.84,-2.61 -11.02,-5.96 -6.19,-3.35 -11.16,-7.41 -14.92,-12.2 -3.76,-4.8 -5.64,-10.03 -5.64,-15.7 z m 88.71,19.46 c -0.61,-13.75 3.43,-23.88 12.78,-30.37 9.35,-6.48 21.56,-9.74 36.59,-9.74 l 0.12,-7.92 h 25.18 v 131.31 h -25.05 v -42.76 h -23.56 l 2.77,42.76 h -25.07 z m 24.81,22.93 h 24.81 v -45.44 c -8.35,0 -14.7,1.77 -19.05,5.3 -4.34,3.53 -5.76,9.27 -5.76,17.22 v 22.93 z m 68.9,42.76 h 12.54 v -96.11 h -12.54 v -17.6 h 49.87 v 17.6 h -12.28 v 96.11 h 12.28 v 17.6 h -49.87 z m 69.92,-113.71 h 25.06 v 35.95 l 24.8,15.89 v -51.85 h 25.07 v 131.31 h -25.07 v -56.39 l -24.8,-15.89 v 72.28 h -25.06 v -131.31 z m 92.72,0 h 99.22 v 37.09 h -24.8 v -19.49 h -12.28 v 113.72 h -25.06 v -113.72 h -12.28 v 19.49 h -24.81 v -37.09 z m 115.02,25.74 c 0,-8.46 3.17,-14.85 9.52,-19.21 6.35,-4.35 14.87,-6.53 25.56,-6.53 h 36.33 v 37.09 h -25.05 v -19.49 h -9.52 c -7.85,0 -11.78,3.09 -11.78,9.28 v 20.62 h 32.58 v 17.59 h -32.58 v 48.62 h 20.8 v -25.54 h 25.06 v 43.14 h -70.91 V 2679.7 Z m 130.8,3.97 c -0.33,-9.46 2.71,-16.94 9.15,-22.42 6.44,-5.48 15.99,-8.23 28.69,-8.23 12.19,0 21.55,2.74 28.06,8.23 6.52,5.48 9.61,12.96 9.27,22.42 l -0.25,7.39 h -25.06 v -4.73 c 0,-5.17 -0.92,-9.08 -2.76,-11.73 -1.83,-2.65 -4.92,-3.97 -9.26,-3.97 -4.68,0 -7.98,1.32 -9.9,3.97 -1.93,2.65 -2.89,6.56 -2.89,11.73 l 2.51,70.19 c 0.34,4.17 1.26,7.22 2.77,9.18 1.5,1.95 4,2.93 7.51,2.93 3.34,0 5.77,-0.98 7.27,-2.93 1.5,-1.96 2.42,-5.01 2.75,-9.18 l 1.51,-35.38 h -11.78 v -17.59 h 37.58 l -2.5,55.43 c -0.68,8.45 -3.85,15.11 -9.52,19.96 -5.69,4.85 -14.12,7.28 -25.31,7.28 -11.2,0 -19.71,-2.43 -25.56,-7.28 -5.85,-4.85 -8.94,-11.51 -9.27,-19.96 z m 92.72,-3.97 c 0,-8.46 3.17,-14.85 9.52,-19.21 6.35,-4.35 14.87,-6.53 25.56,-6.53 h 36.33 v 37.09 h -25.06 v -19.49 h -9.52 c -7.85,0 -11.77,3.09 -11.77,9.28 v 20.62 h 32.58 v 17.59 h -32.58 v 48.62 h 20.79 v -25.54 h 25.07 v 43.14 h -70.92 V 2679.7 Z m 92.46,-25.74 h 25.07 v 35.95 l 24.8,15.89 v -51.85 h 25.07 v 131.31 h -25.07 v -56.39 l -24.8,-15.89 v 72.28 h -25.07 v -131.31 z m 97.74,25.74 c 0,-8.46 3.16,-14.85 9.51,-19.21 6.36,-4.35 14.87,-6.53 25.56,-6.53 h 36.34 v 37.09 h -25.05 v -19.49 h -9.53 c -7.85,0 -11.77,3.09 -11.77,9.28 v 20.62 h 32.58 v 17.59 h -32.58 v 48.62 h 20.79 v -25.54 h 25.07 v 43.14 h -70.91 V 2679.7 Z m 111.25,-25.74 7.76,113.71 h 7.02 c 9.19,-20.3 13.78,-38.79 13.78,-55.43 0,-16.78 -4.51,-30.34 -13.53,-40.68 v -17.6 h 41.1 v 17.6 h -13.28 c 6.68,12.11 10.02,25.1 10.02,38.98 0,10.34 -1.87,21.6 -5.64,33.77 -3.76,12.18 -9.31,25.83 -16.66,40.97 h -45.35 l -10.27,-131.31 h 25.06 z m 68.9,113.71 h 12.54 v -96.11 h -12.54 v -17.6 h 49.87 v 17.6 h -12.27 v 96.11 h 12.27 v 17.6 h -49.87 z m 67.16,-87.98 c 0,-8.46 3.17,-14.85 9.52,-19.21 6.35,-4.35 14.87,-6.53 25.56,-6.53 h 36.33 v 37.09 h -25.05 v -19.49 h -9.52 c -7.85,0 -11.78,3.09 -11.78,9.28 v 20.62 h 32.59 v 17.59 h -32.59 v 48.62 h 20.8 v -25.54 h 25.06 v 43.14 H 3139 v -105.58 z m 28.81,-35.38 h 20.3 l -8.77,-27.06 h -28.56 l 17.04,27.06 z m 82.44,9.65 7.77,113.71 h 7.01 c 9.2,-20.3 13.78,-38.79 13.78,-55.43 0,-16.78 -4.51,-30.34 -13.53,-40.68 v -17.6 h 41.1 v 17.6 h -13.28 c 6.68,12.11 10.02,25.1 10.02,38.98 0,10.34 -1.88,21.6 -5.65,33.77 -3.75,12.18 -9.31,25.83 -16.65,40.97 h -45.36 l -10.27,-131.31 h 25.05 z m 71.17,25.74 c 0,-8.46 3.16,-14.85 9.51,-19.21 6.36,-4.35 14.88,-6.53 25.56,-6.53 h 36.33 v 37.09 h -25.05 v -19.49 h -9.53 c -7.85,0 -11.77,3.09 -11.77,9.28 v 20.62 h 32.58 v 17.59 h -32.58 v 48.62 h 20.79 v -25.54 h 25.07 v 43.14 h -70.91 V 2679.7 Z m 133.04,-25.74 h 37.58 c 6.52,0 12.62,1.07 18.3,3.22 5.68,2.15 10.23,5.17 13.66,9.08 3.42,3.92 5.14,8.33 5.14,13.25 l -3.01,80.6 c -0.34,7.06 -3.8,13.02 -10.41,17.88 -6.6,4.85 -14.48,7.28 -23.68,7.28 h -37.58 z m 37.58,113.71 c 5.52,0 8.36,-3.33 8.53,-10.02 l 3.01,-76.06 c 0.16,-3.28 -0.84,-5.77 -3.01,-7.47 -2.18,-1.7 -5.02,-2.56 -8.53,-2.56 h -12.52 v 96.11 z m 56.39,-87.98 c 0,-8.46 3.16,-14.85 9.51,-19.21 6.36,-4.35 14.88,-6.53 25.56,-6.53 h 36.33 v 37.09 h -25.05 v -19.49 h -9.53 c -7.85,0 -11.77,3.09 -11.77,9.28 v 20.62 h 32.58 v 17.59 h -32.58 v 48.62 h 20.79 v -25.54 h 25.07 v 43.14 h -70.91 v -105.58 z m 86.69,2.83 c 0,-9.08 3.22,-16.28 9.65,-21.57 6.44,-5.3 15.83,-7.94 28.19,-7.94 12.21,0 21.56,2.74 28.08,8.23 6.51,5.48 9.59,12.96 9.26,22.42 l -0.24,7.39 h -25.07 v -4.73 c 0,-5.17 -0.91,-9.08 -2.75,-11.73 -1.85,-2.65 -4.93,-3.97 -9.28,-3.97 -4.51,0 -7.76,1.14 -9.76,3.41 -2.01,2.27 -3.01,5.17 -3.01,8.7 0,3.41 1.66,6.65 5,9.74 3.34,3.09 8.19,6.34 14.54,9.74 7.01,3.79 12.32,6.87 15.92,9.27 3.59,2.39 6.6,5.36 9.01,8.89 2.42,3.54 3.63,7.82 3.63,12.87 l -0.25,3.22 -2,22.51 c -0.84,8.45 -3.93,15.11 -9.27,19.96 -5.34,4.85 -13.2,7.28 -23.55,7.28 -10.53,0 -18.59,-2.46 -24.19,-7.38 -5.59,-4.92 -8.56,-11.54 -8.89,-19.87 l -0.75,-28.95 h 24.05 l 1.02,26.49 c 0.16,8.08 3.09,12.11 8.77,12.11 2.68,0 4.68,-0.98 6.01,-2.93 1.33,-1.96 2.17,-5.01 2.5,-9.18 l 1.26,-16.84 c 0.17,-4.04 -0.17,-7.31 -1,-9.83 -0.84,-2.52 -2.42,-4.73 -4.76,-6.63 -2.33,-1.89 -5.83,-4.16 -10.52,-6.81 -1.17,-0.62 -4.85,-2.61 -11.02,-5.96 -6.19,-3.35 -11.16,-7.41 -14.91,-12.2 -3.76,-4.8 -5.65,-10.03 -5.65,-15.7 z m 134.56,-28.57 h 74.93 v 12.3 c 0,18.8 -4.76,32.61 -14.28,41.44 8.85,6.06 13.27,14.57 13.27,25.55 l -0.25,3.97 -3.75,48.06 h -69.92 v -131.31 z m 25.07,47.5 c 6.84,0 12.69,-2.43 17.54,-7.29 4.84,-4.85 7.26,-11.63 7.26,-20.33 v -2.27 h -24.8 v 29.9 z m 21.55,66.22 2.51,-30.46 c 0.67,-9.58 -2.34,-16.08 -9.02,-19.49 -4.51,0.88 -9.52,1.33 -15.03,1.33 v 48.62 h 21.55 z m 45.6,-84.01 c -0.33,-9.58 2.76,-17.09 9.28,-22.51 6.5,-5.43 16.19,-8.14 29.06,-8.14 12.7,0 22.31,2.74 28.81,8.23 6.51,5.48 9.61,12.96 9.27,22.42 l -3.01,75.31 c -0.66,8.45 -3.84,15.11 -9.52,19.96 -5.67,4.85 -14.19,7.28 -25.55,7.28 -11.53,0 -20.22,-2.43 -26.06,-7.28 -5.85,-4.85 -8.94,-11.51 -9.27,-19.96 z m 27.56,72.85 c 0.34,4.29 1.3,7.39 2.89,9.27 1.58,1.89 4.22,2.84 7.89,2.84 3.68,0 6.26,-0.95 7.76,-2.84 1.51,-1.89 2.42,-4.98 2.76,-9.27 l 2.52,-70.19 c 0,-5.3 -0.98,-9.24 -2.89,-11.83 -1.92,-2.59 -5.31,-3.88 -10.15,-3.88 -4.85,0 -8.27,1.32 -10.28,3.97 -2,2.65 -3,6.56 -3,11.73 l 2.5,70.19 z m 63.9,11.16 h 12.53 v -96.11 h -12.53 v -17.6 h 49.87 v 17.6 h -12.28 v 96.11 h 12.28 v 17.6 h -49.87 z m 63.4,-85.14 c 0,-9.08 3.22,-16.28 9.65,-21.57 6.44,-5.3 15.83,-7.94 28.19,-7.94 12.2,0 21.55,2.74 28.07,8.23 6.52,5.48 9.6,12.96 9.26,22.42 l -0.24,7.39 h -25.06 v -4.73 c 0,-5.17 -0.92,-9.08 -2.76,-11.73 -1.84,-2.65 -4.92,-3.97 -9.27,-3.97 -4.51,0 -7.77,1.14 -9.77,3.41 -2,2.27 -3,5.17 -3,8.7 0,3.41 1.66,6.65 5,9.74 3.34,3.09 8.2,6.34 14.54,9.74 7.01,3.79 12.32,6.87 15.91,9.27 3.59,2.39 6.6,5.36 9.02,8.89 2.42,3.54 3.63,7.82 3.63,12.87 l -0.25,3.22 -2.01,22.51 c -0.84,8.45 -3.92,15.11 -9.27,19.96 -5.33,4.85 -13.2,7.28 -23.55,7.28 -10.52,0 -18.58,-2.46 -24.18,-7.38 -5.59,-4.92 -8.56,-11.54 -8.89,-19.87 l -0.76,-28.95 h 24.05 l 1.01,26.49 c 0.17,8.08 3.09,12.11 8.77,12.11 2.68,0 4.69,-0.98 6.02,-2.93 1.33,-1.96 2.17,-5.01 2.5,-9.18 l 1.25,-16.84 c 0.18,-4.04 -0.16,-7.31 -1,-9.83 -0.84,-2.52 -2.43,-4.73 -4.76,-6.63 -2.33,-1.89 -5.84,-4.16 -10.52,-6.81 -1.17,-0.62 -4.85,-2.61 -11.02,-5.96 -6.19,-3.35 -11.16,-7.41 -14.92,-12.2 -3.76,-4.8 -5.64,-10.03 -5.64,-15.7 z"
     id="path74"
     style="fill:#ffffff" /></g>
</svg>
