<?xml version="1.0" encoding="UTF-8" standalone="no"?>
<svg
   xmlns:dc="http://purl.org/dc/elements/1.1/"
   xmlns:cc="http://creativecommons.org/ns#"
   xmlns:rdf="http://www.w3.org/1999/02/22-rdf-syntax-ns#"
   xmlns:svg="http://www.w3.org/2000/svg"
   xmlns="http://www.w3.org/2000/svg"
   xmlns:sodipodi="http://sodipodi.sourceforge.net/DTD/sodipodi-0.dtd"
   xmlns:inkscape="http://www.inkscape.org/namespaces/inkscape"
   xml:space="preserve"
   width="7.5in"
   height="0.3in"
   version="1.1"
   style="shape-rendering:geometricPrecision; text-rendering:geometricPrecision; image-rendering:optimizeQuality; fill-rule:evenodd; clip-rule:evenodd"
   viewBox="0 0 7500 300"
   id="svg1599"
   sodipodi:docname="ornament2.svg"
   inkscape:version="1.0.1 (3bc2e813f5, 2020-09-07)"><metadata
   id="metadata1603"><rdf:RDF><cc:Work
       rdf:about=""><dc:format>image/svg+xml</dc:format><dc:type
         rdf:resource="http://purl.org/dc/dcmitype/StillImage" /><dc:title></dc:title></cc:Work></rdf:RDF></metadata><sodipodi:namedview
   pagecolor="#ffffff"
   bordercolor="#666666"
   borderopacity="1"
   objecttolerance="10"
   gridtolerance="10"
   guidetolerance="10"
   inkscape:pageopacity="0"
   inkscape:pageshadow="2"
   inkscape:window-width="1920"
   inkscape:window-height="976"
   id="namedview1601"
   showgrid="false"
   inkscape:zoom="1.6393312"
   inkscape:cx="360"
   inkscape:cy="14.400001"
   inkscape:window-x="-8"
   inkscape:window-y="-8"
   inkscape:window-maximized="1"
   inkscape:current-layer="svg1599" />
 <defs
   id="defs1554">
  <style
   type="text/css"
   id="style1552">
   <![CDATA[
    .fil0 {fill:#1F2537}
    .fil1 {fill:#1F2537;fill-rule:nonzero}
   ]]>
  </style>
 </defs>
 <g
   id="Layer_x0020_1"
   transform="matrix(1.0242154,0,0,1,-90.789147,0)">
  <metadata
   id="CorelCorpID_0Corel-Layer" />
  <g
   id="_1903451421504">
   <g
   id="g1593">
    <g
   id="g1573">
     <path
   class="fil0"
   d="m 958.18,181.41 c -4.81,-5.7 -8.64,-10.47 -11.89,-14.59 -14.04,-17.8 -17.06,-23.45 -40.09,-40.3 l 0.41,0.64 c 13.22,20.72 11.26,33.33 7.78,43.19 -4.04,11.46 -10.13,19.2 3.29,31.65 2.58,2.39 3.93,1.4 6.56,0.35 0.05,-1.17 0.17,-2.19 0.35,-3.11 4.26,-22.27 43.2,25.17 2.8,24.33 -2.84,-0.06 -9.58,-0.8 -12.38,-3.57 -4.41,-2.86 -2.71,-1.63 -6.51,-4.63 -10.49,5.37 -14.41,7.48 -24.05,0.83 -41.52,14.86 -109.22,13.28 -130.22,-34.07 -7.16,-16.14 -1.29,-53.08 22.75,-55.82 38.86,-4.42 49.37,29.85 7.61,37.41 -14.72,2.66 -10.69,28.48 4.41,32.1 -1.54,-9.75 -5.1,-18.7 15.59,-23.72 6.89,-1.67 12.61,-2.14 19.06,-2.26 -8.69,-16.62 -0.01,-46.67 18.59,-50.32 0.81,-0.16 1.64,-0.28 2.5,-0.33 l 6.46,-0.17 c 0.06,0 0.11,0 0.17,0.01 1.2,-0.09 2.33,0.72 2.59,1.94 0.22,2.79 -6.81,18.24 4.11,15.04 14.04,-4.12 17.68,-28.91 -12.38,-39.57 -4.66,-1.65 -7.79,-3.06 -10.22,-4.2 -8.86,-4.18 -8.29,-4.81 -38.56,-0.96 -4.48,0.57 -8.96,1.3 -13.27,2.48 -4.5,1.24 -8.81,2.99 -12.77,5.59 l -0.35,0.24 c 4.92,22.71 -1.91,27.35 -20.81,41.95 -9.3,7.19 -19,9.48 -29.65,14.19 27.06,10.1 28.15,55.91 -8.12,57.06 -0.21,0.03 -0.43,0.04 -0.63,0.02 -0.15,0 -0.29,0.01 -0.44,0.01 -1.11,0 -2.05,-0.74 -2.36,-1.75 -0.07,-0.23 -0.11,-0.47 -0.11,-0.72 0,-1.36 1.11,-2.47 2.47,-2.47 h 0.1 0.17 c 2.77,-1.22 2.59,-5.99 0.17,-9.05 -3.02,-3.82 -9.52,-4.98 -18.12,6.8 -1.58,2.16 -3.81,4.16 -6.55,5.98 -19.85,13.19 -66.51,16.87 -86.91,4.1 -0.11,-0.08 -0.22,-0.17 -0.31,-0.27 -10.36,-4.32 -19.85,-17.22 -25.44,-25.96 -8.33,-13.02 -13.44,-19.65 -21.63,-31.06 -0.22,-0.26 -0.37,-0.55 -0.47,-0.85 -1.13,-1.13 -2.93,-2.59 -5.1,-4.13 -4.85,-3.44 -11.59,-7.3 -17.04,-8.83 -2.02,-0.57 -3.86,-0.83 -5.37,-0.63 -1.33,0.28 -2.64,-0.58 -2.92,-1.92 -0.17,-0.84 0.1,-1.67 0.66,-2.23 -0.11,-0.81 0.19,-1.66 0.87,-2.23 11.48,-7.52 31.65,1.46 41.37,7.85 0.06,0.04 0.11,0.09 0.17,0.14 8.66,3.37 14.11,6.35 15.92,13.96 4.26,-3.54 10.48,-4.13 16.26,-4.11 -1.29,-1.82 -2.5,-3.67 -3.35,-5.69 -20.46,-48.19 36.02,-79.36 41.09,-44.52 0.03,0.7 -0.23,1.35 -0.69,1.82 0,0.84 -0.43,1.66 -1.2,2.12 -0.18,0.13 -0.34,0.25 -0.51,0.37 -10.99,8.24 -1.78,17.67 7.18,23.35 0.8,0.5 1.59,0.98 2.37,1.43 0.27,0.13 0.51,0.3 0.7,0.5 3.87,-1.29 7.06,-1.96 9.67,-2.03 8.24,-0.22 10.95,5.56 12.33,17.15 15.99,-3.15 11.26,-28.02 -4.96,-35.82 -3.4,-1.64 -7.31,-2.52 -11.65,-2.29 -1.88,0.1 -3.84,0.4 -5.87,0.95 l -0.05,0.02 h -0.01 l -0.02,0.01 -0.03,0.01 h -0.01 l -0.05,0.02 h -0.02 c -0.08,0.03 -0.16,0.05 -0.24,0.06 l -0.03,0.01 h -0.03 l -0.03,0.01 h -0.03 -0.03 -0.03 l -0.06,0.01 h -0.03 -0.03 -0.03 -0.03 -0.03 -0.03 -0.03 -0.03 -0.03 -0.03 -0.03 -0.03 -0.03 -0.03 -0.04 -0.02 -0.04 -0.02 -0.04 -0.02 l -0.04,-0.01 h -0.02 l -0.04,-0.01 h -0.02 l -0.04,-0.01 h -0.01 l -0.05,-0.01 -0.06,-0.02 v 0 l -0.06,-0.02 v 0 l -0.06,-0.02 v 0 l -0.05,-0.02 h -0.01 l -0.05,-0.02 h -0.01 l -0.04,-0.02 -0.02,-0.01 -0.04,-0.02 -0.06,-0.02 -0.02,-0.01 -0.04,-0.02 -0.02,-0.01 -0.03,-0.02 -0.06,-0.03 -0.02,-0.01 -0.03,-0.02 c -0.05,-0.03 -0.1,-0.06 -0.15,-0.09 l -0.03,-0.02 -0.02,-0.02 c -0.05,-0.03 -0.09,-0.07 -0.14,-0.11 l -0.03,-0.02 -0.02,-0.02 -0.02,-0.02 -0.02,-0.02 -0.03,-0.02 -0.02,-0.02 -0.03,-0.02 -0.02,-0.02 -0.02,-0.02 -0.02,-0.02 -0.02,-0.02 -0.02,-0.02 -0.02,-0.02 -0.02,-0.02 -0.02,-0.03 -0.02,-0.02 -0.02,-0.02 -0.04,-0.05 -0.02,-0.03 -0.02,-0.02 -0.07,-0.1 -0.02,-0.03 -0.01,-0.02 -0.02,-0.03 -0.01,-0.02 -0.02,-0.04 -0.01,-0.02 -0.02,-0.04 v -0.01 l -0.02,-0.04 v -0.01 l -0.02,-0.05 v 0 l -0.02,-0.05 v 0 l -0.02,-0.06 v 0 l -0.02,-0.05 v -0.01 l -0.02,-0.05 v -0.01 l -0.02,-0.05 v -0.02 c -0.03,-0.08 -0.05,-0.16 -0.06,-0.24 l -0.01,-0.03 v -0.03 l -0.01,-0.03 v -0.03 -0.03 -0.03 l -0.01,-0.06 v -0.03 -0.03 -0.03 -0.03 -0.03 -0.03 -0.03 -0.03 -0.03 -0.03 -0.03 -0.03 -0.03 -0.03 -0.04 -0.03 -0.04 -0.02 -0.04 -0.02 -0.04 -0.02 l 0.01,-0.04 v -0.02 l 0.01,-0.05 v -0.01 l 0.01,-0.05 c 0.05,-0.2 0.11,-0.39 0.2,-0.57 1.89,-4.87 4.22,-7 9.6,-8.71 20.13,-6.41 29.77,1.88 41.52,14 0.89,-6.97 3.95,-13.71 8.11,-19.76 11.86,-17.27 23.06,-10.84 36.13,-4.56 0.35,0.13 0.65,0.33 0.89,0.58 8.52,-9.14 21.24,-12.42 26.3,-3.87 40.34,-18.28 58.57,-12.61 108.2,1.19 0.53,0.17 0.97,0.5 1.27,0.92 0.29,-0.01 0.58,0.04 0.87,0.14 17.55,5.63 34.13,4.14 52.51,1.58 32.85,-4.58 30.88,-8.89 40.54,8.78 5.81,0.99 7.09,4.03 7.36,9.72 17.69,5.92 23.48,13.94 14.86,29 25.74,8.29 16.39,65.09 -27.46,44.93 -0.71,-0.42 -1.14,-1.15 -1.2,-1.91 z"
   id="path1557" />
     <path
   class="fil0"
   d="m 496.72,181.41 c -4.81,-5.7 -8.64,-10.47 -11.89,-14.59 -14.04,-17.8 -17.06,-23.45 -40.09,-40.3 l 0.41,0.64 c 13.22,20.72 11.26,33.33 7.78,43.19 -4.05,11.46 -10.13,19.2 3.28,31.65 2.58,2.39 3.93,1.4 6.56,0.35 0.05,-1.17 0.17,-2.19 0.35,-3.11 4.26,-22.27 43.19,25.17 2.8,24.33 -2.84,-0.06 -9.58,-0.8 -12.38,-3.57 -4.41,-2.86 -2.7,-1.63 -6.51,-4.63 -10.49,5.37 -14.4,7.48 -24.05,0.83 -41.52,14.86 -109.22,13.28 -130.21,-34.07 -7.16,-16.14 -1.29,-53.08 22.74,-55.82 38.86,-4.42 49.37,29.85 7.61,37.41 -14.72,2.66 -10.69,28.48 4.41,32.1 -1.54,-9.75 -5.1,-18.7 15.59,-23.72 6.89,-1.67 12.61,-2.14 19.06,-2.26 -8.69,-16.62 -0.01,-46.67 18.59,-50.32 0.81,-0.16 1.65,-0.28 2.5,-0.33 l 6.46,-0.17 c 0.06,0 0.11,0 0.17,0.01 1.21,-0.09 2.33,0.72 2.59,1.94 0.22,2.79 -6.81,18.24 4.11,15.04 14.04,-4.12 17.68,-28.91 -12.38,-39.57 -4.66,-1.65 -7.79,-3.06 -10.22,-4.2 -8.86,-4.18 -8.28,-4.81 -38.56,-0.96 -4.49,0.57 -8.96,1.3 -13.27,2.48 -4.5,1.24 -8.82,2.99 -12.78,5.59 l -0.35,0.24 c 4.92,22.71 -1.9,27.35 -20.81,41.95 -9.3,7.19 -19,9.48 -29.65,14.19 27.06,10.1 28.15,55.91 -8.11,57.06 -0.22,0.03 -0.43,0.04 -0.64,0.02 -0.15,0 -0.29,0.01 -0.44,0.01 -1.11,0 -2.05,-0.74 -2.36,-1.75 -0.07,-0.23 -0.11,-0.47 -0.11,-0.72 0,-1.36 1.11,-2.47 2.47,-2.47 h 0.1 0.17 c 2.77,-1.22 2.59,-5.99 0.18,-9.05 -3.02,-3.82 -9.52,-4.98 -18.12,6.8 -1.58,2.16 -3.81,4.16 -6.56,5.98 -19.85,13.19 -66.51,16.87 -86.91,4.1 -0.11,-0.08 -0.22,-0.17 -0.31,-0.27 -10.36,-4.32 -19.85,-17.22 -25.44,-25.96 -8.33,-13.02 -13.44,-19.65 -21.62,-31.06 -0.22,-0.26 -0.38,-0.55 -0.47,-0.85 -1.13,-1.13 -2.93,-2.59 -5.1,-4.13 -4.85,-3.44 -11.59,-7.3 -17.04,-8.83 -2.02,-0.57 -3.86,-0.83 -5.37,-0.63 -1.34,0.28 -2.65,-0.58 -2.92,-1.92 -0.17,-0.84 0.1,-1.67 0.66,-2.23 -0.11,-0.81 0.19,-1.66 0.87,-2.23 11.48,-7.52 31.65,1.46 41.37,7.85 0.06,0.04 0.11,0.09 0.17,0.14 8.66,3.37 14.11,6.35 15.92,13.96 4.26,-3.54 10.48,-4.13 16.26,-4.11 -1.29,-1.82 -2.5,-3.67 -3.35,-5.69 -20.46,-48.19 36.02,-79.36 41.09,-44.52 0.03,0.7 -0.23,1.35 -0.69,1.82 0,0.84 -0.43,1.66 -1.2,2.12 -0.17,0.13 -0.34,0.25 -0.51,0.37 -11,8.24 -1.78,17.67 7.17,23.35 0.8,0.5 1.59,0.98 2.37,1.43 0.27,0.13 0.51,0.3 0.71,0.5 3.87,-1.29 7.05,-1.96 9.67,-2.03 8.24,-0.22 10.95,5.56 12.33,17.15 16,-3.15 11.26,-28.02 -4.95,-35.82 -3.41,-1.64 -7.32,-2.52 -11.65,-2.29 -1.88,0.1 -3.84,0.4 -5.87,0.95 l -0.05,0.02 h -0.01 l -0.02,0.01 -0.03,0.01 h -0.01 l -0.05,0.02 h -0.01 c -0.08,0.03 -0.16,0.05 -0.24,0.06 l -0.03,0.01 h -0.03 l -0.03,0.01 h -0.03 -0.03 -0.03 l -0.06,0.01 h -0.03 -0.03 -0.03 -0.03 -0.03 -0.03 -0.03 -0.03 -0.03 -0.03 -0.03 -0.03 -0.03 -0.03 -0.04 -0.02 -0.04 -0.02 -0.04 -0.02 l -0.04,-0.01 h -0.02 l -0.04,-0.01 h -0.02 l -0.05,-0.01 h -0.01 l -0.05,-0.01 -0.06,-0.02 v 0 l -0.06,-0.02 v 0 l -0.06,-0.02 v 0 l -0.05,-0.02 h -0.01 l -0.05,-0.02 h -0.01 l -0.04,-0.02 -0.02,-0.01 -0.04,-0.02 -0.06,-0.02 -0.02,-0.01 -0.04,-0.02 -0.02,-0.01 -0.03,-0.02 -0.06,-0.03 -0.02,-0.01 -0.03,-0.02 c -0.05,-0.03 -0.1,-0.06 -0.15,-0.09 l -0.03,-0.02 -0.02,-0.02 c -0.05,-0.03 -0.09,-0.07 -0.14,-0.11 l -0.03,-0.02 -0.02,-0.02 -0.02,-0.02 -0.02,-0.02 -0.02,-0.02 -0.02,-0.02 -0.03,-0.02 -0.02,-0.02 -0.02,-0.02 -0.02,-0.02 -0.02,-0.02 -0.02,-0.02 -0.02,-0.02 -0.02,-0.02 -0.02,-0.03 -0.02,-0.02 -0.02,-0.02 -0.04,-0.05 -0.02,-0.03 -0.02,-0.02 -0.07,-0.1 -0.02,-0.03 -0.01,-0.02 -0.02,-0.03 -0.01,-0.02 -0.02,-0.04 -0.01,-0.02 -0.02,-0.04 v -0.01 l -0.02,-0.04 v -0.01 l -0.02,-0.05 v 0 l -0.02,-0.05 v 0 l -0.02,-0.06 v 0 l -0.02,-0.05 v -0.01 l -0.02,-0.05 v -0.01 l -0.02,-0.05 v -0.02 c -0.02,-0.08 -0.05,-0.16 -0.06,-0.24 l -0.01,-0.03 V 110.9 L 177,110.87 v -0.03 -0.03 -0.03 l -0.01,-0.06 v -0.03 -0.03 -0.03 -0.03 -0.03 -0.03 -0.03 -0.03 -0.03 -0.03 -0.03 -0.03 -0.03 -0.03 -0.04 -0.03 -0.04 -0.02 -0.04 -0.02 -0.04 -0.02 l 0.01,-0.04 v -0.02 l 0.01,-0.05 v -0.01 l 0.01,-0.05 c 0.05,-0.2 0.11,-0.39 0.2,-0.57 1.89,-4.87 4.23,-7 9.6,-8.71 20.13,-6.41 29.77,1.88 41.52,14 0.89,-6.97 3.95,-13.71 8.11,-19.76 11.86,-17.27 23.06,-10.84 36.13,-4.56 0.35,0.13 0.65,0.33 0.89,0.58 8.52,-9.14 21.24,-12.42 26.3,-3.87 40.34,-18.28 58.57,-12.61 108.2,1.19 0.54,0.17 0.97,0.5 1.27,0.92 0.29,-0.01 0.58,0.04 0.87,0.14 17.55,5.63 34.13,4.14 52.51,1.58 32.85,-4.58 30.88,-8.89 40.54,8.78 5.81,0.99 7.09,4.03 7.36,9.72 17.69,5.92 23.48,13.94 14.86,29 25.74,8.29 16.39,65.09 -27.46,44.93 -0.71,-0.42 -1.14,-1.15 -1.2,-1.91 z"
   id="path1559" />
     <path
   class="fil0"
   d="m 1879.48,181.41 c -4.81,-5.7 -8.64,-10.47 -11.89,-14.59 -14.04,-17.8 -17.06,-23.45 -40.09,-40.3 l 0.41,0.64 c 13.22,20.72 11.26,33.33 7.78,43.19 -4.04,11.46 -10.13,19.2 3.29,31.65 2.58,2.39 3.93,1.4 6.56,0.35 0.05,-1.17 0.17,-2.19 0.35,-3.11 4.26,-22.27 43.2,25.17 2.8,24.33 -2.84,-0.06 -9.58,-0.8 -12.38,-3.57 -4.41,-2.86 -2.71,-1.63 -6.51,-4.63 -10.49,5.37 -14.41,7.48 -24.05,0.83 -41.52,14.86 -109.22,13.28 -130.22,-34.07 -7.16,-16.14 -1.29,-53.08 22.75,-55.82 38.86,-4.42 49.37,29.85 7.61,37.41 -14.72,2.66 -10.69,28.48 4.41,32.1 -1.54,-9.75 -5.1,-18.7 15.59,-23.72 6.89,-1.67 12.61,-2.14 19.06,-2.26 -8.69,-16.62 -0.01,-46.67 18.59,-50.32 0.81,-0.16 1.64,-0.28 2.49,-0.33 l 6.46,-0.17 c 0.06,0 0.11,0 0.17,0.01 1.2,-0.09 2.33,0.72 2.59,1.94 0.22,2.79 -6.81,18.24 4.11,15.04 14.04,-4.12 17.68,-28.91 -12.38,-39.57 -4.66,-1.65 -7.79,-3.06 -10.22,-4.2 -8.86,-4.18 -8.29,-4.81 -38.56,-0.96 -4.48,0.57 -8.96,1.3 -13.27,2.48 -4.5,1.24 -8.81,2.99 -12.77,5.59 l -0.35,0.24 c 4.92,22.71 -1.91,27.35 -20.81,41.95 -9.3,7.19 -19,9.48 -29.65,14.19 27.06,10.1 28.15,55.91 -8.12,57.06 -0.21,0.03 -0.43,0.04 -0.63,0.02 -0.15,0 -0.29,0.01 -0.44,0.01 -1.11,0 -2.05,-0.74 -2.36,-1.75 -0.07,-0.23 -0.11,-0.47 -0.11,-0.72 0,-1.36 1.11,-2.47 2.47,-2.47 h 0.1 0.17 c 2.77,-1.22 2.59,-5.99 0.17,-9.05 -3.02,-3.82 -9.52,-4.98 -18.12,6.8 -1.58,2.16 -3.81,4.16 -6.55,5.98 -19.85,13.19 -66.51,16.87 -86.91,4.1 -0.11,-0.08 -0.22,-0.17 -0.32,-0.27 -10.35,-4.32 -19.84,-17.22 -25.44,-25.96 -8.33,-13.02 -13.44,-19.65 -21.63,-31.06 -0.22,-0.26 -0.37,-0.55 -0.47,-0.85 -1.13,-1.13 -2.93,-2.59 -5.1,-4.13 -4.85,-3.44 -11.59,-7.3 -17.04,-8.83 -2.02,-0.57 -3.86,-0.83 -5.37,-0.63 -1.33,0.28 -2.64,-0.58 -2.92,-1.92 -0.17,-0.84 0.1,-1.67 0.66,-2.23 -0.11,-0.81 0.19,-1.66 0.87,-2.23 11.48,-7.52 31.65,1.46 41.37,7.85 0.06,0.04 0.11,0.09 0.17,0.14 8.66,3.37 14.11,6.35 15.92,13.96 4.26,-3.54 10.48,-4.13 16.26,-4.11 -1.29,-1.82 -2.5,-3.67 -3.35,-5.69 -20.46,-48.19 36.02,-79.36 41.08,-44.52 0.04,0.7 -0.23,1.35 -0.68,1.82 0,0.84 -0.43,1.66 -1.2,2.12 -0.18,0.13 -0.34,0.25 -0.51,0.37 -10.99,8.24 -1.78,17.67 7.18,23.35 0.8,0.5 1.59,0.98 2.37,1.43 0.27,0.13 0.51,0.3 0.7,0.5 3.87,-1.29 7.06,-1.96 9.67,-2.03 8.24,-0.22 10.95,5.56 12.33,17.15 15.99,-3.15 11.26,-28.02 -4.96,-35.82 -3.41,-1.64 -7.31,-2.52 -11.65,-2.29 -1.88,0.1 -3.84,0.4 -5.87,0.95 l -0.05,0.02 h -0.01 l -0.02,0.01 -0.03,0.01 h -0.01 l -0.05,0.02 h -0.02 c -0.08,0.03 -0.16,0.05 -0.24,0.06 l -0.03,0.01 h -0.03 l -0.03,0.01 h -0.03 -0.03 -0.03 l -0.06,0.01 h -0.03 -0.03 -0.03 -0.03 -0.03 -0.03 -0.03 -0.03 -0.03 -0.03 -0.03 -0.03 -0.03 -0.03 -0.04 -0.03 -0.04 -0.02 -0.04 -0.02 l -0.04,-0.01 h -0.02 l -0.04,-0.01 h -0.02 l -0.05,-0.01 h -0.01 l -0.05,-0.01 -0.06,-0.02 v 0 l -0.06,-0.02 v 0 l -0.06,-0.02 v 0 l -0.05,-0.02 h -0.01 l -0.05,-0.02 h -0.01 l -0.04,-0.02 -0.02,-0.01 -0.04,-0.02 -0.06,-0.02 -0.02,-0.01 -0.04,-0.02 -0.02,-0.01 -0.03,-0.02 -0.06,-0.03 -0.02,-0.01 -0.03,-0.02 c -0.05,-0.03 -0.1,-0.06 -0.15,-0.09 l -0.03,-0.02 -0.02,-0.02 c -0.05,-0.03 -0.09,-0.07 -0.14,-0.11 l -0.03,-0.02 -0.02,-0.02 -0.03,-0.02 -0.02,-0.02 -0.03,-0.02 -0.02,-0.02 -0.03,-0.02 -0.02,-0.02 -0.02,-0.02 -0.02,-0.02 -0.02,-0.02 -0.02,-0.02 -0.02,-0.02 -0.02,-0.02 -0.02,-0.03 -0.02,-0.02 -0.02,-0.02 -0.04,-0.05 -0.02,-0.03 -0.02,-0.02 -0.07,-0.1 -0.02,-0.03 -0.01,-0.02 -0.02,-0.03 -0.01,-0.02 -0.02,-0.04 -0.01,-0.02 -0.02,-0.04 -0.01,-0.01 -0.02,-0.04 v -0.01 l -0.02,-0.05 v 0 l -0.02,-0.05 v 0 l -0.02,-0.06 v 0 l -0.02,-0.05 v -0.01 l -0.02,-0.05 v -0.01 l -0.02,-0.05 v -0.02 c -0.03,-0.08 -0.05,-0.16 -0.06,-0.24 l -0.01,-0.03 v -0.03 l -0.01,-0.03 v -0.03 -0.03 -0.03 l -0.01,-0.06 v -0.03 -0.03 -0.03 -0.03 -0.03 -0.03 -0.03 -0.03 -0.03 -0.03 -0.03 -0.03 -0.03 -0.03 -0.04 -0.03 -0.04 -0.02 -0.04 -0.02 l 0.01,-0.04 v -0.02 l 0.01,-0.04 v -0.02 l 0.01,-0.05 v -0.01 l 0.01,-0.05 c 0.05,-0.2 0.11,-0.39 0.2,-0.57 1.89,-4.87 4.22,-7 9.6,-8.71 20.12,-6.41 29.77,1.88 41.52,14 0.89,-6.97 3.95,-13.71 8.11,-19.76 11.86,-17.27 23.06,-10.84 36.13,-4.56 0.35,0.13 0.65,0.33 0.89,0.58 8.52,-9.14 21.24,-12.42 26.3,-3.87 40.34,-18.28 58.57,-12.61 108.2,1.19 0.53,0.17 0.97,0.5 1.27,0.92 0.29,-0.01 0.58,0.04 0.87,0.14 17.55,5.63 34.13,4.14 52.51,1.58 32.86,-4.58 30.89,-8.89 40.55,8.78 5.81,0.99 7.09,4.03 7.36,9.72 17.69,5.92 23.48,13.94 14.86,29 25.74,8.29 16.39,65.09 -27.46,44.93 -0.71,-0.42 -1.14,-1.15 -1.2,-1.91 z"
   id="path1561" />
     <path
   class="fil0"
   d="m 1418.02,181.41 c -4.81,-5.7 -8.64,-10.47 -11.89,-14.59 -14.04,-17.8 -17.06,-23.45 -40.09,-40.3 l 0.41,0.64 c 13.22,20.72 11.26,33.33 7.78,43.19 -4.05,11.46 -10.13,19.2 3.28,31.65 2.58,2.39 3.93,1.4 6.56,0.35 0.05,-1.17 0.17,-2.19 0.35,-3.11 4.26,-22.27 43.19,25.17 2.8,24.33 -2.84,-0.06 -9.58,-0.8 -12.38,-3.57 -4.41,-2.86 -2.71,-1.63 -6.51,-4.63 -10.49,5.37 -14.41,7.48 -24.05,0.83 -41.52,14.86 -109.22,13.28 -130.22,-34.07 -7.16,-16.14 -1.29,-53.08 22.75,-55.82 38.86,-4.42 49.37,29.85 7.61,37.41 -14.72,2.66 -10.69,28.48 4.41,32.1 -1.54,-9.75 -5.1,-18.7 15.59,-23.72 6.89,-1.67 12.61,-2.14 19.06,-2.26 -8.69,-16.62 -0.01,-46.67 18.59,-50.32 0.81,-0.16 1.65,-0.28 2.5,-0.33 l 6.46,-0.17 c 0.06,0 0.11,0 0.17,0.01 1.21,-0.09 2.33,0.72 2.59,1.94 0.22,2.79 -6.81,18.24 4.11,15.04 14.04,-4.12 17.68,-28.91 -12.38,-39.57 -4.66,-1.65 -7.79,-3.06 -10.22,-4.2 -8.86,-4.18 -8.29,-4.81 -38.56,-0.96 -4.49,0.57 -8.96,1.3 -13.27,2.48 -4.5,1.24 -8.81,2.99 -12.77,5.59 l -0.35,0.24 c 4.92,22.71 -1.9,27.35 -20.81,41.95 -9.3,7.19 -19,9.48 -29.65,14.19 27.06,10.1 28.15,55.91 -8.11,57.06 -0.22,0.03 -0.43,0.04 -0.64,0.02 -0.15,0 -0.29,0.01 -0.44,0.01 -1.11,0 -2.05,-0.74 -2.36,-1.75 -0.07,-0.23 -0.11,-0.47 -0.11,-0.72 0,-1.36 1.11,-2.47 2.47,-2.47 h 0.1 0.17 c 2.77,-1.22 2.59,-5.99 0.18,-9.05 -3.02,-3.82 -9.52,-4.98 -18.12,6.8 -1.58,2.16 -3.81,4.16 -6.56,5.98 -19.85,13.19 -66.51,16.87 -86.91,4.1 -0.11,-0.08 -0.22,-0.17 -0.31,-0.27 -10.36,-4.32 -19.85,-17.22 -25.44,-25.96 -8.33,-13.02 -13.44,-19.65 -21.63,-31.06 -0.22,-0.26 -0.37,-0.55 -0.47,-0.85 -1.13,-1.13 -2.93,-2.59 -5.1,-4.13 -4.85,-3.44 -11.59,-7.3 -17.04,-8.83 -2.02,-0.57 -3.86,-0.83 -5.37,-0.63 -1.34,0.28 -2.65,-0.58 -2.92,-1.92 -0.17,-0.84 0.1,-1.67 0.66,-2.23 -0.11,-0.81 0.19,-1.66 0.87,-2.23 11.48,-7.52 31.65,1.46 41.37,7.85 0.06,0.04 0.11,0.09 0.17,0.14 8.66,3.37 14.11,6.35 15.92,13.96 4.26,-3.54 10.48,-4.13 16.26,-4.11 -1.29,-1.82 -2.5,-3.67 -3.35,-5.69 -20.46,-48.19 36.02,-79.36 41.09,-44.52 0.03,0.7 -0.23,1.35 -0.69,1.82 0,0.84 -0.43,1.66 -1.2,2.12 -0.17,0.13 -0.34,0.25 -0.51,0.37 -11,8.24 -1.78,17.67 7.17,23.35 0.8,0.5 1.59,0.98 2.37,1.43 0.27,0.13 0.51,0.3 0.71,0.5 3.87,-1.29 7.05,-1.96 9.67,-2.03 8.24,-0.22 10.95,5.56 12.33,17.15 15.99,-3.15 11.26,-28.02 -4.95,-35.82 -3.41,-1.64 -7.32,-2.52 -11.65,-2.29 -1.88,0.1 -3.84,0.4 -5.87,0.95 l -0.05,0.02 h -0.01 l -0.02,0.01 -0.03,0.01 h -0.01 l -0.05,0.02 h -0.01 c -0.08,0.03 -0.16,0.05 -0.24,0.06 l -0.03,0.01 h -0.03 l -0.03,0.01 h -0.03 -0.03 -0.03 l -0.06,0.01 h -0.03 -0.03 -0.03 -0.03 -0.03 -0.03 -0.03 -0.03 -0.03 -0.03 -0.03 -0.03 -0.03 -0.03 -0.04 -0.02 -0.04 -0.03 -0.04 -0.02 l -0.04,-0.01 h -0.02 l -0.04,-0.01 h -0.01 l -0.05,-0.01 h -0.01 l -0.05,-0.01 -0.06,-0.02 v 0 l -0.06,-0.02 v 0 l -0.06,-0.02 v 0 l -0.05,-0.02 h -0.01 l -0.05,-0.02 h -0.01 l -0.04,-0.02 -0.02,-0.01 -0.04,-0.02 -0.06,-0.02 -0.02,-0.01 -0.04,-0.02 -0.02,-0.01 -0.03,-0.02 -0.06,-0.03 -0.02,-0.01 -0.03,-0.02 c -0.05,-0.03 -0.1,-0.06 -0.15,-0.09 l -0.03,-0.02 -0.02,-0.02 c -0.05,-0.03 -0.09,-0.07 -0.14,-0.11 l -0.03,-0.02 -0.02,-0.02 -0.02,-0.02 -0.02,-0.02 -0.03,-0.02 -0.02,-0.02 -0.03,-0.02 -0.02,-0.02 -0.02,-0.02 -0.02,-0.02 -0.02,-0.02 -0.02,-0.02 -0.02,-0.02 -0.02,-0.02 -0.02,-0.03 -0.02,-0.02 -0.02,-0.02 -0.04,-0.05 -0.02,-0.03 -0.02,-0.02 -0.07,-0.1 -0.02,-0.03 -0.01,-0.02 -0.02,-0.03 -0.01,-0.02 -0.02,-0.04 -0.01,-0.02 -0.02,-0.04 v -0.01 l -0.02,-0.04 v -0.01 l -0.02,-0.05 v 0 l -0.02,-0.05 v 0 l -0.02,-0.06 v 0 l -0.02,-0.05 v -0.01 l -0.02,-0.05 v -0.01 l -0.02,-0.05 v -0.02 c -0.02,-0.08 -0.05,-0.16 -0.06,-0.24 l -0.01,-0.03 v -0.03 l -0.01,-0.03 v -0.03 -0.03 -0.03 l -0.01,-0.06 v -0.03 -0.03 -0.03 -0.03 -0.03 -0.03 -0.03 -0.03 -0.03 -0.03 -0.03 -0.03 -0.03 -0.03 -0.04 -0.03 -0.04 -0.02 -0.04 -0.02 -0.04 -0.02 l 0.01,-0.04 v -0.02 l 0.01,-0.05 v -0.01 l 0.01,-0.05 c 0.05,-0.2 0.11,-0.39 0.2,-0.57 1.89,-4.87 4.23,-7 9.6,-8.71 20.13,-6.41 29.77,1.88 41.52,14 0.89,-6.97 3.95,-13.71 8.11,-19.76 11.86,-17.27 23.06,-10.84 36.13,-4.56 0.35,0.13 0.65,0.33 0.89,0.58 8.52,-9.14 21.24,-12.42 26.3,-3.87 40.34,-18.28 58.57,-12.61 108.2,1.19 0.53,0.17 0.97,0.5 1.27,0.92 0.29,-0.01 0.58,0.04 0.87,0.14 17.55,5.63 34.13,4.14 52.51,1.58 32.85,-4.58 30.88,-8.89 40.54,8.78 5.81,0.99 7.09,4.03 7.36,9.72 17.69,5.92 23.48,13.94 14.86,29 25.74,8.29 16.39,65.09 -27.46,44.93 -0.71,-0.42 -1.14,-1.15 -1.2,-1.91 z"
   id="path1563" />
     <path
   class="fil0"
   d="m 2798.65,181.41 c -4.81,-5.7 -8.64,-10.47 -11.89,-14.59 -14.03,-17.8 -17.06,-23.45 -40.09,-40.3 l 0.41,0.64 c 13.22,20.72 11.25,33.33 7.78,43.19 -4.04,11.46 -10.13,19.2 3.29,31.65 2.58,2.39 3.93,1.4 6.55,0.35 0.05,-1.17 0.17,-2.19 0.35,-3.11 4.26,-22.27 43.19,25.17 2.8,24.33 -2.84,-0.06 -9.58,-0.8 -12.38,-3.57 -4.42,-2.86 -2.71,-1.63 -6.52,-4.63 -10.48,5.37 -14.4,7.48 -24.05,0.83 -41.52,14.86 -109.22,13.28 -130.21,-34.07 -7.16,-16.14 -1.29,-53.08 22.74,-55.82 38.86,-4.42 49.37,29.85 7.61,37.41 -14.72,2.66 -10.68,28.48 4.42,32.1 -1.54,-9.75 -5.1,-18.7 15.59,-23.72 6.89,-1.67 12.61,-2.14 19.06,-2.26 -8.69,-16.62 -0.01,-46.67 18.59,-50.32 0.81,-0.16 1.64,-0.28 2.49,-0.33 l 6.46,-0.17 c 0.06,0 0.11,0 0.17,0.01 1.21,-0.09 2.33,0.72 2.59,1.94 0.22,2.79 -6.81,18.24 4.11,15.04 14.04,-4.12 17.68,-28.91 -12.39,-39.57 -4.66,-1.65 -7.79,-3.06 -10.21,-4.2 -8.86,-4.18 -8.29,-4.81 -38.56,-0.96 -4.49,0.57 -8.96,1.3 -13.27,2.48 -4.5,1.24 -8.81,2.99 -12.78,5.59 l -0.35,0.24 c 4.91,22.71 -1.91,27.35 -20.81,41.95 -9.3,7.19 -19,9.48 -29.65,14.19 27.06,10.1 28.15,55.91 -8.11,57.06 -0.21,0.03 -0.43,0.04 -0.63,0.02 -0.15,0 -0.29,0.01 -0.44,0.01 -1.11,0 -2.06,-0.74 -2.36,-1.75 -0.07,-0.23 -0.11,-0.47 -0.11,-0.72 0,-1.36 1.11,-2.47 2.47,-2.47 h 0.09 0.18 c 2.77,-1.22 2.59,-5.99 0.17,-9.05 -3.02,-3.82 -9.52,-4.98 -18.12,6.8 -1.58,2.16 -3.81,4.16 -6.55,5.98 -19.85,13.19 -66.51,16.87 -86.92,4.1 -0.11,-0.08 -0.22,-0.17 -0.31,-0.27 -10.36,-4.32 -19.85,-17.22 -25.44,-25.96 -8.33,-13.02 -13.44,-19.65 -21.62,-31.06 -0.22,-0.26 -0.37,-0.55 -0.47,-0.85 -1.13,-1.13 -2.93,-2.59 -5.1,-4.13 -4.85,-3.44 -11.59,-7.3 -17.04,-8.83 -2.02,-0.57 -3.87,-0.83 -5.37,-0.63 -1.33,0.28 -2.64,-0.58 -2.92,-1.92 -0.17,-0.84 0.1,-1.67 0.65,-2.23 -0.11,-0.81 0.19,-1.66 0.87,-2.23 11.48,-7.52 31.65,1.46 41.37,7.85 0.06,0.04 0.11,0.09 0.17,0.14 8.66,3.37 14.11,6.35 15.92,13.96 4.26,-3.54 10.48,-4.13 16.26,-4.11 -1.29,-1.82 -2.5,-3.67 -3.35,-5.69 -20.47,-48.19 36.02,-79.36 41.08,-44.52 0.04,0.7 -0.23,1.35 -0.69,1.82 0,0.84 -0.43,1.66 -1.19,2.12 -0.18,0.13 -0.35,0.25 -0.51,0.37 -11,8.24 -1.78,17.67 7.18,23.35 0.8,0.5 1.59,0.98 2.37,1.43 0.27,0.13 0.51,0.3 0.71,0.5 3.87,-1.29 7.05,-1.96 9.67,-2.03 8.23,-0.22 10.95,5.56 12.32,17.15 16,-3.15 11.26,-28.02 -4.95,-35.82 -3.41,-1.64 -7.32,-2.52 -11.65,-2.29 -1.88,0.1 -3.84,0.4 -5.87,0.95 l -0.05,0.02 h -0.01 l -0.02,0.01 -0.03,0.01 h -0.01 l -0.04,0.02 h -0.02 c -0.08,0.03 -0.16,0.05 -0.24,0.06 l -0.04,0.01 h -0.02 l -0.03,0.01 h -0.03 -0.03 -0.03 l -0.06,0.01 h -0.03 -0.03 -0.03 -0.03 -0.03 -0.03 -0.03 -0.03 -0.03 -0.03 -0.03 -0.03 -0.03 -0.03 -0.03 -0.03 -0.04 -0.02 -0.04 -0.02 l -0.04,-0.01 h -0.02 l -0.04,-0.01 h -0.02 l -0.05,-0.01 h -0.01 l -0.05,-0.01 -0.06,-0.02 v 0 l -0.06,-0.02 v 0 l -0.06,-0.02 v 0 l -0.06,-0.02 h -0.01 l -0.05,-0.02 h -0.01 l -0.04,-0.02 -0.01,-0.01 -0.04,-0.02 -0.06,-0.02 -0.02,-0.01 -0.04,-0.02 -0.02,-0.01 -0.03,-0.02 -0.05,-0.03 -0.02,-0.01 -0.03,-0.02 c -0.05,-0.03 -0.1,-0.06 -0.15,-0.09 l -0.03,-0.02 -0.02,-0.02 c -0.05,-0.03 -0.1,-0.07 -0.14,-0.11 l -0.03,-0.02 -0.02,-0.02 -0.03,-0.02 -0.02,-0.02 -0.03,-0.02 -0.02,-0.02 -0.02,-0.02 -0.02,-0.02 -0.02,-0.02 -0.02,-0.02 -0.02,-0.02 -0.02,-0.02 -0.02,-0.02 -0.02,-0.02 -0.02,-0.03 -0.02,-0.02 -0.02,-0.02 -0.04,-0.05 -0.02,-0.03 -0.02,-0.02 -0.07,-0.1 -0.02,-0.03 -0.01,-0.02 -0.02,-0.03 -0.01,-0.02 -0.02,-0.04 -0.01,-0.02 -0.02,-0.04 -0.01,-0.01 -0.02,-0.04 v -0.01 l -0.02,-0.05 v 0 l -0.02,-0.05 v 0 l -0.02,-0.06 v 0 l -0.02,-0.05 v -0.01 l -0.02,-0.05 v -0.01 l -0.02,-0.05 v -0.02 c -0.03,-0.08 -0.05,-0.16 -0.07,-0.24 v -0.03 l -0.01,-0.03 v -0.03 -0.03 l -0.01,-0.03 v -0.03 l -0.01,-0.06 v -0.03 -0.03 -0.03 -0.03 -0.03 -0.03 -0.03 -0.03 -0.03 -0.03 -0.03 -0.03 -0.03 -0.03 -0.04 -0.03 -0.04 -0.02 -0.04 -0.02 l 0.01,-0.04 v -0.02 l 0.01,-0.04 v -0.02 l 0.01,-0.05 v -0.01 l 0.01,-0.05 c 0.04,-0.2 0.11,-0.39 0.2,-0.57 1.89,-4.87 4.22,-7 9.6,-8.71 20.13,-6.41 29.77,1.88 41.53,14 0.88,-6.97 3.95,-13.71 8.11,-19.76 11.86,-17.27 23.06,-10.84 36.13,-4.56 0.35,0.13 0.65,0.33 0.89,0.58 8.52,-9.14 21.24,-12.42 26.3,-3.87 40.34,-18.28 58.57,-12.61 108.2,1.19 0.54,0.17 0.97,0.5 1.28,0.92 0.29,-0.01 0.58,0.04 0.87,0.14 17.54,5.63 34.13,4.14 52.51,1.58 32.86,-4.58 30.89,-8.89 40.55,8.78 5.81,0.99 7.09,4.03 7.35,9.72 17.69,5.92 23.48,13.94 14.87,29 25.74,8.29 16.38,65.09 -27.46,44.93 -0.72,-0.42 -1.14,-1.15 -1.2,-1.91 z"
   id="path1565" />
     <path
   class="fil0"
   d="m 2337.2,181.41 c -4.81,-5.7 -8.64,-10.47 -11.89,-14.59 -14.03,-17.8 -17.06,-23.45 -40.09,-40.3 l 0.41,0.64 c 13.22,20.72 11.25,33.33 7.78,43.19 -4.04,11.46 -10.13,19.2 3.29,31.65 2.58,2.39 3.93,1.4 6.55,0.35 0.05,-1.17 0.17,-2.19 0.35,-3.11 4.26,-22.27 43.19,25.17 2.8,24.33 -2.84,-0.06 -9.58,-0.8 -12.38,-3.57 -4.42,-2.86 -2.71,-1.63 -6.52,-4.63 -10.48,5.37 -14.4,7.48 -24.05,0.83 -41.52,14.86 -109.21,13.28 -130.21,-34.07 -7.16,-16.14 -1.29,-53.08 22.74,-55.82 38.86,-4.42 49.38,29.85 7.61,37.41 -14.72,2.66 -10.69,28.48 4.41,32.1 -1.54,-9.75 -5.1,-18.7 15.59,-23.72 6.89,-1.67 12.61,-2.14 19.06,-2.26 -8.69,-16.62 -0.01,-46.67 18.59,-50.32 0.81,-0.16 1.64,-0.28 2.49,-0.33 l 6.46,-0.17 c 0.06,0 0.11,0 0.17,0.01 1.2,-0.09 2.32,0.72 2.59,1.94 0.22,2.79 -6.81,18.24 4.11,15.04 14.04,-4.12 17.68,-28.91 -12.38,-39.57 -4.66,-1.65 -7.79,-3.06 -10.22,-4.2 -8.86,-4.18 -8.29,-4.81 -38.56,-0.96 -4.48,0.57 -8.96,1.3 -13.27,2.48 -4.5,1.24 -8.81,2.99 -12.78,5.59 l -0.35,0.24 c 4.91,22.71 -1.91,27.35 -20.81,41.95 -9.3,7.19 -19,9.48 -29.65,14.19 27.06,10.1 28.15,55.91 -8.11,57.06 -0.21,0.03 -0.43,0.04 -0.63,0.02 -0.15,0 -0.29,0.01 -0.44,0.01 -1.11,0 -2.06,-0.74 -2.36,-1.75 -0.07,-0.23 -0.11,-0.47 -0.11,-0.72 0,-1.36 1.11,-2.47 2.47,-2.47 h 0.09 0.18 c 2.77,-1.22 2.59,-5.99 0.17,-9.05 -3.02,-3.82 -9.52,-4.98 -18.12,6.8 -1.58,2.16 -3.81,4.16 -6.55,5.98 -19.85,13.19 -66.51,16.87 -86.91,4.1 -0.12,-0.08 -0.22,-0.17 -0.32,-0.27 -10.36,-4.32 -19.85,-17.22 -25.44,-25.96 -8.33,-13.02 -13.44,-19.65 -21.63,-31.06 -0.22,-0.26 -0.37,-0.55 -0.47,-0.85 -1.13,-1.13 -2.93,-2.59 -5.1,-4.13 -4.85,-3.44 -11.59,-7.3 -17.04,-8.83 -2.02,-0.57 -3.86,-0.83 -5.37,-0.63 -1.33,0.28 -2.64,-0.58 -2.92,-1.92 -0.17,-0.84 0.1,-1.67 0.66,-2.23 -0.11,-0.81 0.19,-1.66 0.87,-2.23 11.48,-7.52 31.65,1.46 41.37,7.85 0.06,0.04 0.11,0.09 0.17,0.14 8.66,3.37 14.11,6.35 15.92,13.96 4.26,-3.54 10.48,-4.13 16.26,-4.11 -1.29,-1.82 -2.5,-3.67 -3.35,-5.69 -20.46,-48.19 36.02,-79.36 41.08,-44.52 0.04,0.7 -0.23,1.35 -0.68,1.82 0,0.84 -0.43,1.66 -1.2,2.12 -0.18,0.13 -0.35,0.25 -0.51,0.37 -11,8.24 -1.78,17.67 7.18,23.35 0.8,0.5 1.59,0.98 2.37,1.43 0.27,0.13 0.51,0.3 0.71,0.5 3.87,-1.29 7.06,-1.96 9.67,-2.03 8.24,-0.22 10.95,5.56 12.32,17.15 16,-3.15 11.26,-28.02 -4.95,-35.82 -3.41,-1.64 -7.32,-2.52 -11.65,-2.29 -1.88,0.1 -3.84,0.4 -5.87,0.95 l -0.06,0.02 h -0.01 l -0.02,0.01 -0.03,0.01 h -0.01 l -0.04,0.02 h -0.02 c -0.08,0.03 -0.16,0.05 -0.24,0.06 l -0.03,0.01 h -0.03 l -0.03,0.01 h -0.03 -0.03 -0.03 l -0.06,0.01 h -0.03 -0.03 -0.03 -0.03 -0.03 -0.03 -0.03 -0.03 -0.03 -0.03 -0.03 -0.03 -0.04 -0.03 -0.03 -0.03 -0.04 -0.02 -0.04 -0.02 l -0.04,-0.01 h -0.02 l -0.04,-0.01 h -0.02 l -0.05,-0.01 h -0.01 l -0.05,-0.01 -0.06,-0.02 v 0 l -0.06,-0.02 v 0 l -0.06,-0.02 v 0 l -0.05,-0.02 h -0.01 l -0.05,-0.02 h -0.01 l -0.05,-0.02 -0.01,-0.01 -0.04,-0.02 -0.05,-0.02 -0.02,-0.01 -0.04,-0.02 -0.02,-0.01 -0.04,-0.02 -0.05,-0.03 -0.02,-0.01 -0.03,-0.02 c -0.05,-0.03 -0.1,-0.06 -0.15,-0.09 l -0.03,-0.02 -0.02,-0.02 c -0.05,-0.03 -0.1,-0.07 -0.14,-0.11 l -0.03,-0.02 -0.02,-0.02 -0.03,-0.02 -0.02,-0.02 -0.03,-0.02 -0.02,-0.02 -0.02,-0.02 -0.02,-0.02 -0.02,-0.02 -0.02,-0.02 -0.02,-0.02 -0.02,-0.02 -0.02,-0.02 -0.02,-0.02 -0.02,-0.03 -0.02,-0.02 -0.02,-0.02 -0.04,-0.05 -0.02,-0.03 -0.02,-0.02 -0.07,-0.1 -0.02,-0.03 -0.01,-0.02 -0.02,-0.03 -0.01,-0.02 -0.02,-0.04 -0.01,-0.02 -0.02,-0.04 -0.01,-0.01 -0.02,-0.04 v -0.01 l -0.02,-0.05 v 0 l -0.02,-0.05 v 0 l -0.02,-0.06 v 0 l -0.02,-0.05 v -0.01 l -0.02,-0.05 v -0.01 l -0.02,-0.05 v -0.02 c -0.03,-0.08 -0.05,-0.16 -0.07,-0.24 v -0.03 l -0.01,-0.03 v -0.03 -0.03 l -0.01,-0.03 v -0.03 l -0.01,-0.06 v -0.03 -0.03 -0.03 -0.03 -0.03 -0.03 -0.03 -0.03 -0.03 -0.03 -0.03 -0.03 -0.03 -0.03 -0.04 -0.03 -0.04 -0.02 l 0.01,-0.04 v -0.02 l 0.01,-0.04 v -0.02 l 0.01,-0.04 v -0.02 l 0.01,-0.05 v -0.01 l 0.01,-0.05 c 0.04,-0.2 0.11,-0.39 0.2,-0.57 1.89,-4.87 4.22,-7 9.6,-8.71 20.12,-6.41 29.77,1.88 41.52,14 0.88,-6.97 3.95,-13.71 8.11,-19.76 11.86,-17.27 23.06,-10.84 36.13,-4.56 0.35,0.13 0.65,0.33 0.89,0.58 8.52,-9.14 21.24,-12.42 26.3,-3.87 40.34,-18.28 58.57,-12.61 108.2,1.19 0.54,0.17 0.97,0.5 1.28,0.92 0.29,-0.01 0.58,0.04 0.87,0.14 17.54,5.63 34.13,4.14 52.51,1.58 32.86,-4.58 30.89,-8.89 40.55,8.78 5.81,0.99 7.09,4.03 7.36,9.72 17.69,5.92 23.48,13.94 14.86,29 25.74,8.29 16.38,65.09 -27.46,44.93 -0.71,-0.42 -1.14,-1.15 -1.2,-1.91 z"
   id="path1567" />
     <path
   class="fil0"
   d="m 3719.95,181.41 c -4.81,-5.7 -8.64,-10.47 -11.89,-14.59 -14.03,-17.8 -17.06,-23.45 -40.09,-40.3 l 0.41,0.64 c 13.22,20.72 11.25,33.33 7.78,43.19 -4.04,11.46 -10.13,19.2 3.29,31.65 2.58,2.39 3.93,1.4 6.55,0.35 0.05,-1.17 0.17,-2.19 0.35,-3.11 4.26,-22.27 43.19,25.17 2.8,24.33 -2.84,-0.06 -9.58,-0.8 -12.38,-3.57 -4.41,-2.86 -2.7,-1.63 -6.51,-4.63 -10.48,5.37 -14.4,7.48 -24.05,0.83 -41.52,14.86 -109.22,13.28 -130.21,-34.07 -7.16,-16.14 -1.29,-53.08 22.74,-55.82 38.86,-4.42 49.37,29.85 7.61,37.41 -14.72,2.66 -10.68,28.48 4.42,32.1 -1.54,-9.75 -5.1,-18.7 15.59,-23.72 6.89,-1.67 12.61,-2.14 19.06,-2.26 -8.69,-16.62 -0.01,-46.67 18.59,-50.32 0.81,-0.16 1.64,-0.28 2.49,-0.33 l 6.46,-0.17 c 0.06,0 0.11,0 0.17,0.01 1.21,-0.09 2.33,0.72 2.59,1.94 0.22,2.79 -6.81,18.24 4.11,15.04 14.04,-4.12 17.68,-28.91 -12.39,-39.57 -4.66,-1.65 -7.79,-3.06 -10.21,-4.2 -8.87,-4.18 -8.29,-4.81 -38.56,-0.96 -4.49,0.57 -8.96,1.3 -13.27,2.48 -4.5,1.24 -8.81,2.99 -12.78,5.59 l -0.35,0.24 c 4.91,22.71 -1.91,27.35 -20.81,41.95 -9.3,7.19 -19,9.48 -29.65,14.19 27.06,10.1 28.15,55.91 -8.11,57.06 -0.21,0.03 -0.43,0.04 -0.63,0.02 -0.15,0 -0.29,0.01 -0.44,0.01 -1.11,0 -2.06,-0.74 -2.36,-1.75 -0.07,-0.23 -0.11,-0.47 -0.11,-0.72 0,-1.36 1.11,-2.47 2.47,-2.47 h 0.09 0.18 c 2.77,-1.22 2.59,-5.99 0.17,-9.05 -3.02,-3.82 -9.52,-4.98 -18.12,6.8 -1.58,2.16 -3.81,4.16 -6.55,5.98 -19.85,13.19 -66.51,16.87 -86.92,4.1 -0.11,-0.08 -0.22,-0.17 -0.31,-0.27 -10.36,-4.32 -19.85,-17.22 -25.44,-25.96 -8.33,-13.02 -13.44,-19.65 -21.62,-31.06 -0.22,-0.26 -0.37,-0.55 -0.47,-0.85 -1.14,-1.13 -2.93,-2.59 -5.1,-4.13 -4.85,-3.44 -11.59,-7.3 -17.04,-8.83 -2.02,-0.57 -3.87,-0.83 -5.37,-0.63 -1.33,0.28 -2.64,-0.58 -2.92,-1.92 -0.17,-0.84 0.1,-1.67 0.65,-2.23 -0.11,-0.81 0.19,-1.66 0.87,-2.23 11.48,-7.52 31.65,1.46 41.37,7.85 0.06,0.04 0.11,0.09 0.17,0.14 8.66,3.37 14.11,6.35 15.92,13.96 4.26,-3.54 10.48,-4.13 16.26,-4.11 -1.29,-1.82 -2.5,-3.67 -3.35,-5.69 -20.47,-48.19 36.02,-79.36 41.08,-44.52 0.03,0.7 -0.23,1.35 -0.69,1.82 0,0.84 -0.43,1.66 -1.2,2.12 -0.17,0.13 -0.34,0.25 -0.51,0.37 -11,8.24 -1.78,17.67 7.17,23.35 0.8,0.5 1.59,0.98 2.37,1.43 0.27,0.13 0.51,0.3 0.71,0.5 3.87,-1.29 7.05,-1.96 9.67,-2.03 8.23,-0.22 10.94,5.56 12.32,17.15 16,-3.15 11.26,-28.02 -4.95,-35.82 -3.41,-1.64 -7.32,-2.52 -11.65,-2.29 -1.88,0.1 -3.84,0.4 -5.87,0.95 l -0.05,0.02 h -0.01 l -0.02,0.01 -0.03,0.01 h -0.01 l -0.04,0.02 h -0.02 c -0.08,0.03 -0.16,0.05 -0.24,0.06 l -0.04,0.01 h -0.02 l -0.04,0.01 h -0.03 -0.03 -0.03 l -0.06,0.01 h -0.03 -0.03 -0.03 -0.03 -0.03 -0.03 -0.03 -0.03 -0.03 -0.03 -0.03 -0.03 -0.03 -0.03 -0.03 -0.03 -0.04 -0.02 -0.04 -0.02 l -0.04,-0.01 h -0.02 l -0.04,-0.01 h -0.02 l -0.05,-0.01 h -0.01 l -0.05,-0.01 -0.06,-0.02 v 0 l -0.06,-0.02 v 0 l -0.06,-0.02 h -0.01 l -0.05,-0.02 h -0.01 l -0.05,-0.02 h -0.01 l -0.04,-0.02 -0.01,-0.01 -0.04,-0.02 -0.06,-0.02 -0.02,-0.01 -0.04,-0.02 -0.02,-0.01 -0.03,-0.02 -0.05,-0.03 -0.02,-0.01 -0.03,-0.02 c -0.06,-0.03 -0.1,-0.06 -0.15,-0.09 l -0.03,-0.02 -0.02,-0.02 c -0.05,-0.03 -0.1,-0.07 -0.14,-0.11 l -0.03,-0.02 -0.02,-0.02 -0.03,-0.02 -0.02,-0.02 -0.02,-0.02 -0.02,-0.02 -0.02,-0.02 -0.02,-0.02 -0.02,-0.02 -0.02,-0.02 -0.02,-0.02 -0.02,-0.02 -0.02,-0.02 -0.02,-0.02 -0.02,-0.03 -0.02,-0.02 -0.02,-0.02 -0.04,-0.05 -0.02,-0.03 -0.02,-0.02 -0.07,-0.1 -0.02,-0.03 -0.01,-0.02 -0.02,-0.03 -0.01,-0.02 -0.02,-0.04 -0.01,-0.02 -0.02,-0.04 -0.01,-0.01 -0.02,-0.04 v -0.01 l -0.02,-0.05 v 0 l -0.03,-0.05 v 0 l -0.02,-0.06 v 0 l -0.02,-0.05 v -0.01 l -0.02,-0.05 v -0.01 l -0.02,-0.05 v -0.02 c -0.03,-0.08 -0.05,-0.16 -0.07,-0.24 l -0.01,-0.03 v -0.03 -0.03 -0.03 l -0.01,-0.03 v -0.03 l -0.01,-0.06 v -0.03 -0.03 -0.03 -0.03 -0.03 -0.03 -0.03 -0.03 -0.03 -0.03 -0.03 -0.03 -0.03 -0.03 -0.04 -0.03 -0.04 -0.02 -0.04 -0.02 l 0.01,-0.04 v -0.02 l 0.01,-0.04 v -0.02 l 0.01,-0.05 v -0.01 l 0.01,-0.05 c 0.04,-0.2 0.11,-0.39 0.2,-0.57 1.89,-4.87 4.22,-7 9.6,-8.71 20.13,-6.41 29.77,1.88 41.53,14 0.88,-6.97 3.95,-13.71 8.11,-19.76 11.86,-17.27 23.06,-10.84 36.13,-4.56 0.35,0.13 0.65,0.33 0.89,0.58 8.52,-9.14 21.24,-12.42 26.3,-3.87 40.34,-18.28 58.57,-12.61 108.2,1.19 0.54,0.17 0.97,0.5 1.28,0.92 0.29,-0.01 0.58,0.04 0.87,0.14 17.54,5.63 34.13,4.14 52.51,1.58 32.86,-4.58 30.89,-8.89 40.55,8.78 5.81,0.99 7.09,4.03 7.35,9.72 17.69,5.92 23.48,13.94 14.87,29 25.74,8.29 16.38,65.09 -27.46,44.93 -0.71,-0.42 -1.13,-1.15 -1.2,-1.91 z"
   id="path1569" />
     <path
   class="fil0"
   d="m 3258.5,181.41 c -4.81,-5.7 -8.64,-10.47 -11.89,-14.59 -14.03,-17.8 -17.06,-23.45 -40.09,-40.3 l 0.41,0.64 c 13.22,20.72 11.25,33.33 7.78,43.19 -4.04,11.46 -10.13,19.2 3.29,31.65 2.58,2.39 3.93,1.4 6.55,0.35 0.05,-1.17 0.17,-2.19 0.35,-3.11 4.26,-22.27 43.19,25.17 2.8,24.33 -2.84,-0.06 -9.58,-0.8 -12.38,-3.57 -4.42,-2.86 -2.71,-1.63 -6.52,-4.63 -10.48,5.37 -14.4,7.48 -24.05,0.83 -41.52,14.86 -109.21,13.28 -130.21,-34.07 -7.16,-16.14 -1.29,-53.08 22.74,-55.82 38.86,-4.42 49.38,29.85 7.61,37.41 -14.72,2.66 -10.69,28.48 4.41,32.1 -1.54,-9.75 -5.1,-18.7 15.59,-23.72 6.89,-1.67 12.61,-2.14 19.06,-2.26 -8.69,-16.62 -0.01,-46.67 18.59,-50.32 0.81,-0.16 1.64,-0.28 2.49,-0.33 l 6.46,-0.17 c 0.06,0 0.11,0 0.17,0.01 1.2,-0.09 2.32,0.72 2.59,1.94 0.22,2.79 -6.81,18.24 4.11,15.04 14.04,-4.12 17.68,-28.91 -12.38,-39.57 -4.66,-1.65 -7.79,-3.06 -10.22,-4.2 -8.86,-4.18 -8.29,-4.81 -38.56,-0.96 -4.48,0.57 -8.96,1.3 -13.27,2.48 -4.5,1.24 -8.81,2.99 -12.78,5.59 l -0.35,0.24 c 4.91,22.71 -1.91,27.35 -20.81,41.95 -9.3,7.19 -19,9.48 -29.65,14.19 27.06,10.1 28.15,55.91 -8.11,57.06 -0.21,0.03 -0.43,0.04 -0.63,0.02 -0.15,0 -0.29,0.01 -0.44,0.01 -1.11,0 -2.06,-0.74 -2.36,-1.75 -0.07,-0.23 -0.11,-0.47 -0.11,-0.72 0,-1.36 1.11,-2.47 2.47,-2.47 h 0.09 0.18 c 2.77,-1.22 2.59,-5.99 0.17,-9.05 -3.02,-3.82 -9.52,-4.98 -18.12,6.8 -1.58,2.16 -3.81,4.16 -6.55,5.98 -19.85,13.19 -66.51,16.87 -86.91,4.1 -0.12,-0.08 -0.22,-0.17 -0.32,-0.27 -10.36,-4.32 -19.85,-17.22 -25.44,-25.96 -8.33,-13.02 -13.44,-19.65 -21.63,-31.06 -0.22,-0.26 -0.37,-0.55 -0.47,-0.85 -1.13,-1.13 -2.93,-2.59 -5.1,-4.13 -4.85,-3.44 -11.59,-7.3 -17.04,-8.83 -2.02,-0.57 -3.86,-0.83 -5.37,-0.63 -1.33,0.28 -2.64,-0.58 -2.92,-1.92 -0.17,-0.84 0.1,-1.67 0.66,-2.23 -0.11,-0.81 0.19,-1.66 0.87,-2.23 11.48,-7.52 31.65,1.46 41.37,7.85 0.06,0.04 0.11,0.09 0.17,0.14 8.66,3.37 14.11,6.35 15.92,13.96 4.26,-3.54 10.48,-4.13 16.26,-4.11 -1.29,-1.82 -2.5,-3.67 -3.35,-5.69 -20.46,-48.19 36.02,-79.36 41.08,-44.52 0.04,0.7 -0.23,1.35 -0.69,1.82 0,0.84 -0.42,1.66 -1.19,2.12 -0.18,0.13 -0.35,0.25 -0.51,0.37 -11,8.24 -1.78,17.67 7.18,23.35 0.8,0.5 1.59,0.98 2.37,1.43 0.27,0.13 0.51,0.3 0.71,0.5 3.87,-1.29 7.05,-1.96 9.67,-2.03 8.24,-0.22 10.95,5.56 12.32,17.15 16,-3.15 11.26,-28.02 -4.95,-35.82 -3.41,-1.64 -7.32,-2.52 -11.65,-2.29 -1.88,0.1 -3.84,0.4 -5.87,0.95 l -0.06,0.02 h -0.01 l -0.02,0.01 -0.03,0.01 h -0.01 l -0.04,0.02 h -0.02 c -0.08,0.03 -0.16,0.05 -0.24,0.06 l -0.03,0.01 h -0.03 l -0.03,0.01 h -0.03 -0.03 -0.03 l -0.06,0.01 h -0.03 -0.03 -0.03 -0.03 -0.03 -0.04 -0.03 -0.03 -0.03 -0.03 -0.03 -0.03 -0.04 -0.03 -0.03 -0.03 -0.04 -0.02 -0.04 -0.02 l -0.04,-0.01 h -0.02 l -0.04,-0.01 h -0.02 l -0.05,-0.01 h -0.01 l -0.05,-0.01 -0.06,-0.02 v 0 l -0.06,-0.02 v 0 l -0.06,-0.02 v 0 l -0.06,-0.02 v 0 l -0.05,-0.02 h -0.01 l -0.05,-0.02 -0.01,-0.01 -0.04,-0.02 -0.06,-0.02 -0.02,-0.01 -0.04,-0.02 -0.02,-0.01 -0.04,-0.02 -0.05,-0.03 -0.02,-0.01 -0.03,-0.02 c -0.05,-0.03 -0.1,-0.06 -0.15,-0.09 l -0.03,-0.02 -0.02,-0.02 c -0.05,-0.03 -0.1,-0.07 -0.14,-0.11 l -0.03,-0.02 -0.02,-0.02 -0.03,-0.02 -0.02,-0.02 -0.03,-0.02 -0.02,-0.02 -0.02,-0.02 -0.02,-0.02 -0.02,-0.02 -0.02,-0.02 -0.02,-0.02 -0.02,-0.02 -0.02,-0.02 -0.02,-0.02 -0.02,-0.03 -0.02,-0.02 -0.02,-0.02 -0.04,-0.05 -0.02,-0.03 -0.02,-0.02 -0.07,-0.1 -0.02,-0.03 -0.01,-0.02 -0.02,-0.03 -0.01,-0.02 -0.02,-0.04 -0.01,-0.02 -0.02,-0.04 -0.01,-0.01 -0.02,-0.04 v -0.01 l -0.02,-0.05 v 0 l -0.02,-0.05 v 0 l -0.02,-0.06 v 0 l -0.02,-0.05 v -0.01 l -0.02,-0.05 v -0.01 l -0.02,-0.05 v -0.02 c -0.03,-0.08 -0.05,-0.16 -0.07,-0.24 v -0.03 l -0.01,-0.03 v -0.03 -0.03 l -0.01,-0.03 v -0.03 l -0.01,-0.06 v -0.03 -0.03 -0.03 -0.03 -0.03 -0.03 -0.03 -0.03 -0.03 -0.03 -0.03 -0.03 -0.03 -0.03 -0.04 -0.03 -0.04 -0.02 l 0.01,-0.04 v -0.02 l 0.01,-0.04 v -0.02 l 0.01,-0.04 v -0.02 l 0.01,-0.05 v -0.01 l 0.01,-0.05 c 0.04,-0.2 0.11,-0.39 0.2,-0.57 1.89,-4.87 4.22,-7 9.6,-8.71 20.12,-6.41 29.77,1.88 41.52,14 0.88,-6.97 3.95,-13.71 8.11,-19.76 11.86,-17.27 23.06,-10.84 36.13,-4.56 0.35,0.13 0.65,0.33 0.89,0.58 8.52,-9.14 21.24,-12.42 26.3,-3.87 40.34,-18.28 58.57,-12.61 108.2,1.19 0.54,0.17 0.97,0.5 1.28,0.92 0.29,-0.01 0.58,0.04 0.87,0.14 17.54,5.63 34.13,4.14 52.51,1.58 32.86,-4.58 30.89,-8.89 40.55,8.78 5.81,0.99 7.09,4.03 7.36,9.72 17.69,5.92 23.48,13.94 14.86,29 25.74,8.29 16.38,65.09 -27.46,44.93 -0.72,-0.42 -1.14,-1.15 -1.2,-1.91 z"
   id="path1571" />
    </g>
    <g
   id="g1591">
     <path
   class="fil0"
   d="m 4635.44,181.41 c -4.81,-5.7 -8.64,-10.47 -11.89,-14.59 -14.04,-17.8 -17.06,-23.45 -40.09,-40.3 l 0.41,0.64 c 13.22,20.72 11.26,33.33 7.78,43.19 -4.05,11.46 -10.13,19.2 3.28,31.65 2.58,2.39 3.93,1.4 6.56,0.35 0.05,-1.17 0.17,-2.19 0.35,-3.11 4.26,-22.27 43.2,25.17 2.8,24.33 -2.84,-0.06 -9.58,-0.8 -12.38,-3.57 -4.41,-2.86 -2.71,-1.63 -6.51,-4.63 -10.49,5.37 -14.41,7.48 -24.05,0.83 -41.52,14.86 -109.22,13.28 -130.22,-34.07 -7.16,-16.14 -1.29,-53.08 22.75,-55.82 38.86,-4.42 49.37,29.85 7.61,37.41 -14.72,2.66 -10.69,28.48 4.41,32.1 -1.54,-9.75 -5.1,-18.7 15.59,-23.72 6.89,-1.67 12.61,-2.14 19.06,-2.26 -8.69,-16.62 -0.01,-46.67 18.59,-50.32 0.81,-0.16 1.64,-0.28 2.5,-0.33 l 6.46,-0.17 c 0.06,0 0.11,0 0.17,0.01 1.21,-0.09 2.33,0.72 2.59,1.94 0.22,2.79 -6.81,18.24 4.11,15.04 14.04,-4.12 17.68,-28.91 -12.38,-39.57 -4.66,-1.65 -7.79,-3.06 -10.22,-4.2 -8.86,-4.18 -8.29,-4.81 -38.56,-0.96 -4.48,0.57 -8.96,1.3 -13.27,2.48 -4.5,1.24 -8.81,2.99 -12.77,5.59 l -0.35,0.24 c 4.92,22.71 -1.91,27.35 -20.81,41.95 -9.3,7.19 -19,9.48 -29.65,14.19 27.06,10.1 28.15,55.91 -8.12,57.06 -0.21,0.03 -0.43,0.04 -0.63,0.02 -0.15,0 -0.29,0.01 -0.44,0.01 -1.11,0 -2.05,-0.74 -2.36,-1.75 -0.07,-0.23 -0.11,-0.47 -0.11,-0.72 0,-1.36 1.11,-2.47 2.47,-2.47 h 0.1 0.17 c 2.77,-1.22 2.59,-5.99 0.18,-9.05 -3.02,-3.82 -9.52,-4.98 -18.12,6.8 -1.58,2.16 -3.81,4.16 -6.56,5.98 -19.85,13.19 -66.51,16.87 -86.91,4.1 -0.11,-0.08 -0.22,-0.17 -0.31,-0.27 -10.36,-4.32 -19.85,-17.22 -25.44,-25.96 -8.33,-13.02 -13.44,-19.65 -21.63,-31.06 -0.22,-0.26 -0.37,-0.55 -0.47,-0.85 -1.13,-1.13 -2.93,-2.59 -5.1,-4.13 -4.85,-3.44 -11.59,-7.3 -17.04,-8.83 -2.02,-0.57 -3.86,-0.83 -5.37,-0.63 -1.33,0.28 -2.64,-0.58 -2.92,-1.92 -0.17,-0.84 0.1,-1.67 0.66,-2.23 -0.11,-0.81 0.19,-1.66 0.87,-2.23 11.48,-7.52 31.65,1.46 41.37,7.85 0.06,0.04 0.11,0.09 0.17,0.14 8.66,3.37 14.11,6.35 15.92,13.96 4.26,-3.54 10.48,-4.13 16.26,-4.11 -1.29,-1.82 -2.5,-3.67 -3.35,-5.69 -20.46,-48.19 36.02,-79.36 41.09,-44.52 0.03,0.7 -0.23,1.35 -0.69,1.82 0,0.84 -0.43,1.66 -1.2,2.12 -0.18,0.13 -0.34,0.25 -0.51,0.37 -11,8.24 -1.78,17.67 7.17,23.35 0.8,0.5 1.59,0.98 2.37,1.43 0.27,0.13 0.51,0.3 0.7,0.5 3.87,-1.29 7.06,-1.96 9.67,-2.03 8.24,-0.22 10.95,5.56 12.33,17.15 15.99,-3.15 11.26,-28.02 -4.95,-35.82 -3.41,-1.64 -7.32,-2.52 -11.65,-2.29 -1.88,0.1 -3.84,0.4 -5.87,0.95 l -0.05,0.02 H 4319 l -0.02,0.01 -0.03,0.01 h -0.01 l -0.05,0.02 h -0.02 c -0.08,0.03 -0.16,0.05 -0.24,0.06 l -0.03,0.01 h -0.03 l -0.03,0.01 h -0.03 -0.03 -0.03 l -0.06,0.01 h -0.03 -0.04 -0.03 -0.03 -0.03 -0.03 -0.03 -0.03 -0.03 -0.03 -0.03 -0.03 -0.03 -0.03 -0.04 -0.02 -0.04 -0.02 -0.04 -0.02 l -0.04,-0.01 h -0.02 l -0.04,-0.01 h -0.02 l -0.04,-0.01 h -0.01 l -0.05,-0.01 -0.06,-0.02 v 0 l -0.06,-0.02 v 0 l -0.06,-0.02 v 0 l -0.05,-0.02 h -0.01 l -0.05,-0.02 h -0.01 l -0.04,-0.02 -0.02,-0.01 -0.04,-0.02 -0.06,-0.02 -0.02,-0.01 -0.04,-0.02 -0.02,-0.01 -0.03,-0.02 -0.06,-0.03 -0.02,-0.01 -0.03,-0.02 c -0.05,-0.03 -0.1,-0.06 -0.15,-0.09 l -0.03,-0.02 -0.02,-0.02 c -0.05,-0.03 -0.09,-0.07 -0.14,-0.11 l -0.03,-0.02 -0.02,-0.02 -0.02,-0.02 -0.02,-0.02 -0.03,-0.02 -0.02,-0.02 -0.03,-0.02 -0.02,-0.02 -0.02,-0.02 -0.02,-0.02 -0.02,-0.02 -0.02,-0.02 -0.02,-0.02 -0.02,-0.02 -0.02,-0.03 -0.02,-0.02 -0.02,-0.02 -0.04,-0.05 -0.02,-0.03 -0.02,-0.02 -0.07,-0.1 -0.02,-0.03 -0.01,-0.02 -0.02,-0.03 -0.01,-0.02 -0.02,-0.04 -0.01,-0.02 -0.02,-0.04 v -0.01 l -0.02,-0.04 v -0.01 l -0.02,-0.05 v 0 l -0.02,-0.05 v 0 l -0.02,-0.06 v 0 l -0.02,-0.05 v -0.01 l -0.02,-0.05 v -0.01 l -0.02,-0.05 v -0.02 c -0.03,-0.08 -0.05,-0.16 -0.06,-0.24 l -0.01,-0.03 v -0.03 l -0.01,-0.03 v -0.03 -0.03 -0.03 l -0.01,-0.06 v -0.03 -0.03 -0.03 -0.03 -0.03 -0.03 -0.03 -0.03 -0.03 -0.03 -0.03 -0.03 -0.03 -0.03 -0.04 -0.03 -0.04 -0.02 -0.04 -0.02 -0.04 -0.02 l 0.01,-0.04 v -0.02 l 0.01,-0.05 v -0.01 l 0.01,-0.05 c 0.05,-0.2 0.11,-0.39 0.2,-0.57 1.89,-4.87 4.22,-7 9.6,-8.71 20.13,-6.41 29.77,1.88 41.52,14 0.89,-6.97 3.95,-13.71 8.11,-19.76 11.86,-17.27 23.06,-10.84 36.13,-4.56 0.35,0.13 0.65,0.33 0.89,0.58 8.52,-9.14 21.24,-12.42 26.3,-3.87 40.34,-18.28 58.57,-12.61 108.2,1.19 0.53,0.17 0.97,0.5 1.27,0.92 0.29,-0.01 0.58,0.04 0.87,0.14 17.55,5.63 34.13,4.14 52.51,1.58 32.85,-4.58 30.88,-8.89 40.54,8.78 5.81,0.99 7.09,4.03 7.36,9.72 17.69,5.92 23.48,13.94 14.86,29 25.74,8.29 16.39,65.09 -27.46,44.93 -0.71,-0.42 -1.14,-1.15 -1.2,-1.91 z"
   id="path1575" />
     <path
   class="fil0"
   d="m 4173.98,181.41 c -4.81,-5.7 -8.64,-10.47 -11.89,-14.59 -14.04,-17.8 -17.06,-23.45 -40.09,-40.3 l 0.41,0.64 c 13.22,20.72 11.26,33.33 7.78,43.19 -4.05,11.46 -10.13,19.2 3.28,31.65 2.58,2.39 3.93,1.4 6.56,0.35 0.05,-1.17 0.17,-2.19 0.35,-3.11 4.26,-22.27 43.19,25.17 2.8,24.33 -2.84,-0.06 -9.58,-0.8 -12.38,-3.57 -4.41,-2.86 -2.7,-1.63 -6.51,-4.63 -10.49,5.37 -14.4,7.48 -24.05,0.83 -41.52,14.86 -109.22,13.28 -130.21,-34.07 -7.16,-16.14 -1.29,-53.08 22.74,-55.82 38.86,-4.42 49.37,29.85 7.61,37.41 -14.72,2.66 -10.69,28.48 4.41,32.1 -1.54,-9.75 -5.1,-18.7 15.59,-23.72 6.89,-1.67 12.61,-2.14 19.06,-2.26 -8.69,-16.62 -0.01,-46.67 18.59,-50.32 0.81,-0.16 1.65,-0.28 2.5,-0.33 l 6.46,-0.17 c 0.06,0 0.11,0 0.17,0.01 1.21,-0.09 2.33,0.72 2.59,1.94 0.22,2.79 -6.81,18.24 4.11,15.04 14.04,-4.12 17.68,-28.91 -12.38,-39.57 -4.66,-1.65 -7.79,-3.06 -10.22,-4.2 -8.86,-4.18 -8.28,-4.81 -38.56,-0.96 -4.49,0.57 -8.96,1.3 -13.27,2.48 -4.5,1.24 -8.82,2.99 -12.78,5.59 l -0.35,0.24 c 4.92,22.71 -1.9,27.35 -20.81,41.95 -9.3,7.19 -19,9.48 -29.65,14.19 27.06,10.1 28.15,55.91 -8.11,57.06 -0.22,0.03 -0.43,0.04 -0.64,0.02 -0.15,0 -0.29,0.01 -0.43,0.01 -1.11,0 -2.06,-0.74 -2.37,-1.75 -0.07,-0.23 -0.11,-0.47 -0.11,-0.72 0,-1.36 1.11,-2.47 2.47,-2.47 h 0.09 0.17 c 2.77,-1.22 2.59,-5.99 0.18,-9.05 -3.02,-3.82 -9.52,-4.98 -18.12,6.8 -1.58,2.16 -3.81,4.16 -6.56,5.98 -19.85,13.19 -66.51,16.87 -86.91,4.1 -0.11,-0.08 -0.22,-0.17 -0.31,-0.27 -10.36,-4.32 -19.85,-17.22 -25.44,-25.96 -8.33,-13.02 -13.44,-19.65 -21.62,-31.06 -0.22,-0.26 -0.38,-0.55 -0.47,-0.85 -1.13,-1.13 -2.93,-2.59 -5.09,-4.13 -4.85,-3.44 -11.59,-7.3 -17.04,-8.83 -2.02,-0.57 -3.86,-0.83 -5.37,-0.63 -1.34,0.28 -2.65,-0.58 -2.92,-1.92 -0.17,-0.84 0.1,-1.67 0.66,-2.23 -0.11,-0.81 0.19,-1.66 0.87,-2.23 11.48,-7.52 31.65,1.46 41.37,7.85 0.06,0.04 0.11,0.09 0.17,0.14 8.66,3.37 14.11,6.35 15.92,13.96 4.26,-3.54 10.48,-4.13 16.26,-4.11 -1.29,-1.82 -2.5,-3.67 -3.35,-5.69 -20.46,-48.19 36.02,-79.36 41.09,-44.52 0.03,0.7 -0.23,1.35 -0.69,1.82 0,0.84 -0.43,1.66 -1.2,2.12 -0.17,0.13 -0.34,0.25 -0.51,0.37 -11,8.24 -1.78,17.67 7.17,23.35 0.8,0.5 1.59,0.98 2.37,1.43 0.27,0.13 0.51,0.3 0.71,0.5 3.87,-1.29 7.05,-1.96 9.67,-2.03 8.24,-0.22 10.95,5.56 12.33,17.15 16,-3.15 11.26,-28.02 -4.95,-35.82 -3.41,-1.64 -7.32,-2.52 -11.65,-2.29 -1.88,0.1 -3.84,0.4 -5.87,0.95 l -0.05,0.02 h -0.01 l -0.02,0.01 -0.03,0.01 h -0.01 l -0.05,0.02 h -0.01 c -0.08,0.03 -0.16,0.05 -0.24,0.06 l -0.04,0.01 h -0.03 l -0.03,0.01 h -0.03 -0.03 -0.03 l -0.06,0.01 h -0.03 -0.03 -0.03 -0.03 -0.03 -0.03 -0.03 -0.03 -0.03 -0.03 -0.03 -0.03 -0.03 -0.03 -0.04 -0.02 -0.04 -0.02 -0.04 -0.02 l -0.04,-0.01 h -0.02 l -0.04,-0.01 h -0.02 l -0.05,-0.01 h -0.01 l -0.05,-0.01 -0.06,-0.02 v 0 l -0.06,-0.02 v 0 l -0.06,-0.02 v 0 l -0.05,-0.02 h -0.01 l -0.05,-0.02 h -0.01 l -0.04,-0.02 -0.02,-0.01 -0.04,-0.02 -0.06,-0.02 -0.02,-0.01 -0.04,-0.02 -0.02,-0.01 -0.03,-0.02 -0.06,-0.03 -0.02,-0.01 -0.03,-0.02 c -0.05,-0.03 -0.1,-0.06 -0.15,-0.09 l -0.03,-0.02 -0.02,-0.02 c -0.05,-0.03 -0.09,-0.07 -0.14,-0.11 l -0.03,-0.02 -0.02,-0.02 -0.02,-0.02 -0.02,-0.02 -0.02,-0.02 -0.02,-0.02 -0.02,-0.02 -0.02,-0.02 -0.02,-0.02 -0.02,-0.02 -0.02,-0.02 -0.02,-0.02 -0.02,-0.02 -0.02,-0.02 -0.02,-0.03 -0.02,-0.02 -0.02,-0.02 -0.04,-0.05 -0.02,-0.03 -0.02,-0.02 -0.07,-0.1 -0.02,-0.03 -0.01,-0.02 -0.02,-0.03 -0.01,-0.02 -0.02,-0.04 -0.01,-0.02 -0.02,-0.04 v -0.01 l -0.02,-0.04 v -0.01 l -0.02,-0.05 v 0 l -0.02,-0.05 v 0 l -0.02,-0.06 v 0 l -0.02,-0.05 v -0.01 l -0.02,-0.05 v -0.01 l -0.02,-0.05 v -0.02 c -0.02,-0.08 -0.05,-0.16 -0.06,-0.24 l -0.01,-0.03 v -0.03 l -0.01,-0.03 v -0.03 -0.03 -0.03 l -0.01,-0.06 v -0.03 -0.03 -0.03 -0.03 -0.03 -0.03 -0.03 -0.03 -0.03 -0.03 -0.03 -0.03 -0.03 -0.03 -0.04 -0.03 -0.04 -0.02 -0.04 -0.02 -0.04 -0.02 l 0.01,-0.04 v -0.02 l 0.01,-0.05 v -0.01 l 0.01,-0.05 c 0.05,-0.2 0.11,-0.39 0.2,-0.57 1.89,-4.87 4.23,-7 9.6,-8.71 20.13,-6.41 29.77,1.88 41.52,14 0.89,-6.97 3.96,-13.71 8.11,-19.76 11.86,-17.27 23.06,-10.84 36.13,-4.56 0.35,0.13 0.65,0.33 0.89,0.58 8.52,-9.14 21.24,-12.42 26.3,-3.87 40.34,-18.28 58.57,-12.61 108.2,1.19 0.54,0.17 0.97,0.5 1.27,0.92 0.29,-0.01 0.58,0.04 0.87,0.14 17.55,5.63 34.13,4.14 52.51,1.58 32.85,-4.58 30.88,-8.89 40.54,8.78 5.81,0.99 7.09,4.03 7.36,9.72 17.69,5.92 23.48,13.94 14.86,29 25.74,8.29 16.39,65.09 -27.46,44.93 -0.71,-0.42 -1.14,-1.15 -1.2,-1.91 z"
   id="path1577" />
     <path
   class="fil0"
   d="m 5556.74,181.41 c -4.81,-5.7 -8.64,-10.47 -11.89,-14.59 -14.04,-17.8 -17.06,-23.45 -40.09,-40.3 l 0.41,0.64 c 13.22,20.72 11.26,33.33 7.78,43.19 -4.04,11.46 -10.13,19.2 3.29,31.65 2.58,2.39 3.93,1.4 6.56,0.35 0.05,-1.17 0.17,-2.19 0.35,-3.11 4.26,-22.27 43.2,25.17 2.8,24.33 -2.84,-0.06 -9.58,-0.8 -12.38,-3.57 -4.41,-2.86 -2.71,-1.63 -6.51,-4.63 -10.49,5.37 -14.41,7.48 -24.05,0.83 -41.52,14.86 -109.22,13.28 -130.22,-34.07 -7.16,-16.14 -1.29,-53.08 22.75,-55.82 38.86,-4.42 49.37,29.85 7.61,37.41 -14.72,2.66 -10.69,28.48 4.41,32.1 -1.54,-9.75 -5.1,-18.7 15.59,-23.72 6.89,-1.67 12.61,-2.14 19.06,-2.26 -8.69,-16.62 -0.01,-46.67 18.59,-50.32 0.81,-0.16 1.64,-0.28 2.5,-0.33 l 6.46,-0.17 c 0.06,0 0.11,0 0.17,0.01 1.2,-0.09 2.33,0.72 2.59,1.94 0.22,2.79 -6.81,18.24 4.11,15.04 14.04,-4.12 17.68,-28.91 -12.38,-39.57 -4.66,-1.65 -7.79,-3.06 -10.22,-4.2 -8.86,-4.18 -8.29,-4.81 -38.56,-0.96 -4.48,0.57 -8.96,1.3 -13.27,2.48 -4.5,1.24 -8.81,2.99 -12.77,5.59 l -0.35,0.24 c 4.92,22.71 -1.91,27.35 -20.81,41.95 -9.3,7.19 -19,9.48 -29.65,14.19 27.06,10.1 28.15,55.91 -8.12,57.06 -0.21,0.03 -0.43,0.04 -0.63,0.02 -0.15,0 -0.29,0.01 -0.44,0.01 -1.11,0 -2.05,-0.74 -2.36,-1.75 -0.07,-0.23 -0.11,-0.47 -0.11,-0.72 0,-1.36 1.11,-2.47 2.47,-2.47 h 0.1 0.17 c 2.77,-1.22 2.59,-5.99 0.17,-9.05 -3.02,-3.82 -9.52,-4.98 -18.12,6.8 -1.58,2.16 -3.81,4.16 -6.55,5.98 -19.85,13.19 -66.51,16.87 -86.91,4.1 -0.11,-0.08 -0.22,-0.17 -0.32,-0.27 -10.35,-4.32 -19.84,-17.22 -25.44,-25.96 -8.33,-13.02 -13.44,-19.65 -21.63,-31.06 -0.22,-0.26 -0.37,-0.55 -0.47,-0.85 -1.13,-1.13 -2.93,-2.59 -5.1,-4.13 -4.85,-3.44 -11.59,-7.3 -17.04,-8.83 -2.02,-0.57 -3.86,-0.83 -5.37,-0.63 -1.33,0.28 -2.64,-0.58 -2.92,-1.92 -0.17,-0.84 0.1,-1.67 0.66,-2.23 -0.11,-0.81 0.19,-1.66 0.87,-2.23 11.48,-7.52 31.65,1.46 41.37,7.85 0.06,0.04 0.11,0.09 0.17,0.14 8.66,3.37 14.11,6.35 15.92,13.96 4.26,-3.54 10.48,-4.13 16.26,-4.11 -1.29,-1.82 -2.5,-3.67 -3.35,-5.69 -20.46,-48.19 36.02,-79.36 41.09,-44.52 0.03,0.7 -0.23,1.35 -0.69,1.82 0,0.84 -0.43,1.66 -1.2,2.12 -0.18,0.13 -0.34,0.25 -0.51,0.37 -10.99,8.24 -1.78,17.67 7.18,23.35 0.8,0.5 1.59,0.98 2.37,1.43 0.27,0.13 0.51,0.3 0.7,0.5 3.87,-1.29 7.06,-1.96 9.67,-2.03 8.24,-0.22 10.95,5.56 12.33,17.15 15.99,-3.15 11.26,-28.02 -4.96,-35.82 -3.4,-1.64 -7.31,-2.52 -11.65,-2.29 -1.88,0.1 -3.84,0.4 -5.87,0.95 l -0.05,0.02 h -0.01 l -0.02,0.01 -0.03,0.01 h -0.01 l -0.05,0.02 h -0.02 c -0.08,0.03 -0.16,0.05 -0.24,0.06 l -0.03,0.01 h -0.03 l -0.03,0.01 h -0.03 -0.03 -0.03 l -0.06,0.01 h -0.03 -0.03 -0.03 -0.03 -0.03 -0.03 -0.03 -0.03 -0.03 -0.03 -0.03 -0.03 -0.03 -0.03 -0.04 -0.02 -0.04 -0.02 -0.04 -0.02 l -0.04,-0.01 h -0.02 l -0.04,-0.01 h -0.02 l -0.04,-0.01 h -0.01 l -0.05,-0.01 -0.06,-0.02 v 0 l -0.06,-0.02 v 0 l -0.06,-0.02 v 0 l -0.05,-0.02 h -0.01 l -0.05,-0.02 h -0.01 l -0.04,-0.02 -0.02,-0.01 -0.04,-0.02 -0.06,-0.02 -0.02,-0.01 -0.04,-0.02 -0.02,-0.01 -0.03,-0.02 -0.06,-0.03 -0.02,-0.01 -0.03,-0.02 c -0.05,-0.03 -0.1,-0.06 -0.15,-0.09 l -0.03,-0.02 -0.02,-0.02 c -0.05,-0.03 -0.09,-0.07 -0.14,-0.11 l -0.03,-0.02 -0.02,-0.02 -0.02,-0.02 -0.02,-0.02 -0.03,-0.02 -0.02,-0.02 -0.03,-0.02 -0.02,-0.02 -0.02,-0.02 -0.02,-0.02 -0.02,-0.02 -0.02,-0.02 -0.02,-0.02 -0.02,-0.02 -0.02,-0.03 -0.02,-0.02 -0.02,-0.02 -0.04,-0.05 -0.02,-0.03 -0.02,-0.02 -0.07,-0.1 -0.02,-0.03 -0.01,-0.02 -0.02,-0.03 -0.01,-0.02 -0.02,-0.04 -0.01,-0.02 -0.02,-0.04 v -0.01 l -0.02,-0.04 v -0.01 l -0.02,-0.05 v 0 l -0.02,-0.05 v 0 l -0.02,-0.06 v 0 l -0.02,-0.05 v -0.01 l -0.02,-0.05 v -0.01 l -0.02,-0.05 v -0.02 c -0.03,-0.08 -0.05,-0.16 -0.06,-0.24 l -0.01,-0.03 v -0.03 l -0.01,-0.03 v -0.03 -0.03 -0.03 l -0.01,-0.06 v -0.03 -0.03 -0.03 -0.03 -0.03 -0.03 -0.03 -0.03 -0.03 -0.03 -0.03 -0.03 -0.03 -0.03 -0.04 -0.03 -0.04 -0.02 -0.04 -0.02 l 0.01,-0.04 v -0.02 l 0.01,-0.04 v -0.02 l 0.01,-0.05 v -0.01 l 0.01,-0.05 c 0.05,-0.2 0.11,-0.39 0.2,-0.57 1.89,-4.87 4.22,-7 9.6,-8.71 20.13,-6.41 29.77,1.88 41.52,14 0.89,-6.97 3.95,-13.71 8.11,-19.76 11.86,-17.27 23.06,-10.84 36.13,-4.56 0.35,0.13 0.65,0.33 0.89,0.58 8.52,-9.14 21.24,-12.42 26.3,-3.87 40.34,-18.28 58.57,-12.61 108.2,1.19 0.53,0.17 0.97,0.5 1.27,0.92 0.29,-0.01 0.58,0.04 0.87,0.14 17.55,5.63 34.13,4.14 52.51,1.58 32.86,-4.58 30.89,-8.89 40.55,8.78 5.81,0.99 7.09,4.03 7.36,9.72 17.69,5.92 23.48,13.94 14.86,29 25.74,8.29 16.39,65.09 -27.46,44.93 -0.71,-0.42 -1.14,-1.15 -1.2,-1.91 z"
   id="path1579" />
     <path
   class="fil0"
   d="m 5095.28,181.41 c -4.81,-5.7 -8.64,-10.47 -11.89,-14.59 -14.04,-17.8 -17.06,-23.45 -40.09,-40.3 l 0.41,0.64 c 13.22,20.72 11.26,33.33 7.78,43.19 -4.05,11.46 -10.13,19.2 3.28,31.65 2.58,2.39 3.93,1.4 6.56,0.35 0.05,-1.17 0.17,-2.19 0.35,-3.11 4.26,-22.27 43.19,25.17 2.8,24.33 -2.84,-0.06 -9.58,-0.8 -12.38,-3.57 -4.41,-2.86 -2.7,-1.63 -6.51,-4.63 -10.49,5.37 -14.41,7.48 -24.05,0.83 -41.52,14.86 -109.22,13.28 -130.21,-34.07 -7.16,-16.14 -1.29,-53.08 22.74,-55.82 38.86,-4.42 49.37,29.85 7.61,37.41 -14.72,2.66 -10.69,28.48 4.41,32.1 -1.54,-9.75 -5.1,-18.7 15.59,-23.72 6.89,-1.67 12.61,-2.14 19.06,-2.26 -8.69,-16.62 -0.01,-46.67 18.59,-50.32 0.81,-0.16 1.65,-0.28 2.5,-0.33 l 6.46,-0.17 c 0.06,0 0.11,0 0.17,0.01 1.21,-0.09 2.33,0.72 2.59,1.94 0.22,2.79 -6.81,18.24 4.11,15.04 14.04,-4.12 17.68,-28.91 -12.38,-39.57 -4.66,-1.65 -7.79,-3.06 -10.22,-4.2 -8.86,-4.18 -8.28,-4.81 -38.56,-0.96 -4.49,0.57 -8.96,1.3 -13.27,2.48 -4.5,1.24 -8.81,2.99 -12.77,5.59 l -0.35,0.24 c 4.92,22.71 -1.9,27.35 -20.81,41.95 -9.3,7.19 -19,9.48 -29.65,14.19 27.06,10.1 28.15,55.91 -8.11,57.06 -0.22,0.03 -0.43,0.04 -0.64,0.02 -0.15,0 -0.29,0.01 -0.44,0.01 -1.11,0 -2.05,-0.74 -2.36,-1.75 -0.07,-0.23 -0.11,-0.47 -0.11,-0.72 0,-1.36 1.11,-2.47 2.47,-2.47 h 0.1 0.17 c 2.77,-1.22 2.59,-5.99 0.18,-9.05 -3.02,-3.82 -9.52,-4.98 -18.12,6.8 -1.58,2.16 -3.81,4.16 -6.56,5.98 -19.85,13.19 -66.51,16.87 -86.91,4.1 -0.11,-0.08 -0.22,-0.17 -0.31,-0.27 -10.36,-4.32 -19.85,-17.22 -25.44,-25.96 -8.33,-13.02 -13.44,-19.65 -21.62,-31.06 -0.22,-0.26 -0.38,-0.55 -0.47,-0.85 -1.13,-1.13 -2.93,-2.59 -5.1,-4.13 -4.85,-3.44 -11.59,-7.3 -17.04,-8.83 -2.02,-0.57 -3.86,-0.83 -5.37,-0.63 -1.34,0.28 -2.65,-0.58 -2.92,-1.92 -0.17,-0.84 0.1,-1.67 0.66,-2.23 -0.11,-0.81 0.19,-1.66 0.87,-2.23 11.48,-7.52 31.65,1.46 41.37,7.85 0.06,0.04 0.11,0.09 0.17,0.14 8.66,3.37 14.11,6.35 15.92,13.96 4.26,-3.54 10.48,-4.13 16.26,-4.11 -1.29,-1.82 -2.5,-3.67 -3.35,-5.69 -20.46,-48.19 36.02,-79.36 41.09,-44.52 0.03,0.7 -0.23,1.35 -0.69,1.82 0,0.84 -0.43,1.66 -1.2,2.12 -0.17,0.13 -0.34,0.25 -0.51,0.37 -11,8.24 -1.78,17.67 7.17,23.35 0.8,0.5 1.59,0.98 2.37,1.43 0.27,0.13 0.51,0.3 0.71,0.5 3.87,-1.29 7.05,-1.96 9.67,-2.03 8.24,-0.22 10.95,5.56 12.33,17.15 15.99,-3.15 11.26,-28.02 -4.95,-35.82 -3.41,-1.64 -7.32,-2.52 -11.65,-2.29 -1.88,0.1 -3.84,0.4 -5.87,0.95 l -0.05,0.02 h -0.01 l -0.02,0.01 -0.03,0.01 h -0.01 l -0.05,0.02 h -0.01 c -0.08,0.03 -0.16,0.05 -0.24,0.06 l -0.03,0.01 h -0.03 l -0.03,0.01 h -0.03 -0.03 -0.03 l -0.06,0.01 h -0.03 -0.03 -0.03 -0.03 -0.03 -0.03 -0.03 -0.03 -0.03 -0.03 -0.03 -0.03 -0.03 -0.03 -0.04 -0.02 -0.04 -0.02 -0.04 -0.02 l -0.04,-0.01 h -0.02 l -0.04,-0.01 h -0.02 l -0.05,-0.01 h -0.01 l -0.05,-0.01 -0.06,-0.02 v 0 l -0.06,-0.02 v 0 l -0.06,-0.02 v 0 l -0.05,-0.02 h -0.01 l -0.05,-0.02 h -0.01 l -0.04,-0.02 -0.02,-0.01 -0.04,-0.02 -0.06,-0.02 -0.02,-0.01 -0.04,-0.02 -0.02,-0.01 -0.03,-0.02 -0.06,-0.03 -0.02,-0.01 -0.03,-0.02 c -0.05,-0.03 -0.1,-0.06 -0.15,-0.09 l -0.03,-0.02 -0.02,-0.02 c -0.05,-0.03 -0.09,-0.07 -0.14,-0.11 l -0.03,-0.02 -0.02,-0.02 -0.02,-0.02 -0.02,-0.02 -0.03,-0.02 -0.02,-0.02 -0.03,-0.02 -0.02,-0.02 -0.02,-0.02 -0.02,-0.02 -0.02,-0.02 -0.02,-0.02 -0.02,-0.02 -0.02,-0.02 -0.02,-0.03 -0.02,-0.02 -0.02,-0.02 -0.04,-0.05 -0.02,-0.03 -0.02,-0.02 -0.07,-0.1 -0.02,-0.03 -0.01,-0.02 -0.02,-0.03 -0.01,-0.02 -0.02,-0.04 -0.01,-0.02 -0.02,-0.04 v -0.01 l -0.02,-0.04 v -0.01 l -0.02,-0.05 v 0 l -0.02,-0.05 v 0 l -0.02,-0.06 v 0 l -0.02,-0.05 v -0.01 l -0.02,-0.05 v -0.01 l -0.02,-0.05 v -0.02 c -0.02,-0.08 -0.05,-0.16 -0.06,-0.24 l -0.01,-0.03 v -0.03 l -0.01,-0.03 v -0.03 -0.03 -0.03 l -0.01,-0.06 v -0.03 -0.03 -0.03 -0.03 -0.03 -0.03 -0.03 -0.03 -0.03 -0.03 -0.03 -0.03 -0.03 -0.03 -0.04 -0.03 -0.04 -0.02 -0.04 -0.02 -0.04 -0.02 l 0.01,-0.04 v -0.02 l 0.01,-0.05 v -0.01 l 0.01,-0.05 c 0.05,-0.2 0.11,-0.39 0.2,-0.57 1.89,-4.87 4.23,-7 9.6,-8.71 20.13,-6.41 29.77,1.88 41.52,14 0.89,-6.97 3.95,-13.71 8.11,-19.76 11.86,-17.27 23.06,-10.84 36.13,-4.56 0.35,0.13 0.65,0.33 0.89,0.58 8.52,-9.14 21.23,-12.42 26.3,-3.87 40.34,-18.28 58.57,-12.61 108.2,1.19 0.54,0.17 0.97,0.5 1.27,0.92 0.29,-0.01 0.58,0.04 0.87,0.14 17.55,5.63 34.13,4.14 52.51,1.58 32.85,-4.58 30.88,-8.89 40.54,8.78 5.81,0.99 7.09,4.03 7.36,9.72 17.69,5.92 23.48,13.94 14.86,29 25.74,8.29 16.39,65.09 -27.46,44.93 -0.71,-0.42 -1.14,-1.15 -1.2,-1.91 z"
   id="path1581" />
     <path
   class="fil0"
   d="m 6475.91,181.41 c -4.81,-5.7 -8.64,-10.47 -11.89,-14.59 -14.03,-17.8 -17.06,-23.45 -40.09,-40.3 l 0.41,0.64 c 13.22,20.72 11.25,33.33 7.78,43.19 -4.04,11.46 -10.13,19.2 3.29,31.65 2.58,2.39 3.93,1.4 6.55,0.35 0.05,-1.17 0.17,-2.19 0.35,-3.11 4.26,-22.27 43.19,25.17 2.8,24.33 -2.84,-0.06 -9.58,-0.8 -12.38,-3.57 -4.42,-2.86 -2.71,-1.63 -6.52,-4.63 -10.48,5.37 -14.4,7.48 -24.05,0.83 -41.52,14.86 -109.21,13.28 -130.21,-34.07 -7.16,-16.14 -1.29,-53.08 22.74,-55.82 38.86,-4.42 49.37,29.85 7.61,37.41 -14.72,2.66 -10.69,28.48 4.41,32.1 -1.54,-9.75 -5.1,-18.7 15.59,-23.72 6.89,-1.67 12.61,-2.14 19.06,-2.26 -8.69,-16.62 -0.01,-46.67 18.59,-50.32 0.81,-0.16 1.64,-0.28 2.49,-0.33 l 6.46,-0.17 c 0.06,0 0.11,0 0.17,0.01 1.21,-0.09 2.33,0.72 2.59,1.94 0.22,2.79 -6.81,18.24 4.11,15.04 14.04,-4.12 17.68,-28.91 -12.39,-39.57 -4.66,-1.65 -7.79,-3.06 -10.21,-4.2 -8.86,-4.18 -8.29,-4.81 -38.56,-0.96 -4.48,0.57 -8.96,1.3 -13.27,2.48 -4.5,1.24 -8.81,2.99 -12.78,5.59 l -0.35,0.24 c 4.91,22.71 -1.91,27.35 -20.81,41.95 -9.3,7.19 -19,9.48 -29.65,14.19 27.06,10.1 28.15,55.91 -8.11,57.06 -0.21,0.03 -0.43,0.04 -0.63,0.02 -0.15,0 -0.29,0.01 -0.44,0.01 -1.11,0 -2.06,-0.74 -2.36,-1.75 -0.07,-0.23 -0.11,-0.47 -0.11,-0.72 0,-1.36 1.11,-2.47 2.47,-2.47 h 0.09 0.18 c 2.77,-1.22 2.59,-5.99 0.17,-9.05 -3.02,-3.82 -9.52,-4.98 -18.12,6.8 -1.58,2.16 -3.81,4.16 -6.55,5.98 -19.85,13.19 -66.51,16.87 -86.92,4.1 -0.11,-0.08 -0.22,-0.17 -0.31,-0.27 -10.36,-4.32 -19.85,-17.22 -25.44,-25.96 -8.33,-13.02 -13.44,-19.65 -21.62,-31.06 -0.22,-0.26 -0.37,-0.55 -0.47,-0.85 -1.13,-1.13 -2.93,-2.59 -5.1,-4.13 -4.85,-3.44 -11.59,-7.3 -17.04,-8.83 -2.02,-0.57 -3.87,-0.83 -5.37,-0.63 -1.33,0.28 -2.64,-0.58 -2.92,-1.92 -0.17,-0.84 0.1,-1.67 0.65,-2.23 -0.11,-0.81 0.19,-1.66 0.87,-2.23 11.48,-7.52 31.65,1.46 41.37,7.85 0.06,0.04 0.11,0.09 0.17,0.14 8.66,3.37 14.11,6.35 15.92,13.96 4.26,-3.54 10.48,-4.13 16.26,-4.11 -1.29,-1.82 -2.5,-3.67 -3.35,-5.69 -20.47,-48.19 36.02,-79.36 41.08,-44.52 0.04,0.7 -0.23,1.35 -0.69,1.82 0,0.84 -0.42,1.66 -1.19,2.12 -0.18,0.13 -0.35,0.25 -0.51,0.37 -11,8.24 -1.78,17.67 7.18,23.35 0.8,0.5 1.59,0.98 2.37,1.43 0.27,0.13 0.51,0.3 0.71,0.5 3.87,-1.29 7.05,-1.96 9.67,-2.03 8.23,-0.22 10.95,5.56 12.32,17.15 16,-3.15 11.26,-28.02 -4.95,-35.82 -3.41,-1.64 -7.32,-2.52 -11.65,-2.29 -1.88,0.1 -3.84,0.4 -5.87,0.95 l -0.05,0.02 h -0.01 l -0.02,0.01 -0.03,0.01 h -0.01 l -0.04,0.02 h -0.02 c -0.08,0.03 -0.16,0.05 -0.24,0.06 l -0.03,0.01 h -0.03 l -0.03,0.01 h -0.03 -0.03 -0.03 l -0.06,0.01 h -0.03 -0.03 -0.03 -0.03 -0.03 -0.03 -0.03 -0.03 -0.03 -0.03 -0.03 -0.03 -0.03 -0.03 -0.03 -0.03 -0.04 -0.02 -0.04 -0.02 l -0.04,-0.01 h -0.02 l -0.04,-0.01 h -0.02 l -0.05,-0.01 h -0.01 l -0.05,-0.01 -0.06,-0.02 v 0 l -0.06,-0.02 v 0 l -0.06,-0.02 v 0 l -0.06,-0.02 h -0.01 l -0.05,-0.02 h -0.01 l -0.04,-0.02 -0.01,-0.01 -0.04,-0.02 -0.06,-0.02 -0.02,-0.01 -0.04,-0.02 -0.02,-0.01 -0.03,-0.02 -0.05,-0.03 -0.02,-0.01 -0.03,-0.02 c -0.05,-0.03 -0.1,-0.06 -0.15,-0.09 l -0.03,-0.02 -0.02,-0.02 c -0.05,-0.03 -0.1,-0.07 -0.14,-0.11 l -0.03,-0.02 -0.02,-0.02 -0.03,-0.02 -0.02,-0.02 -0.03,-0.02 -0.02,-0.02 -0.02,-0.02 -0.02,-0.02 -0.02,-0.02 -0.02,-0.02 -0.02,-0.02 -0.02,-0.02 -0.02,-0.02 -0.02,-0.02 -0.02,-0.03 -0.02,-0.02 -0.02,-0.02 -0.04,-0.05 -0.02,-0.03 -0.02,-0.02 -0.07,-0.1 -0.02,-0.03 -0.01,-0.02 -0.02,-0.03 -0.01,-0.02 -0.02,-0.04 -0.01,-0.02 -0.02,-0.04 -0.01,-0.01 -0.02,-0.04 v -0.01 l -0.02,-0.05 v 0 l -0.02,-0.05 v 0 l -0.02,-0.06 v 0 l -0.02,-0.05 v -0.01 l -0.02,-0.05 v -0.01 l -0.02,-0.05 v -0.02 c -0.03,-0.08 -0.05,-0.16 -0.07,-0.24 v -0.03 l -0.01,-0.03 v -0.03 -0.03 l -0.01,-0.03 v -0.03 l -0.01,-0.06 v -0.03 -0.03 -0.03 -0.03 -0.03 -0.03 -0.03 -0.03 -0.03 -0.03 -0.03 -0.03 -0.03 -0.03 -0.04 -0.03 -0.04 -0.02 -0.04 -0.02 l 0.01,-0.04 v -0.02 l 0.01,-0.04 v -0.02 l 0.01,-0.05 v -0.01 l 0.01,-0.05 c 0.04,-0.2 0.11,-0.39 0.2,-0.57 1.89,-4.87 4.22,-7 9.6,-8.71 20.13,-6.41 29.77,1.88 41.53,14 0.88,-6.97 3.95,-13.71 8.11,-19.76 11.86,-17.27 23.06,-10.84 36.13,-4.56 0.35,0.13 0.65,0.33 0.89,0.58 8.52,-9.14 21.24,-12.42 26.3,-3.87 40.34,-18.28 58.57,-12.61 108.2,1.19 0.54,0.17 0.97,0.5 1.28,0.92 0.29,-0.01 0.58,0.04 0.87,0.14 17.54,5.63 34.13,4.14 52.51,1.58 32.86,-4.58 30.89,-8.89 40.55,8.78 5.81,0.99 7.09,4.03 7.36,9.72 17.69,5.92 23.48,13.94 14.86,29 25.74,8.29 16.38,65.09 -27.46,44.93 -0.72,-0.42 -1.14,-1.15 -1.2,-1.91 z"
   id="path1583" />
     <path
   class="fil0"
   d="m 6014.45,181.41 c -4.81,-5.7 -8.64,-10.47 -11.89,-14.59 -14.03,-17.8 -17.06,-23.45 -40.09,-40.3 l 0.41,0.64 c 13.22,20.72 11.26,33.33 7.78,43.19 -4.04,11.46 -10.13,19.2 3.29,31.65 2.58,2.39 3.93,1.4 6.55,0.35 0.05,-1.17 0.17,-2.19 0.35,-3.11 4.26,-22.27 43.19,25.17 2.8,24.33 -2.84,-0.06 -9.58,-0.8 -12.38,-3.57 -4.42,-2.86 -2.71,-1.63 -6.52,-4.63 -10.48,5.37 -14.4,7.48 -24.05,0.83 -41.52,14.86 -109.21,13.28 -130.21,-34.07 -7.16,-16.14 -1.29,-53.08 22.74,-55.82 38.86,-4.42 49.38,29.85 7.61,37.41 -14.72,2.66 -10.69,28.48 4.41,32.1 -1.54,-9.75 -5.1,-18.7 15.59,-23.72 6.89,-1.67 12.61,-2.14 19.06,-2.26 -8.69,-16.62 -0.01,-46.67 18.59,-50.32 0.81,-0.16 1.64,-0.28 2.49,-0.33 l 6.46,-0.17 c 0.06,0 0.11,0 0.17,0.01 1.2,-0.09 2.33,0.72 2.59,1.94 0.22,2.79 -6.81,18.24 4.11,15.04 14.04,-4.12 17.68,-28.91 -12.38,-39.57 -4.66,-1.65 -7.79,-3.06 -10.22,-4.2 -8.86,-4.18 -8.29,-4.81 -38.56,-0.96 -4.48,0.57 -8.96,1.3 -13.27,2.48 -4.5,1.24 -8.81,2.99 -12.77,5.59 l -0.35,0.24 c 4.91,22.71 -1.91,27.35 -20.81,41.95 -9.3,7.19 -19,9.48 -29.65,14.19 27.06,10.1 28.15,55.91 -8.11,57.06 -0.21,0.03 -0.43,0.04 -0.63,0.02 -0.15,0 -0.29,0.01 -0.44,0.01 -1.11,0 -2.06,-0.74 -2.36,-1.75 -0.07,-0.23 -0.11,-0.47 -0.11,-0.72 0,-1.36 1.11,-2.47 2.47,-2.47 h 0.09 0.18 c 2.77,-1.22 2.59,-5.99 0.17,-9.05 -3.02,-3.82 -9.52,-4.98 -18.12,6.8 -1.58,2.16 -3.81,4.16 -6.55,5.98 -19.85,13.19 -66.51,16.87 -86.91,4.1 -0.11,-0.08 -0.22,-0.17 -0.32,-0.27 -10.35,-4.32 -19.85,-17.22 -25.44,-25.96 -8.33,-13.02 -13.44,-19.65 -21.63,-31.06 -0.22,-0.26 -0.37,-0.55 -0.47,-0.85 -1.13,-1.13 -2.93,-2.59 -5.1,-4.13 -4.85,-3.44 -11.59,-7.3 -17.04,-8.83 -2.02,-0.57 -3.86,-0.83 -5.37,-0.63 -1.33,0.28 -2.64,-0.58 -2.92,-1.92 -0.17,-0.84 0.1,-1.67 0.66,-2.23 -0.11,-0.81 0.19,-1.66 0.87,-2.23 11.48,-7.52 31.65,1.46 41.37,7.85 0.06,0.04 0.11,0.09 0.17,0.14 8.66,3.37 14.11,6.35 15.92,13.96 4.26,-3.54 10.48,-4.13 16.26,-4.11 -1.29,-1.82 -2.5,-3.67 -3.35,-5.69 -20.46,-48.19 36.02,-79.36 41.08,-44.52 0.04,0.7 -0.23,1.35 -0.68,1.82 0,0.84 -0.43,1.66 -1.2,2.12 -0.18,0.13 -0.35,0.25 -0.51,0.37 -11,8.24 -1.78,17.67 7.18,23.35 0.8,0.5 1.59,0.98 2.37,1.43 0.27,0.13 0.51,0.3 0.7,0.5 3.87,-1.29 7.06,-1.96 9.67,-2.03 8.24,-0.22 10.95,5.56 12.32,17.15 16,-3.15 11.26,-28.02 -4.95,-35.82 -3.41,-1.64 -7.32,-2.52 -11.65,-2.29 -1.88,0.1 -3.84,0.4 -5.87,0.95 l -0.06,0.02 h -0.01 l -0.02,0.01 -0.03,0.01 h -0.01 l -0.05,0.02 h -0.02 c -0.08,0.03 -0.16,0.05 -0.24,0.06 l -0.03,0.01 h -0.03 l -0.03,0.01 h -0.03 -0.03 -0.03 l -0.06,0.01 h -0.03 -0.03 -0.03 -0.03 -0.03 -0.03 -0.03 -0.03 -0.03 -0.03 -0.03 -0.03 -0.03 -0.03 -0.03 -0.03 -0.04 -0.02 -0.04 -0.02 l -0.04,-0.01 h -0.02 l -0.04,-0.01 h -0.02 l -0.05,-0.01 h -0.01 l -0.05,-0.01 -0.06,-0.02 v 0 l -0.06,-0.02 v 0 l -0.06,-0.02 v 0 l -0.05,-0.02 h -0.01 l -0.05,-0.02 h -0.01 l -0.05,-0.02 -0.01,-0.01 -0.04,-0.02 -0.05,-0.02 -0.02,-0.01 -0.04,-0.02 -0.02,-0.01 -0.04,-0.02 -0.05,-0.03 -0.02,-0.01 -0.03,-0.02 c -0.05,-0.03 -0.1,-0.06 -0.15,-0.09 l -0.03,-0.02 -0.02,-0.02 c -0.05,-0.03 -0.1,-0.07 -0.14,-0.11 l -0.03,-0.02 -0.02,-0.02 -0.03,-0.02 -0.02,-0.02 -0.03,-0.02 -0.02,-0.02 -0.03,-0.02 -0.02,-0.02 -0.02,-0.02 -0.02,-0.02 -0.02,-0.02 -0.02,-0.02 -0.02,-0.02 -0.02,-0.02 -0.02,-0.03 -0.02,-0.02 -0.02,-0.02 -0.04,-0.05 -0.02,-0.03 -0.02,-0.02 -0.07,-0.1 -0.02,-0.03 -0.01,-0.02 -0.02,-0.03 -0.01,-0.02 -0.02,-0.04 -0.01,-0.02 -0.02,-0.04 -0.01,-0.01 -0.02,-0.04 v -0.01 l -0.02,-0.05 v 0 l -0.02,-0.05 v 0 l -0.02,-0.06 v 0 l -0.02,-0.05 v -0.01 l -0.02,-0.05 v -0.01 l -0.02,-0.05 v -0.02 c -0.03,-0.08 -0.05,-0.16 -0.06,-0.24 l -0.01,-0.03 -0.01,-0.03 v -0.03 -0.03 l -0.01,-0.03 v -0.03 l -0.01,-0.06 v -0.03 -0.03 -0.03 -0.03 -0.03 -0.03 -0.03 -0.03 -0.03 -0.03 -0.03 -0.03 -0.03 -0.03 -0.04 -0.03 -0.04 -0.02 l 0.01,-0.04 v -0.02 l 0.01,-0.04 v -0.02 l 0.01,-0.04 v -0.02 l 0.01,-0.05 v -0.01 l 0.01,-0.05 c 0.04,-0.2 0.11,-0.39 0.2,-0.57 1.89,-4.87 4.22,-7 9.6,-8.71 20.12,-6.41 29.77,1.88 41.52,14 0.88,-6.97 3.95,-13.71 8.11,-19.76 11.86,-17.27 23.06,-10.84 36.13,-4.56 0.35,0.13 0.65,0.33 0.89,0.58 8.52,-9.14 21.24,-12.42 26.3,-3.87 40.34,-18.28 58.57,-12.61 108.2,1.19 0.54,0.17 0.97,0.5 1.28,0.92 0.29,-0.01 0.58,0.04 0.87,0.14 17.54,5.63 34.13,4.14 52.51,1.58 32.86,-4.58 30.89,-8.89 40.55,8.78 5.81,0.99 7.09,4.03 7.36,9.72 17.69,5.92 23.48,13.94 14.86,29 25.74,8.29 16.38,65.09 -27.46,44.93 -0.71,-0.42 -1.14,-1.15 -1.2,-1.91 z"
   id="path1585" />
     <path
   class="fil0"
   d="m 7397.21,181.41 c -4.81,-5.7 -8.64,-10.47 -11.89,-14.59 -14.03,-17.8 -17.06,-23.45 -40.09,-40.3 l 0.41,0.64 c 13.22,20.72 11.25,33.33 7.78,43.19 -4.04,11.46 -10.13,19.2 3.29,31.65 2.58,2.39 3.93,1.4 6.55,0.35 0.05,-1.17 0.17,-2.19 0.35,-3.11 4.26,-22.27 43.19,25.17 2.8,24.33 -2.84,-0.06 -9.58,-0.8 -12.38,-3.57 -4.42,-2.86 -2.71,-1.63 -6.52,-4.63 -10.48,5.37 -14.4,7.48 -24.05,0.83 -41.52,14.86 -109.22,13.28 -130.21,-34.07 -7.16,-16.14 -1.29,-53.08 22.74,-55.82 38.86,-4.42 49.37,29.85 7.61,37.41 -14.72,2.66 -10.68,28.48 4.42,32.1 -1.54,-9.75 -5.1,-18.7 15.59,-23.72 6.89,-1.67 12.61,-2.14 19.06,-2.26 -8.69,-16.62 -0.01,-46.67 18.59,-50.32 0.81,-0.16 1.64,-0.28 2.49,-0.33 l 6.46,-0.17 c 0.06,0 0.11,0 0.17,0.01 1.21,-0.09 2.33,0.72 2.59,1.94 0.22,2.79 -6.81,18.24 4.11,15.04 14.04,-4.12 17.68,-28.91 -12.39,-39.57 -4.66,-1.65 -7.79,-3.06 -10.21,-4.2 -8.86,-4.18 -8.29,-4.81 -38.56,-0.96 -4.49,0.57 -8.96,1.3 -13.27,2.48 -4.5,1.24 -8.81,2.99 -12.78,5.59 l -0.35,0.24 c 4.91,22.71 -1.91,27.35 -20.81,41.95 -9.3,7.19 -19,9.48 -29.65,14.19 27.06,10.1 28.15,55.91 -8.11,57.06 -0.21,0.03 -0.43,0.04 -0.63,0.02 -0.15,0 -0.29,0.01 -0.44,0.01 -1.11,0 -2.06,-0.74 -2.36,-1.75 -0.07,-0.23 -0.11,-0.47 -0.11,-0.72 0,-1.36 1.11,-2.47 2.47,-2.47 h 0.09 0.18 c 2.77,-1.22 2.59,-5.99 0.17,-9.05 -3.02,-3.82 -9.52,-4.98 -18.12,6.8 -1.58,2.16 -3.81,4.16 -6.55,5.98 -19.85,13.19 -66.51,16.87 -86.92,4.1 -0.11,-0.08 -0.22,-0.17 -0.31,-0.27 -10.36,-4.32 -19.85,-17.22 -25.44,-25.96 -8.33,-13.02 -13.44,-19.65 -21.62,-31.06 -0.22,-0.26 -0.37,-0.55 -0.47,-0.85 -1.14,-1.13 -2.93,-2.59 -5.1,-4.13 -4.85,-3.44 -11.59,-7.3 -17.04,-8.83 -2.02,-0.57 -3.87,-0.83 -5.37,-0.63 -1.33,0.28 -2.64,-0.58 -2.92,-1.92 -0.17,-0.84 0.1,-1.67 0.65,-2.23 -0.11,-0.81 0.19,-1.66 0.87,-2.23 11.48,-7.52 31.65,1.46 41.37,7.85 0.06,0.04 0.11,0.09 0.17,0.14 8.66,3.37 14.11,6.35 15.92,13.96 4.26,-3.54 10.48,-4.13 16.26,-4.11 -1.29,-1.82 -2.5,-3.67 -3.35,-5.69 -20.47,-48.19 36.02,-79.36 41.08,-44.52 0.04,0.7 -0.23,1.35 -0.69,1.82 0,0.84 -0.43,1.66 -1.2,2.12 -0.17,0.13 -0.34,0.25 -0.51,0.37 -11,8.24 -1.78,17.67 7.18,23.35 0.8,0.5 1.59,0.98 2.37,1.43 0.27,0.13 0.51,0.3 0.71,0.5 3.87,-1.29 7.05,-1.96 9.67,-2.03 8.23,-0.22 10.94,5.56 12.32,17.15 16,-3.15 11.26,-28.02 -4.95,-35.82 -3.41,-1.64 -7.32,-2.52 -11.65,-2.29 -1.88,0.1 -3.84,0.4 -5.87,0.95 l -0.05,0.02 h -0.01 l -0.02,0.01 -0.03,0.01 h -0.01 l -0.04,0.02 h -0.02 c -0.08,0.03 -0.16,0.05 -0.24,0.06 l -0.04,0.01 h -0.02 l -0.04,0.01 h -0.03 -0.03 -0.03 l -0.06,0.01 h -0.03 -0.03 -0.03 -0.03 -0.03 -0.03 -0.03 -0.03 -0.03 -0.03 -0.03 -0.03 -0.03 -0.03 -0.03 -0.03 -0.04 -0.02 -0.04 -0.02 l -0.04,-0.01 h -0.02 l -0.04,-0.01 h -0.02 l -0.05,-0.01 h -0.01 l -0.05,-0.01 -0.06,-0.02 v 0 l -0.06,-0.02 v 0 l -0.06,-0.02 v 0 l -0.06,-0.02 h -0.01 l -0.05,-0.02 H 7079 l -0.04,-0.02 -0.01,-0.01 -0.04,-0.02 -0.06,-0.02 -0.02,-0.01 -0.04,-0.02 -0.02,-0.01 -0.03,-0.02 -0.05,-0.03 -0.02,-0.01 -0.03,-0.02 c -0.06,-0.03 -0.1,-0.06 -0.15,-0.09 l -0.03,-0.02 -0.02,-0.02 c -0.05,-0.03 -0.1,-0.07 -0.14,-0.11 l -0.03,-0.02 -0.02,-0.02 -0.03,-0.02 -0.02,-0.02 -0.02,-0.02 -0.02,-0.02 -0.02,-0.02 -0.02,-0.02 -0.02,-0.02 -0.02,-0.02 -0.02,-0.02 -0.02,-0.02 -0.02,-0.02 -0.02,-0.02 -0.02,-0.03 -0.02,-0.02 -0.02,-0.02 -0.04,-0.05 -0.02,-0.03 -0.02,-0.02 -0.07,-0.1 -0.02,-0.03 -0.01,-0.02 -0.02,-0.03 -0.01,-0.02 -0.02,-0.04 -0.01,-0.02 -0.02,-0.04 -0.01,-0.01 -0.02,-0.04 v -0.01 l -0.02,-0.05 v 0 l -0.02,-0.05 v 0 l -0.02,-0.06 v 0 l -0.02,-0.05 v -0.01 l -0.02,-0.05 v -0.01 l -0.02,-0.05 v -0.02 c -0.03,-0.08 -0.05,-0.16 -0.07,-0.24 l -0.01,-0.03 v -0.03 -0.03 -0.03 l -0.01,-0.03 v -0.03 l -0.01,-0.06 v -0.03 -0.03 -0.03 -0.03 -0.03 -0.03 -0.03 -0.03 -0.03 -0.03 -0.03 -0.03 -0.03 -0.03 -0.04 -0.03 -0.04 -0.02 -0.04 -0.02 l 0.01,-0.04 v -0.02 l 0.01,-0.04 v -0.02 l 0.01,-0.05 v -0.01 l 0.01,-0.05 c 0.04,-0.2 0.11,-0.39 0.2,-0.57 1.89,-4.87 4.22,-7 9.6,-8.71 20.13,-6.41 29.77,1.88 41.53,14 0.88,-6.97 3.95,-13.71 8.11,-19.76 11.86,-17.27 23.06,-10.84 36.13,-4.56 0.35,0.13 0.65,0.33 0.89,0.58 8.52,-9.14 21.24,-12.42 26.3,-3.87 40.34,-18.28 58.57,-12.61 108.2,1.19 0.54,0.17 0.97,0.5 1.28,0.92 0.29,-0.01 0.58,0.04 0.87,0.14 17.54,5.63 34.13,4.14 52.51,1.58 32.86,-4.58 30.89,-8.89 40.55,8.78 5.81,0.99 7.09,4.03 7.35,9.72 17.69,5.92 23.48,13.94 14.87,29 25.74,8.29 16.38,65.09 -27.46,44.93 -0.72,-0.42 -1.14,-1.15 -1.2,-1.91 z"
   id="path1587" />
     <path
   class="fil0"
   d="m 6935.75,181.41 c -4.81,-5.7 -8.64,-10.47 -11.89,-14.59 -14.03,-17.8 -17.06,-23.45 -40.09,-40.3 l 0.41,0.64 c 13.22,20.72 11.25,33.33 7.78,43.19 -4.04,11.46 -10.13,19.2 3.29,31.65 2.58,2.39 3.93,1.4 6.55,0.35 0.05,-1.17 0.17,-2.19 0.35,-3.11 4.26,-22.27 43.19,25.17 2.8,24.33 -2.84,-0.06 -9.58,-0.8 -12.38,-3.57 -4.42,-2.86 -2.71,-1.63 -6.52,-4.63 -10.48,5.37 -14.4,7.48 -24.05,0.83 -41.52,14.86 -109.21,13.28 -130.21,-34.07 -7.16,-16.14 -1.29,-53.08 22.74,-55.82 38.86,-4.42 49.38,29.85 7.61,37.41 -14.72,2.66 -10.69,28.48 4.41,32.1 -1.54,-9.75 -5.1,-18.7 15.59,-23.72 6.89,-1.67 12.61,-2.14 19.06,-2.26 -8.69,-16.62 -0.01,-46.67 18.59,-50.32 0.81,-0.16 1.64,-0.28 2.49,-0.33 l 6.46,-0.17 c 0.06,0 0.11,0 0.17,0.01 1.2,-0.09 2.32,0.72 2.59,1.94 0.22,2.79 -6.81,18.24 4.11,15.04 14.04,-4.12 17.68,-28.91 -12.38,-39.57 -4.66,-1.65 -7.79,-3.06 -10.22,-4.2 -8.86,-4.18 -8.29,-4.81 -38.56,-0.96 -4.48,0.57 -8.96,1.3 -13.27,2.48 -4.5,1.24 -8.81,2.99 -12.78,5.59 l -0.35,0.24 c 4.91,22.71 -1.91,27.35 -20.81,41.95 -9.3,7.19 -19,9.48 -29.65,14.19 27.06,10.1 28.15,55.91 -8.11,57.06 -0.21,0.03 -0.43,0.04 -0.63,0.02 -0.15,0 -0.29,0.01 -0.44,0.01 -1.11,0 -2.06,-0.74 -2.36,-1.75 -0.07,-0.23 -0.11,-0.47 -0.11,-0.72 0,-1.36 1.11,-2.47 2.47,-2.47 h 0.09 0.18 c 2.77,-1.22 2.59,-5.99 0.17,-9.05 -3.02,-3.82 -9.52,-4.98 -18.12,6.8 -1.58,2.16 -3.81,4.16 -6.55,5.98 -19.85,13.19 -66.51,16.87 -86.91,4.1 -0.12,-0.08 -0.22,-0.17 -0.32,-0.27 -10.36,-4.32 -19.85,-17.22 -25.44,-25.96 -8.33,-13.02 -13.44,-19.65 -21.63,-31.06 -0.22,-0.26 -0.37,-0.55 -0.47,-0.85 -1.13,-1.13 -2.93,-2.59 -5.1,-4.13 -4.85,-3.44 -11.59,-7.3 -17.04,-8.83 -2.02,-0.57 -3.86,-0.83 -5.37,-0.63 -1.33,0.28 -2.64,-0.58 -2.92,-1.92 -0.17,-0.84 0.1,-1.67 0.66,-2.23 -0.11,-0.81 0.19,-1.66 0.87,-2.23 11.48,-7.52 31.65,1.46 41.37,7.85 0.06,0.04 0.11,0.09 0.17,0.14 8.66,3.37 14.11,6.35 15.92,13.96 4.26,-3.54 10.48,-4.13 16.26,-4.11 -1.29,-1.82 -2.5,-3.67 -3.35,-5.69 -20.46,-48.19 36.02,-79.36 41.08,-44.52 0.04,0.7 -0.23,1.35 -0.68,1.82 0,0.84 -0.43,1.66 -1.2,2.12 -0.18,0.13 -0.35,0.25 -0.51,0.37 -11,8.24 -1.78,17.67 7.18,23.35 0.8,0.5 1.59,0.98 2.37,1.43 0.27,0.13 0.51,0.3 0.71,0.5 3.87,-1.29 7.05,-1.96 9.67,-2.03 8.24,-0.22 10.95,5.56 12.32,17.15 16,-3.15 11.26,-28.02 -4.95,-35.82 -3.41,-1.64 -7.32,-2.52 -11.65,-2.29 -1.88,0.1 -3.84,0.4 -5.87,0.95 l -0.06,0.02 h -0.01 l -0.02,0.01 -0.03,0.01 h -0.01 l -0.04,0.02 h -0.02 c -0.08,0.03 -0.16,0.05 -0.24,0.06 l -0.03,0.01 h -0.03 l -0.03,0.01 h -0.03 -0.03 -0.03 l -0.06,0.01 h -0.03 -0.03 -0.03 -0.03 -0.03 -0.04 -0.03 -0.03 -0.03 -0.03 -0.03 -0.03 -0.04 -0.03 -0.03 -0.03 -0.04 -0.02 -0.04 -0.02 l -0.04,-0.01 H 6618 l -0.04,-0.01 h -0.02 l -0.05,-0.01 h -0.01 l -0.05,-0.01 -0.06,-0.02 v 0 l -0.06,-0.02 v 0 l -0.06,-0.02 v 0 l -0.05,-0.02 h -0.01 l -0.05,-0.02 h -0.01 l -0.05,-0.02 -0.01,-0.01 -0.04,-0.02 -0.05,-0.02 -0.02,-0.01 -0.04,-0.02 -0.02,-0.01 -0.04,-0.02 -0.05,-0.03 -0.02,-0.01 -0.03,-0.02 c -0.05,-0.03 -0.1,-0.06 -0.15,-0.09 l -0.03,-0.02 -0.02,-0.02 c -0.05,-0.03 -0.1,-0.07 -0.14,-0.11 l -0.03,-0.02 -0.02,-0.02 -0.03,-0.02 -0.02,-0.02 -0.03,-0.02 -0.02,-0.02 -0.02,-0.02 -0.02,-0.02 -0.02,-0.02 -0.02,-0.02 -0.02,-0.02 -0.02,-0.02 -0.02,-0.02 -0.02,-0.02 -0.02,-0.03 -0.02,-0.02 -0.02,-0.02 -0.04,-0.05 -0.02,-0.03 -0.02,-0.02 -0.07,-0.1 -0.02,-0.03 -0.01,-0.02 -0.02,-0.03 -0.01,-0.02 -0.02,-0.04 -0.01,-0.02 -0.02,-0.04 -0.01,-0.01 -0.02,-0.04 v -0.01 l -0.02,-0.05 v 0 l -0.02,-0.05 v 0 l -0.02,-0.06 v 0 l -0.02,-0.05 v -0.01 l -0.02,-0.05 v -0.01 l -0.02,-0.05 v -0.02 c -0.03,-0.08 -0.05,-0.16 -0.07,-0.24 v -0.03 l -0.01,-0.03 v -0.03 -0.03 l -0.01,-0.03 v -0.03 l -0.01,-0.06 v -0.03 -0.03 -0.03 -0.03 -0.03 -0.03 -0.03 -0.03 -0.03 -0.03 -0.03 -0.03 -0.03 -0.03 -0.04 -0.03 -0.04 -0.02 l 0.01,-0.04 v -0.02 l 0.01,-0.04 v -0.02 l 0.01,-0.04 v -0.02 l 0.01,-0.05 v -0.01 l 0.01,-0.05 c 0.04,-0.2 0.11,-0.39 0.2,-0.57 1.89,-4.87 4.22,-7 9.6,-8.71 20.12,-6.41 29.77,1.88 41.52,14 0.88,-6.97 3.95,-13.71 8.11,-19.76 11.86,-17.27 23.06,-10.84 36.13,-4.56 0.35,0.13 0.65,0.33 0.89,0.58 8.52,-9.14 21.24,-12.42 26.3,-3.87 40.34,-18.28 58.57,-12.61 108.2,1.19 0.54,0.17 0.97,0.5 1.28,0.92 0.29,-0.01 0.58,0.04 0.87,0.14 17.54,5.63 34.13,4.14 52.51,1.58 32.86,-4.58 30.89,-8.89 40.55,8.78 5.81,0.99 7.09,4.03 7.36,9.72 17.69,5.92 23.48,13.94 14.86,29 25.74,8.29 16.38,65.09 -27.46,44.93 -0.71,-0.42 -1.14,-1.15 -1.2,-1.91 z"
   id="path1589" />
    </g>
   </g>
   <path
   class="fil1"
   d="M 91.03,51.41 H 7408.97 V 67.72 H 91.03 Z m 0,180.87 h 7317.94 v 16.31 H 91.03 Z"
   id="path1595" />
  </g>
 </g>
</svg>
