<?xml version="1.0" encoding="UTF-8" standalone="no"?>
<svg
   xmlns:dc="http://purl.org/dc/elements/1.1/"
   xmlns:cc="http://creativecommons.org/ns#"
   xmlns:rdf="http://www.w3.org/1999/02/22-rdf-syntax-ns#"
   xmlns:svg="http://www.w3.org/2000/svg"
   xmlns="http://www.w3.org/2000/svg"
   xmlns:sodipodi="http://sodipodi.sourceforge.net/DTD/sodipodi-0.dtd"
   xmlns:inkscape="http://www.inkscape.org/namespaces/inkscape"
   xml:space="preserve"
   width="2in"
   height="2in"
   version="1.1"
   style="shape-rendering:geometricPrecision; text-rendering:geometricPrecision; image-rendering:optimizeQuality; fill-rule:evenodd; clip-rule:evenodd"
   viewBox="0 0 2000 2000"
   id="svg670"
   sodipodi:docname="ornament3.svg"
   inkscape:version="1.0.1 (3bc2e813f5, 2020-09-07)"><metadata
   id="metadata674"><rdf:RDF><cc:Work
       rdf:about=""><dc:format>image/svg+xml</dc:format><dc:type
         rdf:resource="http://purl.org/dc/dcmitype/StillImage" /><dc:title></dc:title></cc:Work></rdf:RDF></metadata><sodipodi:namedview
   pagecolor="#ffffff"
   bordercolor="#666666"
   borderopacity="1"
   objecttolerance="10"
   gridtolerance="10"
   guidetolerance="10"
   inkscape:pageopacity="0"
   inkscape:pageshadow="2"
   inkscape:window-width="1920"
   inkscape:window-height="976"
   id="namedview672"
   showgrid="false"
   inkscape:zoom="4.09664"
   inkscape:cx="49.010272"
   inkscape:cy="96"
   inkscape:window-x="-8"
   inkscape:window-y="-8"
   inkscape:window-maximized="1"
   inkscape:current-layer="svg670" />
 <defs
   id="defs664">
  <style
   type="text/css"
   id="style662">
   <![CDATA[
    .fil0 {fill:#1F2537}
   ]]>
  </style>
 </defs>
 <g
   id="Layer_x0020_1"
   style="fill:#d6aa69;fill-opacity:1">
  <metadata
   id="CorelCorpID_0Corel-Layer" />
  <path
   class="fil0"
   d="M613.56 1339.52c-3.19,-8.47 -4.2,-17.51 -4.31,-29.42 -0.05,-6.13 0.09,-11.94 0.33,-17.56 4.78,-109.11 64.87,-123.5 120.82,-137.18 55.24,-13.49 106.45,-26.29 96.44,-128.81 -11.57,-9.11 -13.53,-9.36 -23.83,-18.67l-1.69 -1.54c-1.17,-0.54 -2.27,-1.27 -3.25,-2.2 -2.64,-2.49 -3.92,-5.88 -3.81,-9.24 -0.11,-3.37 1.17,-6.76 3.81,-9.24 0.98,-0.93 2.09,-1.67 3.25,-2.2l1.69 -1.54c10.3,-9.31 12.26,-9.56 23.83,-18.68 10.01,-102.53 -41.2,-115.32 -96.44,-128.81 -55.95,-13.67 -116.04,-28.06 -120.82,-137.17 -0.25,-5.62 -0.39,-11.43 -0.33,-17.56 0.11,-11.91 1.12,-20.94 4.31,-29.42 -75.93,11.41 -184.94,178.95 -85.76,206.22 1.87,0 3.65,0.43 5.24,1.19 4.09,1.96 6.92,6.13 6.92,10.97 0,6.71 -5.44,12.16 -12.16,12.16 -21.3,-4.18 -36.56,-12.83 -46.76,-24.51 -0.57,-0.23 -1.12,-0.5 -1.66,-0.82 -2.24,-1.11 -4.48,-2.17 -6.72,-3.18 -120.02,-54.32 -233.76,37.14 -299.82,135.67 -1.55,2.3 -3.07,4.61 -4.57,6.93 1.5,2.31 3.02,4.62 4.57,6.93 66.06,98.54 179.8,190 299.82,135.67 2.24,-1.01 4.48,-2.06 6.72,-3.18 0.54,-0.32 1.09,-0.59 1.66,-0.82 10.2,-11.68 25.46,-20.33 46.76,-24.52 6.71,0 12.16,5.44 12.16,12.16 0,4.84 -2.83,9.02 -6.92,10.98 -1.59,0.76 -3.37,1.19 -5.24,1.19 -99.19,27.27 9.82,194.81 85.76,206.22zm486.82 -321.83c-43.57,-17.76 -84.87,-61.73 -105.26,-110.69 -20.23,44.35 -45.09,70.24 -92.74,87.18 39.86,22.84 70.68,70.74 92.68,111.64 23.57,-39.37 64.41,-65.69 105.31,-88.13zm-445.71 -409.71c8.47,-3.19 17.51,-4.2 29.42,-4.31 5.24,-0.05 10.22,0.06 15.08,0.23 109.44,3.91 125.35,62.46 138.94,117.99 13.79,56.34 25.2,109.56 129.53,99.38 9.59,-12.17 9.36,-13.71 20.21,-25.52 0.26,-0.57 0.57,-1.13 0.94,-1.67 0.37,-0.55 0.79,-1.08 1.26,-1.58 2.49,-2.64 5.88,-3.92 9.24,-3.81 3.36,-0.11 6.76,1.17 9.24,3.81 0.93,0.98 1.66,2.09 2.2,3.25l0.55 0.6c10.3,11.26 10.24,12.96 19.66,24.92 103.13,10.07 115.45,-41.83 129.03,-97.44 13.88,-56.87 29.07,-117.63 143.99,-120.08 3.43,-0.07 6.93,-0.1 10.54,-0.07 11.91,0.11 20.94,1.12 29.42,4.31 -11.41,-75.93 -178.94,-184.94 -206.22,-85.76 0,1.8 -0.39,3.52 -1.09,5.05 -1.92,4.19 -6.15,7.11 -11.06,7.11 -6.71,0 -12.16,-5.44 -12.16,-12.16 4.19,-21.29 12.83,-36.56 24.52,-46.75 0.23,-0.57 0.5,-1.12 0.82,-1.66 1.93,-3.89 3.71,-7.76 5.34,-11.64 49.6,-118.04 -40.39,-229.43 -137.43,-294.63 -2.44,-1.64 -4.89,-3.26 -7.33,-4.84 -2.26,1.46 -4.52,2.96 -6.78,4.47 -99.1,66.38 -191.11,181.01 -134.97,301.77 0.75,1.62 1.52,3.24 2.32,4.87 0.32,0.54 0.59,1.09 0.82,1.66 11.68,10.2 20.33,25.46 24.51,46.75 0,6.72 -5.44,12.16 -12.16,12.16 -4.87,0 -9.06,-2.86 -11,-6.99 -0.74,-1.57 -1.15,-3.32 -1.15,-5.17 -27.28,-99.19 -194.81,9.83 -206.22,85.76zm731.77 52.49c3.19,8.47 4.2,17.51 4.31,29.42 0.02,2.6 -0.02,5.08 -0.05,7.58 -1.45,115.54 -60.68,132.35 -117.15,146.19 -56.72,13.9 -110.65,24.81 -100.4,129.78 12.17,9.59 13.71,9.36 25.52,20.21 1.01,0.46 1.97,1.08 2.85,1.84l0.4 0.36c2.64,2.49 3.92,5.88 3.81,9.24 0.11,3.37 -1.17,6.76 -3.81,9.24l-0.4 0.36c-0.88,0.76 -1.84,1.37 -2.85,1.84 -11.81,10.85 -13.35,10.62 -25.52,20.21 -10.24,104.97 43.68,115.87 100.4,129.78 56.46,13.84 115.69,30.65 117.15,146.19 0.03,2.5 0.07,4.99 0.05,7.59 -0.11,11.91 -1.12,20.94 -4.31,29.42 75.93,-11.41 184.94,-178.95 85.76,-206.22 -1.77,0 -3.46,-0.38 -4.98,-1.07 -4.23,-1.9 -7.17,-6.15 -7.17,-11.09 0,-6.71 5.44,-12.16 12.16,-12.16 21.3,4.18 36.56,12.83 46.76,24.51 0.56,0.23 1.12,0.5 1.66,0.82 3.28,1.63 6.55,3.13 9.83,4.55 118.77,51.31 231.03,-39.2 296.54,-136.79 1.61,-2.39 3.19,-4.78 4.74,-7.18 -1.55,-2.39 -3.13,-4.79 -4.74,-7.18 -65.51,-97.59 -177.77,-188.11 -296.54,-136.79 -3.28,1.41 -6.55,2.91 -9.83,4.54 -0.54,0.32 -1.09,0.59 -1.66,0.82 -10.2,11.68 -25.46,20.33 -46.76,24.52 -6.71,0 -12.16,-5.44 -12.16,-12.16 0,-4.94 2.94,-9.19 7.17,-11.09 1.52,-0.69 3.21,-1.07 4.98,-1.07 99.19,-27.27 -9.82,-194.81 -85.76,-206.22zm-41.11 731.54c-8.47,3.19 -17.51,4.2 -29.42,4.31 -3.61,0.03 -7.11,0 -10.54,-0.07 -114.91,-2.45 -130.1,-63.21 -143.98,-120.08 -13.57,-55.62 -25.89,-107.51 -129.03,-97.44 -9.43,11.96 -9.36,13.65 -19.66,24.92l-0.55 0.6c-0.54,1.17 -1.27,2.27 -2.2,3.25 -2.49,2.64 -5.88,3.92 -9.24,3.81 -3.36,0.11 -6.76,-1.17 -9.24,-3.81 -0.47,-0.5 -0.89,-1.03 -1.26,-1.58 -0.36,-0.54 -0.67,-1.09 -0.93,-1.67 -10.85,-11.81 -10.62,-13.34 -20.21,-25.52 -104.34,-10.18 -115.74,43.04 -129.54,99.38 -13.59,55.53 -29.49,114.08 -138.94,117.99 -4.86,0.17 -9.84,0.28 -15.08,0.23 -11.91,-0.11 -20.95,-1.12 -29.42,-4.31 11.4,75.93 178.94,184.94 206.22,85.76 0,-1.85 0.41,-3.6 1.15,-5.17 1.94,-4.13 6.14,-6.99 11,-6.99 6.72,0 12.16,5.44 12.16,12.16 -4.19,21.29 -12.83,36.56 -24.52,46.75 -0.23,0.57 -0.5,1.12 -0.82,1.66 -0.81,1.63 -1.57,3.24 -2.33,4.87 -56.14,120.76 35.88,235.39 134.97,301.77 2.26,1.51 4.51,3.01 6.78,4.47 2.45,-1.58 4.89,-3.2 7.33,-4.84 97.03,-65.19 187.03,-176.59 137.43,-294.63 -1.63,-3.87 -3.4,-7.75 -5.34,-11.64 -0.32,-0.54 -0.59,-1.09 -0.82,-1.66 -11.68,-10.2 -20.33,-25.46 -24.51,-46.75 0,-6.72 5.44,-12.16 12.16,-12.16 4.91,0 9.14,2.91 11.06,7.11 0.7,1.54 1.1,3.25 1.1,5.05 27.27,99.19 194.81,-9.83 206.22,-85.76z"
   id="path667"
   style="fill:#d6aa69;fill-opacity:1" />
 </g>
</svg>
