<?xml version="1.0" encoding="UTF-8"?>
<!DOCTYPE svg PUBLIC "-//W3C//DTD SVG 1.1//EN" "http://www.w3.org/Graphics/SVG/1.1/DTD/svg11.dtd">
<!-- Creator: CorelDRAW 2019 (64-Bit) -->
<svg xmlns="http://www.w3.org/2000/svg" xml:space="preserve" width="7.5in" height="0.8in" version="1.1" style="shape-rendering:geometricPrecision; text-rendering:geometricPrecision; image-rendering:optimizeQuality; fill-rule:evenodd; clip-rule:evenodd"
viewBox="0 0 7500 800"
 xmlns:xlink="http://www.w3.org/1999/xlink">
 <defs>
  <style type="text/css">
   <![CDATA[
    .fil0 {fill:#1F2537}
   ]]>
  </style>
 </defs>
 <g id="Layer_x0020_1">
  <metadata id="CorelCorpID_0Corel-Layer"/>
  <path class="fil0" d="M534.76 684.07c0,-23.3 5.34,-38.31 18.3,-56.2 2.27,-3.13 4.41,-6.22 6.83,-9.07l24.54 -26.11c7.41,4.96 22.94,23.91 29.58,32.01 16.72,20.39 43.48,60.08 20.89,83.98 -17,17.99 -65.56,24.91 -85.52,5.46 -8.09,-7.89 -14.62,-17.26 -14.62,-30.08zm5024.35 -310.42c-0.12,-0.1 -0.49,-0.04 -1.06,0.11 -0.74,-0.77 -1.78,-0.28 -2.96,0.98 -3.68,1.28 -9.14,3.19 -13.2,3.06 -0.2,0 -16.09,6.76 -23.5,6.6l-0.22 0c-4,-16.19 -13.38,-33.1 -24.6,-42.16 -6.46,-5.22 -10.71,-6.9 -18.05,-10.78 8.22,-15.52 2.98,-27.47 2.98,-42.71 8.96,4.74 20.3,6.95 31.8,6.95 11.12,0 19.63,-5.86 25.86,-10.89 20.34,-16.43 19.52,-46.39 22.76,-69.62 4.51,-32.36 19.27,-40.22 53.1,-29.12 12.11,3.97 13.51,9.49 14.48,22.28 0.98,12.92 -4.33,29.75 8.99,29.75 8.04,0 12.89,-16.24 15.57,-22.18 4,-8.92 6.35,-17.37 7.28,-25.29l0 -15.49c-6.03,-47.66 -68.04,-70.56 -119.62,-52.65 -4.68,1.62 -10.87,4.73 -14.71,7.13 -4.3,2.69 -8.82,7.84 -13.7,9.15 -1.79,-21.46 -45.96,-64.56 -58.63,-64.56 -7.96,0 -12.92,11.31 -16.88,16.89 -14.05,19.78 -30.72,44.69 -32.79,69.53 -5.37,-1.43 -32,-22 -72.12,-6.54 -48.56,18.72 -54.29,63.05 -28.8,105.43 3.75,6.22 13.79,25.41 22.31,25 4.2,-0.2 8.07,-3.98 8.07,-8.69 0,-3.91 -3.98,-4.41 -3.98,-13.9 0,-17.39 17.67,-31.06 42.58,0.15l14.81 14.99c15.12,13.36 33.37,25.58 54.88,25.58 8.59,0 12.8,-3.55 17.89,-6.95 0,14.17 -0.36,22.2 -4.97,31.78 -18.69,0 -30.19,5.85 -40.76,13.89 -8.66,6.58 -18.97,20.53 -21.84,32.79 -18.85,-12.62 -77.19,-60.94 -96.6,-78.23l-38.37 -34.15c-7.39,-5.91 -14.21,-12.98 -21.24,-19.49 -4.5,-4.15 -18.85,-15.95 -21.63,-20.1 5.04,-7.52 23.59,-22.23 35.79,-40.71 15.65,-23.72 28.61,-64.9 12.49,-93.96 -8.93,-16.11 -21.94,-26.52 -39.54,-31.98 -9.76,-3.03 -19.93,-4.51 -30.75,-3.35 -11.29,1.21 -20.21,2.05 -30.28,5.48 -26.68,9.09 -45.07,34.66 -45.07,63.21 -11.14,-2.6 -21.04,-6.73 -32.39,-9.33 -11.04,-2.54 -25.24,-4.57 -38.15,-4.57 -5.68,0 -6.88,0.99 -12.92,0.99 0,-9.52 -3.48,-18.58 -7.12,-24.67 -4.66,-7.8 -8.24,-12.04 -14.47,-18.31 -21.51,-21.57 -59.52,-25.9 -85.9,-9.85l-14.67 7.19c-14.13,8.13 -28.01,17.81 -43.05,24.51 -6.12,2.72 -8.93,4.56 -15.98,6.87 -23.81,7.78 -51.72,-0.4 -73.8,-6.95 -9.48,-2.81 -38.45,-13.55 -46.06,-13.55 -7.21,0 -9.93,6.93 -9.93,12.92 0,4.54 8.54,13.89 11.34,17.46 8.36,10.64 18.78,19.85 29.81,27.81 3.03,2.19 5.31,3.56 8.32,5.59 24.19,16.27 54.5,25.69 83.24,32.01 4.11,0.91 8.32,2.22 12.34,2.56 -1.78,3.7 -7.94,32.95 -7.94,38.73 0,22.48 20.71,15.72 41.58,18.03 4.95,0.55 13.31,0.74 18.03,1.84 5.09,21.83 3.79,34.83 20.01,56.48 24.57,32.84 67.11,31.61 98.84,10.67 4.3,-2.84 5.06,-4.3 8.75,-7.15 4.69,-3.6 4.18,-4.09 7.79,-8.11 4.79,-5.33 11.66,-15.56 11.66,-23.1 0,-11.98 -15.44,-12.91 -21.19,-3.31 -17.52,29.28 -81.68,17.87 -66.85,-15.18 1.5,-3.35 2.78,-3.91 4.59,-7.33 15.82,0 27.08,-3.76 41.03,-9.64 14.87,-6.26 20.22,-10.43 30.77,-20.88 14.22,-14.09 19.37,-38.17 11.54,-56.75 -2.48,-5.88 -6.46,-11.01 -9.81,-16.02 19.83,1.66 36.56,6.43 54.03,12.53 2.54,0.88 2.74,1.09 5.01,1.94 12.5,4.68 5.52,2.63 16.05,18.72 16.96,25.88 38.55,41.95 50.09,59.19 -2.87,4.27 -6.92,7.4 -10.69,11.17l-11.93 10.92c-4.08,4.15 -7.44,6.37 -11.42,10.44 -7.33,7.52 -15.99,13.89 -23.83,20.87l-49.02 40.39c-27.5,21.45 -55.2,42.3 -83.88,62.15 -2.53,1.76 -5.14,2.88 -5.96,5.96 -4.01,-0.33 -3.72,-1.06 -6.24,-3.7 -9.32,-9.74 -20.92,-19.73 -31.22,-28.39 -2.08,-1.75 -3.02,-3.14 -5.11,-4.82l-21.7 -18.04c-65.99,-55.52 -138.76,-101.82 -208.96,-151.66 -7.76,-5.51 -15.77,-10.32 -23.57,-16.17 -4.11,-3.09 -7.46,-5.09 -11.63,-8.24l-34.61 -24.99c-28.12,-20.96 -21.65,-17.51 -35.06,-11.74 -10.74,4.61 -6.41,5.54 -14.15,10.69l-105.67 74.14c-26.96,19.91 -54.73,38.44 -81.46,58.61 -3.84,2.9 -7.54,5.54 -11.58,8.28l-104.52 76.29c-10.48,7.88 -36.76,28.52 -46.7,33.77 -36.09,-24.16 -82.57,-58.63 -116.47,-88.18l-23.47 -20.23c-2.71,-2.19 -3.27,-2.57 -5.85,-5.08l-10.95 -9.92c-2.43,-2.15 -3.51,-2.52 -5.97,-4.95l-11.43 -10.44c-2.07,-2.07 -3.39,-3.41 -5.45,-5.48 -3.67,-3.67 -8.39,-6.51 -11.17,-10.67 1.69,-7.25 31.01,-35.4 37.18,-43.28 2.35,-2.99 3.91,-4.48 6.26,-7.65 19.69,-26.53 3.91,-21.93 35.91,-32.64l32.64 -8.09c3.46,-0.68 8.4,-0.82 12.2,-1.71 -6.28,11.85 -12.91,17.94 -12.91,33.78 0,13.87 3.49,23.11 10.51,33.2 10.33,14.87 27.1,24.93 44.54,29.97 8.96,2.59 13.72,5.3 23.61,6.19 6.9,0.62 7.57,-0.79 10.97,3.93 22.79,31.73 -43.36,51.14 -64.36,19.65 -2.85,-4.28 -4.66,-7.52 -11.36,-7.52 -5.01,0 -8.8,3.91 -10.06,7.93 -3.23,10.35 13.38,28.89 20.41,34.37 15.71,12.28 32.22,21.28 54.23,21.28 46.44,0 71.53,-45.75 71.53,-82.44 10.09,-2.35 47.92,-1.5 54.3,-5.31 10.61,-6.32 5,-23.5 2.9,-33.99 -1.38,-6.91 -3.07,-12.97 -4.54,-19.3 15.52,-3.62 30.67,-6.24 45.98,-11.65 39.8,-14.04 68.6,-32.04 94.11,-64.83 2.28,-2.94 4.97,-4.7 4.97,-9.93 0,-14.72 -12.52,-12.33 -21.35,-9.42 -29.35,9.71 -58.42,21.34 -90.93,21.34 -24.11,0 -56.75,-22.47 -76.07,-34.21 -12.38,-7.51 -34.79,-17.44 -50.11,-17.44 -19.76,0 -38.11,7.18 -49.95,18.61 -8.89,8.58 -22.58,24.45 -22.58,40.99l0 2.98c-6.03,0 -7.96,-0.99 -12.92,-0.99 -19.31,0 -36.53,3.38 -54.02,8.57 -5.88,1.75 -10.83,4.01 -16.53,5.33 0,-13.13 -1.93,-19.21 -6.46,-28.31 -5.78,-11.61 -14.57,-21.2 -25.31,-28.33 -4.16,-2.75 -6.94,-3.97 -11.93,-5.96 -26.19,-10.44 -61.91,-8.8 -84.92,8.51 -13.73,10.33 -24.39,28.48 -24.39,47.13 0,28.4 4.93,45.13 20.28,68.14 10.56,15.83 19.83,22.52 31.1,35.46 2.05,2.37 3.29,2.97 4.26,5.67l-42.98 38.47c-3.79,3.85 -6.73,5.72 -10.41,9.46l-55.47 47.84c-17.18,13.44 -52.08,43.67 -68.22,54.68l-0.01 0c-0.12,-0.1 -0.48,-0.04 -1.05,0.11 -0.74,-0.77 -1.79,-0.28 -2.96,0.98 -3.68,1.28 -9.14,3.19 -13.2,3.06 -0.2,0 -16.09,6.76 -23.5,6.6 -3.14,-0.07 -5.57,0.39 -7.48,1.24 -3.81,-16.56 -13.4,-34.11 -24.91,-43.41 -6.46,-5.22 -10.71,-6.9 -18.05,-10.78 8.22,-15.52 2.99,-27.47 2.99,-42.71 8.96,4.74 20.29,6.95 31.79,6.95 11.12,0 19.63,-5.86 25.86,-10.89 20.34,-16.43 19.52,-46.39 22.76,-69.62 4.5,-32.36 19.26,-40.22 53.1,-29.12 12.11,3.97 13.51,9.49 14.48,22.28 0.98,12.92 -4.33,29.75 8.98,29.75 8.04,0 12.9,-16.24 15.57,-22.18 4.01,-8.92 6.35,-17.37 7.28,-25.29l0 -15.49c-6.02,-47.66 -68.03,-70.56 -119.61,-52.65 -4.69,1.62 -10.87,4.73 -14.72,7.13 -4.3,2.69 -8.83,7.84 -13.7,9.15 -1.78,-21.46 -45.95,-64.56 -58.62,-64.56 -7.95,0 -12.92,11.31 -16.89,16.89 -14.05,19.78 -30.72,44.69 -32.79,69.53 -5.37,-1.43 -32,-22 -72.11,-6.54 -48.56,18.72 -54.3,63.05 -28.8,105.43 3.74,6.22 13.79,25.41 22.31,25 4.2,-0.2 8.06,-3.98 8.06,-8.69 0,-3.91 -3.98,-4.41 -3.98,-13.9 0,-17.39 17.68,-31.06 42.58,0.15l14.81 14.99c15.12,13.36 33.37,25.58 54.89,25.58 8.58,0 12.8,-3.55 17.88,-6.95 0,14.17 -0.36,22.2 -4.97,31.78 -18.69,0 -30.19,5.85 -40.76,13.89 -8.66,6.58 -18.97,20.53 -21.83,32.79 -18.86,-12.62 -77.19,-60.94 -96.61,-78.23l-38.37 -34.15c-7.39,-5.91 -14.21,-12.98 -21.24,-19.49 -4.5,-4.15 -18.85,-15.95 -21.62,-20.1 5.04,-7.52 23.59,-22.23 35.78,-40.71 15.65,-23.72 28.62,-64.9 12.49,-93.96 -8.93,-16.11 -21.94,-26.52 -39.54,-31.98 -9.76,-3.03 -19.93,-4.51 -30.75,-3.35 -11.28,1.21 -20.22,2.05 -30.29,5.48 -26.68,9.09 -45.07,34.66 -45.07,63.21 -11.14,-2.6 -21.03,-6.73 -32.39,-9.33 -11.04,-2.54 -25.24,-4.57 -38.15,-4.57 -5.67,0 -6.87,0.99 -12.91,0.99 0,-9.52 -3.48,-18.58 -7.13,-24.67 -4.66,-7.8 -8.23,-12.04 -14.47,-18.31 -21.5,-21.57 -59.52,-25.9 -85.89,-9.85l-14.67 7.19c-14.13,8.13 -28,17.81 -43.04,24.51 -6.13,2.72 -8.94,4.56 -15.98,6.87 -23.81,7.78 -51.73,-0.4 -73.8,-6.95 -9.47,-2.81 -38.45,-13.55 -46.06,-13.55 -7.22,0 -9.94,6.93 -9.94,12.92 0,4.54 8.54,13.89 11.35,17.46 8.36,10.64 18.78,19.85 29.81,27.81 3.03,2.19 5.31,3.56 8.32,5.59 24.18,16.27 54.5,25.69 83.23,32.01 4.11,0.91 8.33,2.22 12.35,2.56 -1.78,3.7 -7.95,32.95 -7.95,38.73 0,22.48 20.72,15.72 41.58,18.03 4.96,0.55 13.31,0.74 18.04,1.84 5.08,21.83 3.79,34.83 20,56.48 24.58,32.84 67.11,31.61 98.84,10.67 4.29,-2.84 5.07,-4.3 8.76,-7.15 4.68,-3.6 4.18,-4.09 7.78,-8.11 4.79,-5.33 11.66,-15.56 11.66,-23.1 0,-11.98 -15.44,-12.91 -21.19,-3.31 -17.53,29.28 -81.67,17.87 -66.85,-15.18 1.5,-3.35 2.77,-3.91 4.59,-7.33 15.81,0 27.07,-3.76 41.03,-9.64 14.86,-6.26 20.22,-10.43 30.77,-20.88 14.22,-14.09 19.37,-38.17 11.54,-56.75 -2.48,-5.88 -6.45,-11.01 -9.81,-16.02 19.82,1.66 36.56,6.43 54.03,12.53 2.53,0.88 2.73,1.09 5.01,1.94 12.51,4.68 5.52,2.63 16.06,18.72 16.95,25.88 38.54,41.95 50.09,59.19 -2.86,4.27 -6.92,7.4 -10.69,11.17l-11.93 10.92c-4.08,4.15 -7.44,6.37 -11.42,10.44 -7.34,7.52 -15.99,13.89 -23.83,20.87l-49.02 40.39c-27.51,21.45 -55.2,42.3 -83.88,62.15 -2.54,1.76 -5.14,2.88 -5.96,5.96 -4,-0.33 -3.71,-1.06 -6.24,-3.7 -9.33,-9.74 -20.92,-19.73 -31.22,-28.39 -2.09,-1.75 -3.02,-3.14 -5.12,-4.82l-21.69 -18.04c-66,-55.52 -138.76,-101.82 -208.95,-151.66 -7.76,-5.51 -15.77,-10.32 -23.57,-16.17 -4.11,-3.09 -7.46,-5.09 -11.63,-8.24l-34.62 -24.99c-28.11,-20.96 -21.65,-17.51 -35.06,-11.74 -10.73,4.61 -6.41,5.54 -14.14,10.69l-105.67 74.14c-26.96,19.91 -54.73,38.44 -81.46,58.61 -3.84,2.9 -7.55,5.54 -11.59,8.28l-104.52 76.29c-10.49,7.88 -36.76,28.52 -46.7,33.77 -36.09,-24.16 -82.56,-58.63 -116.46,-88.18l-23.48 -20.23c-2.71,-2.19 -3.27,-2.57 -5.85,-5.08l-10.94 -9.92c-2.43,-2.15 -3.51,-2.52 -5.97,-4.95l-11.42 -10.44c-2.07,-2.07 -3.39,-3.41 -5.45,-5.48 -3.67,-3.67 -8.39,-6.51 -11.18,-10.67 1.69,-7.25 31.01,-35.4 37.19,-43.28 2.35,-2.99 3.91,-4.48 6.26,-7.65 19.69,-26.53 3.9,-21.93 35.91,-32.64l32.64 -8.09c3.46,-0.68 8.41,-0.82 12.2,-1.71 -6.28,11.85 -12.92,17.94 -12.92,33.78 0,13.87 3.5,23.11 10.51,33.2 10.33,14.87 27.11,24.93 44.55,29.97 8.96,2.59 13.72,5.3 23.61,6.19 6.89,0.62 7.57,-0.79 10.96,3.93 22.79,31.73 -43.36,51.14 -64.36,19.65 -2.85,-4.28 -4.65,-7.52 -11.36,-7.52 -5.01,0 -8.8,3.91 -10.06,7.93 -3.22,10.35 13.38,28.89 20.41,34.37 15.72,12.28 32.22,21.28 54.24,21.28 46.44,0 71.53,-45.75 71.53,-82.44 10.1,-2.35 47.91,-1.5 54.31,-5.31 10.61,-6.32 4.99,-23.5 2.9,-33.99 -1.38,-6.91 -3.07,-12.97 -4.54,-19.3 15.52,-3.62 30.66,-6.24 45.98,-11.65 39.8,-14.04 68.59,-32.04 94.11,-64.83 2.28,-2.94 4.98,-4.7 4.98,-9.93 0,-14.72 -12.53,-12.33 -21.35,-9.42 -29.36,9.71 -58.42,21.34 -90.93,21.34 -24.1,0 -56.74,-22.47 -76.07,-34.21 -12.38,-7.51 -34.78,-17.44 -50.11,-17.44 -19.75,0 -38.1,7.18 -49.95,18.61 -8.89,8.58 -22.58,24.45 -22.58,40.99l0 2.98c-6.03,0 -7.96,-0.99 -12.91,-0.99 -19.32,0 -36.54,3.38 -54.02,8.57 -5.88,1.75 -10.84,4.01 -16.53,5.33 0,-13.13 -1.94,-19.21 -6.46,-28.31 -5.79,-11.61 -14.57,-21.2 -25.32,-28.33 -4.16,-2.75 -6.94,-3.97 -11.92,-5.96 -26.2,-10.44 -61.91,-8.8 -84.92,8.51 -13.73,10.33 -24.39,28.48 -24.39,47.13 0,28.4 4.93,45.13 20.27,68.14 10.56,15.83 19.83,22.52 31.1,35.46 2.05,2.37 3.3,2.97 4.27,5.67l-42.98 38.47c-3.79,3.85 -6.74,5.72 -10.41,9.46l-55.47 47.84c-17.18,13.44 -52.07,43.67 -68.22,54.68 -0.12,-0.1 -0.49,-0.04 -1.06,0.11 -0.74,-0.77 -1.78,-0.27 -2.95,0.97 -3.68,1.28 -9.14,3.19 -13.21,3.06 -0.19,0 -16.09,6.76 -23.51,6.6 -0.94,-0.02 -1.81,0 -2.63,0.07 -3.98,-16.22 -13.4,-33.16 -24.63,-42.24 -6.45,-5.22 -10.71,-6.9 -18.04,-10.78 8.22,-15.52 2.98,-27.47 2.98,-42.71 8.96,4.74 20.29,6.95 31.8,6.95 11.12,0 19.63,-5.86 25.86,-10.89 20.34,-16.43 19.52,-46.39 22.76,-69.62 4.51,-32.36 19.27,-40.22 53.11,-29.12 12.11,3.97 13.51,9.49 14.48,22.28 0.98,12.92 -4.33,29.75 8.99,29.75 8.04,0 12.89,-16.24 15.56,-22.18 4.02,-8.92 6.35,-17.36 7.29,-25.29l0 -15.49c-6.04,-47.66 -68.03,-70.56 -119.62,-52.65 -4.68,1.63 -10.87,4.73 -14.72,7.13 -4.3,2.7 -8.82,7.84 -13.7,9.15 -1.79,-21.46 -45.96,-64.56 -58.63,-64.56 -7.96,0 -12.92,11.31 -16.88,16.89 -14.06,19.78 -30.72,44.69 -32.79,69.53 -5.37,-1.43 -32,-22 -72.11,-6.54 -48.57,18.72 -54.3,63.05 -28.8,105.43 3.74,6.22 13.79,25.41 22.31,25 4.2,-0.2 8.06,-3.98 8.06,-8.68 0,-3.92 -3.97,-4.41 -3.97,-13.91 0,-17.39 17.67,-31.06 42.57,0.15l14.81 14.99c15.12,13.36 33.37,25.58 54.88,25.58 8.59,0 12.81,-3.55 17.89,-6.95 0,14.17 -0.37,22.2 -4.97,31.78 -18.69,0 -30.19,5.85 -40.75,13.89 -8.67,6.58 -18.98,20.53 -21.84,32.8 -18.86,-12.63 -77.19,-60.95 -96.61,-78.24l-38.37 -34.15c-7.39,-5.89 -14.21,-12.97 -21.25,-19.48 -4.49,-4.15 -18.84,-15.95 -21.62,-20.1 5.04,-7.52 23.59,-22.23 35.78,-40.71 15.65,-23.72 28.62,-64.9 12.49,-93.96 -8.94,-16.11 -21.94,-26.52 -39.55,-31.98 -9.75,-3.03 -19.93,-4.51 -30.74,-3.35 -11.28,1.21 -20.21,2.05 -30.28,5.48 -26.68,9.09 -45.07,34.66 -45.07,63.22 -11.14,-2.59 -21.04,-6.74 -32.39,-9.33 -11.04,-2.53 -25.24,-4.57 -38.15,-4.57 -5.67,0 -6.87,0.99 -12.91,0.99 0,-9.52 -3.48,-18.57 -7.12,-24.66 -4.66,-7.8 -8.24,-12.04 -14.48,-18.31 -21.5,-21.57 -59.52,-25.9 -85.89,-9.85l-14.67 7.19c-14.13,8.13 -28,17.81 -43.04,24.51 -6.13,2.72 -8.93,4.57 -15.99,6.87 -23.81,7.78 -51.72,-0.39 -73.8,-6.95 -9.48,-2.81 -38.45,-13.55 -46.06,-13.55 -7.21,0 -9.93,6.93 -9.93,12.92 0,4.54 8.54,13.89 11.34,17.46 8.36,10.63 18.77,19.85 29.81,27.81 3.03,2.19 5.31,3.56 8.32,5.58 24.18,16.27 54.51,25.69 83.24,32.01 4.1,0.91 8.32,2.22 12.34,2.56 -1.77,3.7 -7.95,32.95 -7.95,38.74 0,22.48 20.73,15.72 41.59,18.03 4.95,0.55 13.31,0.74 18.03,1.84 5.09,21.83 3.79,34.83 20,56.48 24.58,32.84 67.12,31.61 98.85,10.67 4.3,-2.84 5.06,-4.3 8.75,-7.15 4.68,-3.6 4.18,-4.09 7.79,-8.11 4.79,-5.33 11.67,-15.56 11.67,-23.11 0,-11.98 -15.44,-12.91 -21.2,-3.3 -17.53,29.27 -81.68,17.87 -66.85,-15.19 1.51,-3.35 2.78,-3.9 4.59,-7.33 15.82,0 27.08,-3.76 41.03,-9.64 14.87,-6.26 20.22,-10.43 30.78,-20.88 14.21,-14.09 19.37,-38.17 11.54,-56.75 -2.47,-5.88 -6.46,-11.01 -9.81,-16.02 19.83,1.65 36.57,6.42 54.03,12.52 2.53,0.88 2.74,1.09 5.01,1.95 12.5,4.67 5.52,2.61 16.06,18.71 16.96,25.88 38.54,41.95 50.09,59.19 -2.87,4.27 -6.92,7.41 -10.68,11.17l-11.93 10.92c-4.08,4.15 -7.44,6.38 -11.41,10.44 -7.34,7.51 -16,13.89 -23.83,20.87l-49.02 40.38c-27.5,21.45 -55.2,42.3 -83.88,62.15 -2.53,1.76 -5.14,2.89 -5.96,5.96 -4.02,-0.33 -3.72,-1.05 -6.24,-3.69 -9.32,-9.74 -20.92,-19.73 -31.22,-28.39 -2.09,-1.76 -3.02,-3.14 -5.11,-4.82l-21.7 -18.04c-65.99,-55.52 -138.76,-101.82 -208.96,-151.66 -7.76,-5.51 -15.77,-10.32 -23.57,-16.17 -4.11,-3.09 -7.46,-5.09 -11.63,-8.24l-34.62 -24.99c-28.11,-20.96 -21.64,-17.51 -35.05,-11.74 -10.73,4.61 -6.41,5.54 -14.14,10.69l-105.67 74.13c-26.96,19.91 -54.73,38.44 -81.46,58.61 -3.84,2.9 -7.55,5.54 -11.58,8.28l-104.52 76.29c-10.48,7.88 -36.76,28.52 -46.7,33.77 -36.09,-24.16 -82.57,-58.63 -116.46,-88.18l-23.48 -20.23c-2.71,-2.19 -3.27,-2.57 -5.85,-5.08l-10.95 -9.92c-2.43,-2.15 -3.51,-2.52 -5.97,-4.96l-11.43 -10.43c-2.07,-2.07 -3.39,-3.41 -5.45,-5.48 -3.66,-3.67 -8.38,-6.51 -11.17,-10.67 1.69,-7.25 31.01,-35.4 37.18,-43.28 2.35,-2.99 3.92,-4.48 6.26,-7.65 19.69,-26.54 3.91,-21.93 35.91,-32.63l32.64 -8.1c3.46,-0.68 8.4,-0.82 12.2,-1.7 -6.28,11.85 -12.92,17.93 -12.92,33.77 0,13.87 3.5,23.11 10.51,33.2 10.34,14.87 27.11,24.93 44.54,29.97 8.96,2.59 13.72,5.3 23.61,6.19 6.9,0.62 7.58,-0.79 10.97,3.93 22.79,31.73 -43.36,51.14 -64.36,19.65 -2.85,-4.28 -4.65,-7.52 -11.36,-7.52 -5,0 -8.8,3.91 -10.06,7.93 -3.23,10.35 13.38,28.89 20.41,34.37 15.71,12.27 32.22,21.28 54.23,21.28 46.44,0 71.54,-45.75 71.54,-82.44 10.09,-2.35 47.91,-1.5 54.3,-5.31 10.6,-6.32 4.99,-23.5 2.89,-34 -1.38,-6.9 -3.07,-12.97 -4.54,-19.3 15.52,-3.61 30.67,-6.24 45.98,-11.64 39.8,-14.04 68.6,-32.05 94.11,-64.84 2.28,-2.94 4.97,-4.7 4.97,-9.93 0,-14.72 -12.52,-12.33 -21.34,-9.42 -29.36,9.71 -58.42,21.34 -90.93,21.34 -24.1,0 -56.74,-22.47 -76.07,-34.21 -12.37,-7.51 -34.78,-17.44 -50.11,-17.44 -19.76,0 -38.11,7.18 -49.95,18.61 -8.89,8.58 -22.58,24.45 -22.58,40.99l0 2.98c-6.03,0 -7.96,-0.99 -12.92,-0.99 -19.32,0 -36.53,3.38 -54.02,8.57 -5.87,1.74 -10.83,4 -16.52,5.33 0,-13.13 -1.94,-19.22 -6.47,-28.3 -5.78,-11.62 -14.56,-21.22 -25.31,-28.33 -4.16,-2.76 -6.95,-3.98 -11.92,-5.96 -26.19,-10.45 -61.92,-8.8 -84.92,8.51 -13.74,10.33 -24.39,28.48 -24.39,47.13 0,28.4 4.93,45.13 20.27,68.14 10.56,15.83 19.84,22.52 31.1,35.46 2.06,2.37 3.3,2.97 4.27,5.67l-42.98 38.47c-3.79,3.84 -6.73,5.72 -10.41,9.46l-55.47 47.84c-17.45,13.66 -53.2,44.64 -68.98,55.2 -6.25,-13.02 -7.72,-22.01 -21.99,-32.65 -11.02,-8.22 -21.51,-14.04 -40.61,-14.04 -5.11,-9.67 -4.96,-17.23 -4.96,-31.78 8.24,5.52 11.14,6.95 21.86,6.95 21.08,0 46.26,-21.06 60.37,-35 8.74,-8.65 18.43,-24.59 33.02,-24.59 9.6,0 14.91,12.13 14.91,21.85 0,3.24 -10.17,16.19 2.56,19.36 4.51,1.13 7.41,-1.57 9.54,-4.28 12.2,-15.55 28.63,-40.03 28.63,-61.76 0,-24.88 -4.08,-38.04 -22.68,-52.81 -19.12,-15.18 -50.16,-20.87 -75.07,-13.12 -2.91,0.91 -6.65,2.38 -9.24,3.67 -3.31,1.66 -4.67,3.69 -8.26,4.65 -7.35,-31.5 -15.46,-42.91 -32.59,-68.74 -14.09,-21.23 -15.54,-22.31 -36.11,-6.9l-12.8 11.05c-9.31,8.83 -16.96,20.23 -22.97,31.66 -1.96,3.7 -3.04,7.35 -4.83,11.07 -9.07,-6.07 -16.25,-11.72 -26.81,-15.91 -47.94,-19.05 -120.23,3.78 -120.23,56.63 0,19.07 5.35,33.69 13.26,49.32 2.61,5.15 3.62,9.28 10.59,9.28 11.86,0 7.83,-20.83 7.91,-28.85 0.12,-12.47 2.34,-19.21 13.81,-22.94 21.63,-7.03 41.58,-10.33 49.96,12.91 6.39,17.72 3.58,43 11.62,62.87 6.88,17.01 19.9,33.61 40.89,33.61 11.31,0 22.39,-1.97 31.79,-6.95 -0.89,10.67 -2.54,21.33 -0.74,32.52 0.71,4.37 2.62,6.52 2.73,11.19 -24.9,5.8 -43.72,42.89 -43.72,67.54 0,24.8 19.13,61.82 43.72,67.55 -0.13,5.69 -3.98,13.17 -3.98,22.84 0,8.24 1.41,13.85 1.99,20.86 -20.62,-10.91 -47.78,-10.33 -63.18,9.35 -18.8,23.99 -12.59,47.79 -19.25,74.12 -4.77,18.86 -12.47,23.81 -29.84,23.81 -8.77,0 -28.09,-4.13 -32.17,-11.54 -7.09,-12.89 -0.62,-31.28 -4.21,-40.48 -2.16,-5.52 -9.33,-6.34 -13.5,-2.83 -7.31,6.16 -17.68,38.71 -17.68,48.9 0,11.34 1.42,21.77 5.95,30.8 10.25,20.39 27.51,30.37 50.32,37.1 22.65,6.69 51.99,3.69 72.9,-7.29 6.35,-3.33 11.69,-8.67 17.87,-11.94 11.06,23.03 18.99,35.97 39.51,52.88 2.28,1.88 16.91,11.69 19.11,11.69 5.54,0 7.94,-2.94 10.37,-6.53 2.6,-3.85 4.35,-6.22 6.93,-9.95 5.04,-7.28 9.26,-13.24 13.93,-20.85l11.66 -22.11c3.28,-8.11 5.58,-17.51 7.79,-26.97 10.07,2.68 13.78,11.92 40.74,11.92 33.72,0 74.52,-21.87 74.52,-58.61 0,-22.01 -3.07,-30.2 -12.57,-49.02 -2.98,-5.91 -16.54,-28.46 -23.19,-28.46 -4.91,0 -8.94,4.03 -8.94,8.94 0,6.35 9.46,10.59 -0,25.82 -14.44,23.26 -41.27,-16.74 -52.94,-26.52 -12.34,-10.33 -32.88,-26.12 -50.38,-26.12 -11.17,0 -14.05,1.06 -22.85,6.95 0,-5.74 -0.52,-11.95 0.37,-17.5 0.93,-5.82 3.2,-9.47 3.6,-14.28 26.17,0 48.37,-13.82 59.63,-36.72 1.62,-3.29 2.43,-6.79 3.95,-9.96 13.94,9.34 51.48,40.46 67.86,54.33 12.26,10.38 27.52,21.72 38.7,32.83 2.48,2.46 3.52,2.81 5.94,4.97 7.52,6.7 14.74,12.83 21.85,19.87l43.49 38.97c-7.22,10.78 -24.86,24.5 -35.59,40.9 -17.7,27.11 -28.52,64.65 -12.12,96.19 5.94,11.42 16.23,20.58 27.81,25.84 22.54,10.24 49.43,10.53 72.7,2.09 10.91,-3.95 19.74,-9.61 26.56,-18.15 10.99,-13.77 18.02,-24.21 18.02,-44.56 3.48,0.3 6.01,1.9 9.04,2.88 16.83,5.42 33.39,9.16 51.56,10.04 4.09,0.2 6.07,1.4 10.75,0.89 4.11,-0.46 6.51,-0.89 12.1,-0.89 0,37.64 50.26,81.53 105.98,53.3 5.35,-2.71 9.59,-4.15 14.67,-7.19 14.27,-8.52 28.02,-17.11 42.96,-24.59 35.38,-17.73 56.63,-10.37 92.31,-0.24 10.27,2.91 36.48,13.49 45.12,13.49 10.99,0 12.14,-12.85 5.98,-20.88l-16.51 -19.26c-21.64,-21.64 -48.48,-36.63 -77.76,-46.41 -10.81,-3.61 -34.81,-10.79 -46.83,-11.78 0.52,-6.23 2.94,-11.89 4.37,-18.48 2.16,-9.95 7.3,-27.54 -2.17,-34.38 -5.06,-3.65 -9.34,-2.36 -17.11,-2.76l-37.74 -2.98c0,-21.24 -7.98,-39.68 -18.67,-55.84 -11.15,-16.86 -30.93,-26.6 -54.86,-26.6 -20.8,0 -41.61,11.65 -52.9,21.61 -6.89,6.09 -11.43,12.3 -16.35,20.41 -10.44,17.22 4.72,25.87 13.48,19.43 8.14,-5.98 10.22,-21.72 40.86,-21.72 18.87,0 41.25,15.93 28.43,35.37 -2.93,4.44 -3.84,4.26 -10.52,4.37 -9.89,0.16 -24.82,5.68 -34.1,9.61 -6.57,2.79 -13.46,6.35 -19.16,10.65 -2.8,2.11 -5.76,4.43 -8.14,6.76 -16.96,16.59 -24.66,46.77 -10.17,68.33 1.56,2.33 4.26,5.25 4.98,7.93 -2.76,-1.32 -8.07,-1.09 -11.2,-1.7 -4.17,-0.81 -8.03,-1.38 -11.76,-2.15 -9.71,-2 -31.88,-7.74 -40.98,-12.67 -3.59,-1.95 -3.63,-5.04 -5.47,-8.44 -14.79,-27.31 -52.47,-59.75 -54.78,-68.39 3.19,-4.77 6.72,-6.22 10.7,-10.16 3.86,-3.82 6.98,-7.52 11.15,-10.7l45.95 -40.48c17.18,-16.36 54.63,-44.11 72.56,-57.57 6.53,-4.9 44,-34.32 51.39,-36.04 15.69,10.5 30.67,22.41 45.85,33.62 15.43,11.4 30.42,22.06 45.84,33.64l92.69 67.25c8.03,5.76 14.98,11.14 23.07,16.66l70.17 50.04c15.76,11.4 30.98,21.34 46.7,32.78 7.13,5.19 24.13,14.54 29.11,20.56 1.76,2.12 2.1,3.83 4.7,5.23l7.03 2.91c10.52,7.09 13.85,1.44 31.69,-11.96 38.2,-28.7 78.14,-55.07 117.41,-82.28l47.7 -32.76c28.9,-19.19 89,-63.58 113.91,-85.77l42.71 -36.76c3.79,-3.33 6.26,-6.3 10.24,-9.63 3.6,-3.01 7,-8.31 11.38,-9.48l5.93 4.99c32.67,23.35 64.83,46.5 96.09,71.8 14.1,11.42 29.26,22.5 42.3,35.19l12.08 10.76c8.4,6.49 15.35,14.57 23.57,21.13 5.55,4.43 10.82,14.19 17.74,16.04 -2.61,11.21 -17.68,20.49 -24.42,29.22l-12.59 14.23c-2.52,2.63 -3.88,4.76 -6.14,7.77l-10.7 16.12c-3.34,5.52 -3.52,9.22 -9.4,11.46 -1.95,0.75 -3.26,1.15 -5.17,1.78 -3.26,1.06 -7.33,2.68 -10.3,3.61 -12.59,3.96 -29.72,9.17 -45.48,9.17 3.46,-5.17 6.86,-9.61 9.08,-15.76 7.41,-20.5 1.94,-41.14 -12.21,-56.6 -14.57,-15.92 -28.98,-19.28 -48.67,-26.83 -7.76,-2.98 -12.24,-3.11 -22.72,-3.11 -5.34,-10.1 -14.07,-21.27 3.53,-33.23 17.23,-11.71 47.02,-7.21 58.48,9.97 8.13,12.2 21.45,8.9 21.45,-5.55 0,-10.44 -19.35,-28.94 -26.95,-34.64 -44.09,-33.07 -103.84,-15.65 -117.23,49.43 -0.91,4.4 -2.48,12.45 -2.87,17l-35.81 2.93c-12.78,1.04 -23.8,-1.56 -23.8,15.95 0,13.17 4.98,26.99 7.95,39.73 -14.96,1.24 -31.95,6.81 -46.07,11.54 -21.86,7.31 -39.82,15.58 -57.83,28.6 -5.96,4.31 -10.46,8.15 -16.02,12.8 -2.07,1.73 -5.22,4.87 -6.95,6.95 -6.83,8.17 -18.18,17.31 -18.18,28.51 0,5.78 5.57,9.94 10.93,9.94 11.04,0 63.79,-23.84 92.4,-23.84 16.96,0 29.13,3.26 42.74,9.91 14.52,7.09 28.45,15.89 42.27,24.3 12.91,7.85 34.9,17.44 51.1,17.44 10.55,0 21.71,-2.67 29.7,-6.07 5.21,-2.22 15.56,-9.15 19.74,-13.04 9.51,-8.84 22.1,-25.64 22.1,-43.47 31.72,0 43.43,-0.85 73.52,-9.93 3.78,-1.14 5.57,-2.61 9.94,-2.98 0,28.01 17.98,53.94 44.57,62.72 9.39,3.09 17.69,5.15 29.91,5.85 7.8,0.45 7.52,0.83 15.85,-0.1 23.41,-2.61 43.25,-14.42 54.93,-34.48 11.43,-19.63 8.86,-49.46 0.8,-69.76 -6.72,-16.92 -16.7,-33.16 -29.56,-45.94 -4.94,-4.91 -15.85,-14.7 -19.14,-19.6 2.46,-3.67 16.94,-16.48 21.02,-19.72l37.37 -34.15c2.42,-2.16 3.5,-2.51 5.97,-4.96l16.38 -14.4c12.19,-11.86 26.05,-22.64 39.35,-33.17l34.2 -27.4c8.15,-6.05 15.28,-12.63 23.56,-18.17 2.7,11.62 13.44,26.81 21.84,32.8 10.73,7.66 22.26,13.89 40.75,13.89 4.6,9.59 4.97,17.61 4.97,31.78 -8.8,-5.89 -11.68,-6.95 -22.85,-6.95 -14.02,0 -29.29,9.58 -39.47,17.16 -9.02,6.7 -16.67,14.29 -24.38,22.3 -6.51,6.76 -16.43,20.14 -27.55,20.14 -11.7,0 -15.9,-12.98 -15.9,-22.85 0,-5.67 3.97,-5.7 3.97,-9.93 0,-9.62 -10.46,-11.9 -16.64,-3.72 -25.71,34 -46.68,80.06 -6.45,113.22 18.64,15.35 50.76,22.22 75.89,13.81 5.99,-2 11.93,-6.54 17.74,-8.09 2.33,28.09 24.15,56.55 39.33,78.88 9.34,13.73 16.4,5.81 29.23,-3.39 13.08,-9.39 38.39,-37.54 39.74,-53.65 3.97,1.07 5.3,3.23 8.36,5.55 9.13,6.94 19.15,11.02 30.77,13.94 16,4.03 35.77,4.03 51.84,-0.05 34.82,-8.83 55.49,-32.53 57.07,-61.47l0 -7.17c-0.55,-10.35 -3.45,-21.23 -8.93,-32.26 -2.01,-4.05 -4.9,-10.74 -7.49,-14.36 -3.71,-5.17 -10.71,-5.55 -14.2,-0.34 -3.24,4.84 0.47,29.53 -4.3,40.41 -2.56,5.87 -6.65,6.87 -12.89,8.97 -21.11,7.11 -42.73,8.28 -49.6,-18.73 -7.17,-28.18 0.45,-64.87 -30.95,-85.28 -15,-9.75 -36.83,-6.94 -51.48,0.81 0,-12.44 3.19,-20.09 0.44,-33.22 -0.96,-4.59 -2.32,-5.59 -2.43,-10.48 6.53,-1.52 12.39,-6.67 17.32,-10.49 10.38,-8.06 19.08,-23.15 23.42,-38.09 3.24,-0.04 6.7,-0.34 9.57,0.43 6.55,1.79 25.4,6.09 33.08,6.89l0.39 0.65 0.26 -0.58 0.89 0.06 0.23 0.02c14.59,10 50.93,40.14 66.98,53.73 12.25,10.38 27.53,21.72 38.69,32.83 2.48,2.46 3.53,2.81 5.95,4.98 7.51,6.69 14.74,12.81 21.85,19.86l43.48 38.97c-7.21,10.78 -24.87,24.5 -35.59,40.9 -17.71,27.11 -28.52,64.65 -12.12,96.19 5.94,11.42 16.23,20.57 27.8,25.83 22.55,10.24 49.43,10.53 72.7,2.1 10.91,-3.96 19.73,-9.62 26.56,-18.15 10.99,-13.78 18.02,-24.22 18.02,-44.56 3.48,0.29 6.02,1.89 9.05,2.87 16.83,5.42 33.39,9.16 51.56,10.04 4.09,0.2 6.07,1.4 10.75,0.88 4.11,-0.45 6.52,-0.88 12.1,-0.88 0,37.64 50.27,81.53 105.98,53.3 5.35,-2.7 9.58,-4.15 14.67,-7.19 14.26,-8.52 28.02,-17.11 42.96,-24.59 35.39,-17.73 56.63,-10.36 92.31,-0.24 10.27,2.92 36.48,13.49 45.13,13.49 10.99,0 12.13,-12.85 5.97,-20.88l-16.5 -19.26c-21.65,-21.64 -48.49,-36.63 -77.77,-46.41 -10.81,-3.61 -34.81,-10.79 -46.83,-11.78 0.52,-6.24 2.94,-11.89 4.37,-18.48 2.16,-9.94 7.3,-27.54 -2.17,-34.39 -5.06,-3.65 -9.34,-2.37 -17.11,-2.76l-37.76 -2.98c0,-21.24 -7.98,-39.68 -18.66,-55.84 -11.16,-16.86 -30.93,-26.6 -54.86,-26.6 -20.8,0 -41.62,11.65 -52.9,21.61 -6.9,6.09 -11.42,12.3 -16.35,20.41 -10.44,17.21 4.72,25.87 13.48,19.43 8.14,-5.98 10.22,-21.72 40.86,-21.72 18.87,0 41.25,15.93 28.43,35.37 -2.93,4.44 -3.84,4.26 -10.53,4.37 -9.89,0.16 -24.82,5.68 -34.11,9.61 -6.57,2.79 -13.45,6.35 -19.15,10.65 -2.8,2.11 -5.76,4.43 -8.14,6.76 -16.96,16.59 -24.66,46.76 -10.17,68.33 1.57,2.32 4.27,5.24 4.98,7.93 -2.76,-1.33 -8.07,-1.1 -11.21,-1.71 -4.17,-0.81 -8.02,-1.38 -11.76,-2.15 -9.71,-2 -31.88,-7.74 -40.97,-12.67 -3.59,-1.95 -3.62,-5.04 -5.46,-8.44 -14.8,-27.31 -52.48,-59.75 -54.79,-68.4 3.19,-4.77 6.72,-6.22 10.7,-10.17 3.86,-3.81 6.99,-7.51 11.16,-10.69l45.95 -40.48c17.17,-16.35 54.63,-44.11 72.56,-57.57 6.53,-4.9 43.99,-34.32 51.38,-36.04 15.69,10.5 30.67,22.41 45.86,33.62 15.43,11.4 30.42,22.06 45.83,33.64l92.7 67.25c8.02,5.76 14.97,11.14 23.07,16.66l70.17 50.04c15.76,11.4 30.98,21.34 46.69,32.78 7.14,5.19 24.14,14.54 29.11,20.56 1.75,2.12 2.1,3.83 4.7,5.23l7.03 2.91c10.52,7.09 13.85,1.44 31.69,-11.96 38.2,-28.7 78.13,-55.07 117.4,-82.28l47.7 -32.77c28.9,-19.17 89,-63.57 113.92,-85.76l42.7 -36.76c3.79,-3.33 6.26,-6.3 10.24,-9.63 3.6,-3.01 7,-8.31 11.39,-9.48l5.93 4.99c32.67,23.35 64.83,46.5 96.09,71.8 14.11,11.42 29.26,22.5 42.3,35.19l12.08 10.77c8.4,6.48 15.35,14.57 23.57,21.13 5.55,4.43 10.81,14.19 17.74,16.04 -2.61,11.21 -17.67,20.49 -24.42,29.22l-12.59 14.23c-2.52,2.63 -3.88,4.76 -6.15,7.77l-10.7 16.12c-3.33,5.52 -3.51,9.22 -9.39,11.46 -1.96,0.74 -3.26,1.15 -5.17,1.78 -3.26,1.07 -7.33,2.68 -10.3,3.61 -12.59,3.96 -29.72,9.17 -45.48,9.17 3.46,-5.17 6.86,-9.61 9.08,-15.76 7.4,-20.51 1.94,-41.14 -12.22,-56.6 -14.57,-15.92 -28.97,-19.28 -48.67,-26.83 -7.76,-2.98 -12.24,-3.12 -22.71,-3.12 -5.35,-10.1 -14.08,-21.27 3.52,-33.23 17.24,-11.71 47.02,-7.21 58.48,9.97 8.14,12.2 21.45,8.9 21.45,-5.55 0,-10.44 -19.34,-28.94 -26.94,-34.64 -44.09,-33.07 -103.85,-15.65 -117.23,49.43 -0.9,4.4 -2.49,12.45 -2.86,17l-35.83 2.93c-12.77,1.03 -23.79,-1.56 -23.79,15.94 0,13.17 4.98,26.99 7.95,39.73 -14.96,1.24 -31.96,6.81 -46.08,11.54 -21.86,7.32 -39.81,15.58 -57.82,28.6 -5.97,4.31 -10.47,8.15 -16.02,12.8 -2.08,1.73 -5.22,4.88 -6.96,6.95 -6.82,8.17 -18.17,17.31 -18.17,28.51 0,5.78 5.57,9.94 10.93,9.94 11.04,0 63.8,-23.84 92.41,-23.84 16.96,0 29.13,3.26 42.74,9.91 14.52,7.09 28.45,15.89 42.27,24.3 12.91,7.85 34.9,17.44 51.11,17.44 10.55,0 21.71,-2.66 29.7,-6.07 5.21,-2.23 15.56,-9.15 19.75,-13.04 9.51,-8.84 22.09,-25.65 22.09,-43.47 31.72,0 43.43,-0.85 73.52,-9.93 3.77,-1.14 5.56,-2.61 9.93,-2.98 0,28 17.98,53.94 44.58,62.71 9.38,3.09 17.69,5.15 29.91,5.85 7.79,0.45 7.52,0.83 15.85,-0.1 23.41,-2.61 43.24,-14.42 54.93,-34.48 11.43,-19.63 8.87,-49.46 0.8,-69.76 -6.73,-16.92 -16.71,-33.16 -29.56,-45.94 -4.94,-4.91 -15.85,-14.7 -19.13,-19.61 2.46,-3.67 16.94,-16.46 21.02,-19.71l37.37 -34.15c2.42,-2.16 3.5,-2.51 5.96,-4.96l16.38 -14.4c12.19,-11.86 26.05,-22.64 39.36,-33.17l34.19 -27.4c8.16,-6.05 15.29,-12.63 23.56,-18.17 2.71,11.62 13.45,26.81 21.84,32.8 10.73,7.66 22.26,13.88 40.75,13.88 4.61,9.59 4.97,17.61 4.97,31.79 -8.8,-5.89 -11.68,-6.95 -22.85,-6.95 -14.01,0 -29.28,9.58 -39.46,17.16 -9.01,6.7 -16.67,14.29 -24.38,22.3 -6.51,6.76 -16.43,20.14 -27.56,20.14 -11.69,0 -15.9,-12.98 -15.9,-22.85 0,-5.67 3.98,-5.7 3.98,-9.93 0,-9.61 -10.46,-11.9 -16.64,-3.72 -25.71,34 -46.69,80.06 -6.45,113.22 18.64,15.36 50.76,22.22 75.89,13.81 5.99,-2 11.93,-6.54 17.74,-8.09 2.34,28.09 24.15,56.55 39.33,78.88 9.34,13.73 16.4,5.81 29.22,-3.39 13.08,-9.39 38.39,-37.54 39.74,-53.64 3.97,1.06 5.3,3.22 8.37,5.55 9.13,6.92 19.14,11.01 30.76,13.93 16,4.02 35.78,4.03 51.85,-0.05 34.82,-8.84 55.49,-32.53 57.06,-61.47l0 -7.17c-0.54,-10.35 -3.44,-21.23 -8.92,-32.26 -2.01,-4.05 -4.9,-10.74 -7.5,-14.36 -3.71,-5.17 -10.71,-5.56 -14.2,-0.34 -3.24,4.84 0.46,29.54 -4.3,40.41 -2.56,5.86 -6.64,6.87 -12.88,8.97 -21.11,7.11 -42.74,8.28 -49.6,-18.73 -7.16,-28.19 0.45,-64.87 -30.95,-85.28 -15.01,-9.75 -36.83,-6.94 -51.48,0.81 0,-12.43 3.19,-20.09 0.44,-33.22 -0.96,-4.59 -2.32,-5.59 -2.42,-10.48 6.53,-1.53 12.39,-6.67 17.31,-10.5 10.47,-8.12 19.23,-23.41 23.53,-38.46 4.22,1 10.13,-0.4 14.57,0.81 6.56,1.78 25.4,6.09 33.09,6.89l0.39 0.65 0.27 -0.58 0.88 0.06 0.24 0.02c14.58,10 50.93,40.14 66.97,53.73 12.26,10.38 27.53,21.72 38.7,32.83 2.48,2.46 3.52,2.81 5.95,4.98 7.5,6.69 14.73,12.81 21.85,19.86l43.49 38.97c-7.22,10.78 -24.87,24.5 -35.59,40.9 -17.71,27.11 -28.52,64.65 -12.12,96.19 5.94,11.42 16.23,20.57 27.81,25.83 22.54,10.24 49.43,10.53 72.7,2.1 10.91,-3.96 19.73,-9.62 26.56,-18.15 10.99,-13.78 18.01,-24.22 18.01,-44.56 3.49,0.29 6.02,1.89 9.05,2.87 16.83,5.42 33.39,9.16 51.56,10.04 4.09,0.2 6.07,1.4 10.75,0.88 4.11,-0.45 6.51,-0.88 12.1,-0.88 0,37.64 50.26,81.53 105.98,53.3 5.35,-2.7 9.59,-4.15 14.67,-7.19 14.25,-8.52 28.02,-17.11 42.95,-24.59 35.39,-17.73 56.63,-10.36 92.32,-0.24 10.27,2.92 36.48,13.49 45.13,13.49 10.99,0 12.13,-12.85 5.97,-20.88l-16.5 -19.26c-21.65,-21.64 -48.49,-36.63 -77.77,-46.41 -10.81,-3.61 -34.81,-10.79 -46.83,-11.78 0.52,-6.24 2.94,-11.89 4.37,-18.48 2.16,-9.94 7.3,-27.54 -2.17,-34.39 -5.06,-3.65 -9.34,-2.37 -17.11,-2.76l-37.75 -2.98c0,-21.24 -7.97,-39.68 -18.66,-55.84 -11.16,-16.86 -30.94,-26.6 -54.86,-26.6 -20.8,0 -41.61,11.65 -52.9,21.61 -6.9,6.09 -11.42,12.3 -16.34,20.41 -10.44,17.21 4.71,25.87 13.48,19.43 8.14,-5.98 10.22,-21.72 40.87,-21.72 18.87,0 41.24,15.93 28.43,35.37 -2.93,4.44 -3.85,4.26 -10.53,4.37 -9.89,0.16 -24.82,5.68 -34.1,9.61 -6.57,2.79 -13.46,6.35 -19.15,10.65 -2.8,2.11 -5.76,4.43 -8.14,6.76 -16.96,16.59 -24.66,46.76 -10.17,68.33 1.56,2.32 4.27,5.24 4.98,7.93 -2.76,-1.33 -8.07,-1.1 -11.2,-1.71 -4.17,-0.81 -8.02,-1.38 -11.76,-2.15 -9.71,-2 -31.88,-7.74 -40.98,-12.67 -3.59,-1.95 -3.62,-5.04 -5.46,-8.44 -14.8,-27.31 -52.48,-59.75 -54.79,-68.4 3.19,-4.77 6.72,-6.22 10.69,-10.17 3.87,-3.81 6.99,-7.51 11.16,-10.69l45.95 -40.48c17.18,-16.35 54.63,-44.11 72.57,-57.57 6.53,-4.9 43.99,-34.32 51.38,-36.04 15.69,10.5 30.67,22.41 45.85,33.62 15.43,11.4 30.42,22.06 45.84,33.64l92.69 67.25c8.03,5.76 14.98,11.14 23.07,16.66l70.17 50.04c15.76,11.4 30.98,21.34 46.69,32.78 7.14,5.19 24.14,14.54 29.11,20.56 1.76,2.12 2.11,3.83 4.7,5.23l7.03 2.91c10.52,7.09 13.86,1.44 31.69,-11.96 38.19,-28.7 78.14,-55.07 117.41,-82.28l47.7 -32.77c28.89,-19.17 89,-63.57 113.91,-85.76l42.71 -36.76c3.79,-3.33 6.26,-6.3 10.24,-9.63 3.6,-3.01 7,-8.31 11.38,-9.48l5.94 4.99c32.67,23.35 64.83,46.5 96.09,71.8 14.11,11.42 29.26,22.5 42.31,35.19l12.07 10.77c8.4,6.48 15.35,14.57 23.58,21.13 5.55,4.43 10.81,14.19 17.74,16.04 -2.61,11.21 -17.68,20.49 -24.42,29.22l-12.59 14.23c-2.51,2.63 -3.87,4.76 -6.14,7.77l-10.7 16.12c-3.33,5.52 -3.51,9.22 -9.39,11.46 -1.95,0.74 -3.26,1.15 -5.17,1.78 -3.26,1.07 -7.33,2.68 -10.3,3.61 -12.58,3.96 -29.72,9.17 -45.48,9.17 3.46,-5.17 6.86,-9.61 9.08,-15.76 7.41,-20.51 1.94,-41.14 -12.21,-56.6 -14.57,-15.92 -28.97,-19.28 -48.67,-26.83 -7.76,-2.98 -12.24,-3.12 -22.72,-3.12 -5.34,-10.1 -14.07,-21.27 3.53,-33.23 17.23,-11.71 47.02,-7.21 58.48,9.97 8.14,12.2 21.44,8.9 21.44,-5.55 0,-10.44 -19.34,-28.94 -26.95,-34.64 -44.09,-33.07 -103.85,-15.65 -117.22,49.43 -0.9,4.4 -2.49,12.45 -2.87,17l-35.81 2.93c-12.78,1.03 -23.79,-1.56 -23.79,15.94 0,13.17 4.98,26.99 7.94,39.73 -14.96,1.24 -31.96,6.81 -46.07,11.54 -21.86,7.32 -39.82,15.58 -57.83,28.6 -5.96,4.31 -10.46,8.15 -16.02,12.8 -2.07,1.73 -5.22,4.88 -6.96,6.95 -6.83,8.17 -18.17,17.31 -18.17,28.51 0,5.78 5.57,9.94 10.93,9.94 11.04,0 63.79,-23.84 92.4,-23.84 16.96,0 29.13,3.26 42.74,9.91 14.52,7.09 28.45,15.89 42.26,24.3 12.91,7.85 34.91,17.44 51.11,17.44 10.55,0 21.71,-2.66 29.69,-6.07 5.22,-2.23 15.57,-9.15 19.74,-13.04 9.51,-8.84 22.1,-25.65 22.1,-43.47 31.72,0 43.43,-0.85 73.52,-9.93 3.77,-1.14 5.57,-2.61 9.94,-2.98 0,28 17.98,53.94 44.57,62.71 9.39,3.09 17.69,5.15 29.91,5.85 7.79,0.45 7.52,0.83 15.85,-0.1 23.41,-2.61 43.25,-14.42 54.93,-34.48 11.43,-19.63 8.86,-49.46 0.79,-69.76 -6.73,-16.92 -16.7,-33.16 -29.56,-45.94 -4.94,-4.91 -15.85,-14.7 -19.14,-19.61 2.46,-3.67 16.94,-16.46 21.02,-19.71l37.37 -34.15c2.42,-2.16 3.51,-2.51 5.97,-4.96l16.38 -14.4c12.18,-11.86 26.05,-22.64 39.36,-33.17l34.19 -27.4c8.17,-6.05 15.29,-12.63 23.56,-18.17 2.72,11.62 13.45,26.81 21.84,32.8 10.74,7.66 22.26,13.88 40.76,13.88 4.61,9.59 4.97,17.61 4.97,31.79 -8.8,-5.89 -11.69,-6.95 -22.85,-6.95 -14.01,0 -29.29,9.58 -39.47,17.16 -9.01,6.7 -16.67,14.29 -24.39,22.3 -6.5,6.76 -16.43,20.14 -27.55,20.14 -11.69,0 -15.9,-12.98 -15.9,-22.85 0,-5.67 3.98,-5.7 3.98,-9.93 0,-9.61 -10.46,-11.9 -16.64,-3.72 -25.71,34 -46.69,80.06 -6.45,113.22 18.63,15.36 50.75,22.22 75.89,13.81 5.99,-2 11.93,-6.54 17.74,-8.09 2.34,28.09 24.15,56.55 39.33,78.88 9.34,13.73 16.4,5.81 29.22,-3.39 13.09,-9.39 38.4,-37.54 39.75,-53.64 3.97,1.06 5.3,3.22 8.36,5.55 9.13,6.92 19.14,11.01 30.77,13.93 16,4.02 35.77,4.03 51.84,-0.05 34.82,-8.84 55.49,-32.53 57.07,-61.47l0 -7.17c-0.55,-10.35 -3.45,-21.23 -8.93,-32.26 -2.01,-4.05 -4.9,-10.74 -7.5,-14.36 -3.7,-5.17 -10.71,-5.56 -14.2,-0.34 -3.24,4.84 0.47,29.54 -4.3,40.41 -2.56,5.86 -6.65,6.87 -12.89,8.97 -21.11,7.11 -42.73,8.28 -49.6,-18.73 -7.17,-28.19 0.45,-64.87 -30.95,-85.28 -15.01,-9.75 -36.83,-6.94 -51.49,0.81 0,-12.43 3.2,-20.09 0.44,-33.22 -0.96,-4.59 -2.32,-5.59 -2.43,-10.48 6.54,-1.53 12.39,-6.67 17.32,-10.5 10.4,-8.06 19.09,-23.19 23.43,-38.15 2.48,-0.07 4.96,-0.09 7.12,0.5 6.55,1.79 25.41,6.09 33.09,6.89l0.39 0.65 0.26 -0.58 0.89 0.06 0.24 0.02c14.58,10 50.93,40.14 66.97,53.73 12.26,10.38 27.53,21.72 38.7,32.83 2.48,2.46 3.52,2.81 5.95,4.98 7.51,6.69 14.74,12.81 21.85,19.86l43.49 38.97c-7.22,10.78 -24.87,24.5 -35.59,40.9 -17.71,27.11 -28.53,64.65 -12.13,96.19 5.94,11.42 16.23,20.57 27.81,25.83 22.54,10.24 49.43,10.53 72.7,2.1 10.9,-3.96 19.72,-9.62 26.55,-18.15 11,-13.78 18.02,-24.22 18.02,-44.56 3.49,0.29 6.02,1.89 9.05,2.87 16.83,5.42 33.39,9.16 51.56,10.04 4.09,0.2 6.07,1.4 10.75,0.88 4.11,-0.45 6.51,-0.88 12.1,-0.88 0,37.64 50.27,81.53 105.98,53.3 5.35,-2.7 9.59,-4.15 14.67,-7.19 14.26,-8.52 28.02,-17.11 42.96,-24.59 35.39,-17.73 56.63,-10.36 92.31,-0.24 10.27,2.92 36.48,13.49 45.13,13.49 10.99,0 12.13,-12.85 5.98,-20.88l-16.5 -19.26c-21.65,-21.64 -48.49,-36.63 -77.77,-46.41 -10.81,-3.61 -34.81,-10.79 -46.83,-11.78 0.52,-6.24 2.94,-11.89 4.37,-18.48 2.15,-9.94 7.29,-27.54 -2.17,-34.39 -5.06,-3.65 -9.33,-2.37 -17.11,-2.76l-37.75 -2.98c0,-21.24 -7.98,-39.68 -18.66,-55.84 -11.16,-16.86 -30.94,-26.6 -54.87,-26.6 -20.8,0 -41.61,11.65 -52.9,21.61 -6.89,6.09 -11.42,12.3 -16.34,20.41 -10.45,17.21 4.71,25.87 13.48,19.43 8.14,-5.98 10.22,-21.72 40.86,-21.72 18.87,0 41.24,15.93 28.43,35.37 -2.93,4.44 -3.85,4.26 -10.53,4.37 -9.89,0.16 -24.82,5.68 -34.1,9.61 -6.57,2.79 -13.46,6.35 -19.15,10.65 -2.8,2.11 -5.76,4.43 -8.14,6.76 -16.96,16.59 -24.66,46.76 -10.17,68.33 1.56,2.32 4.27,5.24 4.98,7.93 -2.76,-1.33 -8.07,-1.1 -11.2,-1.71 -4.17,-0.81 -8.02,-1.38 -11.76,-2.15 -9.71,-2 -31.89,-7.74 -40.98,-12.67 -3.59,-1.95 -3.61,-5.04 -5.46,-8.44 -14.8,-27.31 -52.48,-59.75 -54.79,-68.4 3.19,-4.77 6.72,-6.22 10.7,-10.17 3.86,-3.81 6.99,-7.51 11.16,-10.69l45.95 -40.48c17.18,-16.35 54.63,-44.11 72.57,-57.57 6.53,-4.9 43.99,-34.32 51.38,-36.04 15.69,10.5 30.67,22.41 45.86,33.62 15.43,11.4 30.42,22.06 45.83,33.64l92.69 67.25c8.02,5.76 14.97,11.14 23.07,16.66l70.17 50.04c15.75,11.4 30.97,21.34 46.69,32.78 7.13,5.19 24.13,14.54 29.11,20.56 1.76,2.12 2.11,3.83 4.7,5.23l7.03 2.91c10.52,7.09 13.86,1.44 31.69,-11.96 38.2,-28.7 78.14,-55.07 117.41,-82.28l47.7 -32.77c28.9,-19.17 89,-63.57 113.92,-85.76l42.71 -36.76c3.78,-3.33 6.26,-6.3 10.23,-9.63 3.61,-3.01 7,-8.31 11.38,-9.48l5.94 4.99c32.67,23.35 64.83,46.5 96.09,71.8 14.11,11.42 29.26,22.5 42.3,35.19l12.07 10.77c8.4,6.48 15.35,14.57 23.58,21.13 5.55,4.43 10.81,14.19 17.73,16.04 -2.61,11.21 -17.68,20.49 -24.42,29.22l-12.59 14.23c-2.52,2.63 -3.87,4.76 -6.14,7.77l-10.7 16.12c-3.33,5.52 -3.52,9.22 -9.4,11.46 -1.96,0.74 -3.26,1.15 -5.17,1.78 -3.26,1.07 -7.33,2.68 -10.3,3.61 -12.58,3.96 -29.72,9.17 -45.47,9.17 3.46,-5.17 6.86,-9.61 9.07,-15.76 7.41,-20.51 1.94,-41.14 -12.21,-56.6 -14.57,-15.92 -28.97,-19.28 -48.67,-26.83 -7.76,-2.98 -12.24,-3.12 -22.71,-3.12 -5.34,-10.1 -14.07,-21.27 3.53,-33.23 17.23,-11.71 47.02,-7.21 58.48,9.97 8.13,12.2 21.45,8.9 21.45,-5.55 0,-10.44 -19.35,-28.94 -26.94,-34.64 -44.1,-33.07 -103.85,-15.65 -117.23,49.43 -0.91,4.4 -2.49,12.45 -2.87,17l-35.82 2.93c-12.78,1.03 -23.79,-1.56 -23.79,15.94 0,13.17 4.98,26.99 7.95,39.73 -14.96,1.24 -31.96,6.81 -46.08,11.54 -21.86,7.32 -39.82,15.58 -57.83,28.6 -5.96,4.31 -10.46,8.15 -16.02,12.8 -2.07,1.73 -5.22,4.88 -6.95,6.95 -6.83,8.17 -18.18,17.31 -18.18,28.51 0,5.78 5.57,9.94 10.93,9.94 11.04,0 63.79,-23.84 92.4,-23.84 16.96,0 29.13,3.26 42.74,9.91 14.52,7.09 28.46,15.89 42.28,24.3 12.9,7.85 34.89,17.44 51.1,17.44 10.55,0 21.71,-2.66 29.69,-6.07 5.22,-2.23 15.57,-9.15 19.75,-13.04 9.51,-8.84 22.09,-25.65 22.09,-43.47 31.72,0 43.43,-0.85 73.52,-9.93 3.77,-1.14 5.57,-2.61 9.93,-2.98 0,28 17.98,53.94 44.58,62.71 9.39,3.09 17.68,5.15 29.91,5.85 7.79,0.45 7.52,0.83 15.86,-0.1 23.4,-2.61 43.24,-14.42 54.93,-34.48 11.43,-19.63 8.86,-49.46 0.79,-69.76 -6.72,-16.92 -16.71,-33.16 -29.56,-45.94 -4.94,-4.91 -15.85,-14.7 -19.14,-19.61 2.46,-3.67 16.94,-16.46 21.02,-19.71l37.37 -34.15c2.42,-2.16 3.5,-2.51 5.97,-4.96l16.39 -14.4c12.19,-11.86 26.05,-22.64 39.36,-33.17l34.19 -27.4c8.16,-6.05 15.29,-12.63 23.56,-18.17 2.71,11.62 13.45,26.81 21.85,32.8 10.73,7.66 22.25,13.88 40.74,13.88 4.61,9.59 4.97,17.61 4.97,31.79 -8.8,-5.89 -11.68,-6.95 -22.85,-6.95 -14.01,0 -29.29,9.58 -39.46,17.16 -9.02,6.7 -16.67,14.29 -24.39,22.3 -6.5,6.76 -16.43,20.14 -27.55,20.14 -11.7,0 -15.9,-12.98 -15.9,-22.85 0,-5.67 3.98,-5.7 3.98,-9.93 0,-9.61 -10.46,-11.9 -16.64,-3.72 -25.71,34 -46.69,80.06 -6.45,113.22 18.63,15.36 50.75,22.22 75.89,13.81 5.99,-2 11.93,-6.54 17.74,-8.09 2.34,28.09 24.15,56.55 39.33,78.88 9.34,13.73 16.4,5.81 29.23,-3.39 13.07,-9.39 38.39,-37.54 39.74,-53.64 3.97,1.06 5.3,3.22 8.36,5.55 9.13,6.92 19.15,11.01 30.77,13.93 16,4.02 35.77,4.03 51.84,-0.05 34.82,-8.84 55.5,-32.53 57.07,-61.47l0 -7.17c-0.55,-10.35 -3.44,-21.23 -8.92,-32.26 -2.02,-4.05 -4.91,-10.74 -7.49,-14.36 -3.71,-5.17 -10.72,-5.56 -14.2,-0.34 -3.24,4.84 0.46,29.54 -4.3,40.41 -2.57,5.86 -6.64,6.87 -12.89,8.97 -21.11,7.11 -42.74,8.28 -49.6,-18.73 -7.17,-28.19 0.45,-64.87 -30.95,-85.28 -15,-9.75 -36.83,-6.94 -51.48,0.81 0,-12.43 3.19,-20.09 0.44,-33.22 -0.96,-4.59 -2.32,-5.59 -2.43,-10.48 6.54,-1.53 12.39,-6.67 17.32,-10.5 14.93,-11.59 26.39,-37.77 26.39,-57.04 0,-19.69 -11.72,-45.69 -26.67,-57.77 -6.46,-5.22 -10.71,-6.9 -18.04,-10.78 8.22,-15.52 2.98,-27.47 2.98,-42.71 8.96,4.74 20.29,6.95 31.8,6.95 11.13,0 19.63,-5.86 25.87,-10.89 20.33,-16.43 19.52,-46.39 22.75,-69.62 4.5,-32.36 19.26,-40.22 53.1,-29.12 12.11,3.97 13.51,9.49 14.48,22.28 0.98,12.92 -4.33,29.75 8.99,29.75 8.04,0 12.89,-16.24 15.57,-22.18 4.01,-8.92 6.35,-17.37 7.28,-25.29l0 -15.49c-6.03,-47.66 -68.04,-70.56 -119.62,-52.65 -4.68,1.62 -10.87,4.73 -14.72,7.13 -4.3,2.69 -8.82,7.84 -13.7,9.15 -1.78,-21.46 -45.95,-64.56 -58.63,-64.56 -7.95,0 -12.91,11.31 -16.88,16.89 -14.05,19.78 -30.73,44.69 -32.8,69.53 -5.37,-1.43 -32,-22 -72.11,-6.54 -48.56,18.72 -54.3,63.05 -28.8,105.43 3.75,6.22 13.79,25.41 22.32,25 4.2,-0.2 8.06,-3.98 8.06,-8.69 0,-3.91 -3.98,-4.41 -3.98,-13.9 0,-17.39 17.67,-31.06 42.58,0.15l14.81 14.99c15.12,13.36 33.37,25.58 54.89,25.58 8.59,0 12.8,-3.55 17.88,-6.95 0,14.17 -0.36,22.2 -4.97,31.78 -18.69,0 -30.18,5.85 -40.75,13.89 -8.67,6.58 -18.98,20.53 -21.84,32.79 -18.85,-12.62 -77.19,-60.94 -96.6,-78.23l-38.37 -34.15c-7.39,-5.91 -14.21,-12.98 -21.24,-19.49 -4.5,-4.15 -18.85,-15.95 -21.63,-20.1 5.04,-7.52 23.59,-22.23 35.79,-40.71 15.65,-23.72 28.61,-64.9 12.48,-93.96 -8.93,-16.11 -21.94,-26.52 -39.54,-31.98 -9.75,-3.03 -19.93,-4.51 -30.74,-3.35 -11.29,1.21 -20.22,2.05 -30.29,5.48 -26.68,9.09 -45.07,34.66 -45.07,63.21 -11.14,-2.6 -21.03,-6.73 -32.39,-9.33 -11.05,-2.54 -25.24,-4.57 -38.15,-4.57 -5.67,0 -6.88,0.99 -12.92,0.99 0,-9.52 -3.48,-18.58 -7.12,-24.67 -4.66,-7.8 -8.24,-12.04 -14.47,-18.31 -21.5,-21.57 -59.52,-25.9 -85.89,-9.85l-14.68 7.19c-14.12,8.13 -28,17.81 -43.04,24.51 -6.13,2.72 -8.93,4.56 -15.98,6.87 -23.81,7.78 -51.73,-0.4 -73.8,-6.95 -9.48,-2.81 -38.45,-13.55 -46.06,-13.55 -7.22,0 -9.94,6.93 -9.94,12.92 0,4.54 8.54,13.89 11.34,17.46 8.37,10.64 18.78,19.85 29.81,27.81 3.03,2.19 5.31,3.56 8.33,5.59 24.18,16.27 54.5,25.69 83.23,32.01 4.11,0.91 8.32,2.22 12.35,2.56 -1.78,3.7 -7.95,32.95 -7.95,38.73 0,22.48 20.72,15.72 41.58,18.03 4.95,0.55 13.31,0.74 18.03,1.84 5.09,21.83 3.79,34.83 20,56.48 24.58,32.84 67.12,31.61 98.84,10.67 4.3,-2.84 5.06,-4.3 8.75,-7.15 4.69,-3.6 4.19,-4.09 7.79,-8.11 4.8,-5.33 11.67,-15.56 11.67,-23.1 0,-11.98 -15.44,-12.91 -21.2,-3.31 -17.52,29.28 -81.67,17.87 -66.85,-15.18 1.5,-3.35 2.77,-3.91 4.58,-7.33 15.81,0 27.08,-3.76 41.03,-9.64 14.87,-6.26 20.22,-10.43 30.78,-20.88 14.22,-14.09 19.37,-38.17 11.54,-56.75 -2.48,-5.88 -6.46,-11.01 -9.81,-16.02 19.83,1.66 36.56,6.43 54.03,12.53 2.53,0.88 2.74,1.09 5.01,1.94 12.51,4.68 5.52,2.63 16.06,18.72 16.95,25.88 38.54,41.95 50.08,59.19 -2.86,4.27 -6.91,7.4 -10.68,11.17l-11.93 10.92c-4.09,4.15 -7.44,6.37 -11.42,10.44 -7.34,7.52 -16,13.89 -23.83,20.87l-49.02 40.39c-27.51,21.45 -55.2,42.3 -83.89,62.15 -2.54,1.76 -5.14,2.88 -5.96,5.96 -4.01,-0.33 -3.72,-1.06 -6.24,-3.7 -9.33,-9.74 -20.93,-19.73 -31.22,-28.39 -2.09,-1.75 -3.03,-3.14 -5.12,-4.82l-21.7 -18.04c-65.99,-55.52 -138.76,-101.82 -208.95,-151.66 -7.76,-5.51 -15.77,-10.32 -23.57,-16.17 -4.1,-3.09 -7.46,-5.09 -11.63,-8.24l-34.62 -24.99c-28.12,-20.96 -21.65,-17.51 -35.05,-11.74 -10.74,4.61 -6.41,5.54 -14.14,10.69l-105.68 74.14c-26.96,19.91 -54.72,38.44 -81.46,58.61 -3.84,2.9 -7.55,5.54 -11.59,8.28l-104.52 76.29c-10.48,7.88 -36.76,28.52 -46.69,33.77 -36.09,-24.16 -82.57,-58.63 -116.47,-88.18l-23.47 -20.23c-2.72,-2.19 -3.28,-2.57 -5.85,-5.08l-10.94 -9.92c-2.44,-2.15 -3.52,-2.52 -5.98,-4.95l-11.42 -10.44c-2.06,-2.07 -3.39,-3.41 -5.45,-5.48 -3.66,-3.67 -8.39,-6.51 -11.17,-10.67 1.69,-7.25 31,-35.4 37.19,-43.28 2.35,-2.99 3.91,-4.48 6.26,-7.65 19.69,-26.53 3.91,-21.93 35.92,-32.64l32.63 -8.09c3.46,-0.68 8.41,-0.82 12.2,-1.71 -6.28,11.85 -12.91,17.94 -12.91,33.78 0,13.87 3.5,23.11 10.51,33.2 10.33,14.87 27.1,24.93 44.54,29.97 8.96,2.59 13.71,5.3 23.61,6.19 6.9,0.62 7.57,-0.79 10.97,3.93 22.79,31.73 -43.36,51.14 -64.36,19.65 -2.85,-4.28 -4.66,-7.52 -11.36,-7.52 -5,0 -8.8,3.91 -10.05,7.93 -3.23,10.35 13.38,28.89 20.41,34.37 15.71,12.28 32.22,21.28 54.23,21.28 46.44,0 71.54,-45.75 71.54,-82.44 10.09,-2.35 47.91,-1.5 54.31,-5.31 10.6,-6.32 4.99,-23.5 2.89,-33.99 -1.38,-6.91 -3.07,-12.97 -4.54,-19.3 15.52,-3.62 30.67,-6.24 45.98,-11.65 39.79,-14.04 68.59,-32.04 94.11,-64.83 2.29,-2.94 4.98,-4.7 4.98,-9.93 0,-14.72 -12.53,-12.33 -21.35,-9.42 -29.35,9.71 -58.41,21.34 -90.93,21.34 -24.11,0 -56.74,-22.47 -76.07,-34.21 -12.37,-7.51 -34.78,-17.44 -50.11,-17.44 -19.76,0 -38.1,7.18 -49.94,18.61 -8.89,8.58 -22.59,24.45 -22.59,40.99l0 2.98c-6.03,0 -7.95,-0.99 -12.91,-0.99 -19.32,0 -36.54,3.38 -54.02,8.57 -5.88,1.75 -10.83,4.01 -16.53,5.33 0,-13.13 -1.94,-19.21 -6.46,-28.31 -5.79,-11.61 -14.57,-21.2 -25.31,-28.33 -4.16,-2.75 -6.94,-3.97 -11.92,-5.96 -26.19,-10.44 -61.91,-8.8 -84.92,8.51 -13.74,10.33 -24.39,28.48 -24.39,47.13 0,28.4 4.93,45.13 20.27,68.14 10.56,15.83 19.83,22.52 31.1,35.46 2.06,2.37 3.3,2.97 4.27,5.67l-42.98 38.47c-3.8,3.85 -6.74,5.72 -10.41,9.46l-55.47 47.84c-17.18,13.44 -52.09,43.67 -68.22,54.68l-0 0zm805.02 -1.46c0,10.58 19.87,17.76 19.87,-1 0,-11.74 -19.87,-12.44 -19.87,1zm-79.49 -3.97c0,13.8 19.87,16.1 19.87,-0.99 0,-10.11 -19.87,-12.66 -19.87,0.99zm79.49 58.6c0,14.72 19.87,10.66 19.87,2.98 0,-8.12 0.33,-12.91 -9.94,-12.91 -5.35,0 -9.93,4.54 -9.93,9.93zm-79.49 2.98c0,11.44 10.06,12.77 15.91,8.96 6.64,-4.33 5.17,-18.89 -5.98,-18.89 -4.99,0 -9.93,4.94 -9.93,9.93zm872.34 -24.83c0,-10.74 -0.37,-36.37 20.9,-20.89 9.26,6.74 6.92,2.8 6.92,24.86 0,5.04 -27.82,25.69 -27.82,-3.98zm10.93 32.78c39.74,0 43.33,-56.07 16.51,-71.14 -9.8,-5.5 -24.33,-5.44 -32.82,3.17 -1.19,1.2 -2.24,2.41 -3.33,3.63 -16.99,18.89 -7.89,64.34 19.65,64.34zm-858.43 -38.74c2.21,-1.48 2.75,-2.44 4.83,-4.12 2.07,-1.67 2.87,-1.9 4.89,-4.05 2.58,-2.76 5.5,-7.76 8.16,-9.71 2.61,1.75 16.85,15.74 24.84,17.88l-18.89 13.9c-2.32,1.8 -3.64,3.42 -5.96,4.98 -3.29,-2.2 -5.31,-6.65 -8.29,-9.6 -1.66,-1.65 -2.88,-2.12 -4.91,-4.03 -1.95,-1.85 -3.32,-3.19 -4.69,-5.24zm-18.87 -1.99c0,15.97 6.98,12.51 17.14,23.57l7.93 9.96c13.07,16.07 13.75,6.83 35.67,-9.57 29.62,-22.15 27.82,-22.09 -5.66,-47.25 -23.03,-17.31 -16.49,-21.23 -37.48,4.13 -5.23,6.31 -17.6,12 -17.6,19.15zm-553.42 59.59c0,-9.41 4.78,-24.14 10.17,-30.56 2.89,-3.46 5.19,-3.37 9.72,-2.31 5.75,1.35 6.07,0.07 7.61,5.4 7.58,26.39 13.31,42.99 -3.91,66.95 -1.98,2.75 -4.86,5.09 -5.7,8.21l-1.98 0c-0.7,-2.65 -3.75,-7.5 -5.3,-10.59 -5.2,-10.37 -10.6,-24.56 -10.6,-37.09zm24.85 -71.51c18.59,0 16.5,14.95 12.06,19.01 -1.52,1.39 -3.07,1.79 -5.48,2.49 -4.52,1.31 -8.8,2.03 -11.87,-1.3 -2.06,-2.22 -3.49,-7.06 -2.62,-11.14 1.1,-5.1 1.44,-9.06 7.92,-9.06zm30.79 1.99c4.03,-0.09 10.63,-2.33 15.48,-3.41 18.94,-4.2 47.66,-4.65 59.04,12.34 -3.65,5.46 -9.04,9.02 -15.3,11.52 -21.87,8.73 -38.36,2.28 -59.22,-2.58 0.03,-1.15 0.47,-4.17 0.47,-4.28 0.11,-4.56 -0.47,1.04 -0.47,-3.67l0 -9.93zm-54.64 4.97l1 17.87c-13.67,3.19 -30.22,14.93 -52.67,-0.98 -4.31,-3.06 -12.83,-10.75 -17.87,-11.93l17.67 -13.13c17.8,-12.02 34.37,-10.56 52.87,-0.79 -0.1,4.5 -1,3.95 -1,8.95zm24.84 -23.84c-2.88,0 -3.86,-0.13 -6.59,0.47 -4.41,0.97 -6.08,3.66 -12.61,-8.09 -18.2,-32.77 7.43,-64.95 9.27,-72.83 6.54,4.37 18.87,24.2 18.87,36.74 0,23.93 -4.67,25.43 -8.94,43.71zm-41.73 -36.76c0,20.22 -0.21,11.83 3.98,29.8 -14.6,-7 -44.15,3.37 -54.23,9.35 -11.02,6.54 -13.49,9.61 -22.01,15.75 -5.59,4.02 -5.23,3.87 -5.23,11.65 0,4.08 1.8,5.6 4.36,7.56l20.67 15.1c16.42,10.62 28.72,12.1 47.51,12.1 4.99,0 4.45,-0.9 8.94,-1 -4.26,18.25 -3.98,7.71 -3.98,28.81 0,12.05 6.31,29.59 10.59,38.09 2.83,5.61 4.93,10.53 8.09,15.75 3.29,5.43 6.09,12.71 12.13,12.71 6.69,0 19.44,-17.58 23.85,-23.83 16.64,-23.63 15.52,-47.78 6.22,-73.79 -5.79,-16.2 -1.54,-10.3 14.08,-5.14 25.28,8.35 65.72,1.54 82.8,-15.65 17.24,-17.36 -6.32,-32.66 -21.51,-37.67 -18.99,-6.26 -41.03,-9.62 -62.39,-2.5 -8.12,2.72 -17.93,9.06 -15.02,0.11 13.04,-40.11 14.31,-58.56 -14.43,-92.53 -14.29,-16.88 -17.65,-16.33 -33.83,17.24 -3.81,7.91 -10.59,27.26 -10.59,38.08zm542.49 190.71c0,-2.8 0.81,-10.28 1.38,-13.52 1.85,-10.7 8.24,-23.41 16.78,-29.96 8.4,-6.44 9.5,8.74 45.34,11.79 44.16,3.76 54.74,-24.76 68.63,-0.07 14.56,25.86 2.84,78.97 -29.98,100.13 -24.38,15.72 -63.6,7.71 -81.99,-14.01 -12.14,-14.34 -20.15,-35.35 -20.15,-54.34zm71.54 -197.66c21.03,0 42.26,10.94 52.92,21.59 29.94,29.92 30.22,76.39 0.48,106.3 -20.18,20.3 -56.39,29.45 -84.24,15.17 -19.77,-10.14 -32.66,-31.01 -35.49,-52.92 -2.87,-22.2 -0.5,-38.77 9.67,-58.39 5.94,-11.47 16.21,-19.44 27.51,-25.14 7.35,-3.71 18.56,-6.62 29.15,-6.62zm-77.5 114.22c0,6.92 -14.29,17.12 -19.86,19.88 -19.79,9.84 -41.41,10.59 -62.05,2.41 -55.22,-21.89 -48.83,-128.57 27.26,-128.57 16.68,0 33.78,5.35 45.43,15.19 17.98,15.2 3.43,14.56 3.25,40.42 -0.04,5.38 -0.75,7.2 -0.96,11.03 -0.32,5.99 2.4,23.49 4.14,30.51 0.3,1.22 2.8,8.89 2.8,9.13zm156.98 -86.41c3.7,-1 44.08,-33.78 69.55,-33.78 15.76,0 21.45,-0.83 35.22,9.49 19.86,14.9 21.16,35.31 22.41,59.05 0.28,5.29 1.25,9.1 1.02,15.92 -0.56,17.65 -1.26,39.8 -10.75,53.82 -21.57,31.88 -53.71,29.07 -83.63,11.67l-33.82 -21.81 8.58 -20.22c7.3,-22.36 5.18,-42.68 -3.89,-63.93 -0.89,-2.1 -1.02,-2.8 -2.15,-4.8l-2.54 -5.4zm-151.02 -74.5c0,-41.04 28.04,-77.47 72.53,-77.47 71.42,0 81.91,119.19 43.72,119.19 -1.98,0 -41.9,-24.51 -86.46,-1.01 -4.13,2.18 -5.86,5.43 -10.5,2.69 -12.19,-7.2 -19.29,-28.89 -19.29,-43.4zm-14.91 -7.94c0,20.3 -0.06,39.15 14.12,56.4 3.44,4.2 4.87,5.58 9.73,8.16 -1.39,2.61 -3.72,6.3 -5.97,7.94l-11.31 -10.53c-3.63,-2.75 -10.43,-6.53 -14.51,-8.34 -53.65,-23.76 -118.23,5.88 -118.23,77.47 0,66.43 63.43,99.09 118.96,74.23 4.3,-1.92 10.42,-5.27 13.88,-7.98 4.24,-3.31 8.6,-8.22 12.22,-10.64 0.7,2.64 3.43,5.66 4.97,7.95 -13.2,6.98 -23.85,29.19 -23.85,49.67l0 14.89c0,30.86 21.28,67.19 48.81,78.34 36.82,14.92 74.24,10.35 98.96,-22.98 18.08,-24.4 30.06,-65.88 16.17,-97.07 -7.67,-17.22 -14.37,-15.16 -15.9,-20.85 3.45,-0.92 6.04,-3.51 6.95,-6.95l45.04 28.47c37.1,18.69 76.37,13.04 99.47,-25.05 4.54,-7.5 7.59,-17.12 9.1,-27.67 0.85,-5.99 1.44,-11.3 1.38,-17.49 -0.07,-6.99 1.01,-10.33 1.01,-17.86 0,-22.37 -1.9,-51.11 -14.18,-68.28 -9.65,-13.48 -29.92,-31.05 -52.39,-31.05 -20,0 -24.94,2.21 -42.31,9.35 -14.76,6.08 -34.2,21.41 -46.11,29.38 -2.99,-2 -6.91,-5.04 -7.95,-8.94 6.65,-1.78 13.26,-12.89 15.94,-18.83 23.03,-51.06 -21.62,-157.31 -112.91,-120.82 -30.86,12.33 -51.08,48.04 -51.08,79.07zm-546.45 414.19c0,-23.3 5.35,-38.31 18.3,-56.2 2.27,-3.13 4.41,-6.22 6.83,-9.07l24.55 -26.11c7.4,4.96 22.94,23.91 29.57,32.01 16.71,20.39 43.48,60.09 20.89,83.98 -17.01,17.98 -65.56,24.91 -85.51,5.46 -8.09,-7.88 -14.63,-17.26 -14.63,-30.08zm1216.11 41.72c-17.29,0 -30.44,-2.02 -44.51,-10.13 -39.22,-22.61 -5.01,-69.64 13.15,-92.74 7.67,-9.76 15.95,-17.52 22.27,-25.42l4.04 -3.92c0.13,-0.11 0.43,-0.35 0.54,-0.45 0.11,-0.09 0.37,-0.29 0.55,-0.44l12.62 12.21c9.28,11.09 9.7,9.45 19.6,23.12 16.84,23.24 29.58,62.04 4.31,85.61 -6.71,6.26 -19.91,12.15 -32.56,12.15zm157.97 -91.38c-19.83,0 -39.59,-8.05 -48.71,-25.8 -9.51,-18.49 -3.32,-38.34 5,-55.66 2.6,1.91 12.95,20.87 26.82,20.87 26.29,0 103.69,-100.33 110.33,-44.76 0.74,6.16 0.7,6.95 4.85,10.06 17.13,12.79 18.3,-4.06 21.74,-7.21 14.48,-13.28 46.14,-18.81 57.43,9.52 5.35,13.44 5.37,24.58 7.16,40.52 5.88,52.29 34.44,62.56 78.81,46.64 8.54,-3.06 17.94,-9.46 18.74,-19.01 2.25,1.57 1.98,-0.69 1.98,6.95 0,17.2 -8.96,29.11 -18.71,36.92 -25.37,20.33 -76.81,18.09 -100.81,-5.84 -22.51,-22.44 -8.87,-45.98 -24.55,-45.98 -15.5,0 -3.73,32.67 -0.93,38.7 3.72,8 -1.66,18.11 -6.7,27.18 -6.41,11.54 -25.98,35.83 -37.09,38.41 -0.76,-2.89 -1.96,-4 -3.69,-6.25 -1.81,-2.36 -2.81,-4.07 -4.45,-6.48 -1.78,-2.63 -2.89,-3.7 -4.6,-6.32 -11.42,-17.48 -18.43,-32.58 -22.6,-53.89 -1.69,-8.62 -3.48,-9.78 1.78,-15.25 13.72,-14.26 16.98,-37.96 6.73,-37.96 -13.56,0 -8.15,7.46 -13.87,19.9 -2.4,5.2 -3.75,4.54 -7.06,7.84 -4.26,4.28 -15.28,26.89 -47.63,26.89zm-186.79 -173.82c0,-10.43 4.12,-23.18 10.17,-30.56 3.26,-3.98 4.59,-3.48 9.83,-2.41 6.6,1.37 6.42,0.91 10.6,16.29 4.98,18.28 7.16,31.56 -2.46,48.8 -2.63,4.72 -8.28,12.91 -12.25,15.57l-10.23 -21.55c-2.83,-7.24 -5.67,-16.54 -5.67,-26.13zm49.68 -11.91l0.85 1.13c5.3,7.72 12.39,19.37 18.75,25.95 5.33,5.51 18.93,19.66 26.1,21.58 -1.21,4.55 -1.3,1.82 -8.18,8.7l-53.17 48.16c-3.77,3.79 -4.84,4.77 -9.2,7.69l-57.88 -53.37c-2.58,-2.51 -3.14,-2.9 -5.85,-5.08l-21.71 -19.02c15.16,-1.26 29.81,-14.58 39.88,-22.71 2.07,-1.67 2.62,-2.63 4.82,-4.11 0,25.06 8.58,43.85 20.19,63.25 10.41,17.43 13.94,9.99 22.78,0.56 12.35,-13.19 21.92,-27.55 24.35,-46.18 1.47,-11.22 -1.54,-17.96 -1.74,-26.57zm0 0l0 0zm232.49 -99.33c17.76,0 33.44,12.8 40.05,28.5 15.92,37.74 -12.07,81.64 -52.8,70.67 -19.24,-5.19 -28.17,-21.04 -31.23,-40.3 -1.61,-10.14 -3.75,-3.02 -0.74,-13.12 1.43,-4.76 1.44,-9.72 3.09,-14.85 5.22,-16.24 20.17,-30.89 41.62,-30.89zm-257.33 39.73c7.71,0 14.13,1.72 14.68,10.11 0.53,7.99 -3.65,10.5 -10.49,12.06 -15.94,3.66 -16.34,-22.17 -4.19,-22.17zm-946.86 10.93l101.34 -73.5c2.33,-1.67 2.86,-2.52 5.55,-4.39 22.45,-15.54 60.33,-44.98 84.15,-62.87 41.59,-31.22 84.41,-60.04 127.69,-88.88 3.94,-2.63 7.53,-4.84 11.29,-7.59 4.02,-2.94 7.07,-5.67 11,-8.87l21.63 -18.11c3.8,1.01 79.85,55.91 91.41,63.56l68.97 47.27c7.8,5.68 15.19,10.06 23.01,15.74 7.82,5.69 14.69,10.56 22.67,16.07l76.98 58.13c3.87,3.06 7.05,5.88 10.93,8.94l20.84 17.9c2.72,2.17 39.21,32.62 41.87,36.61 -2.69,4.01 -11.29,9.97 -15.15,13.66l-84.78 70.2c-2.3,1.79 -3.22,2.69 -5.53,4.41l-136.38 96.08c-8.1,5.41 -14.81,10.48 -22.89,15.85l-80.03 56.07c-3.21,2.26 -8.08,6.92 -11.93,7.94l-21.09 -17.65c-8.29,-7.37 -13.09,-10.43 -22.22,-16.52l-115.65 -80.06c-35.2,-24.71 -77.41,-57.93 -112.55,-84.15l-79.79 -57.31c-2.91,-2.13 -9.83,-6.45 -11.35,-8.52zm-406.36 -1c2.8,-0.75 4.35,-2.49 6.67,-4.25 26.83,-20.32 52.76,-41.99 78.91,-63.15l70.55 -61.57c4.97,-3.96 29.61,-28.57 34.63,-31.93 0.39,0.27 57.77,53.77 70.54,63.57 4.16,3.19 7.89,7.01 12.34,10.5l102.51 77.3c7.72,5.16 8.07,4.19 12.32,10.54 -4.31,6.44 -18.84,14.72 -25.42,19.27l-51.51 37.9c-21.68,16.3 -40.93,33.43 -61.46,50.79l-47.64 42.76c-3.83,3.84 -7.37,8.29 -11.67,11.17l-51.42 -46.94c-2.53,-2.57 -3.3,-2.81 -5.92,-5 -2.23,-1.87 -3.33,-3.51 -5.56,-5.37 -2.61,-2.19 -3.39,-2.44 -5.93,-5.01l-59.66 -50.6c-6.89,-5.81 -57.31,-46.66 -62.29,-47.99l0 -1.98zm1384.02 -7.95c12.14,-1.01 12.03,-5.96 42.72,-5.96 11.97,0 26.98,7.71 31.79,14.91 -3.01,4.5 -7.8,8.08 -13.21,10.62 -20.54,9.59 -41.34,2.97 -61.3,-1.68l0 -17.88zm-53.65 22.84c-15.49,3.61 -30.46,14.95 -53.09,-1.56 -3.27,-2.39 -5.57,-3.93 -8.66,-6.25 -5.02,-3.78 -6.85,-3.5 -7.81,-7.09 4.05,-1.08 13.42,-9.26 17.67,-12.13 16.99,-11.47 34.35,-9.05 51.88,0.21 -0.44,5.19 -0.79,6.69 -0.7,13.06 0.01,1.14 -0.45,3.8 -0.26,6.69 0.24,3.95 0.86,2.68 0.96,7.06zm108.3 -98.33c4.52,1.2 22.52,17.43 26.08,20.6l39.5 32.03c5.16,3.95 35.87,29.51 40.72,30.8 -1.88,2.8 -22.06,18.04 -26.39,21.3l-72.73 59.39c-1.78,1.59 -5.46,4.57 -7.19,5.72 -0.78,-9.32 -19.43,-37.68 -27.67,-47.82 -1.94,-2.4 -3.41,-3.27 -5.12,-5.81 21.13,0 55.01,-4.6 67.18,-22.24 6.07,-8.8 2.39,-18.5 -5.4,-24.61 -15.17,-11.9 -39.65,-16.71 -60.78,-16.71 2.67,-3.99 6.48,-7.35 9.35,-11.51 7.03,-10.2 19.79,-29.75 22.44,-41.14zm-203.68 82.44c0,9.16 -1.29,7.51 11.07,16.75 11.04,8.26 29.72,21 44.57,21 -0.91,3.4 -1.41,3.11 -3.95,4.99 -2.06,1.53 -2.82,2.18 -4.77,4.17l-20.69 24.02c-2.22,2.71 -3.08,3.02 -3.37,6.56 -4.78,-1.11 -20.97,-15.29 -25.07,-18.65 -17.09,-14.04 -50.69,-37.8 -70.54,-50.66 -3.74,-2.44 -3.7,-2.33 -5.73,-6.18 3.37,-6.37 16,-12.59 24.68,-19.03 2.28,-1.69 4.03,-2.68 6.52,-4.41l62.77 -47.51c3.3,-2.68 2.93,-4.18 7.37,-4.55 0.54,6.49 11.12,15.92 14.9,20.86 5.05,6.59 13.55,12.4 17.89,18.87 -10.39,0.87 -25.01,7.74 -32.21,12.5 -4.76,3.14 -8.48,5.61 -12.73,9.13 -6.21,5.12 -10.7,6.24 -10.7,12.15zm119.22 -25.82c-10.88,0 -12.4,5.98 -19.23,-7.59 -8.72,-17.3 -8.53,-31.65 -1.22,-50.59l10.51 -22.27c6.69,4.48 18.87,24.3 18.87,36.75 0,22.8 -4.85,26.18 -8.94,43.7zm-41.73 -28.8c-5.7,-3.82 -17.44,-16.93 -30.79,-22.85 -4.51,-2 -9.69,-2.72 -13.92,-4.96 2.06,-3.08 2.36,-2.63 5.11,-4.83l81.33 -72.65c15.46,13.43 31.97,30.27 48.4,44l8.81 8.07c2.25,1.74 2.71,2.5 4.64,4.31 3.6,3.37 5.8,3.86 8.7,8.19 -6.99,3.7 -15.02,9.85 -20.64,15.12 -8.94,8.35 -26.06,34.81 -27.04,35.54 5.26,-22.6 4.33,-38.82 -9.33,-59.21 -3.09,-4.62 -17.87,-25.22 -24.45,-25.22 -5.61,0 -9.77,9.22 -12.36,13.48 -11.09,18.28 -18.44,37.2 -18.44,61.03zm334.83 -153.96c0,9.29 11.31,11.19 15.58,4.65 1.65,-2.52 1.13,-4.77 1.48,-8.45 3.06,-32.09 33.45,-52.82 64.41,-52.82 19.63,0 36.87,1.78 51.83,13.74 12.94,10.34 18.71,21.25 18.71,40.89 0,2.8 -0.43,1.84 -1.98,2.98 -1.71,-20.48 -38.57,-25.82 -54.65,-25.82 -29.6,0 -39.8,27.43 -42.91,52.46 -1.88,15.09 -1.32,28.29 -7.09,40.59 -2.46,5.26 -5.27,11.11 -9.44,14.41 -14.04,11.09 -31.99,7.46 -45.06,-2 -8.06,-5.83 -3.02,-3.81 -7.04,-9.86 -6.1,-9.2 -19.46,-0.01 -21.42,4.91 -2.2,5.48 -0.75,20.91 -13.41,22.27 -10.3,1.1 -27.19,-11.8 -34.62,-17.35 -3.31,-2.48 -6.24,-4.67 -9.48,-7.4 -11.04,-9.33 -40.83,-36.45 -52.96,-36.45 -7.29,0 -12.06,3.94 -16.49,7.36 -7.26,5.61 -7.18,10.46 -11.33,13.51 -8.34,-17.38 -14.23,-36.48 -5.33,-54.98 5.12,-10.63 14.47,-18.24 25.32,-22.37 24.67,-9.39 54.36,-2.53 68.57,18.61 6.95,10.34 6.91,5.04 10.14,12.72 3.05,7.24 1.69,19.21 11.58,19.21 13.57,0 6.14,-19.61 3.86,-25.71 -2.48,-6.61 -4.71,-7.95 -9.1,-12.77 -4.65,-5.11 -2.91,-6.46 -1.28,-14.73 3.3,-16.85 9.21,-32.57 17.87,-46.69l17.46 -26.24c6.89,1.6 15.81,11.37 20.63,16.13 7.66,7.58 29.17,36.52 23.49,48.79 -3.89,8.43 -7.36,18.62 -7.36,30.44zm-352.71 -76.48c0,-26.44 33.62,-38.74 52.66,-38.74 15,0 30.97,0.53 42.99,12.65 30.49,30.73 4.56,78.4 -19.89,102.81 -5.98,5.98 -11.57,13.9 -17.14,17.63 -1.07,-1.46 -0.96,-1.05 -1.9,-2.07 -0.13,-0.14 -0.34,-0.36 -0.48,-0.51l-1.89 -2.09c-1.82,-2 -3.01,-3.13 -4.91,-5.02l-17.79 -19.97c-13.35,-16.35 -31.65,-43.12 -31.65,-64.71zm-1103.83 94.36c-2.43,-3.62 -21.09,-21.25 -30.96,-34.61 -12.96,-17.54 -18.72,-33.43 -18.72,-56.77 0,-23.65 22.41,-41.72 45.7,-41.72 20.34,0 47.02,3.76 57.98,21.5 14.17,22.91 -3.61,52 -17.52,70.6 -7.3,9.75 -28.89,35.91 -36.49,41zm-1107.19 164.88c0,10.58 19.86,17.76 19.86,-1 0,-11.74 -19.86,-12.44 -19.86,1zm-79.48 -3.97c0,13.8 19.87,16.1 19.87,-0.99 0,-10.11 -19.87,-12.66 -19.87,0.99zm79.48 58.6c0,14.72 19.86,10.66 19.86,2.98 0,-8.12 0.34,-12.91 -9.93,-12.91 -5.35,0 -9.93,4.54 -9.93,9.93zm-79.48 2.98c0,11.44 10.06,12.77 15.91,8.96 6.65,-4.33 5.17,-18.89 -5.98,-18.89 -4.99,0 -9.93,4.94 -9.93,9.93zm872.34 -24.83c0,-10.74 -0.38,-36.37 20.89,-20.89 9.27,6.74 6.93,2.8 6.93,24.86 0,5.04 -27.82,25.69 -27.82,-3.98zm10.93 32.78c39.73,0 43.34,-56.07 16.51,-71.14 -9.8,-5.5 -24.33,-5.44 -32.83,3.17 -1.17,1.2 -2.23,2.41 -3.32,3.63 -16.99,18.89 -7.9,64.34 19.65,64.34zm-858.43 -38.74c2.21,-1.48 2.75,-2.44 4.83,-4.12 2.07,-1.67 2.87,-1.9 4.89,-4.05 2.59,-2.76 5.51,-7.76 8.17,-9.71 2.61,1.75 16.85,15.74 24.84,17.88l-18.89 13.9c-2.31,1.8 -3.63,3.42 -5.95,4.98 -3.29,-2.2 -5.31,-6.65 -8.28,-9.6 -1.67,-1.65 -2.89,-2.12 -4.91,-4.03 -1.95,-1.85 -3.32,-3.19 -4.7,-5.24zm-18.88 -1.99c0,15.97 6.99,12.51 17.15,23.57l7.92 9.96c13.08,16.07 13.75,6.83 35.67,-9.57 29.62,-22.15 27.82,-22.09 -5.66,-47.25 -23.02,-17.31 -16.49,-21.23 -37.48,4.13 -5.23,6.31 -17.6,12 -17.6,19.15zm-553.41 59.59c0,-9.41 4.78,-24.14 10.17,-30.56 2.9,-3.46 5.2,-3.37 9.72,-2.31 5.75,1.35 6.07,0.07 7.61,5.4 7.58,26.39 13.31,42.99 -3.92,66.95 -1.97,2.75 -4.85,5.09 -5.7,8.21l-1.98 0c-0.7,-2.65 -3.75,-7.5 -5.3,-10.59 -5.21,-10.37 -10.6,-24.56 -10.6,-37.09zm24.84 -71.51c18.59,0 16.5,14.95 12.06,19.01 -1.53,1.39 -3.08,1.79 -5.48,2.49 -4.52,1.31 -8.8,2.03 -11.88,-1.3 -2.05,-2.22 -3.49,-7.06 -2.61,-11.14 1.1,-5.1 1.44,-9.06 7.92,-9.06zm30.8 1.99c4.03,-0.09 10.63,-2.33 15.47,-3.41 18.94,-4.2 47.67,-4.65 59.04,12.34 -3.65,5.46 -9.04,9.02 -15.3,11.52 -21.87,8.73 -38.37,2.28 -59.22,-2.58 0.03,-1.15 0.46,-4.17 0.46,-4.28 0.12,-4.56 -0.46,1.04 -0.46,-3.67l0 -9.93zm-54.64 4.97l1 17.87c-13.67,3.19 -30.23,14.93 -52.68,-0.98 -4.31,-3.06 -12.83,-10.75 -17.87,-11.93l17.67 -13.13c17.8,-12.02 34.37,-10.56 52.87,-0.79 -0.1,4.5 -1,3.95 -1,8.95zm24.83 -23.84c-2.88,0 -3.86,-0.13 -6.59,0.47 -4.41,0.97 -6.09,3.66 -12.61,-8.09 -18.21,-32.77 7.43,-64.95 9.27,-72.83 6.53,4.37 18.87,24.2 18.87,36.74 0,23.93 -4.68,25.43 -8.94,43.71zm-41.73 -36.76c0,20.22 -0.21,11.83 3.98,29.8 -14.6,-7 -44.15,3.37 -54.24,9.35 -11.02,6.54 -13.48,9.61 -22,15.75 -5.59,4.02 -5.23,3.87 -5.23,11.65 0,4.08 1.8,5.6 4.35,7.56l20.66 15.1c16.42,10.62 28.72,12.1 47.52,12.1 4.98,0 4.44,-0.9 8.94,-1 -4.26,18.25 -3.98,7.71 -3.98,28.81 0,12.05 6.3,29.59 10.59,38.09 2.83,5.61 4.93,10.53 8.09,15.75 3.28,5.43 6.09,12.71 12.12,12.71 6.69,0 19.45,-17.58 23.86,-23.83 16.64,-23.63 15.52,-47.78 6.22,-73.79 -5.78,-16.2 -1.54,-10.3 14.09,-5.14 25.27,8.35 65.72,1.54 82.8,-15.65 17.24,-17.36 -6.32,-32.66 -21.52,-37.67 -18.99,-6.26 -41.03,-9.62 -62.38,-2.5 -8.12,2.72 -17.94,9.06 -15.02,0.11 13.04,-40.11 14.31,-58.56 -14.43,-92.53 -14.28,-16.88 -17.65,-16.33 -33.83,17.24 -3.81,7.91 -10.59,27.26 -10.59,38.08zm542.48 190.71c0,-2.8 0.81,-10.28 1.38,-13.52 1.85,-10.7 8.24,-23.41 16.78,-29.96 8.4,-6.44 9.5,8.74 45.34,11.79 44.16,3.76 54.74,-24.76 68.63,-0.07 14.56,25.86 2.84,78.97 -29.98,100.13 -24.38,15.72 -63.6,7.71 -81.99,-14.01 -12.14,-14.34 -20.16,-35.35 -20.16,-54.34zm71.54 -197.66c21.02,0 42.26,10.94 52.92,21.59 29.94,29.92 30.23,76.39 0.48,106.3 -20.18,20.3 -56.39,29.45 -84.23,15.17 -19.77,-10.14 -32.67,-31.01 -35.5,-52.92 -2.87,-22.2 -0.5,-38.77 9.67,-58.39 5.94,-11.47 16.21,-19.44 27.51,-25.14 7.34,-3.71 18.56,-6.62 29.15,-6.62zm-77.5 114.22c0,6.92 -14.3,17.12 -19.85,19.88 -19.79,9.84 -41.42,10.59 -62.06,2.41 -55.22,-21.89 -48.82,-128.57 27.26,-128.57 16.68,0 33.78,5.35 45.42,15.19 17.98,15.2 3.43,14.56 3.25,40.42 -0.04,5.38 -0.76,7.2 -0.96,11.03 -0.32,5.99 2.4,23.49 4.14,30.51 0.31,1.22 2.8,8.89 2.8,9.13zm156.98 -86.41c3.7,-1 44.08,-33.78 69.54,-33.78 15.76,0 21.46,-0.83 35.22,9.49 19.86,14.9 21.16,35.31 22.41,59.05 0.28,5.29 1.24,9.1 1.03,15.92 -0.57,17.65 -1.26,39.8 -10.75,53.82 -21.57,31.88 -53.71,29.07 -83.63,11.67l-33.82 -21.81 8.58 -20.22c7.3,-22.36 5.19,-42.68 -3.88,-63.93 -0.9,-2.1 -1.03,-2.8 -2.15,-4.8l-2.55 -5.4zm-151.02 -74.5c0,-41.04 28.04,-77.47 72.52,-77.47 71.43,0 81.92,119.19 43.72,119.19 -1.97,0 -41.91,-24.51 -86.46,-1.01 -4.13,2.18 -5.86,5.43 -10.5,2.69 -12.19,-7.2 -19.29,-28.89 -19.29,-43.4zm-14.91 -7.94c0,20.3 -0.06,39.15 14.13,56.4 3.44,4.2 4.87,5.58 9.73,8.16 -1.39,2.61 -3.73,6.3 -5.97,7.94l-11.32 -10.53c-3.63,-2.75 -10.43,-6.53 -14.51,-8.34 -53.65,-23.76 -118.24,5.88 -118.24,77.47 0,66.43 63.43,99.09 118.96,74.23 4.3,-1.92 10.42,-5.27 13.88,-7.98 4.24,-3.31 8.6,-8.22 12.21,-10.64 0.7,2.64 3.43,5.66 4.97,7.95 -13.21,6.98 -23.85,29.19 -23.85,49.67l0 14.89c0,30.86 21.28,67.19 48.81,78.34 36.82,14.92 74.24,10.35 98.96,-22.98 18.08,-24.4 30.06,-65.88 16.17,-97.07 -7.68,-17.22 -14.37,-15.16 -15.9,-20.85 3.44,-0.92 6.03,-3.51 6.95,-6.95l45.04 28.47c37.1,18.69 76.36,13.04 99.46,-25.05 4.54,-7.5 7.59,-17.12 9.09,-27.67 0.85,-5.99 1.44,-11.3 1.37,-17.49 -0.07,-6.99 1.01,-10.33 1.01,-17.86 0,-22.37 -1.89,-51.11 -14.17,-68.28 -9.65,-13.48 -29.91,-31.05 -52.39,-31.05 -20,0 -24.94,2.21 -42.31,9.35 -14.76,6.08 -34.2,21.41 -46.11,29.38 -3,-2 -6.91,-5.04 -7.95,-8.94 6.65,-1.78 13.26,-12.89 15.94,-18.83 23.02,-51.06 -21.62,-157.31 -112.91,-120.82 -30.85,12.33 -51.07,48.04 -51.07,79.07zm-546.45 414.19c0,-23.3 5.35,-38.31 18.3,-56.2 2.27,-3.13 4.41,-6.22 6.83,-9.07l24.54 -26.11c7.41,4.96 22.94,23.91 29.58,32.01 16.72,20.39 43.48,60.09 20.89,83.98 -17.01,17.98 -65.56,24.91 -85.52,5.46 -8.09,-7.88 -14.62,-17.26 -14.62,-30.08zm1216.11 41.72c-17.28,0 -30.44,-2.02 -44.51,-10.13 -39.22,-22.61 -5,-69.64 13.15,-92.74 7.67,-9.76 15.96,-17.52 22.27,-25.42l4.03 -3.92c0.14,-0.11 0.44,-0.35 0.55,-0.45 0.1,-0.09 0.37,-0.29 0.55,-0.44l12.62 12.21c9.27,11.09 9.7,9.45 19.6,23.12 16.83,23.24 29.58,62.04 4.31,85.61 -6.71,6.26 -19.91,12.15 -32.56,12.15zm157.98 -91.38c-19.83,0 -39.6,-8.05 -48.72,-25.8 -9.5,-18.49 -3.31,-38.34 5,-55.66 2.6,1.91 12.95,20.87 26.82,20.87 26.28,0 103.69,-100.33 110.33,-44.76 0.74,6.16 0.7,6.95 4.85,10.06 17.13,12.79 18.3,-4.06 21.73,-7.21 14.48,-13.28 46.14,-18.81 57.43,9.52 5.36,13.44 5.38,24.58 7.17,40.52 5.87,52.29 34.43,62.56 78.81,46.64 8.54,-3.06 17.94,-9.46 18.74,-19.01 2.25,1.57 1.98,-0.69 1.98,6.95 0,17.2 -8.96,29.11 -18.7,36.92 -25.37,20.33 -76.81,18.09 -100.8,-5.84 -22.51,-22.44 -8.88,-45.98 -24.56,-45.98 -15.5,0 -3.73,32.67 -0.92,38.7 3.72,8 -1.66,18.11 -6.7,27.18 -6.41,11.54 -25.98,35.83 -37.09,38.41 -0.77,-2.89 -1.97,-4 -3.69,-6.25 -1.8,-2.36 -2.81,-4.07 -4.44,-6.48 -1.77,-2.63 -2.89,-3.7 -4.6,-6.32 -11.42,-17.48 -18.43,-32.58 -22.61,-53.89 -1.68,-8.62 -3.46,-9.78 1.78,-15.25 13.72,-14.26 16.98,-37.96 6.74,-37.96 -13.56,0 -8.15,7.46 -13.87,19.9 -2.4,5.2 -3.76,4.54 -7.06,7.84 -4.26,4.28 -15.28,26.89 -47.63,26.89zm-186.79 -173.82c0,-10.43 4.12,-23.18 10.17,-30.56 3.26,-3.98 4.59,-3.48 9.83,-2.41 6.61,1.37 6.42,0.91 10.59,16.29 4.98,18.28 7.16,31.56 -2.45,48.8 -2.63,4.72 -8.28,12.91 -12.25,15.57l-10.24 -21.55c-2.83,-7.24 -5.66,-16.54 -5.66,-26.13zm49.68 -11.91l0.85 1.13c5.3,7.72 12.39,19.37 18.76,25.95 5.33,5.51 18.93,19.66 26.1,21.58 -1.22,4.55 -1.3,1.82 -8.19,8.7l-53.17 48.16c-3.76,3.79 -4.83,4.77 -9.19,7.69l-57.89 -53.37c-2.58,-2.51 -3.13,-2.9 -5.85,-5.08l-21.71 -19.02c15.16,-1.26 29.8,-14.58 39.88,-22.71 2.07,-1.67 2.62,-2.63 4.82,-4.11 0,25.06 8.58,43.85 20.19,63.25 10.42,17.43 13.94,9.99 22.78,0.56 12.34,-13.19 21.92,-27.55 24.34,-46.18 1.46,-11.22 -1.54,-17.96 -1.74,-26.57zm0 0l0 0zm232.49 -99.33c17.75,0 33.43,12.8 40.05,28.5 15.91,37.74 -12.08,81.64 -52.8,70.67 -19.24,-5.19 -28.17,-21.04 -31.23,-40.3 -1.61,-10.14 -3.74,-3.02 -0.73,-13.12 1.43,-4.76 1.44,-9.72 3.08,-14.85 5.22,-16.24 20.18,-30.89 41.63,-30.89zm-257.33 39.73c7.71,0 14.12,1.72 14.68,10.11 0.52,7.99 -3.65,10.5 -10.49,12.06 -15.95,3.66 -16.35,-22.17 -4.19,-22.17zm-946.86 10.93l101.35 -73.5c2.33,-1.67 2.86,-2.52 5.55,-4.39 22.44,-15.54 60.32,-44.98 84.15,-62.87 41.59,-31.22 84.41,-60.04 127.69,-88.88 3.94,-2.63 7.53,-4.84 11.28,-7.59 4.02,-2.94 7.08,-5.67 11,-8.87l21.63 -18.11c3.8,1.01 79.85,55.91 91.41,63.56l68.97 47.27c7.8,5.68 15.2,10.06 23.01,15.74 7.82,5.69 14.69,10.56 22.67,16.07l76.98 58.13c3.87,3.06 7.06,5.88 10.93,8.94l20.84 17.9c2.72,2.17 39.21,32.62 41.87,36.61 -2.69,4.01 -11.28,9.97 -15.15,13.66l-84.78 70.2c-2.3,1.79 -3.22,2.69 -5.53,4.41l-136.38 96.08c-8.11,5.41 -14.81,10.48 -22.9,15.85l-80.02 56.07c-3.21,2.26 -8.08,6.92 -11.93,7.94l-21.09 -17.65c-8.29,-7.37 -13.09,-10.43 -22.22,-16.52l-115.64 -80.06c-35.21,-24.71 -77.41,-57.93 -112.55,-84.15l-79.79 -57.31c-2.91,-2.13 -9.83,-6.45 -11.35,-8.52zm-406.36 -1c2.8,-0.75 4.35,-2.49 6.67,-4.25 26.83,-20.32 52.76,-41.99 78.91,-63.15l70.55 -61.57c4.97,-3.96 29.61,-28.57 34.62,-31.93 0.4,0.27 57.78,53.77 70.55,63.57 4.16,3.19 7.89,7.01 12.34,10.5l102.51 77.3c7.73,5.16 8.07,4.19 12.32,10.54 -4.31,6.44 -18.84,14.72 -25.42,19.27l-51.52 37.9c-21.67,16.3 -40.93,33.43 -61.46,50.79l-47.64 42.76c-3.83,3.84 -7.36,8.29 -11.68,11.17l-51.41 -46.94c-2.53,-2.57 -3.31,-2.81 -5.92,-5 -2.23,-1.87 -3.33,-3.51 -5.55,-5.37 -2.61,-2.19 -3.39,-2.44 -5.93,-5.01l-59.66 -50.6c-6.89,-5.81 -57.3,-46.66 -62.29,-47.99l0 -1.98zm1384.02 -7.95c12.15,-1.01 12.04,-5.96 42.73,-5.96 11.97,0 26.98,7.71 31.79,14.91 -3.01,4.5 -7.8,8.08 -13.22,10.62 -20.54,9.59 -41.33,2.97 -61.3,-1.68l0 -17.88zm-53.64 22.84c-15.49,3.61 -30.46,14.95 -53.09,-1.56 -3.28,-2.39 -5.58,-3.93 -8.66,-6.25 -5.02,-3.78 -6.85,-3.5 -7.81,-7.09 4.06,-1.08 13.43,-9.26 17.68,-12.13 16.98,-11.47 34.35,-9.05 51.88,0.21 -0.44,5.19 -0.8,6.69 -0.7,13.06 0.02,1.14 -0.44,3.8 -0.27,6.69 0.25,3.95 0.87,2.68 0.97,7.06zm108.29 -98.33c4.52,1.2 22.52,17.43 26.09,20.6l39.5 32.03c5.16,3.95 35.87,29.51 40.72,30.8 -1.88,2.8 -22.07,18.04 -26.39,21.3l-72.73 59.39c-1.78,1.59 -5.46,4.57 -7.19,5.72 -0.78,-9.32 -19.43,-37.68 -27.67,-47.82 -1.94,-2.4 -3.42,-3.27 -5.12,-5.81 21.13,0 55.01,-4.6 67.18,-22.24 6.07,-8.8 2.39,-18.5 -5.41,-24.61 -15.17,-11.9 -39.65,-16.71 -60.78,-16.71 2.68,-3.99 6.49,-7.35 9.35,-11.51 7.03,-10.2 19.78,-29.75 22.44,-41.14zm-203.68 82.44c0,9.16 -1.29,7.51 11.07,16.75 11.03,8.26 29.72,21 44.57,21 -0.91,3.4 -1.41,3.11 -3.94,4.99 -2.07,1.53 -2.83,2.18 -4.78,4.17l-20.69 24.02c-2.21,2.71 -3.08,3.02 -3.37,6.56 -4.79,-1.11 -20.97,-15.29 -25.07,-18.65 -17.09,-14.04 -50.69,-37.8 -70.54,-50.66 -3.74,-2.44 -3.7,-2.33 -5.73,-6.18 3.37,-6.37 16,-12.59 24.68,-19.03 2.29,-1.69 4.03,-2.68 6.52,-4.41l62.76 -47.51c3.31,-2.68 2.93,-4.18 7.38,-4.55 0.54,6.49 11.11,15.92 14.9,20.86 5.05,6.59 13.54,12.4 17.88,18.87 -10.39,0.87 -25,7.74 -32.2,12.5 -4.76,3.14 -8.49,5.61 -12.73,9.13 -6.2,5.12 -10.7,6.24 -10.7,12.15zm119.22 -25.82c-10.88,0 -12.4,5.98 -19.23,-7.59 -8.71,-17.3 -8.54,-31.65 -1.22,-50.59l10.52 -22.27c6.69,4.48 18.87,24.3 18.87,36.75 0,22.8 -4.85,26.18 -8.94,43.7zm-41.73 -28.8c-5.69,-3.82 -17.43,-16.93 -30.79,-22.85 -4.51,-2 -9.68,-2.72 -13.91,-4.96 2.07,-3.08 2.35,-2.63 5.1,-4.83l81.33 -72.65c15.46,13.43 31.97,30.27 48.39,44l8.81 8.07c2.25,1.74 2.71,2.5 4.64,4.31 3.6,3.37 5.8,3.86 8.7,8.19 -7,3.7 -15.01,9.85 -20.64,15.12 -8.94,8.35 -26.06,34.81 -27.05,35.54 5.28,-22.6 4.34,-38.82 -9.32,-59.21 -3.09,-4.62 -17.88,-25.22 -24.45,-25.22 -5.61,0 -9.78,9.22 -12.36,13.48 -11.09,18.28 -18.44,37.2 -18.44,61.03zm334.83 -153.96c0,9.29 11.3,11.19 15.58,4.65 1.65,-2.52 1.13,-4.77 1.48,-8.45 3.06,-32.09 33.45,-52.82 64.41,-52.82 19.63,0 36.87,1.78 51.83,13.74 12.95,10.34 18.7,21.25 18.7,40.89 0,2.8 -0.43,1.84 -1.98,2.98 -1.7,-20.48 -38.57,-25.82 -54.64,-25.82 -29.6,0 -39.8,27.43 -42.91,52.46 -1.88,15.09 -1.31,28.29 -7.08,40.59 -2.46,5.26 -5.28,11.11 -9.44,14.41 -14.04,11.09 -31.99,7.46 -45.06,-2 -8.06,-5.83 -3.01,-3.81 -7.04,-9.86 -6.1,-9.2 -19.46,-0.01 -21.42,4.91 -2.2,5.48 -0.75,20.91 -13.41,22.27 -10.3,1.1 -27.19,-11.8 -34.61,-17.35 -3.31,-2.48 -6.24,-4.67 -9.49,-7.4 -11.04,-9.33 -40.83,-36.45 -52.96,-36.45 -7.29,0 -12.06,3.94 -16.49,7.36 -7.26,5.61 -7.19,10.46 -11.33,13.51 -8.34,-17.38 -14.23,-36.48 -5.33,-54.98 5.11,-10.63 14.47,-18.24 25.32,-22.37 24.67,-9.39 54.36,-2.53 68.56,18.61 6.96,10.34 6.91,5.04 10.14,12.72 3.05,7.24 1.69,19.21 11.58,19.21 13.56,0 6.14,-19.61 3.85,-25.71 -2.47,-6.61 -4.71,-7.95 -9.09,-12.77 -4.65,-5.11 -2.91,-6.46 -1.29,-14.73 3.31,-16.85 9.22,-32.57 17.88,-46.69l17.47 -26.24c6.89,1.6 15.8,11.37 20.63,16.13 7.65,7.58 29.16,36.52 23.49,48.79 -3.9,8.43 -7.36,18.62 -7.36,30.44zm-352.72 -76.48c0,-26.44 33.62,-38.74 52.66,-38.74 15,0 30.97,0.53 42.99,12.65 30.49,30.73 4.56,78.4 -19.89,102.81 -5.98,5.98 -11.57,13.9 -17.14,17.63 -1.07,-1.46 -0.96,-1.05 -1.91,-2.07 -0.14,-0.14 -0.34,-0.36 -0.48,-0.51l-1.89 -2.09c-1.83,-2 -3.02,-3.13 -4.92,-5.02l-17.78 -19.97c-13.35,-16.35 -31.65,-43.12 -31.65,-64.71zm-1103.84 94.36c-2.42,-3.62 -21.08,-21.25 -30.95,-34.61 -12.96,-17.54 -18.72,-33.43 -18.72,-56.77 0,-23.65 22.41,-41.72 45.7,-41.72 20.34,0 47.02,3.76 57.98,21.5 14.17,22.91 -3.6,52 -17.51,70.6 -7.3,9.75 -28.89,35.91 -36.5,41zm-1114.74 164.88c0,10.58 19.87,17.76 19.87,-1 0,-11.74 -19.87,-12.44 -19.87,1zm-79.48 -3.97c0,13.8 19.87,16.1 19.87,-0.99 0,-10.11 -19.87,-12.66 -19.87,0.99zm79.48 58.6c0,14.72 19.87,10.66 19.87,2.98 0,-8.12 0.33,-12.91 -9.94,-12.91 -5.35,0 -9.93,4.54 -9.93,9.93zm-79.48 2.98c0,11.44 10.06,12.77 15.91,8.96 6.64,-4.33 5.17,-18.89 -5.98,-18.89 -5,0 -9.93,4.94 -9.93,9.93zm872.34 -24.83c0,-10.74 -0.38,-36.37 20.89,-20.89 9.26,6.74 6.93,2.8 6.93,24.86 0,5.04 -27.82,25.69 -27.82,-3.98zm10.93 32.78c39.74,0 43.34,-56.07 16.51,-71.14 -9.8,-5.5 -24.33,-5.44 -32.82,3.17 -1.18,1.2 -2.24,2.41 -3.33,3.63 -16.98,18.89 -7.89,64.34 19.65,64.34zm-858.43 -38.74c2.22,-1.48 2.75,-2.44 4.84,-4.12 2.07,-1.67 2.86,-1.9 4.89,-4.05 2.58,-2.76 5.5,-7.76 8.16,-9.71 2.61,1.75 16.86,15.74 24.84,17.88l-18.89 13.9c-2.31,1.8 -3.63,3.42 -5.96,4.98 -3.28,-2.2 -5.3,-6.65 -8.28,-9.6 -1.67,-1.65 -2.89,-2.12 -4.91,-4.03 -1.95,-1.85 -3.32,-3.19 -4.7,-5.24zm-18.87 -1.99c0,15.97 6.98,12.51 17.15,23.57l7.92 9.96c13.07,16.07 13.75,6.83 35.67,-9.57 29.61,-22.15 27.82,-22.09 -5.67,-47.25 -23.02,-17.31 -16.48,-21.23 -37.48,4.13 -5.23,6.31 -17.59,12 -17.59,19.15zm-553.41 59.59c0,-9.41 4.78,-24.14 10.17,-30.56 2.9,-3.46 5.19,-3.37 9.72,-2.31 5.75,1.35 6.07,0.07 7.6,5.4 7.59,26.39 13.31,42.99 -3.91,66.95 -1.98,2.75 -4.86,5.09 -5.7,8.21l-1.98 0c-0.7,-2.65 -3.75,-7.5 -5.3,-10.59 -5.2,-10.37 -10.59,-24.56 -10.59,-37.09zm24.84 -71.51c18.59,0 16.5,14.95 12.06,19.01 -1.52,1.39 -3.08,1.79 -5.48,2.49 -4.52,1.31 -8.8,2.03 -11.88,-1.3 -2.05,-2.22 -3.49,-7.06 -2.61,-11.14 1.1,-5.1 1.43,-9.06 7.91,-9.06zm30.8 1.99c4.02,-0.09 10.63,-2.33 15.47,-3.41 18.94,-4.2 47.67,-4.65 59.05,12.34 -3.66,5.46 -9.04,9.02 -15.3,11.52 -21.87,8.73 -38.37,2.28 -59.22,-2.58 0.03,-1.15 0.47,-4.17 0.47,-4.28 0.12,-4.56 -0.47,1.04 -0.47,-3.67l0 -9.93zm-54.64 4.97l0.99 17.87c-13.67,3.19 -30.22,14.93 -52.67,-0.98 -4.31,-3.06 -12.83,-10.75 -17.88,-11.93l17.68 -13.13c17.8,-12.02 34.37,-10.56 52.87,-0.79 -0.1,4.5 -0.99,3.95 -0.99,8.95zm24.84 -23.84c-2.88,0 -3.86,-0.13 -6.6,0.47 -4.41,0.97 -6.08,3.66 -12.61,-8.09 -18.2,-32.77 7.43,-64.95 9.27,-72.83 6.54,4.37 18.88,24.2 18.88,36.74 0,23.93 -4.68,25.43 -8.94,43.71zm-41.73 -36.76c0,20.22 -0.21,11.83 3.97,29.8 -14.59,-7 -44.15,3.37 -54.23,9.35 -11.02,6.54 -13.49,9.61 -22,15.75 -5.59,4.02 -5.23,3.87 -5.23,11.65 0,4.08 1.8,5.6 4.36,7.56l20.66 15.1c16.41,10.62 28.71,12.1 47.5,12.1 5,0 4.45,-0.9 8.94,-1 -4.25,18.25 -3.97,7.71 -3.97,28.81 0,12.05 6.31,29.59 10.59,38.09 2.83,5.61 4.93,10.53 8.09,15.75 3.28,5.43 6.09,12.71 12.12,12.71 6.69,0 19.45,-17.58 23.85,-23.83 16.64,-23.63 15.52,-47.78 6.22,-73.79 -5.79,-16.2 -1.54,-10.3 14.09,-5.14 25.27,8.35 65.71,1.54 82.8,-15.65 17.25,-17.36 -6.32,-32.66 -21.52,-37.67 -18.99,-6.26 -41.03,-9.62 -62.38,-2.5 -8.12,2.72 -17.93,9.06 -15.03,0.11 13.04,-40.11 14.32,-58.56 -14.42,-92.53 -14.29,-16.88 -17.66,-16.33 -33.83,17.24 -3.82,7.91 -10.59,27.26 -10.59,38.08zm542.48 190.71c0,-2.8 0.82,-10.28 1.38,-13.52 1.85,-10.7 8.24,-23.41 16.78,-29.96 8.39,-6.44 9.5,8.74 45.34,11.79 44.16,3.76 54.74,-24.76 68.63,-0.07 14.56,25.86 2.83,78.97 -29.98,100.13 -24.39,15.72 -63.6,7.71 -82,-14.01 -12.13,-14.34 -20.16,-35.35 -20.16,-54.34zm71.54 -197.66c21.02,0 42.26,10.94 52.91,21.59 29.94,29.92 30.22,76.39 0.49,106.3 -20.19,20.3 -56.4,29.45 -84.24,15.17 -19.77,-10.14 -32.66,-31.01 -35.5,-52.92 -2.86,-22.2 -0.5,-38.77 9.67,-58.39 5.94,-11.47 16.2,-19.44 27.5,-25.14 7.34,-3.71 18.57,-6.62 29.16,-6.62zm-77.5 114.22c0,6.92 -14.3,17.12 -19.86,19.88 -19.8,9.84 -41.42,10.59 -62.06,2.41 -55.21,-21.89 -48.82,-128.57 27.26,-128.57 16.68,0 33.78,5.35 45.42,15.19 17.98,15.2 3.43,14.56 3.25,40.42 -0.04,5.38 -0.75,7.2 -0.96,11.03 -0.32,5.99 2.41,23.49 4.15,30.51 0.3,1.22 2.8,8.89 2.8,9.13zm156.98 -86.41c3.7,-1 44.09,-33.78 69.55,-33.78 15.75,0 21.46,-0.83 35.21,9.49 19.86,14.9 21.16,35.31 22.41,59.05 0.28,5.29 1.25,9.1 1.03,15.92 -0.56,17.65 -1.26,39.8 -10.75,53.82 -21.57,31.88 -53.71,29.07 -83.63,11.67l-33.83 -21.81 8.58 -20.22c7.3,-22.36 5.19,-42.68 -3.88,-63.93 -0.9,-2.1 -1.03,-2.8 -2.15,-4.8l-2.55 -5.4zm-151.02 -74.5c0,-41.04 28.04,-77.47 72.53,-77.47 71.43,0 81.92,119.19 43.72,119.19 -1.97,0 -41.9,-24.51 -86.45,-1.01 -4.13,2.18 -5.87,5.43 -10.51,2.69 -12.18,-7.2 -19.29,-28.89 -19.29,-43.4zm-14.9 -7.94c0,20.3 -0.06,39.15 14.12,56.4 3.44,4.2 4.87,5.58 9.72,8.16 -1.39,2.61 -3.72,6.3 -5.96,7.94l-11.32 -10.53c-3.63,-2.75 -10.42,-6.53 -14.51,-8.34 -53.65,-23.76 -118.24,5.88 -118.24,77.47 0,66.43 63.44,99.09 118.97,74.23 4.3,-1.92 10.41,-5.27 13.88,-7.98 4.24,-3.31 8.6,-8.22 12.22,-10.64 0.7,2.64 3.43,5.66 4.97,7.95 -13.2,6.98 -23.85,29.19 -23.85,49.67l0 14.89c0,30.86 21.28,67.19 48.81,78.34 36.83,14.92 74.24,10.35 98.96,-22.98 18.08,-24.4 30.05,-65.88 16.17,-97.07 -7.67,-17.22 -14.37,-15.16 -15.89,-20.85 3.44,-0.92 6.03,-3.51 6.95,-6.95l45.04 28.47c37.1,18.69 76.37,13.04 99.47,-25.05 4.54,-7.5 7.59,-17.12 9.09,-27.67 0.85,-5.99 1.44,-11.3 1.38,-17.49 -0.07,-6.99 1.01,-10.33 1.01,-17.86 0,-22.37 -1.9,-51.11 -14.17,-68.28 -9.65,-13.48 -29.93,-31.05 -52.39,-31.05 -20,0 -24.95,2.21 -42.31,9.35 -14.77,6.08 -34.2,21.41 -46.12,29.38 -3,-2 -6.91,-5.04 -7.94,-8.94 6.65,-1.78 13.26,-12.89 15.94,-18.83 23.02,-51.06 -21.62,-157.31 -112.91,-120.82 -30.86,12.33 -51.07,48.04 -51.07,79.07zm-546.46 414.19c0,-23.3 5.35,-38.31 18.31,-56.2 2.26,-3.13 4.41,-6.22 6.82,-9.07l24.55 -26.11c7.41,4.96 22.94,23.91 29.58,32.01 16.71,20.39 43.47,60.09 20.88,83.98 -17,17.98 -65.56,24.91 -85.51,5.46 -8.09,-7.88 -14.63,-17.26 -14.63,-30.08zm1216.11 41.72c-17.28,0 -30.44,-2.02 -44.5,-10.13 -39.22,-22.61 -5.01,-69.64 13.15,-92.74 7.66,-9.76 15.95,-17.52 22.26,-25.42l4.04 -3.92c0.14,-0.11 0.44,-0.35 0.55,-0.45 0.11,-0.09 0.37,-0.29 0.54,-0.44l12.62 12.21c9.28,11.09 9.69,9.45 19.6,23.12 16.84,23.24 29.57,62.04 4.3,85.61 -6.71,6.26 -19.9,12.15 -32.56,12.15zm157.98 -91.38c-19.83,0 -39.59,-8.05 -48.71,-25.8 -9.51,-18.49 -3.31,-38.34 5,-55.66 2.61,1.91 12.96,20.87 26.82,20.87 26.29,0 103.7,-100.33 110.34,-44.76 0.73,6.16 0.69,6.95 4.85,10.06 17.13,12.79 18.3,-4.06 21.73,-7.21 14.48,-13.28 46.14,-18.81 57.43,9.52 5.36,13.44 5.37,24.58 7.17,40.52 5.88,52.29 34.43,62.56 78.81,46.64 8.54,-3.06 17.94,-9.46 18.74,-19.01 2.26,1.57 1.99,-0.69 1.99,6.95 0,17.2 -8.96,29.11 -18.7,36.92 -25.37,20.33 -76.81,18.09 -100.81,-5.84 -22.51,-22.44 -8.88,-45.98 -24.55,-45.98 -15.51,0 -3.73,32.67 -0.93,38.7 3.72,8 -1.65,18.11 -6.69,27.18 -6.41,11.54 -25.98,35.83 -37.09,38.41 -0.77,-2.89 -1.97,-4 -3.69,-6.25 -1.81,-2.36 -2.81,-4.07 -4.45,-6.48 -1.77,-2.63 -2.89,-3.7 -4.6,-6.32 -11.42,-17.48 -18.43,-32.58 -22.6,-53.89 -1.69,-8.62 -3.47,-9.78 1.78,-15.25 13.72,-14.26 16.99,-37.96 6.74,-37.96 -13.56,0 -8.15,7.46 -13.87,19.9 -2.39,5.2 -3.76,4.54 -7.06,7.84 -4.26,4.28 -15.28,26.89 -47.62,26.89zm-186.79 -173.82c0,-10.43 4.11,-23.18 10.17,-30.56 3.26,-3.98 4.59,-3.48 9.83,-2.41 6.61,1.37 6.42,0.91 10.6,16.29 4.97,18.28 7.16,31.56 -2.46,48.8 -2.63,4.72 -8.28,12.91 -12.24,15.57l-10.24 -21.55c-2.83,-7.24 -5.66,-16.54 -5.66,-26.13zm49.67 -11.91l0.85 1.13c5.3,7.72 12.39,19.37 18.75,25.95 5.33,5.51 18.94,19.66 26.1,21.58 -1.21,4.55 -1.3,1.82 -8.18,8.7l-53.17 48.16c-3.76,3.79 -4.83,4.77 -9.19,7.69l-57.89 -53.37c-2.58,-2.51 -3.14,-2.9 -5.85,-5.08l-21.72 -19.02c15.16,-1.26 29.81,-14.58 39.88,-22.71 2.08,-1.67 2.62,-2.63 4.83,-4.11 0,25.06 8.57,43.85 20.19,63.25 10.42,17.43 13.94,9.99 22.78,0.56 12.34,-13.19 21.92,-27.55 24.35,-46.18 1.46,-11.22 -1.54,-17.96 -1.74,-26.57zm0 0l0 0zm232.49 -99.33c17.76,0 33.43,12.8 40.06,28.5 15.91,37.74 -12.08,81.64 -52.8,70.67 -19.24,-5.19 -28.17,-21.04 -31.23,-40.3 -1.61,-10.14 -3.75,-3.02 -0.74,-13.12 1.42,-4.76 1.44,-9.72 3.08,-14.85 5.22,-16.24 20.18,-30.89 41.63,-30.89zm-257.33 39.73c7.72,0 14.12,1.72 14.69,10.11 0.52,7.99 -3.66,10.5 -10.49,12.06 -15.95,3.66 -16.35,-22.17 -4.19,-22.17zm-946.86 10.93l101.35 -73.5c2.33,-1.67 2.86,-2.52 5.55,-4.39 22.44,-15.54 60.33,-44.98 84.15,-62.87 41.58,-31.22 84.4,-60.04 127.69,-88.88 3.94,-2.63 7.53,-4.84 11.28,-7.59 4.02,-2.94 7.08,-5.67 11,-8.87l21.63 -18.11c3.8,1.01 79.85,55.91 91.41,63.56l68.97 47.27c7.81,5.68 15.2,10.06 23.01,15.74 7.82,5.69 14.69,10.56 22.68,16.07l76.97 58.13c3.87,3.06 7.06,5.88 10.93,8.94l20.85 17.9c2.71,2.17 39.2,32.62 41.87,36.61 -2.69,4.01 -11.29,9.97 -15.15,13.66l-84.78 70.2c-2.3,1.79 -3.22,2.69 -5.52,4.41l-136.38 96.08c-8.11,5.41 -14.81,10.48 -22.9,15.85l-80.02 56.07c-3.21,2.26 -8.07,6.92 -11.93,7.94l-21.09 -17.65c-8.28,-7.37 -13.09,-10.43 -22.22,-16.52l-115.64 -80.06c-35.21,-24.71 -77.41,-57.93 -112.55,-84.15l-79.79 -57.31c-2.91,-2.13 -9.83,-6.45 -11.35,-8.52zm-406.37 -1c2.8,-0.75 4.36,-2.49 6.68,-4.25 26.83,-20.32 52.76,-41.99 78.91,-63.15l70.55 -61.57c4.97,-3.96 29.61,-28.57 34.63,-31.93 0.39,0.27 57.78,53.77 70.55,63.57 4.15,3.19 7.89,7.01 12.34,10.5l102.5 77.3c7.73,5.16 8.07,4.19 12.33,10.54 -4.32,6.44 -18.85,14.72 -25.43,19.27l-51.51 37.9c-21.68,16.3 -40.94,33.43 -61.46,50.79l-47.64 42.76c-3.83,3.84 -7.37,8.29 -11.68,11.17l-51.41 -46.94c-2.53,-2.57 -3.31,-2.81 -5.93,-5 -2.23,-1.87 -3.32,-3.51 -5.55,-5.37 -2.61,-2.19 -3.39,-2.44 -5.92,-5.01l-59.67 -50.6c-6.89,-5.81 -57.3,-46.66 -62.29,-47.99l0 -1.98zm1384.02 -7.95c12.15,-1.01 12.03,-5.96 42.73,-5.96 11.96,0 26.98,7.71 31.79,14.91 -3.02,4.5 -7.8,8.08 -13.22,10.62 -20.54,9.59 -41.34,2.97 -61.3,-1.68l0 -17.88zm-53.65 22.84c-15.48,3.61 -30.46,14.95 -53.08,-1.56 -3.28,-2.39 -5.57,-3.93 -8.65,-6.25 -5.02,-3.78 -6.85,-3.5 -7.81,-7.09 4.05,-1.08 13.43,-9.26 17.67,-12.13 16.99,-11.47 34.36,-9.05 51.87,0.21 -0.43,5.19 -0.79,6.69 -0.7,13.06 0.02,1.14 -0.44,3.8 -0.26,6.69 0.25,3.95 0.86,2.68 0.96,7.06zm108.3 -98.33c4.52,1.2 22.52,17.43 26.09,20.6l39.5 32.03c5.17,3.95 35.88,29.51 40.72,30.8 -1.88,2.8 -22.06,18.04 -26.39,21.3l-72.74 59.39c-1.78,1.59 -5.46,4.57 -7.19,5.72 -0.78,-9.32 -19.43,-37.68 -27.67,-47.82 -1.94,-2.4 -3.41,-3.27 -5.11,-5.81 21.13,0 55.01,-4.6 67.18,-22.24 6.06,-8.8 2.39,-18.5 -5.41,-24.61 -15.16,-11.9 -39.65,-16.71 -60.78,-16.71 2.67,-3.99 6.49,-7.35 9.36,-11.51 7.03,-10.2 19.78,-29.75 22.44,-41.14zm-203.67 82.44c0,9.16 -1.29,7.51 11.06,16.75 11.04,8.26 29.72,21 44.58,21 -0.91,3.4 -1.41,3.11 -3.95,4.99 -2.06,1.53 -2.82,2.18 -4.77,4.17l-20.7 24.02c-2.21,2.71 -3.07,3.02 -3.37,6.56 -4.79,-1.11 -20.97,-15.29 -25.07,-18.65 -17.1,-14.04 -50.7,-37.8 -70.54,-50.66 -3.75,-2.44 -3.7,-2.33 -5.74,-6.18 3.37,-6.37 16.01,-12.59 24.69,-19.03 2.28,-1.69 4.03,-2.68 6.52,-4.41l62.76 -47.51c3.31,-2.68 2.94,-4.18 7.38,-4.55 0.54,6.49 11.11,15.92 14.9,20.86 5.05,6.59 13.55,12.4 17.89,18.87 -10.4,0.87 -25.01,7.74 -32.21,12.5 -4.75,3.14 -8.49,5.61 -12.73,9.13 -6.2,5.12 -10.69,6.24 -10.69,12.15zm119.22 -25.82c-10.88,0 -12.4,5.98 -19.24,-7.59 -8.71,-17.3 -8.53,-31.65 -1.22,-50.59l10.52 -22.27c6.69,4.48 18.87,24.3 18.87,36.75 0,22.8 -4.85,26.18 -8.94,43.7zm-41.73 -28.8c-5.7,-3.82 -17.44,-16.93 -30.8,-22.85 -4.5,-2 -9.69,-2.72 -13.92,-4.96 2.07,-3.08 2.36,-2.63 5.11,-4.83l81.33 -72.65c15.46,13.43 31.97,30.27 48.39,44l8.81 8.07c2.25,1.74 2.71,2.5 4.64,4.31 3.6,3.37 5.8,3.86 8.7,8.19 -7,3.7 -15.02,9.85 -20.65,15.12 -8.94,8.35 -26.05,34.81 -27.04,35.54 5.27,-22.6 4.34,-38.82 -9.33,-59.21 -3.09,-4.62 -17.88,-25.22 -24.45,-25.22 -5.61,0 -9.77,9.22 -12.35,13.48 -11.09,18.28 -18.44,37.2 -18.44,61.03zm334.83 -153.96c0,9.29 11.3,11.19 15.59,4.65 1.65,-2.52 1.13,-4.77 1.48,-8.45 3.06,-32.09 33.44,-52.82 64.41,-52.82 19.63,0 36.87,1.78 51.83,13.74 12.94,10.34 18.7,21.25 18.7,40.89 0,2.8 -0.43,1.84 -1.99,2.98 -1.7,-20.48 -38.57,-25.82 -54.65,-25.82 -29.59,0 -39.8,27.43 -42.91,52.46 -1.88,15.09 -1.32,28.29 -7.08,40.59 -2.47,5.26 -5.27,11.11 -9.44,14.41 -14.04,11.09 -31.99,7.46 -45.06,-2 -8.06,-5.83 -3.02,-3.81 -7.04,-9.86 -6.11,-9.2 -19.46,-0.01 -21.43,4.91 -2.19,5.48 -0.75,20.91 -13.41,22.27 -10.29,1.1 -27.19,-11.8 -34.61,-17.35 -3.31,-2.48 -6.24,-4.67 -9.48,-7.4 -11.04,-9.33 -40.83,-36.45 -52.97,-36.45 -7.29,0 -12.06,3.94 -16.49,7.36 -7.26,5.61 -7.18,10.46 -11.33,13.51 -8.34,-17.38 -14.22,-36.48 -5.32,-54.98 5.12,-10.63 14.47,-18.24 25.32,-22.37 24.67,-9.39 54.37,-2.53 68.57,18.61 6.95,10.34 6.9,5.04 10.13,12.72 3.05,7.24 1.69,19.21 11.58,19.21 13.57,0 6.13,-19.61 3.85,-25.71 -2.47,-6.61 -4.71,-7.95 -9.09,-12.77 -4.65,-5.11 -2.91,-6.46 -1.29,-14.73 3.3,-16.85 9.22,-32.57 17.88,-46.69l17.46 -26.24c6.89,1.6 15.81,11.37 20.63,16.13 7.66,7.58 29.17,36.52 23.49,48.79 -3.9,8.43 -7.36,18.62 -7.36,30.44zm-352.71 -76.48c0,-26.44 33.61,-38.74 52.67,-38.74 14.99,0 30.96,0.53 42.99,12.65 30.48,30.73 4.56,78.4 -19.9,102.81 -5.98,5.98 -11.56,13.9 -17.13,17.63 -1.07,-1.46 -0.95,-1.05 -1.91,-2.07 -0.13,-0.14 -0.34,-0.36 -0.48,-0.51l-1.89 -2.09c-1.82,-2 -3.02,-3.13 -4.92,-5.02l-17.78 -19.97c-13.35,-16.35 -31.65,-43.12 -31.65,-64.71zm-1103.84 94.36c-2.43,-3.62 -21.09,-21.25 -30.95,-34.61 -12.96,-17.54 -18.72,-33.43 -18.72,-56.77 0,-23.65 22.41,-41.72 45.7,-41.72 20.34,0 47.02,3.76 57.98,21.5 14.17,22.91 -3.6,52 -17.52,70.6 -7.3,9.75 -28.88,35.91 -36.49,41zm-1109.63 164.88c0,10.58 19.88,17.76 19.88,-1 0,-11.74 -19.88,-12.44 -19.88,1zm-79.48 -3.98c0,13.81 19.88,16.1 19.88,-0.99 0,-10.11 -19.88,-12.66 -19.88,0.99zm79.48 58.61c0,14.72 19.88,10.66 19.88,2.98 0,-8.12 0.33,-12.91 -9.94,-12.91 -5.35,0 -9.94,4.53 -9.94,9.93zm-79.48 2.98c0,11.44 10.07,12.76 15.91,8.96 6.64,-4.32 5.18,-18.89 -5.98,-18.89 -4.99,0 -9.94,4.94 -9.94,9.93zm-801.8 -24.83c0,-7.26 -0.79,-14.88 2.75,-21.09 5.98,-10.5 25.07,3.17 25.07,7.19l0 17.88c0,5.04 -27.82,25.69 -27.82,-3.98zm-16.89 -7.94c0,11.14 0.32,20.63 7.78,29.97 12.86,16.12 35.37,12.43 44.93,-0.14 16.22,-21.33 10.37,-59.33 -20.48,-64.11 -4.49,-0.69 -10.33,0.86 -13.52,2.31 -11.47,5.22 -18.7,17.93 -18.7,31.96zm1691.03 7.94c0,-10.74 -0.38,-36.37 20.89,-20.89 9.27,6.74 6.93,2.8 6.93,24.86 0,5.04 -27.82,25.69 -27.82,-3.98zm10.93 32.78c39.73,0 43.34,-56.07 16.51,-71.13 -9.8,-5.51 -24.33,-5.45 -32.83,3.17 -1.18,1.2 -2.24,2.41 -3.33,3.63 -16.99,18.89 -7.9,64.34 19.65,64.34zm-858.43 -38.74c2.21,-1.48 2.75,-2.44 4.82,-4.12 2.08,-1.67 2.87,-1.89 4.89,-4.04 2.58,-2.76 5.51,-7.77 8.17,-9.72 2.61,1.75 16.85,15.74 24.84,17.88l-18.89 13.9c-2.31,1.8 -3.64,3.42 -5.95,4.98 -3.29,-2.2 -5.31,-6.64 -8.28,-9.6 -1.66,-1.65 -2.88,-2.12 -4.91,-4.04 -1.95,-1.83 -3.32,-3.18 -4.69,-5.23zm-18.88 -1.99c0,15.97 6.99,12.51 17.15,23.57l7.92 9.96c13.08,16.06 13.75,6.83 35.68,-9.57 29.61,-22.15 27.81,-22.09 -5.66,-47.25 -23.02,-17.31 -16.49,-21.23 -37.48,4.12 -5.23,6.31 -17.6,12.01 -17.6,19.16zm-553.41 59.6c0,-9.41 4.78,-24.15 10.17,-30.57 2.9,-3.46 5.2,-3.37 9.72,-2.31 5.75,1.36 6.07,0.07 7.6,5.4 7.59,26.39 13.31,42.99 -3.9,66.95 -1.98,2.75 -4.87,5.08 -5.7,8.21l-1.98 0c-0.71,-2.65 -3.75,-7.5 -5.3,-10.59 -5.2,-10.37 -10.59,-24.56 -10.59,-37.08zm24.84 -71.52c18.59,0 16.51,14.95 12.06,19.01 -1.53,1.39 -3.08,1.79 -5.48,2.49 -4.52,1.31 -8.8,2.03 -11.88,-1.3 -2.06,-2.22 -3.49,-7.06 -2.61,-11.15 1.1,-5.1 1.43,-9.05 7.91,-9.05zm30.8 1.99c4.03,-0.09 10.63,-2.33 15.47,-3.41 18.93,-4.2 47.67,-4.65 59.04,12.34 -3.66,5.46 -9.04,9.02 -15.3,11.52 -21.87,8.73 -38.36,2.28 -59.22,-2.58 0.03,-1.15 0.46,-4.17 0.47,-4.27 0.11,-4.57 -0.47,1.04 -0.47,-3.67l0 -9.93zm-54.64 4.97l0.99 17.87c-13.67,3.19 -30.22,14.93 -52.67,-0.98 -4.31,-3.06 -12.83,-10.76 -17.87,-11.93l17.67 -13.13c17.8,-12.02 34.37,-10.56 52.87,-0.78 -0.1,4.49 -0.99,3.94 -0.99,8.94zm24.84 -23.84c-2.89,0 -3.86,-0.13 -6.59,0.47 -4.41,0.97 -6.09,3.65 -12.61,-8.09 -18.2,-32.77 7.43,-64.95 9.27,-72.83 6.54,4.37 18.88,24.2 18.88,36.74 0,23.93 -4.69,25.43 -8.94,43.7zm-41.73 -36.75c0,20.22 -0.21,11.83 3.98,29.8 -14.6,-7 -44.15,3.38 -54.23,9.35 -11.03,6.54 -13.49,9.61 -22.01,15.74 -5.59,4.03 -5.23,3.87 -5.23,11.65 0,4.07 1.8,5.6 4.35,7.56l20.66 15.1c16.42,10.62 28.72,12.1 47.51,12.1 4.99,0 4.45,-0.89 8.94,-0.99 -4.25,18.24 -3.98,7.7 -3.98,28.8 0,12.05 6.31,29.59 10.59,38.09 2.83,5.61 4.93,10.53 8.09,15.75 3.28,5.43 6.09,12.71 12.12,12.71 6.69,0 19.45,-17.58 23.85,-23.83 16.64,-23.63 15.52,-47.78 6.23,-73.79 -5.79,-16.19 -1.55,-10.3 14.08,-5.13 25.27,8.34 65.72,1.53 82.8,-15.66 17.25,-17.36 -6.32,-32.66 -21.5,-37.67 -18.99,-6.26 -41.04,-9.63 -62.39,-2.5 -8.12,2.71 -17.93,9.06 -15.02,0.11 13.03,-40.11 14.31,-58.56 -14.43,-92.53 -14.29,-16.88 -17.66,-16.34 -33.83,17.24 -3.81,7.91 -10.59,27.26 -10.59,38.08zm542.48 190.71c0,-2.8 0.81,-10.28 1.38,-13.52 1.86,-10.7 8.24,-23.41 16.79,-29.96 8.39,-6.44 9.5,8.74 45.33,11.79 44.16,3.76 54.74,-24.76 68.63,-0.07 14.55,25.86 2.83,78.97 -29.98,100.13 -24.38,15.72 -63.61,7.71 -81.99,-14.01 -12.14,-14.34 -20.16,-35.35 -20.16,-54.34zm71.54 -197.66c21.02,0 42.26,10.94 52.92,21.59 29.94,29.92 30.23,76.39 0.48,106.3 -20.18,20.29 -56.39,29.45 -84.23,15.17 -19.77,-10.14 -32.67,-31.01 -35.49,-52.92 -2.87,-22.2 -0.51,-38.77 9.67,-58.38 5.94,-11.47 16.2,-19.44 27.5,-25.15 7.35,-3.71 18.57,-6.62 29.16,-6.62zm-77.5 114.23c0,6.91 -14.3,17.11 -19.85,19.87 -19.79,9.84 -41.42,10.59 -62.06,2.41 -55.21,-21.89 -48.82,-128.57 27.26,-128.57 16.68,0 33.78,5.35 45.42,15.19 17.98,15.2 3.43,14.56 3.26,40.42 -0.04,5.38 -0.76,7.2 -0.96,11.02 -0.32,6 2.4,23.5 4.14,30.52 0.3,1.23 2.79,8.89 2.79,9.13zm156.98 -86.42c3.7,-0.99 44.09,-33.77 69.54,-33.77 15.76,0 21.46,-0.83 35.22,9.49 19.86,14.9 21.15,35.31 22.41,59.05 0.28,5.29 1.25,9.1 1.03,15.92 -0.57,17.65 -1.26,39.8 -10.75,53.82 -21.57,31.88 -53.71,29.07 -83.63,11.67l-33.82 -21.81 8.58 -20.22c7.3,-22.36 5.19,-42.68 -3.88,-63.93 -0.9,-2.1 -1.03,-2.8 -2.15,-4.8l-2.55 -5.41zm-151.02 -74.49c0,-41.04 28.04,-77.47 72.53,-77.47 71.43,0 81.92,119.19 43.72,119.19 -1.97,0 -41.9,-24.51 -86.45,-1.01 -4.13,2.18 -5.86,5.43 -10.5,2.69 -12.19,-7.2 -19.29,-28.89 -19.29,-43.4zm-14.91 -7.95c0,20.31 -0.06,39.16 14.13,56.41 3.44,4.19 4.87,5.58 9.72,8.15 -1.38,2.61 -3.72,6.31 -5.96,7.95l-11.32 -10.54c-3.63,-2.75 -10.43,-6.52 -14.52,-8.33 -53.64,-23.76 -118.22,5.88 -118.22,77.47 0,66.43 63.43,99.09 118.96,74.24 4.3,-1.92 10.42,-5.27 13.88,-7.98 4.24,-3.31 8.6,-8.22 12.21,-10.63 0.7,2.63 3.43,5.65 4.97,7.94 -13.2,6.98 -23.85,29.19 -23.85,49.67l0 14.89c0,30.85 21.28,67.19 48.81,78.35 36.82,14.91 74.24,10.35 98.96,-23 18.08,-24.39 30.06,-65.87 16.17,-97.07 -7.68,-17.22 -14.38,-15.16 -15.9,-20.86 3.44,-0.92 6.03,-3.51 6.95,-6.96l45.04 28.48c37.11,18.69 76.37,13.04 99.47,-25.06 4.54,-7.5 7.59,-17.11 9.09,-27.66 0.85,-5.99 1.44,-11.3 1.38,-17.49 -0.07,-6.98 1,-10.33 1,-17.87 0,-22.37 -1.89,-51.1 -14.18,-68.27 -9.65,-13.49 -29.92,-31.06 -52.39,-31.06 -20,0 -24.94,2.21 -42.3,9.35 -14.78,6.08 -34.21,21.41 -46.13,29.38 -2.99,-2 -6.9,-5.04 -7.94,-8.94 6.65,-1.78 13.26,-12.9 15.94,-18.83 23.02,-51.06 -21.62,-157.31 -112.91,-120.82 -30.85,12.33 -51.07,48.03 -51.07,79.06zm669.66 455.91c-17.29,0 -30.45,-2.01 -44.52,-10.13 -39.22,-22.61 -5,-69.64 13.15,-92.74 7.67,-9.75 15.96,-17.52 22.27,-25.41l4.04 -3.92c0.13,-0.11 0.43,-0.35 0.55,-0.45 0.11,-0.09 0.37,-0.29 0.54,-0.44l12.63 12.21c9.28,11.09 9.7,9.45 19.6,23.12 16.84,23.24 29.58,62.04 4.31,85.61 -6.71,6.26 -19.91,12.15 -32.56,12.15zm157.97 -91.38c-19.83,0 -39.6,-8.05 -48.72,-25.79 -9.5,-18.5 -3.31,-38.35 5,-55.66 2.61,1.91 12.96,20.85 26.83,20.85 26.28,0 103.69,-100.33 110.33,-44.74 0.74,6.15 0.69,6.94 4.85,10.05 17.13,12.79 18.3,-4.06 21.73,-7.21 14.48,-13.28 46.14,-18.81 57.43,9.52 5.36,13.44 5.38,24.58 7.17,40.52 5.87,52.29 34.43,62.56 78.81,46.64 8.54,-3.06 17.94,-9.46 18.74,-19.01 2.26,1.57 1.98,-0.69 1.98,6.95 0,17.2 -8.96,29.12 -18.7,36.92 -25.37,20.33 -76.81,18.09 -100.81,-5.84 -22.5,-22.45 -8.87,-45.98 -24.54,-45.98 -15.51,0 -3.73,32.67 -0.93,38.7 3.72,8 -1.66,18.11 -6.69,27.18 -6.41,11.54 -25.98,35.83 -37.09,38.41 -0.77,-2.88 -1.97,-4 -3.69,-6.25 -1.8,-2.36 -2.81,-4.06 -4.44,-6.48 -1.78,-2.63 -2.89,-3.7 -4.6,-6.32 -11.42,-17.48 -18.43,-32.57 -22.61,-53.88 -1.69,-8.62 -3.47,-9.78 1.78,-15.24 13.72,-14.27 16.99,-37.97 6.74,-37.97 -13.57,0 -8.15,7.46 -13.87,19.9 -2.4,5.2 -3.76,4.54 -7.06,7.84 -4.26,4.28 -15.28,26.89 -47.63,26.89zm-1581.74 71.52c-11.5,-3.07 -44.71,-41.83 -44.71,-61.58 0,-0.37 19.94,-42.72 0,-42.72 -13.85,0 -0.99,22.35 -24.09,45.45 -30.32,30.31 -96.62,27.09 -115.37,-12.3 -3.57,-7.5 -3.61,-15.47 -3.61,-26.19 4.75,5.46 3.42,13.38 18.44,19.31 23.3,9.2 51.87,13.93 68.73,-8.65 17.43,-23.33 9.07,-53.55 18.84,-76.52 6.49,-15.28 14.19,-21.55 31.11,-21.55 7.83,0 17.27,4.15 22.28,7.52 12.47,8.42 5.1,14.76 15.46,14.91 3.43,0.04 7.55,-2.15 10.41,-4.08 4.08,-2.76 4.17,-4.07 5.09,-9.81 0.89,-5.52 1.08,-7.78 3.37,-11.53 11.29,-18.53 46.8,13.97 58.79,23.71 2.12,1.72 2.9,2.86 5.24,4.69 21.58,16.96 39.41,38.08 58.48,19.56 1.98,-1.92 4.26,-4.03 5.86,-6.06 2.26,-2.86 2.79,-5.1 5.8,-7.11 0.9,3.86 3.43,7.76 4.85,12.03 1.56,4.7 3.17,9.04 3.83,14.05 7.37,56.34 -61.3,71 -93.41,37.75 -3.02,-3.13 -3.7,-5.46 -6.42,-8.47 -3.26,-3.61 -4.48,-2.72 -6.93,-7.97 -6.98,-14.94 -1.24,-20.57 -14.19,-20.57 -6.18,0 -6.94,7.76 -5.57,14.47 1.28,6.23 3.87,12.96 6.57,17.3 6.38,10.24 13.33,2.11 4.31,33.14 -8.94,30.73 -17.78,38.3 -33.14,61.23zm1394.95 -245.34c0,-10.43 4.12,-23.18 10.17,-30.57 3.26,-3.98 4.6,-3.48 9.83,-2.41 6.61,1.37 6.42,0.91 10.61,16.29 4.97,18.28 7.15,31.56 -2.46,48.8 -2.63,4.72 -8.28,12.91 -12.25,15.56l-10.23 -21.55c-2.83,-7.24 -5.67,-16.54 -5.67,-26.13zm49.68 -11.92l0.85 1.14c5.3,7.72 12.39,19.37 18.75,25.95 5.33,5.51 18.93,19.66 26.1,21.58 -1.21,4.55 -1.3,1.82 -8.18,8.71l-53.17 48.16c-3.76,3.79 -4.83,4.77 -9.2,7.7l-57.88 -53.38c-2.58,-2.51 -3.14,-2.9 -5.85,-5.08l-21.71 -19.02c15.16,-1.26 29.8,-14.57 39.88,-22.71 2.07,-1.67 2.62,-2.64 4.83,-4.11 0,25.07 8.57,43.85 20.19,63.26 10.42,17.43 13.95,9.99 22.78,0.56 12.35,-13.19 21.93,-27.55 24.35,-46.18 1.46,-11.22 -1.54,-17.96 -1.74,-26.57zm0 0l0 0zm232.49 -99.32c17.76,0 33.43,12.8 40.05,28.49 15.92,37.74 -12.08,81.64 -52.8,70.67 -19.24,-5.19 -28.17,-21.04 -31.23,-40.3 -1.61,-10.15 -3.75,-3.01 -0.74,-13.12 1.43,-4.76 1.44,-9.72 3.09,-14.85 5.22,-16.24 20.18,-30.89 41.63,-30.89zm-257.33 39.72c7.72,0 14.13,1.72 14.69,10.11 0.53,7.99 -3.65,10.5 -10.49,12.06 -15.95,3.65 -16.35,-22.17 -4.2,-22.17zm-946.85 10.93l101.35 -73.5c2.33,-1.67 2.86,-2.52 5.55,-4.38 22.44,-15.55 60.32,-44.99 84.15,-62.88 41.59,-31.23 84.4,-60.04 127.69,-88.88 3.94,-2.63 7.52,-4.84 11.28,-7.59 4.02,-2.94 7.08,-5.67 11,-8.87l21.63 -18.11c3.8,1.01 79.85,55.91 91.41,63.57l68.97 47.26c7.81,5.68 15.21,10.06 23.01,15.74 7.82,5.69 14.69,10.56 22.68,16.07l76.97 58.14c3.87,3.07 7.06,5.88 10.93,8.94l20.85 17.9c2.72,2.18 39.2,32.62 41.88,36.6 -2.69,4.02 -11.29,9.98 -15.15,13.66l-84.78 70.2c-2.3,1.8 -3.23,2.7 -5.52,4.41l-136.38 96.09c-8.11,5.4 -14.82,10.48 -22.9,15.84l-80.02 56.07c-3.21,2.26 -8.08,6.92 -11.93,7.94l-21.1 -17.65c-8.28,-7.37 -13.08,-10.43 -22.22,-16.52l-115.65 -80.06c-35.21,-24.72 -77.41,-57.93 -112.55,-84.15l-79.79 -57.31c-2.91,-2.13 -9.83,-6.45 -11.35,-8.52zm-406.36 -0.99c2.79,-0.75 4.35,-2.49 6.67,-4.25 26.83,-20.32 52.76,-41.99 78.91,-63.15l70.55 -61.57c4.97,-3.96 29.61,-28.57 34.62,-31.93 0.4,0.27 57.78,53.76 70.55,63.57 4.15,3.19 7.89,7.01 12.34,10.51l102.51 77.3c7.72,5.16 8.07,4.19 12.32,10.53 -4.31,6.45 -18.84,14.73 -25.43,19.28l-51.51 37.89c-21.68,16.3 -40.93,33.44 -61.46,50.8l-47.64 42.76c-3.83,3.85 -7.36,8.29 -11.68,11.18l-51.41 -46.94c-2.53,-2.57 -3.31,-2.81 -5.92,-5 -2.23,-1.87 -3.32,-3.5 -5.55,-5.37 -2.61,-2.19 -3.39,-2.44 -5.93,-5.01l-59.67 -50.61c-6.89,-5.81 -57.3,-46.65 -62.29,-47.98l0 -1.98zm-65.58 51.65c-19.19,0 -33.78,-13.33 -41.04,-30.48 -8.07,-19.02 -3.67,-39.69 8.38,-54.82 16.56,-20.77 46.45,-21.94 65.7,-0.37 3.78,4.24 6.63,9.72 8.57,15.26 2.47,7.05 1.56,11.39 2.74,15.2 3.61,11.65 1.07,-0.61 -0.71,13.41 -1.17,9.2 -4.55,19.39 -10.61,26.15 -8.2,9.16 -20.16,15.64 -33.04,15.64zm1449.6 -59.59c12.14,-1.01 12.03,-5.96 42.72,-5.96 11.96,0 26.98,7.71 31.79,14.9 -3.01,4.51 -7.8,8.09 -13.22,10.62 -20.54,9.6 -41.34,2.97 -61.3,-1.67l0 -17.88zm-53.65 22.84c-15.48,3.61 -30.46,14.95 -53.09,-1.56 -3.27,-2.39 -5.57,-3.93 -8.65,-6.25 -5.02,-3.78 -6.85,-3.5 -7.81,-7.09 4.05,-1.09 13.42,-9.26 17.67,-12.13 17,-11.47 34.36,-9.05 51.88,0.21 -0.43,5.19 -0.78,6.69 -0.7,13.06 0.02,1.14 -0.44,3.8 -0.26,6.69 0.25,3.95 0.86,2.68 0.96,7.06zm108.3 -98.33c4.52,1.2 22.52,17.42 26.09,20.6l39.5 32.03c5.17,3.94 35.88,29.51 40.73,30.8 -1.88,2.8 -22.07,18.04 -26.39,21.3l-72.73 59.39c-1.78,1.59 -5.46,4.57 -7.19,5.72 -0.78,-9.32 -19.42,-37.68 -27.67,-47.82 -1.95,-2.39 -3.42,-3.27 -5.12,-5.81 21.13,0 55.01,-4.61 67.18,-22.25 6.07,-8.8 2.39,-18.5 -5.41,-24.61 -15.17,-11.89 -39.65,-16.71 -60.78,-16.71 2.67,-3.98 6.49,-7.35 9.35,-11.5 7.03,-10.2 19.79,-29.75 22.44,-41.14zm-203.68 82.44c0,9.17 -1.29,7.51 11.06,16.75 11.04,8.26 29.72,21 44.57,21 -0.91,3.4 -1.4,3.11 -3.94,4.99 -2.07,1.53 -2.83,2.17 -4.78,4.17l-20.69 24.02c-2.22,2.71 -3.08,3.02 -3.37,6.56 -4.79,-1.11 -20.97,-15.28 -25.07,-18.64 -17.09,-14.04 -50.7,-37.8 -70.54,-50.66 -3.75,-2.44 -3.7,-2.33 -5.74,-6.19 3.37,-6.37 16.01,-12.57 24.69,-19.02 2.29,-1.69 4.03,-2.68 6.52,-4.41l62.76 -47.52c3.31,-2.67 2.93,-4.17 7.38,-4.54 0.54,6.49 11.11,15.92 14.9,20.86 5.05,6.59 13.55,12.4 17.88,18.87 -10.39,0.87 -25,7.74 -32.2,12.5 -4.76,3.14 -8.49,5.61 -12.74,9.13 -6.2,5.12 -10.7,6.24 -10.7,12.15zm119.22 -25.82c-10.88,0 -12.4,5.98 -19.23,-7.59 -8.71,-17.3 -8.53,-31.65 -1.22,-50.59l10.52 -22.27c6.69,4.48 18.88,24.3 18.88,36.75 0,22.8 -4.86,26.18 -8.94,43.7zm-41.73 -28.81c-5.7,-3.81 -17.44,-16.92 -30.79,-22.85 -4.51,-2 -9.69,-2.72 -13.92,-4.96 2.07,-3.08 2.35,-2.63 5.11,-4.83l81.33 -72.65c15.46,13.43 31.97,30.27 48.39,44l8.81 8.07c2.24,1.74 2.7,2.5 4.64,4.31 3.59,3.37 5.8,3.86 8.7,8.19 -7,3.7 -15.02,9.85 -20.65,15.11 -8.93,8.35 -26.05,34.82 -27.04,35.54 5.26,-22.59 4.34,-38.82 -9.33,-59.21 -3.09,-4.62 -17.88,-25.22 -24.46,-25.22 -5.61,0 -9.77,9.21 -12.36,13.47 -11.09,18.28 -18.44,37.19 -18.44,61.02zm-1423.76 -187.73c0,-10.35 10.82,-28.63 17.2,-36.44 4.65,-5.69 7.76,-8.86 12.85,-13.97 3.62,-3.63 10.37,-10.73 15.65,-11.17 2.13,7.96 23.89,27.61 32.4,61.98 1.32,5.34 3.89,13.86 4.12,18.73 0.16,3.48 -1.57,5.89 -3.56,7.87 -12.69,12.63 -18.52,37.57 -4.15,37.57 12.69,0 4.43,-16.11 17.59,-27.11 6.65,-5.55 13.68,-27.52 52.96,-27.52 28.58,0 53.07,21.42 48.42,54.36 -2.09,14.81 -7.15,20.53 -8.68,27.09l-8.09 -9.79c-22.13,-24.1 -37.9,-3.25 -68.55,21.57 -2.63,2.13 -4.83,4.07 -7.58,6.32 -9.5,7.76 -31.94,26.03 -44.52,21.27 -7.22,-2.73 -7.71,-10.43 -9.06,-17.83 -1.77,-9.69 -17.83,-19.37 -23.31,-5.81 -1.64,4.06 -3.5,6.01 -7.46,8.44 -19.31,11.91 -43.03,11.49 -52.6,-12.66 -4.96,-12.52 -6.3,-24.57 -7.32,-40.36 -1.59,-24.41 -14.51,-53.6 -41.76,-53.6 -16.42,0 -38.68,2.93 -49.96,14.61 -3.91,4.04 -4.35,8.78 -7.67,11.21 0,-21.43 4.7,-36.56 24.51,-48.02 37.3,-21.59 103.07,-6.96 109.49,38.22 0.43,3.09 0.77,8.67 1.54,11.37 2.03,7.09 10.66,7.91 14.54,2.45 6.93,-9.76 -7,-37.81 -7,-38.79zm1758.59 33.77c0,9.3 11.3,11.19 15.58,4.65 1.65,-2.52 1.13,-4.77 1.48,-8.45 3.06,-32.09 33.44,-52.82 64.41,-52.82 19.63,0 36.87,1.78 51.83,13.74 12.95,10.34 18.7,21.26 18.7,40.89 0,2.8 -0.43,1.84 -1.98,2.98 -1.7,-20.48 -38.57,-25.83 -54.65,-25.83 -29.59,0 -39.79,27.44 -42.91,52.46 -1.88,15.08 -1.32,28.29 -7.08,40.59 -2.46,5.26 -5.27,11.12 -9.44,14.41 -14.04,11.09 -31.99,7.46 -45.06,-2 -8.06,-5.83 -3.02,-3.81 -7.03,-9.86 -6.11,-9.2 -19.46,0 -21.43,4.91 -2.19,5.48 -0.74,20.91 -13.41,22.27 -10.29,1.1 -27.19,-11.8 -34.61,-17.35 -3.31,-2.47 -6.24,-4.67 -9.49,-7.4 -11.04,-9.33 -40.83,-36.45 -52.96,-36.45 -7.3,0 -12.06,3.94 -16.49,7.36 -7.26,5.61 -7.19,10.46 -11.33,13.5 -8.33,-17.37 -14.22,-36.47 -5.32,-54.98 5.12,-10.63 14.46,-18.23 25.31,-22.37 24.67,-9.4 54.37,-2.53 68.57,18.61 6.94,10.33 6.9,5.03 10.13,12.71 3.06,7.24 1.69,19.21 11.58,19.21 13.56,0 6.14,-19.61 3.86,-25.7 -2.48,-6.62 -4.71,-7.96 -9.1,-12.78 -4.65,-5.11 -2.91,-6.46 -1.29,-14.73 3.3,-16.85 9.22,-32.57 17.87,-46.69l17.47 -26.24c6.88,1.61 15.8,11.37 20.62,16.13 7.67,7.57 29.17,36.51 23.5,48.79 -3.9,8.43 -7.36,18.61 -7.36,30.43zm-352.72 -76.48c0,-26.45 33.62,-38.74 52.66,-38.74 15,0 30.96,0.52 42.99,12.65 30.49,30.74 4.56,78.4 -19.89,102.81 -5.98,5.98 -11.57,13.9 -17.15,17.63 -1.06,-1.46 -0.95,-1.05 -1.9,-2.07 -0.14,-0.15 -0.35,-0.36 -0.48,-0.51l-1.89 -2.09c-1.83,-2 -3.02,-3.13 -4.92,-5.02l-17.79 -19.97c-13.34,-16.35 -31.65,-43.12 -31.65,-64.71zm-1103.84 94.36c-2.42,-3.62 -21.08,-21.25 -30.96,-34.61 -12.95,-17.55 -18.72,-33.44 -18.72,-56.77 0,-23.65 22.41,-41.72 45.7,-41.72 20.34,0 47.02,3.76 57.98,21.49 14.17,22.92 -3.6,52.01 -17.52,70.61 -7.3,9.75 -28.89,35.91 -36.49,41z"/>
 </g>
</svg>
